<svg width="713" height="531" viewBox="0 0 713 531" fill="none" xmlns="http://www.w3.org/2000/svg">
<path d="M104.415 474.226C243.621 546.956 469.343 546.956 608.579 474.226C747.815 401.496 747.799 283.577 608.579 210.847C469.358 138.117 243.652 138.117 104.415 210.847C-34.8207 283.577 -34.7896 401.558 104.415 474.226Z" fill="#F5F5F5"/>
<path d="M96.5097 352.558C116.258 352.558 132.268 344.929 132.268 335.519C132.268 326.109 116.258 318.48 96.5097 318.48C76.761 318.48 60.7515 326.109 60.7515 335.519C60.7515 344.929 76.761 352.558 96.5097 352.558Z" fill="#EBEBEB"/>
<path d="M504.571 375.308C530.928 375.308 552.295 365.122 552.295 352.558C552.295 339.994 530.928 329.809 504.571 329.809C478.213 329.809 456.846 339.994 456.846 352.558C456.846 365.122 478.213 375.308 504.571 375.308Z" fill="#EBEBEB"/>
<path d="M647.246 258.961C647.246 258.961 650.933 247.57 662.931 235.433C668.221 230.08 671.676 226.346 670.571 223.156C669.575 220.339 666.214 218.877 661.406 221.148C654.575 224.385 649.969 230.391 647.246 242.451V258.961Z" fill="#046306"/>
<path opacity="0.1" d="M647.246 258.961C647.246 258.961 650.933 247.57 662.931 235.433C668.221 230.08 671.676 226.346 670.571 223.156C669.575 220.339 666.214 218.877 661.406 221.148C654.575 224.385 649.969 230.391 647.246 242.451V258.961Z" fill="black"/>
<path d="M646.483 251.803H646.343C646.193 251.763 646.065 251.665 645.986 251.531C645.908 251.397 645.885 251.238 645.923 251.087C650.202 234.562 661.265 224.323 665.949 221.958C666.09 221.891 666.251 221.882 666.399 221.931C666.547 221.981 666.67 222.085 666.743 222.222C666.808 222.361 666.817 222.519 666.768 222.665C666.718 222.81 666.615 222.93 666.478 223C661.95 225.288 651.229 235.246 647.059 251.383C647.021 251.506 646.945 251.613 646.841 251.689C646.737 251.765 646.612 251.805 646.483 251.803Z" fill="white"/>
<path d="M647.246 273.105C647.246 273.105 652.365 263.069 658.543 257.731C664.72 252.394 672.656 246.948 665.934 242.778C659.212 238.607 648.148 246.792 647.261 254.868L647.246 273.105Z" fill="#046306"/>
<path d="M646.483 265.963H646.359C646.209 265.926 646.08 265.832 645.999 265.701C645.918 265.57 645.89 265.413 645.923 265.263C648.833 252.814 659.274 245.781 662.744 244.614C662.887 244.584 663.036 244.608 663.163 244.682C663.289 244.756 663.383 244.873 663.428 245.013C663.472 245.152 663.463 245.303 663.403 245.436C663.343 245.569 663.236 245.675 663.102 245.734C659.99 246.792 649.813 253.717 647.059 265.527C647.025 265.653 646.95 265.764 646.846 265.843C646.741 265.922 646.614 265.964 646.483 265.963Z" fill="white"/>
<path d="M192.161 373.985C192.161 373.985 189.795 368.725 179.914 366.5C170.298 364.337 165.521 366.5 159.032 365.38C152.543 364.259 154.239 352.138 171.698 353.398C187.679 354.549 192.161 367.122 192.161 367.122V373.985Z" fill="#046306"/>
<path d="M193.11 371.091C192.997 371.088 192.887 371.053 192.793 370.989C192.699 370.926 192.626 370.837 192.581 370.733C191.025 367.014 185.268 360.945 177.161 359.093C167.093 356.806 161.74 359.093 161.693 359.093C161.554 359.14 161.403 359.134 161.268 359.075C161.133 359.016 161.025 358.909 160.965 358.775C160.905 358.641 160.897 358.49 160.942 358.35C160.988 358.21 161.083 358.093 161.211 358.02C161.444 357.926 166.984 355.514 177.41 357.895C186.419 359.949 192.161 366.547 193.655 370.235C193.685 370.305 193.702 370.381 193.702 370.458C193.703 370.534 193.689 370.61 193.66 370.681C193.631 370.752 193.588 370.817 193.534 370.871C193.479 370.925 193.415 370.968 193.344 370.997L193.11 371.091Z" fill="white"/>
<path d="M192.161 367.994C190.191 364.467 187.669 361.278 184.691 358.548C175.355 349.492 162.907 346.644 156.682 341.696C149.836 336.359 158.129 330.197 166.937 330.586C171.978 330.819 177.3 334.149 180.226 336.546C190.527 344.964 192.223 358.548 192.223 358.548L192.161 367.994Z" fill="#046306"/>
<path opacity="0.5" d="M192.161 367.994C190.191 364.467 187.669 361.278 184.691 358.548C175.355 349.492 162.907 346.644 156.682 341.696C149.836 336.359 158.129 330.197 166.937 330.586C171.978 330.819 177.3 334.149 180.226 336.546C190.527 344.964 192.223 358.548 192.223 358.548L192.161 367.994Z" fill="white"/>
<path d="M193.11 367.076C192.971 367.074 192.837 367.023 192.731 366.932C192.626 366.84 192.556 366.715 192.534 366.578C191.308 360.036 188.341 353.945 183.945 348.947C176.6 340.591 164.043 336.11 163.903 336.063C163.761 336.01 163.644 335.905 163.578 335.769C163.511 335.633 163.499 335.477 163.545 335.332C163.569 335.259 163.608 335.191 163.659 335.133C163.71 335.075 163.773 335.028 163.842 334.995C163.912 334.961 163.988 334.942 164.065 334.939C164.142 334.935 164.219 334.947 164.292 334.974C164.821 335.145 177.269 339.642 184.816 348.169C189.393 353.326 192.466 359.639 193.701 366.422C193.712 366.499 193.707 366.577 193.687 366.652C193.667 366.727 193.632 366.797 193.584 366.858C193.536 366.919 193.476 366.97 193.408 367.007C193.34 367.045 193.265 367.068 193.188 367.076H193.11Z" fill="white"/>
<path d="M405.714 464.703C405.714 464.703 408.359 459.568 418.349 457.872C428.059 456.222 432.711 458.572 439.263 457.872C445.814 457.171 444.755 444.894 427.25 445.221C411.238 445.516 406.087 457.825 406.087 457.825L405.714 464.703Z" fill="#046306"/>
<path opacity="0.1" d="M405.714 464.703C405.714 464.703 408.359 459.568 418.349 457.872C428.059 456.222 432.711 458.572 439.263 457.872C445.814 457.171 444.755 444.894 427.25 445.221C411.238 445.516 406.087 457.825 406.087 457.825L405.714 464.703Z" fill="black"/>
<path d="M404.952 462.244C404.83 462.239 404.712 462.202 404.61 462.135C404.547 462.092 404.493 462.036 404.452 461.972C404.411 461.907 404.383 461.835 404.37 461.76C404.357 461.685 404.359 461.608 404.376 461.533C404.394 461.459 404.425 461.388 404.47 461.326C408.189 456.004 414.958 451.99 422.598 450.652C432.417 448.893 438.159 452.005 438.408 452.208C438.474 452.244 438.532 452.294 438.58 452.353C438.627 452.413 438.662 452.481 438.683 452.554C438.704 452.627 438.71 452.703 438.702 452.779C438.693 452.854 438.67 452.927 438.633 452.994C438.596 453.06 438.547 453.118 438.487 453.166C438.428 453.213 438.36 453.248 438.287 453.269C438.214 453.29 438.138 453.296 438.062 453.288C437.987 453.279 437.914 453.256 437.847 453.219C437.847 453.219 432.199 450.185 422.8 451.865C415.471 453.172 408.967 456.985 405.435 462.058C405.372 462.121 405.297 462.171 405.214 462.203C405.13 462.236 405.041 462.25 404.952 462.244Z" fill="white"/>
<path d="M406.415 457.498C408.674 454.656 411.242 452.072 414.07 449.796C423.92 441.268 436.384 439.883 442.982 435.278C450.109 430.314 442.157 423.716 433.334 423.638C428.293 423.638 422.8 426.641 419.735 428.882C413.202 433.776 408.317 440.545 405.73 448.286L406.415 457.498Z" fill="#046306"/>
<path opacity="0.5" d="M406.415 457.498C408.674 454.656 411.242 452.072 414.07 449.796C423.92 441.268 436.384 439.883 442.982 435.278C450.109 430.314 442.157 423.716 433.334 423.638C428.293 423.638 422.8 426.641 419.735 428.882C413.202 433.776 408.317 440.545 405.73 448.286L406.415 457.498Z" fill="white"/>
<path d="M404.952 457.374H404.734C404.592 457.321 404.474 457.217 404.405 457.081C404.336 456.946 404.32 456.789 404.361 456.643C406.793 449.964 410.635 443.887 415.627 438.826C421.041 433.242 428.074 429.502 435.731 428.136C435.806 428.125 435.882 428.129 435.955 428.149C436.028 428.168 436.097 428.202 436.156 428.248C436.216 428.295 436.266 428.353 436.302 428.419C436.339 428.486 436.362 428.558 436.369 428.634C436.38 428.711 436.375 428.789 436.355 428.864C436.335 428.939 436.3 429.009 436.252 429.07C436.204 429.131 436.144 429.182 436.076 429.219C436.008 429.256 435.933 429.28 435.856 429.287C428.484 430.686 421.714 434.302 416.452 439.651C411.617 444.573 407.902 450.48 405.559 456.969C405.518 457.095 405.436 457.203 405.326 457.276C405.216 457.35 405.084 457.384 404.952 457.374Z" fill="white"/>
<path d="M255.354 375.291V257.731H192.163V375.307C192.163 379.975 195.275 384.643 201.499 388.191C213.839 395.318 233.849 395.318 246.189 388.191C252.413 384.628 255.432 379.975 255.448 375.307L255.354 375.291Z" fill="#37474F"/>
<path d="M201.421 271.425C189.066 264.298 189.066 252.752 201.421 245.61C213.776 238.467 233.771 238.483 246.111 245.61C258.45 252.736 258.45 264.282 246.111 271.425C233.771 278.567 213.76 278.536 201.421 271.425Z" fill="#455A64"/>
<path d="M331.212 419.094V333.511H268.004V419.094C268.004 423.763 271.117 428.431 277.341 431.979C289.68 439.105 309.691 439.105 322.031 431.979C328.255 428.431 331.289 423.763 331.289 419.094H331.212Z" fill="#37474F"/>
<path d="M277.263 347.22C264.924 340.094 264.924 328.548 277.263 321.405C289.603 314.263 309.614 314.279 321.953 321.405C334.293 328.532 334.309 340.078 321.953 347.22C309.598 354.363 289.587 354.409 277.263 347.22Z" fill="#455A64"/>
<path d="M407.07 462.882V396.423H343.863V462.898C343.863 467.566 346.975 472.234 353.199 475.798C365.539 482.924 385.55 482.924 397.889 475.798C404.113 472.234 407.132 467.566 407.148 462.898L407.07 462.882Z" fill="#37474F"/>
<path d="M375.466 415.438C392.921 415.438 407.07 407.266 407.07 397.185C407.07 387.105 392.921 378.933 375.466 378.933C358.012 378.933 343.863 387.105 343.863 397.185C343.863 407.266 358.012 415.438 375.466 415.438Z" fill="#455A64"/>
<path d="M188.117 416.745L173.194 408.14L181.457 397.434C182.515 396.065 182.017 395.318 180.352 395.738L160.559 400.842L145.636 392.221C144.383 391.584 142.996 391.252 141.59 391.252C140.184 391.252 138.798 391.584 137.545 392.221L114.033 405.759C111.792 407.05 111.792 409.135 114.033 410.427L156.513 434.95C157.767 435.587 159.153 435.919 160.559 435.919C161.965 435.919 163.351 435.587 164.605 434.95L188.117 421.366C190.342 420.121 190.342 418.036 188.117 416.745Z" fill="#046306"/>
<path d="M164.247 411.47C164.49 411.446 164.735 411.446 164.979 411.47C165.22 411.5 165.453 411.58 165.663 411.703L167.795 412.932C167.939 413.002 168.05 413.125 168.106 413.275C168.106 413.399 168.106 413.508 167.888 413.586C167.837 413.6 167.784 413.6 167.733 413.586C167.656 413.604 167.576 413.604 167.499 413.586L137.934 415.92H137.094C136.851 415.884 136.619 415.799 136.409 415.671L134.278 414.442C134.134 414.372 134.022 414.249 133.966 414.099C133.966 413.975 133.966 413.866 134.184 413.788C134.235 413.774 134.289 413.774 134.34 413.788H134.573L164.247 411.47ZM154.724 409.493C154.092 409.916 153.431 410.296 152.748 410.629C152.196 410.91 151.617 411.134 151.021 411.299C150.395 411.457 149.752 411.535 149.107 411.532C147.666 411.535 146.252 411.148 145.014 410.412C144.424 410.122 143.895 409.721 143.458 409.229C143.175 408.905 143.015 408.492 143.007 408.062C143.013 407.656 143.162 407.264 143.427 406.957C143.737 406.555 144.116 406.213 144.548 405.946C144.843 405.732 145.149 405.535 145.466 405.354C145.761 405.183 146.119 404.996 146.508 404.81C147.068 404.528 147.658 404.308 148.266 404.156C149.559 403.835 150.911 403.835 152.203 404.156C152.922 404.351 153.613 404.639 154.257 405.012C154.819 405.305 155.316 405.707 155.72 406.195C156.007 406.517 156.172 406.93 156.187 407.362C156.167 407.765 156.02 408.152 155.767 408.466C155.482 408.867 155.129 409.215 154.724 409.493ZM157.665 421.662C157.062 422.112 156.428 422.517 155.767 422.876C155.211 423.155 154.627 423.374 154.024 423.529C153.401 423.701 152.756 423.785 152.11 423.778C151.421 423.775 150.736 423.681 150.072 423.498C149.351 423.315 148.66 423.032 148.018 422.658C147.462 422.355 146.967 421.955 146.555 421.475C146.268 421.148 146.108 420.728 146.104 420.293C146.116 419.89 146.258 419.503 146.508 419.188C146.825 418.791 147.21 418.454 147.644 418.192C147.933 417.97 148.24 417.772 148.562 417.601C148.898 417.397 149.246 417.215 149.605 417.056C150.16 416.774 150.744 416.555 151.347 416.402C151.974 416.249 152.616 416.165 153.261 416.153C154.697 416.153 156.105 416.54 157.338 417.274C157.932 417.558 158.461 417.961 158.894 418.456C159.169 418.771 159.32 419.175 159.32 419.592C159.32 420.01 159.169 420.414 158.894 420.728C158.54 421.107 158.125 421.423 157.665 421.662ZM147.753 407.657C147.444 407.832 147.19 408.091 147.022 408.404C147.022 408.622 147.022 408.84 147.473 409.058C147.809 409.262 148.201 409.354 148.593 409.322C149.045 409.251 149.482 409.104 149.885 408.887C150.475 408.604 151.042 408.276 151.581 407.906C151.898 407.736 152.157 407.476 152.328 407.159C152.328 406.942 152.25 406.724 151.877 406.506C151.536 406.3 151.136 406.212 150.741 406.257C150.294 406.32 149.862 406.462 149.465 406.677C148.87 406.936 148.298 407.243 147.753 407.595V407.657ZM150.71 419.826C150.393 419.996 150.133 420.256 149.963 420.573C149.963 420.775 149.963 420.993 150.414 421.211C150.75 421.428 151.152 421.521 151.55 421.475C151.995 421.405 152.426 421.263 152.826 421.055C153.422 420.776 153.995 420.448 154.537 420.075C154.851 419.905 155.106 419.645 155.269 419.328C155.269 419.11 155.269 418.892 154.818 418.674C154.481 418.47 154.089 418.378 153.697 418.41C153.25 418.479 152.818 418.627 152.421 418.845C151.827 419.105 151.254 419.412 150.71 419.763V419.826Z" fill="white"/>
<path d="M270.308 464.174L255.354 455.553L263.616 444.863C264.659 443.494 264.161 442.731 262.496 443.167L242.703 448.255L227.78 439.65C226.53 439.013 225.146 438.681 223.742 438.681C222.339 438.681 220.955 439.013 219.704 439.65L196.224 453.219C193.998 454.51 193.998 456.611 196.224 457.887L238.704 482.426C239.96 483.056 241.345 483.384 242.75 483.384C244.154 483.384 245.54 483.056 246.795 482.426L270.308 468.842C272.548 467.55 272.548 465.465 270.308 464.174Z" fill="#046306"/>
<path d="M246.438 458.899H247.185C247.427 458.938 247.659 459.022 247.87 459.148L249.986 460.377C250.173 460.486 250.282 460.595 250.297 460.719C250.313 460.844 250.297 460.937 250.095 461.031C250.044 461.042 249.99 461.042 249.939 461.031H249.706L220.141 463.365C219.892 463.389 219.642 463.389 219.394 463.365C219.151 463.33 218.917 463.246 218.709 463.116L216.593 461.902C216.406 461.793 216.297 461.669 216.282 461.56C216.277 461.491 216.293 461.422 216.33 461.363C216.366 461.305 216.42 461.259 216.484 461.233H216.64H216.873L246.438 458.899ZM236.915 456.923C236.29 457.348 235.635 457.728 234.954 458.058C234.398 458.338 233.814 458.557 233.212 458.712C232.588 458.883 231.944 458.967 231.298 458.961C230.609 458.958 229.923 458.864 229.259 458.681C228.539 458.498 227.847 458.215 227.205 457.841C226.646 457.538 226.145 457.137 225.727 456.658C225.445 456.344 225.289 455.937 225.289 455.514C225.289 455.092 225.445 454.685 225.727 454.371C226.042 453.978 226.42 453.641 226.847 453.375C227.141 453.159 227.448 452.962 227.765 452.783C228.108 452.583 228.461 452.401 228.823 452.239C229.378 451.957 229.963 451.738 230.566 451.585C231.573 451.329 232.621 451.274 233.649 451.423C234.677 451.573 235.665 451.924 236.557 452.457C237.12 452.754 237.621 453.156 238.035 453.639C238.321 453.961 238.482 454.376 238.487 454.806C238.475 455.211 238.327 455.6 238.066 455.911C237.748 456.316 237.357 456.659 236.915 456.923ZM239.872 469.091C239.24 469.514 238.579 469.894 237.895 470.227C237.346 470.509 236.767 470.728 236.168 470.88C235.542 471.038 234.899 471.117 234.254 471.114C232.814 471.117 231.399 470.73 230.162 469.993C229.6 469.701 229.099 469.305 228.683 468.826C228.396 468.499 228.236 468.079 228.232 467.644C228.25 467.24 228.397 466.853 228.652 466.539C228.966 466.141 229.345 465.799 229.773 465.528C230.084 465.31 230.395 465.123 230.691 464.936C230.986 464.75 231.344 464.578 231.733 464.392C232.294 464.11 232.883 463.89 233.492 463.738C234.12 463.595 234.761 463.517 235.406 463.505C236.089 463.503 236.769 463.592 237.429 463.769C238.151 463.955 238.842 464.243 239.483 464.625C240.045 464.923 240.547 465.324 240.961 465.808C241.242 466.119 241.397 466.524 241.397 466.944C241.397 467.363 241.242 467.768 240.961 468.079C240.656 468.475 240.288 468.817 239.872 469.091ZM229.959 455.086C229.643 455.257 229.383 455.517 229.213 455.833C229.213 456.036 229.29 456.253 229.664 456.471C230 456.689 230.402 456.782 230.8 456.736C231.244 456.663 231.675 456.521 232.076 456.316C232.676 456.037 233.249 455.704 233.787 455.32C234.098 455.154 234.353 454.899 234.519 454.588C234.519 454.371 234.441 454.153 234.067 453.935C233.734 453.724 233.34 453.63 232.947 453.67C232.494 453.739 232.057 453.887 231.656 454.106C231.066 454.365 230.499 454.672 229.959 455.024V455.086ZM232.9 467.255C232.596 467.429 232.344 467.682 232.169 467.986C232.169 468.204 232.247 468.422 232.62 468.64C232.953 468.851 233.348 468.944 233.741 468.904C234.191 468.834 234.627 468.692 235.032 468.484C235.621 468.194 236.188 467.861 236.728 467.488C237.04 467.318 237.298 467.065 237.475 466.757C237.553 466.539 237.475 466.321 237.024 466.103C236.685 465.893 236.285 465.8 235.888 465.839C235.443 465.911 235.013 466.053 234.612 466.259C234.022 466.533 233.45 466.845 232.9 467.193V467.255Z" fill="white"/>
<path d="M352.436 511.571L337.514 502.966L345.792 492.245C346.835 490.891 346.337 490.129 344.672 490.565L324.879 495.653L309.956 487.048C308.702 486.411 307.316 486.079 305.91 486.079C304.504 486.079 303.118 486.411 301.865 487.048L278.352 500.679C276.127 501.971 276.127 504.071 278.352 505.347L320.833 529.886C322.089 530.516 323.474 530.844 324.879 530.844C326.283 530.844 327.669 530.516 328.924 529.886L352.436 516.24C354.677 514.995 354.677 512.91 352.436 511.571Z" fill="#046306"/>
<path d="M328.566 506.343H329.297C329.54 506.379 329.773 506.464 329.982 506.592L332.114 507.821C332.301 507.93 332.41 508.039 332.425 508.164C332.441 508.288 332.425 508.381 332.223 508.475H332.067H331.834L302.269 510.809C302.025 510.833 301.781 510.833 301.537 510.809C301.294 510.777 301.06 510.692 300.853 510.56L298.736 509.346C298.55 509.237 298.441 509.113 298.425 509.004C298.42 508.935 298.437 508.866 298.473 508.808C298.51 508.749 298.564 508.703 298.628 508.677H298.783C298.86 508.659 298.94 508.659 299.017 508.677L328.566 506.343ZM319.043 504.367C318.415 504.796 317.754 505.176 317.067 505.503C316.517 505.785 315.938 506.004 315.34 506.156C314.716 506.327 314.072 506.411 313.426 506.405C312.732 506.402 312.041 506.308 311.372 506.125C310.656 505.943 309.969 505.66 309.333 505.285C308.774 504.982 308.273 504.582 307.855 504.102C307.568 503.775 307.408 503.355 307.404 502.92C307.422 502.516 307.569 502.128 307.824 501.815C308.142 501.421 308.52 501.08 308.944 500.803C309.255 500.586 309.567 500.399 309.862 500.228C310.158 500.056 310.516 499.87 310.905 499.667C312.049 499.107 313.303 498.804 314.577 498.781C316.011 498.785 317.419 499.172 318.654 499.901C319.217 500.199 319.718 500.6 320.132 501.084C320.414 501.408 320.573 501.821 320.584 502.251C320.564 502.654 320.416 503.041 320.163 503.355C319.854 503.757 319.474 504.1 319.043 504.367ZM321.984 516.535C321.355 516.955 320.7 517.335 320.023 517.671C319.473 517.95 318.894 518.17 318.296 518.325C316.994 518.656 315.63 518.656 314.328 518.325C313.612 518.136 312.926 517.848 312.29 517.469C311.696 517.184 311.167 516.782 310.734 516.286C310.445 515.966 310.285 515.55 310.282 515.119C310.291 514.716 310.434 514.328 310.687 514.014C311.011 513.62 311.394 513.279 311.823 513.003C312.118 512.789 312.425 512.592 312.741 512.412C313.037 512.24 313.395 512.054 313.784 511.867C314.919 511.282 316.178 510.978 317.456 510.98C318.139 510.978 318.819 511.067 319.479 511.245C320.195 511.433 320.881 511.721 321.517 512.1C322.111 512.385 322.64 512.787 323.073 513.283C323.362 513.604 323.522 514.019 323.524 514.45C323.516 514.853 323.373 515.241 323.12 515.555C322.801 515.945 322.417 516.277 321.984 516.535ZM312.072 502.531C311.762 502.706 311.509 502.965 311.341 503.278C311.341 503.48 311.418 503.698 311.792 503.915C312.126 504.125 312.52 504.218 312.912 504.18C313.362 504.11 313.798 503.968 314.204 503.76C314.802 503.478 315.375 503.145 315.915 502.764C316.226 502.598 316.481 502.344 316.647 502.033C316.724 501.815 316.647 501.597 316.195 501.379C315.856 501.169 315.457 501.076 315.059 501.115C314.613 501.187 314.181 501.334 313.784 501.55C313.191 501.813 312.619 502.12 312.072 502.468V502.531ZM315.028 514.699C314.721 514.874 314.463 515.126 314.281 515.43C314.281 515.648 314.281 515.866 314.748 516.084C315.081 516.295 315.476 516.388 315.869 516.348C316.314 516.278 316.745 516.136 317.145 515.928C317.738 515.638 318.31 515.305 318.856 514.932C319.168 514.762 319.426 514.509 319.603 514.201C319.686 513.983 319.531 513.765 319.136 513.548C318.803 513.336 318.409 513.243 318.016 513.283C317.571 513.353 317.14 513.495 316.74 513.703C316.147 513.989 315.575 514.316 315.028 514.683V514.699Z" fill="white"/>
<path d="M565.088 254.868L539.802 240.272V167.277L565.088 181.873V254.868Z" fill="#37474F"/>
<path d="M565.087 254.868L590.373 240.272V167.277L565.087 181.873V254.868Z" fill="#455A64"/>
<path d="M539.802 167.277L565.088 181.873L590.374 167.277L565.088 152.682L539.802 167.277Z" fill="#455A64"/>
<path d="M508.198 222.02L482.912 207.424V61.45L508.198 76.0458V222.02Z" fill="#37474F"/>
<path d="M508.198 222.02L533.484 207.424V61.45L508.198 76.0458V222.02Z" fill="#455A64"/>
<path d="M482.912 61.4501L508.198 76.0459L533.484 61.4501L508.198 46.8542L482.912 61.4501Z" fill="#455A64"/>
<path d="M451.308 189.171L426.022 174.575V123.49L451.308 138.086V189.171Z" fill="#37474F"/>
<path d="M451.308 189.171L476.594 174.575V123.49L451.308 138.086V189.171Z" fill="#455A64"/>
<path d="M426.022 123.49L451.308 138.086L476.594 123.49L451.308 108.894L426.022 123.49Z" fill="#455A64"/>
<path d="M621.977 287.717L596.691 273.106V134.445L621.962 149.041L621.977 287.717Z" fill="#37474F"/>
<path d="M621.962 287.717L647.248 273.106V134.445L621.962 149.041V287.717Z" fill="#455A64"/>
<path d="M596.691 134.444L621.962 149.04L647.248 134.444L621.977 119.833L596.691 134.444Z" fill="#455A64"/>
<g opacity="0.3">
<path opacity="0.3" d="M445.192 277.12L444.927 115.477C444.872 114.541 444.599 113.631 444.129 112.821C443.658 112.01 443.005 111.321 442.219 110.809L251.509 1.18436C249.953 0.328523 248.817 1.02875 248.817 2.74041L249.128 164.322C249.179 165.258 249.451 166.169 249.922 166.981C250.392 167.792 251.048 168.48 251.836 168.99L442.562 278.692C444.009 279.548 445.192 278.848 445.192 277.12Z" fill="white"/>
</g>
<path d="M443.729 279.828C443.179 279.806 442.644 279.646 442.173 279.361L251.447 169.659C250.536 169.086 249.778 168.301 249.236 167.372C248.694 166.442 248.385 165.396 248.335 164.321L248.039 2.74014C247.974 2.26627 248.051 1.78374 248.261 1.3539C248.471 0.924052 248.804 0.566304 249.217 0.326122C249.631 0.085939 250.107 -0.0258329 250.584 0.0050253C251.061 0.0358835 251.519 0.20797 251.898 0.499414L442.624 110.108C443.533 110.683 444.29 111.468 444.832 112.397C445.373 113.326 445.684 114.372 445.736 115.445L446.001 277.089C446.038 277.561 445.95 278.034 445.745 278.46C445.54 278.887 445.226 279.251 444.834 279.516C444.5 279.717 444.119 279.825 443.729 279.828ZM250.311 1.52642C250.209 1.49937 250.102 1.49937 250 1.52642C249.848 1.65726 249.731 1.8241 249.661 2.01168C249.59 2.19926 249.567 2.40158 249.595 2.6001L249.86 164.244C249.904 165.061 250.143 165.857 250.557 166.563C250.971 167.27 251.548 167.867 252.24 168.305L442.967 278.007C443.433 278.272 443.838 278.349 444.087 278.194C444.336 278.038 444.492 277.665 444.492 277.12L444.227 115.477C444.177 114.68 443.943 113.905 443.543 113.214C443.144 112.523 442.59 111.934 441.924 111.493L251.12 1.79095C250.877 1.63542 250.599 1.54437 250.311 1.52642Z" fill="#046306"/>
<path d="M427.08 241.455C422.023 237.861 419.066 234.608 417.059 209.618L416.888 207.486C415.005 184.005 413.775 168.507 403.07 162.112C397.935 159 393.827 162.112 389.485 165.488C385.549 168.492 381.503 171.573 376.944 168.974C368.93 164.306 367.607 155.063 365.117 138.195C364.806 136.11 364.495 133.916 364.137 131.613C363.593 128.018 363.126 124.673 362.69 121.53C360.231 103.822 358.738 93.116 349.681 87.6542C348.789 87.0222 347.762 86.6072 346.682 86.4424C345.601 86.2776 344.497 86.3676 343.457 86.705C336.595 89.1014 331.226 103.619 325.547 119.009C325.111 120.145 324.691 121.343 324.24 122.541C320.116 133.885 315.448 146.753 308.99 149.134C308.077 149.468 307.1 149.592 306.133 149.495C305.166 149.398 304.233 149.083 303.404 148.574C296.978 144.933 295.826 134.974 294.721 125.326C293.617 115.679 292.543 105.985 286.474 102.328C285.96 101.995 285.371 101.794 284.761 101.743C284.15 101.691 283.536 101.79 282.973 102.032C275.442 104.958 268.766 127.24 268.704 127.458L267.148 127.023C267.428 126.073 274.104 103.791 282.335 100.57C283.121 100.244 283.974 100.112 284.822 100.185C285.669 100.258 286.487 100.534 287.206 100.99C293.912 105.004 295.079 115.228 296.215 125.109C297.351 134.99 298.378 143.937 304.135 147.189C304.763 147.588 305.475 147.836 306.214 147.914C306.954 147.993 307.702 147.899 308.399 147.64C314.172 145.509 318.918 132.469 322.73 121.981C323.182 120.767 323.602 119.585 324.037 118.433C330.106 102.017 335.35 87.841 342.897 85.1957C344.148 84.7902 345.475 84.6789 346.776 84.8705C348.077 85.0621 349.316 85.5515 350.397 86.3005C360.076 92.1512 361.616 103.121 364.137 121.296C364.573 124.408 365.04 127.769 365.584 131.348C365.942 133.667 366.253 135.861 366.565 137.931C368.945 154.331 370.268 163.357 377.628 167.589C381.285 169.69 384.599 167.153 388.443 164.228C392.8 160.898 397.779 157.148 403.77 160.742C415.145 167.558 416.421 183.383 418.335 207.331L418.506 209.463C420.56 234.951 423.641 237.129 427.842 240.164L427.08 241.455Z" fill="#046306"/>
<g opacity="0.4">
<path opacity="0.4" d="M427.08 241.455C422.023 237.86 419.066 234.608 417.059 209.618L416.888 207.486C415.005 184.005 413.775 168.507 403.07 162.111C397.935 158.999 393.827 162.111 389.485 165.488C385.549 168.491 381.503 171.572 376.944 168.974C368.93 164.305 367.607 155.062 365.117 138.195C364.806 136.11 364.495 133.916 364.137 131.613C363.593 128.018 363.126 124.673 362.69 121.529C360.231 103.821 358.738 93.1158 349.681 87.654C348.789 87.022 347.762 86.607 346.682 86.4422C345.601 86.2774 344.497 86.3673 343.457 86.7048C336.595 89.1011 331.226 103.619 325.547 119.009C325.111 120.145 324.691 121.343 324.24 122.541C320.116 133.885 315.448 146.753 308.99 149.134C308.077 149.468 307.1 149.591 306.133 149.494C305.166 149.397 304.233 149.083 303.404 148.574C296.978 144.933 295.826 134.974 294.721 125.326C293.617 115.679 292.543 105.984 286.474 102.328C285.96 101.995 285.371 101.794 284.761 101.742C284.15 101.691 283.536 101.79 282.973 102.032C275.442 104.957 268.766 127.24 268.704 127.458L267.148 127.022C267.428 126.073 274.104 103.79 282.335 100.569C283.121 100.244 283.974 100.112 284.822 100.185C285.669 100.258 286.487 100.534 287.206 100.989C293.912 105.004 295.079 115.227 296.215 125.108C297.351 134.989 298.378 143.937 304.135 147.189C304.763 147.588 305.475 147.836 306.214 147.914C306.954 147.992 307.702 147.899 308.399 147.64C314.172 145.508 318.918 132.468 322.73 121.981C323.182 120.767 323.602 119.584 324.037 118.433C330.106 102.016 335.35 87.8407 342.897 85.1954C344.148 84.7899 345.475 84.6786 346.776 84.8702C348.077 85.0619 349.316 85.5512 350.397 86.3002C360.076 92.151 361.616 103.121 364.137 121.296C364.573 124.408 365.04 127.769 365.584 131.348C365.942 133.667 366.253 135.861 366.565 137.93C368.945 154.331 370.268 163.356 377.628 167.589C381.285 169.689 384.599 167.153 388.443 164.228C392.8 160.898 397.779 157.148 403.77 160.742C415.145 167.558 416.421 183.383 418.335 207.331L418.506 209.462C420.56 234.951 423.641 237.129 427.842 240.163L427.08 241.455Z" fill="black"/>
</g>
<path d="M400.767 155.234C401.924 155.992 402.889 157.01 403.583 158.207C404.277 159.404 404.682 160.746 404.766 162.127C404.766 164.664 402.977 165.691 400.783 164.43C399.62 163.677 398.652 162.661 397.957 161.463C397.262 160.265 396.86 158.92 396.784 157.537C396.784 155.063 398.511 154.036 400.767 155.234Z" fill="#046306"/>
<g opacity="0.2">
<path opacity="0.2" d="M400.768 155.234C401.925 155.992 402.889 157.01 403.583 158.207C404.278 159.404 404.683 160.746 404.767 162.127C404.767 164.664 402.977 165.691 400.783 164.43C399.621 163.677 398.653 162.661 397.958 161.463C397.263 160.265 396.861 158.92 396.784 157.537C396.784 155.063 398.511 154.036 400.768 155.234Z" fill="black"/>
</g>
<path d="M350.086 82.3949C351.244 83.1504 352.209 84.1682 352.901 85.3658C353.593 86.5634 353.993 87.9072 354.069 89.2883C354.069 91.8246 352.295 92.8516 350.101 91.5912C348.938 90.8393 347.969 89.8227 347.274 88.6246C346.579 87.4265 346.177 86.081 346.102 84.6979C346.102 82.0993 347.876 81.1345 350.086 82.3949Z" fill="#046306"/>
<g opacity="0.5">
<path opacity="0.5" d="M350.086 82.3949C351.245 83.1504 352.209 84.1682 352.901 85.3658C353.593 86.5634 353.994 87.9072 354.07 89.2883C354.07 91.8246 352.296 92.8516 350.102 91.5912C348.938 90.8393 347.97 89.8227 347.274 88.6246C346.579 87.4265 346.178 86.081 346.103 84.6979C346.103 82.0993 347.876 81.1345 350.086 82.3949Z" fill="white"/>
</g>
<path d="M286.894 97.0994C288.057 97.848 289.026 98.8616 289.721 100.057C290.416 101.253 290.818 102.596 290.893 103.977C290.893 106.529 289.119 107.556 286.909 106.296C285.752 105.539 284.788 104.521 284.096 103.324C283.404 102.127 283.003 100.783 282.926 99.4024C282.91 96.866 284.7 95.8235 286.894 97.0994Z" fill="#046306"/>
<path opacity="0.65" d="M343.846 269.994V108.35C343.795 107.416 343.524 106.506 343.057 105.695C342.589 104.885 341.937 104.195 341.154 103.682L175.885 8.26443C174.329 7.4086 173.193 8.10883 173.193 9.82049V171.464C173.244 172.399 173.514 173.309 173.982 174.12C174.449 174.931 175.101 175.62 175.885 176.132L341.154 271.55C342.648 272.421 343.846 271.721 343.846 269.994Z" fill="white"/>
<path d="M342.368 272.701C341.818 272.68 341.283 272.519 340.812 272.234L175.496 176.817C174.588 176.237 173.832 175.449 173.29 174.518C172.749 173.587 172.438 172.54 172.384 171.464V9.82047C172.322 9.34786 172.402 8.86763 172.614 8.44043C172.825 8.01323 173.158 7.65818 173.571 7.42012C173.984 7.18206 174.458 7.07165 174.933 7.10282C175.409 7.134 175.865 7.30537 176.243 7.5953L341.512 103.013C342.42 103.589 343.176 104.374 343.718 105.303C344.259 106.231 344.57 107.276 344.624 108.35V269.994C344.661 270.465 344.573 270.938 344.368 271.365C344.163 271.791 343.849 272.156 343.457 272.421C343.125 272.608 342.749 272.705 342.368 272.701ZM174.687 8.68454C174.585 8.65819 174.478 8.65819 174.376 8.68454C174.224 8.81537 174.107 8.98222 174.036 9.1698C173.966 9.35738 173.943 9.5597 173.971 9.75822V171.464C174.02 172.263 174.253 173.04 174.653 173.734C175.052 174.428 175.607 175.02 176.274 175.463L341.543 270.881C341.702 271.005 341.889 271.087 342.087 271.119C342.286 271.152 342.489 271.134 342.679 271.067C342.928 270.927 343.068 270.538 343.068 269.994V108.35C343.02 107.553 342.788 106.778 342.388 106.086C341.988 105.394 341.432 104.806 340.765 104.367L175.496 8.96463C175.258 8.79743 174.977 8.70039 174.687 8.68454Z" fill="#046306"/>
<path d="M315.417 233.255V126.883C315.39 126.415 315.254 125.96 315.019 125.554C314.784 125.149 314.456 124.804 314.063 124.549L297.802 115.212C297.056 114.777 296.449 115.119 296.449 115.99V222.3C296.472 222.769 296.607 223.226 296.842 223.632C297.078 224.038 297.407 224.382 297.802 224.634L314.063 233.971C314.81 234.469 315.417 234.111 315.417 233.255Z" fill="#046306"/>
<g opacity="0.3">
<path opacity="0.3" d="M315.417 233.255V126.882C315.39 126.415 315.253 125.959 315.018 125.554C314.783 125.148 314.456 124.804 314.063 124.548L297.802 115.212C297.055 114.776 296.448 115.119 296.448 115.99V222.3C296.471 222.769 296.606 223.225 296.842 223.632C297.077 224.038 297.406 224.381 297.802 224.634L314.063 233.971C314.81 234.468 315.417 234.111 315.417 233.255Z" fill="black"/>
</g>
<path d="M283.813 215.002V159.731C283.786 159.263 283.65 158.808 283.415 158.402C283.18 157.997 282.852 157.653 282.459 157.397L266.183 148.061C265.452 147.64 264.845 148.061 264.845 148.839V204.125C264.872 204.591 265.007 205.045 265.239 205.45C265.472 205.855 265.795 206.2 266.183 206.459L282.459 215.796C283.206 216.216 283.813 215.92 283.813 215.002Z" fill="#046306"/>
<g opacity="0.2">
<path opacity="0.2" d="M283.814 215.002V159.731C283.787 159.263 283.65 158.808 283.415 158.403C283.18 157.997 282.853 157.653 282.46 157.397L266.183 148.061C265.452 147.641 264.845 148.061 264.845 148.839V204.126C264.873 204.592 265.008 205.045 265.24 205.45C265.472 205.855 265.795 206.201 266.183 206.46L282.46 215.796C283.207 216.216 283.814 215.921 283.814 215.002Z" fill="white"/>
</g>
<path d="M252.24 196.765V112.287C252.214 111.819 252.077 111.364 251.842 110.958C251.607 110.553 251.28 110.208 250.887 109.953L234.61 100.616C233.879 100.181 233.272 100.523 233.272 101.394V185.857C233.297 186.324 233.431 186.778 233.663 187.184C233.896 187.589 234.22 187.934 234.61 188.191L250.887 197.528C251.602 197.963 252.24 197.621 252.24 196.765Z" fill="#046306"/>
<g opacity="0.2">
<path opacity="0.2" d="M252.241 196.765V112.286C252.214 111.818 252.078 111.363 251.842 110.958C251.607 110.552 251.28 110.208 250.887 109.952L234.611 100.616C233.879 100.18 233.272 100.523 233.272 101.394V185.857C233.297 186.323 233.432 186.778 233.664 187.183C233.896 187.588 234.221 187.934 234.611 188.191L250.887 197.527C251.603 197.963 252.241 197.621 252.241 196.765Z" fill="black"/>
</g>
<path d="M220.591 178.575V57.5444C220.567 57.0775 220.433 56.6228 220.201 56.2172C219.968 55.8117 219.643 55.4667 219.252 55.2103L202.976 45.8739C202.245 45.4382 201.638 45.8739 201.638 46.652V167.62C201.665 168.086 201.8 168.539 202.032 168.944C202.265 169.349 202.588 169.695 202.976 169.954L219.252 179.29C219.999 179.726 220.591 179.368 220.591 178.575Z" fill="#046306"/>
<path d="M556.653 197.916C556.435 196.749 550.725 183.461 548.375 178.232L536.471 183.803L541.03 194.244L553.354 203.783C554.554 203.417 555.566 202.604 556.18 201.511C556.795 200.418 556.964 199.131 556.653 197.916Z" fill="#FFA8A7"/>
<path d="M532.94 337.106H523.759V350.488H532.94V337.106Z" fill="#FFA8A7"/>
<path d="M500.6 320.578L491.424 320.894L491.884 334.268L501.06 333.952L500.6 320.578Z" fill="#FFA8A7"/>
<path d="M502.892 145.462C499.569 145.539 496.32 146.455 493.447 148.126C490.574 149.796 488.17 152.167 486.46 155.016C481.387 162.563 472.455 175.462 472.455 175.462L489.183 180.769L502.892 145.462Z" fill="#046306"/>
<g opacity="0.7">
<path opacity="0.7" d="M502.892 145.462C499.569 145.539 496.32 146.455 493.447 148.126C490.574 149.796 488.17 152.167 486.46 155.016C481.387 162.563 472.455 175.462 472.455 175.462L489.183 180.769L502.892 145.462Z" fill="white"/>
</g>
<path d="M532.333 206.583C532.333 215.36 533.469 272.109 533.469 272.109C533.687 274.63 536.052 279.283 535.538 288.977C534.838 302.157 533.702 338.771 533.702 338.771C533.702 338.771 529.392 343.05 523.308 338.771C523.308 338.771 514.983 289.055 513.349 275.999C511.902 264.609 509.474 233.674 509.474 233.674L500.963 270.102C500.963 270.102 502.519 278.66 502.783 284.698C503.048 290.735 501.227 325.653 501.227 325.653C499.738 326.584 498.031 327.109 496.276 327.177C494.521 327.246 492.779 326.854 491.222 326.042C491.222 326.042 483.846 275.035 482.897 269.573C481.948 264.111 489.37 206.583 489.37 206.583H532.333Z" fill="#046306"/>
<path opacity="0.2" d="M532.333 206.583C532.333 215.36 533.469 272.109 533.469 272.109C533.687 274.63 536.052 279.283 535.538 288.977C534.838 302.157 533.702 338.771 533.702 338.771C533.702 338.771 529.392 343.05 523.308 338.771C523.308 338.771 514.983 289.055 513.349 275.999C511.902 264.609 509.474 233.674 509.474 233.674L500.963 270.102C500.963 270.102 502.519 278.66 502.783 284.698C503.048 290.735 501.227 325.653 501.227 325.653C499.738 326.584 498.031 327.109 496.276 327.177C494.521 327.246 492.779 326.854 491.222 326.042C491.222 326.042 483.846 275.035 482.897 269.573C481.948 264.111 489.37 206.583 489.37 206.583H532.333Z" fill="black"/>
<path d="M518.515 145.742C526.747 147.718 537.188 151.048 540.86 158.641C544.532 166.235 550.196 178.543 550.196 178.543L536.565 186.604L532.333 179.321V206.584C525.891 213.586 503.421 216.854 489.354 206.584V161.707C489.354 154.565 493.338 145.96 504.308 145.322L518.515 145.742Z" fill="#046306"/>
<path opacity="0.7" d="M518.515 145.742C526.747 147.718 537.188 151.048 540.86 158.641C544.532 166.235 550.196 178.543 550.196 178.543L536.565 186.604L532.333 179.321V206.584C525.891 213.586 503.421 216.854 489.354 206.584V161.707C489.354 154.565 493.338 145.96 504.308 145.322L518.515 145.742Z" fill="white"/>
<path d="M521.611 109.112C522.35 109.027 523.099 109.112 523.8 109.36C524.501 109.608 525.136 110.013 525.657 110.544C527.4 112.318 527.042 115.617 525.657 123.179L520.273 123.802L521.611 109.112Z" fill="#263238"/>
<path d="M490.32 106.996C489.165 107.01 488.02 106.782 486.958 106.327C485.309 105.378 484.873 107.245 485.776 108.879C486.373 110.044 487.259 111.038 488.348 111.765C489.438 112.492 490.695 112.928 492 113.033C492 112.8 493.556 108.832 493.556 108.832L490.32 106.996Z" fill="#263238"/>
<path d="M519.091 123.801C519.885 124.284 521.02 122.743 522.001 121.716C522.388 121.274 522.881 120.938 523.434 120.739C523.987 120.54 524.581 120.485 525.161 120.578C525.741 120.671 526.288 120.91 526.75 121.273C527.213 121.635 527.576 122.109 527.805 122.65C529.439 126.089 525.735 130.679 523.557 132.189C522.948 132.715 522.188 133.035 521.387 133.105C520.585 133.175 519.782 132.99 519.091 132.578L518.515 145.742C517.554 147.851 516.084 149.689 514.237 151.091C512.39 152.492 510.224 153.413 507.934 153.771C500.154 154.814 501.788 148.449 504.324 145.322V140.529C502.393 140.947 500.407 141.053 498.442 140.84C497.431 140.576 495.034 137.728 493.478 134.414C491.735 130.757 488.81 124.268 491.424 113.298C494.194 101.519 506.845 101.161 514.407 105.907C521.97 110.653 519.091 123.801 519.091 123.801Z" fill="#FFA8A7"/>
<path d="M519.091 125.139C519.48 125.139 521.02 122.619 522.001 121.716C523.386 120.456 521.612 109.112 521.612 109.112C521.612 109.112 522.997 104.817 520.273 101.954C517.55 99.091 512.291 99.589 508.432 99.4489C503.696 99.4728 499.005 98.5303 494.645 96.6791C489.168 94.2984 488.763 94.0183 488.079 96.4302C487.394 98.8421 487.145 104.335 490.413 108.023L493.136 109.034C493.136 109.034 494.598 110.326 499.702 110.948C504.42 111.307 509.161 111.218 513.862 110.684C515.341 110.481 515.652 111.913 516.446 115.834C517.161 119.289 517.737 125.124 519.091 125.139Z" fill="#263238"/>
<path d="M521.596 109.999L526.42 107.4C526.266 107.076 526.048 106.787 525.779 106.55C525.511 106.313 525.196 106.133 524.856 106.02C524.515 105.908 524.156 105.867 523.798 105.898C523.441 105.929 523.094 106.033 522.778 106.202C522.131 106.562 521.646 107.157 521.426 107.864C521.206 108.571 521.267 109.336 521.596 109.999Z" fill="#263238"/>
<path d="M504.324 140.529C507.624 139.907 510.859 138.98 513.987 137.759C515.46 136.997 516.666 135.802 517.441 134.336C517.066 135.802 516.399 137.178 515.481 138.382C513.645 140.716 504.324 142.443 504.324 142.443V140.529Z" fill="#F28F8F"/>
<path d="M506.066 122.012C506.06 122.204 506.092 122.395 506.161 122.574C506.231 122.753 506.335 122.917 506.469 123.054C506.602 123.192 506.762 123.302 506.939 123.377C507.116 123.452 507.306 123.49 507.498 123.49C507.813 123.515 508.128 123.443 508.402 123.285C508.675 123.126 508.894 122.888 509.028 122.602C509.163 122.316 509.207 121.996 509.156 121.684C509.104 121.372 508.958 121.083 508.738 120.856C508.518 120.629 508.235 120.475 507.925 120.413C507.615 120.351 507.293 120.385 507.003 120.511C506.713 120.636 506.468 120.847 506.3 121.115C506.133 121.383 506.051 121.696 506.066 122.012Z" fill="#263238"/>
<path d="M507.576 116.597L510.688 118.293C510.904 117.871 510.95 117.383 510.817 116.929C510.684 116.474 510.382 116.088 509.973 115.85C509.768 115.733 509.542 115.659 509.308 115.633C509.073 115.607 508.836 115.63 508.611 115.7C508.386 115.77 508.178 115.886 508 116.04C507.822 116.195 507.678 116.384 507.576 116.597Z" fill="#263238"/>
<path d="M506.175 131.737L502.892 132.966C502.966 133.185 503.082 133.386 503.234 133.559C503.386 133.733 503.571 133.874 503.777 133.975C503.984 134.077 504.209 134.136 504.439 134.15C504.669 134.163 504.9 134.131 505.117 134.056C505.557 133.878 505.912 133.539 506.109 133.107C506.306 132.676 506.329 132.186 506.175 131.737Z" fill="#F28F8F"/>
<path d="M493.275 117.795L496.061 115.632C495.929 115.444 495.761 115.284 495.566 115.163C495.371 115.041 495.154 114.96 494.927 114.925C494.7 114.891 494.468 114.902 494.246 114.959C494.024 115.017 493.815 115.119 493.633 115.259C493.258 115.554 493.012 115.983 492.945 116.455C492.878 116.928 492.997 117.408 493.275 117.795Z" fill="#263238"/>
<path d="M494.131 121.607C494.131 121.795 494.168 121.981 494.24 122.155C494.312 122.329 494.418 122.487 494.551 122.619C494.684 122.752 494.841 122.858 495.015 122.93C495.189 123.002 495.375 123.039 495.563 123.039C495.751 123.039 495.937 123.002 496.111 122.93C496.285 122.858 496.442 122.752 496.575 122.619C496.708 122.487 496.814 122.329 496.886 122.155C496.958 121.981 496.995 121.795 496.995 121.607C497.001 121.415 496.968 121.224 496.899 121.045C496.83 120.866 496.726 120.702 496.592 120.565C496.459 120.427 496.299 120.317 496.122 120.242C495.945 120.167 495.755 120.129 495.563 120.129C495.178 120.137 494.811 120.297 494.543 120.574C494.275 120.851 494.127 121.222 494.131 121.607Z" fill="#263238"/>
<path d="M501.43 120.238L500.963 128.874L496.466 127.334L501.43 120.238Z" fill="#F28F8F"/>
<path d="M463.959 172.21L500.651 181.874L511.482 227.419L476.595 217.289L463.959 172.21Z" fill="#046306"/>
<path d="M479.955 202.351C479.309 203.504 478.332 204.436 477.15 205.027C475.968 205.618 474.636 205.84 473.326 205.665L472.797 203.783L479.955 202.351Z" fill="#046306"/>
<path d="M488.155 203.783C488.311 204.996 490.816 207.237 495.033 208.638C499.826 210.194 507.186 209.4 507.186 209.4L506.532 207.128L488.155 203.783Z" fill="#046306"/>
<path opacity="0.43" d="M474.759 178.808L474.447 177.408C474.292 176.63 476.439 176.599 479.271 177.33L484.671 178.73C487.503 179.477 489.915 180.691 490.086 181.469L490.397 182.869L474.759 178.808Z" fill="#455A64"/>
<path d="M472.144 173.533C472.05 173.05 472.922 172.926 474.104 173.253L476.314 173.906C476.314 173.906 475.676 170.794 480.437 171.93C481.708 172.117 482.908 172.63 483.923 173.418C484.937 174.206 485.73 175.242 486.226 176.427L488.513 177.08C489.774 177.438 490.91 178.107 491.065 178.636L491.33 179.508L472.424 174.528L472.144 173.533Z" fill="#37474F"/>
<path d="M474.759 175.042C476.486 175.462 477.202 175.696 477.466 176.878C477.731 178.061 477.886 179.243 477.886 179.243L486.242 181.453C486.242 181.453 485.838 179.726 485.713 179.057C485.589 178.388 485.869 177.983 487.269 178.325L487.378 177.796L474.261 174.466L474.759 175.042Z" fill="#37474F"/>
<path d="M474.463 178.948L474.167 177.548C473.996 176.77 476.143 176.738 478.975 177.47L484.375 178.87C487.207 179.602 489.635 180.815 489.806 181.593L490.101 182.994L474.463 178.948Z" fill="#37474F"/>
<path d="M553.356 203.783L541.032 194.244C541.032 194.244 515.201 199.099 512.291 199.332C509.381 199.566 507.078 196.687 505.974 193.824C504.869 190.961 502.628 191.319 502.628 191.319C502.628 191.319 503.484 194.96 503.764 196.111C504.044 197.263 497.306 198.212 493.432 196.905C489.557 195.598 483.94 197.496 487.41 202.787C490.88 208.078 497.664 208.669 502.363 208.684C504.33 208.665 506.294 208.53 508.245 208.28C509.801 208.093 511.358 207.937 512.805 207.829C522.421 207.144 548.983 205.152 553.356 203.783Z" fill="#FFA8A7"/>
<path d="M467.679 185.53L469.312 191.334C469.624 192.455 473.887 194.446 476.595 195.224C479.302 196.002 482.243 196.78 480.967 200.624C479.785 204.094 475.35 204.887 473.094 204.794C471.574 204.537 470.154 203.865 468.993 202.852C467.831 201.838 466.972 200.523 466.512 199.052C464.956 194.617 465.796 189.871 465.173 187.273C464.551 184.674 466.34 183.99 467.679 185.53Z" fill="#F28F8F"/>
<path d="M523.758 345.96V344.637C522.887 345.026 520.833 352.822 517.192 356.136C514.298 358.782 510.345 361.847 509.412 364.788C508.478 367.729 514.92 369.55 517.627 369.067C520.74 368.507 526.233 366.298 527.602 364.244C528.971 362.19 529.609 359.155 530.714 357.646C531.819 356.136 534.386 354.534 534.993 352.729C535.174 351.101 534.993 349.454 534.464 347.905C534.044 346.271 533.577 344.497 533.033 344.637C533.033 344.839 533.033 345.649 533.033 345.649C531.698 346.682 530.052 347.231 528.364 347.205C527.011 347.251 523.743 346.987 523.758 345.96Z" fill="#37474F"/>
<path d="M491.876 331.411C491.394 331.411 491.005 332.096 489.962 333.231C488.387 334.822 486.557 336.137 484.547 337.122C481.108 338.849 474.432 341.494 471.398 342.863C469.5 343.719 469.593 345.976 471.554 347.298C473.514 348.621 478.229 349.539 483.893 348.263C487.005 347.578 491.005 344.731 493.541 344.871C496.077 345.011 500.839 344.995 502.722 343.704C504.604 342.412 503.842 339.642 503.313 337.262C502.784 334.881 501.912 330.711 501.057 330.882V331.707C499.952 333.372 494.319 334.056 491.891 332.827L491.876 331.411Z" fill="#37474F"/>
<path d="M94.0054 325.825L99.7473 333.807C97.1296 335.016 94.2742 335.622 91.3912 335.581C86.2562 335.784 84.8402 334.025 84.6535 333.683C83.7821 331.831 85.1359 328.47 85.5093 325.576L94.0054 325.825Z" fill="#37474F"/>
<path d="M84.6538 317.795C84.6538 317.795 85.5252 325.047 85.5874 326.603C85.6497 328.159 92.6675 328.672 94.0057 325.825L94.208 316.955L84.6538 317.795Z" fill="#F28F8F"/>
<path d="M84.6538 174.934C79.8611 182.403 75.3174 188.938 74.3216 197.372C72.2676 215.095 78.9897 235.355 80.4369 248.457C77.7159 252.196 76.1425 256.646 75.9087 261.264C75.9087 266.679 84.6538 317.795 84.6538 317.795C84.6538 317.795 91.0025 319.74 94.208 316.955L100.214 222.922L97.1023 211.47L84.6538 174.934Z" fill="#046306"/>
<path opacity="0.5" d="M84.6538 174.934C79.8611 182.403 75.3174 188.938 74.3216 197.372C72.2676 215.095 78.9897 235.355 80.4369 248.457C77.7159 252.196 76.1425 256.646 75.9087 261.264C75.9087 266.679 84.6538 317.795 84.6538 317.795C84.6538 317.795 91.0025 319.74 94.208 316.955L100.214 222.922L97.1023 211.47L84.6538 174.934Z" fill="white"/>
<path d="M128.955 139.907L160.558 155.078L141.59 197.73L112.118 180.722L128.955 139.907Z" fill="#046306"/>
<path d="M156.839 155.856L140.469 192.206L117.782 179.135L130.65 143.361L156.839 155.856Z" fill="#046306"/>
<path d="M130.651 143.361L156.84 155.856L139.163 192.595L114.391 178.45L130.651 143.361Z" fill="white"/>
<path d="M136.346 148.621L136.953 147.314C137.295 146.598 139.458 146.894 141.792 147.998L146.258 150.115C148.592 151.204 150.195 152.698 149.868 153.413L149.246 154.721L136.346 148.621Z" fill="#E0E0E0"/>
<path d="M73.9321 155.234C71.6291 161.8 67.0699 172.226 68.5326 174.327C69.9953 176.427 78.7714 175.976 83.6575 175.789C89.8817 175.556 95.0478 175.307 95.0478 175.307L94.0052 164.415H85.1668L89.057 153.398L73.9321 155.234Z" fill="#F28F8F"/>
<path d="M82.7864 131.893C79.5654 137.183 73.061 155.856 73.061 155.856C74.8682 157.906 77.2652 159.346 79.9233 159.98C82.2446 160.692 84.7112 160.789 87.0811 160.26L94.2701 142.365L82.7864 131.893Z" fill="#046306"/>
<path opacity="0.4" d="M82.7864 131.893C79.5654 137.183 73.061 155.856 73.061 155.856C74.8682 157.906 77.2652 159.346 79.9233 159.98C82.2446 160.692 84.7112 160.789 87.0811 160.26L94.2701 142.365L82.7864 131.893Z" fill="black"/>
<path d="M114.95 135.223C120.598 136.919 124.037 137.215 130.277 146.816C136.517 156.416 150.179 175.463 151.532 177.75C153.415 180.862 154.224 184.721 152.606 187.647C150.988 190.572 146.678 189.203 140.484 183.741C134.291 178.279 122.621 163.637 122.621 163.637C122.621 163.637 110.452 149.928 114.95 135.223Z" fill="#FFA8A7"/>
<path d="M110.438 122.774L108.913 136.266L95.5928 137.806L97.5223 119.896L110.438 122.774Z" fill="#FFA8A7"/>
<path d="M81.9468 103.059C83.0516 90.6109 89.7271 85.4604 95.0332 84.2311C105.568 81.7414 114.966 85.5693 119.23 92.9606C120.35 94.9057 122.233 102.188 118.483 106.483C114.733 110.777 81.9468 103.059 81.9468 103.059Z" fill="#263238"/>
<path d="M120.271 107.447C120.271 107.447 123.041 112.115 122.621 112.645C121.885 113.072 121.079 113.367 120.24 113.516L120.271 107.447Z" fill="#F28F8F"/>
<path d="M111.869 92.4315C114.733 94.1276 119.65 97.2242 120.319 108.117C121.019 119.305 118.887 122.744 117.207 124.113C116.133 125.047 110.625 124.735 107.87 123.724C104.494 122.448 96.9779 118.978 93.7413 113.034C90.0067 106.047 89.68 97.0063 94.6282 93.7542C97.1511 92.0826 100.059 91.0836 103.077 90.8521C106.094 90.6206 109.121 91.1643 111.869 92.4315Z" fill="#FFA8A7"/>
<path d="M112.71 92.9915C112.71 92.9915 114.686 103.277 111.262 109.501C111.262 109.501 109.706 105.44 106.221 106.389C102.735 107.338 102.782 111.913 105.349 114.403C106 115.111 106.837 115.622 107.765 115.875C108.693 116.128 109.673 116.114 110.593 115.834C110.109 119.038 108.616 122.004 106.33 124.299C102.701 125.139 98.9085 124.936 95.39 123.713C91.8715 122.491 88.7701 120.299 86.4433 117.391C78.663 108.148 80.7015 92.4936 93.041 89.1325C105.381 85.7714 112.71 92.9915 112.71 92.9915Z" fill="#263238"/>
<path d="M99.421 329.979C99.421 329.979 106.392 329.528 111.2 328.921C116.009 328.314 119.821 330.664 118.685 332.656C117.549 334.648 114.904 336.281 110.78 337.666C107.248 338.865 103 339.72 99.3276 340.778C95.6553 341.837 93.1034 343.206 90.9716 342.475C88.5908 341.65 87.5638 340.701 87.7661 338.958C88.2857 336.479 88.9297 334.028 89.6956 331.613L99.421 329.979Z" fill="#37474F"/>
<path d="M91.7185 322.261L89.2132 333.263C89.2132 333.263 88.9798 334.601 94.7061 335.457C100.432 336.312 109.426 332.469 110.967 331.675C112.507 330.882 112.679 329.341 107.046 329.653C101.413 329.964 99.421 329.979 99.421 329.979L101.304 325.093L91.7185 322.261Z" fill="#FFA8A7"/>
<path d="M100.214 222.922L97.1015 211.47C91.1428 209.901 85.3955 207.618 79.9849 204.67C79.9849 204.67 83.2215 210.567 92.4333 213.788L97.2727 228.508L97.6928 262.182L100.214 222.922Z" fill="#046306"/>
<path d="M84.6537 174.934C82.0862 179.119 75.9554 186.293 77.2469 193.171C78.803 201.527 83.3311 207.377 97.0555 211.47L109.94 258.152C109.94 258.152 103.233 264.376 101.179 270.398C99.1251 276.42 91.7182 322.308 91.7182 322.308C91.7182 322.308 94.0057 326.043 101.241 325.14C101.241 325.14 126.465 267.566 128.255 263.816C130.389 260.04 131.143 255.638 130.386 251.367C129.593 245.314 121.05 179.228 121.05 179.228L84.6537 174.934Z" fill="#046306"/>
<path opacity="0.5" d="M84.6537 174.934C82.0862 179.119 75.9554 186.293 77.2469 193.171C78.803 201.527 83.3311 207.377 97.0555 211.47L109.94 258.152C109.94 258.152 103.233 264.376 101.179 270.398C99.1251 276.42 91.7182 322.308 91.7182 322.308C91.7182 322.308 94.0057 326.043 101.241 325.14C101.241 325.14 126.465 267.566 128.255 263.816C130.389 260.04 131.143 255.638 130.386 251.367C129.593 245.314 121.05 179.228 121.05 179.228L84.6537 174.934Z" fill="white"/>
<path d="M82.3197 132.858C83.3156 130.213 86.4899 128.003 89.3531 128.781C98.3315 131.224 112.289 134.445 114.95 135.223C114.95 135.223 113.768 155.452 124.1 161.49C123.617 165.333 120.988 179.12 120.988 179.12C120.988 179.12 108.539 185.157 98.3315 182.232C88.1238 179.306 84.6538 174.981 84.6538 174.981L89.7732 166.64C88.684 163.917 84.4515 154.721 81.7284 146.162C80.727 141.755 80.9312 137.159 82.3197 132.858Z" fill="#046306"/>
<path opacity="0.2" d="M82.3197 132.858C83.3156 130.213 86.4899 128.003 89.3531 128.781C98.3315 131.224 112.289 134.445 114.95 135.223C114.95 135.223 113.768 155.452 124.1 161.49C123.617 165.333 120.988 179.12 120.988 179.12C120.988 179.12 108.539 185.157 98.3315 182.232C88.1238 179.306 84.6538 174.981 84.6538 174.981L89.7732 166.64C88.684 163.917 84.4515 154.721 81.7284 146.162C80.727 141.755 80.9312 137.159 82.3197 132.858Z" fill="black"/>
<path opacity="0.25" d="M88.3726 163.31C92.6278 165.869 97.0883 168.071 101.708 169.892C97.5159 169.811 93.4116 168.677 89.773 166.593L88.3726 163.31Z" fill="#046306"/>
<path d="M91.0178 87.0009C91.0178 87.0009 86.7542 79.7341 76.3131 81.617C65.8719 83.4998 61.6394 94.5789 61.795 101.597C61.9506 108.615 64.3003 113.516 58.0138 121.826C56.7748 123.464 55.9016 125.35 55.4534 127.354C55.0052 129.359 54.9923 131.437 55.4156 133.447C55.8389 135.458 56.6885 137.354 57.9072 139.008C59.1258 140.662 60.6851 142.035 62.4797 143.035C70.8669 147.703 72.9053 139.58 70.9602 132.64C68.7195 124.689 77.0444 123.304 79.2696 117.282C81.4947 111.26 77.1222 98.6091 79.9231 94.3144C83.0353 89.6462 87.2366 90.2998 89.2595 91.8869L91.0178 87.0009Z" fill="#263238"/>
<path d="M114.95 135.223C117.741 135.816 120.466 136.681 123.088 137.806C126.511 139.487 139.862 160.447 139.862 160.447C139.862 160.447 138.913 168.336 127.99 171.464L121.532 163.31C121.532 163.31 112.04 149.134 114.95 135.223Z" fill="#046306"/>
<path opacity="0.1" d="M114.95 135.223C117.741 135.816 120.466 136.681 123.088 137.806C126.511 139.487 139.862 160.447 139.862 160.447C139.862 160.447 138.913 168.336 127.99 171.464L121.532 163.31C121.532 163.31 112.04 149.134 114.95 135.223Z" fill="black"/>
<path d="M123.431 165.768C120.562 162.429 118.397 158.544 117.067 154.347C117.067 154.347 117.067 163.403 123.027 168.087L123.431 165.768Z" fill="#046306"/>
<path opacity="0.4" d="M123.431 165.768C120.562 162.429 118.397 158.544 117.067 154.347C117.067 154.347 117.067 163.403 123.027 168.087L123.431 165.768Z" fill="black"/>
<path d="M137.482 142.988C137.685 142.537 138.634 142.568 139.598 142.988L141.341 143.844C141.341 143.844 142.695 141.027 146.741 142.724C150.787 144.42 149.542 147.672 149.542 147.672L151.393 148.621C152.42 149.134 153.105 149.928 152.949 150.395L152.638 151.22L137.078 143.751L137.482 142.988Z" fill="#455A64"/>
<path d="M139.069 144.761C140.532 145.415 141.092 145.726 140.625 146.847C140.159 147.967 139.489 149.041 139.489 149.041L146.367 152.339C146.367 152.339 147.099 150.783 147.41 150.099C147.721 149.414 148.281 149.149 149.37 149.679L149.837 149.212L138.945 144.155L139.069 144.761Z" fill="#455A64"/>
<path d="M136.221 148.231L136.844 146.924C137.186 146.193 139.349 146.504 141.683 147.609L146.149 149.725C148.467 150.814 150.086 152.293 149.743 153.024L149.121 154.331L136.221 148.231Z" fill="#455A64"/>
</svg>
