<svg width="775" height="577" viewBox="0 0 775 577" fill="none" xmlns="http://www.w3.org/2000/svg">
<path d="M696.688 531.908H645.4V532.295H696.688V531.908Z" fill="#EBEBEB"/>
<path d="M512.907 536.12H499.45V536.507H512.907V536.12Z" fill="#EBEBEB"/>
<path d="M643.852 517.537H614.135V517.924H643.852V517.537Z" fill="#EBEBEB"/>
<path d="M148.118 520.139H81.2364V520.526H148.118V520.139Z" fill="#EBEBEB"/>
<path d="M171.718 520.139H161.915V520.526H171.718V520.139Z" fill="#EBEBEB"/>
<path d="M348.654 526.674H203.586V527.061H348.654V526.674Z" fill="#EBEBEB"/>
<path d="M369.172 437.927H70.1488C67.8037 437.927 65.5547 436.995 63.8965 435.337C62.2383 433.679 61.3067 431.43 61.3067 429.085V8.76473C61.3271 6.43309 62.2677 4.20389 63.9237 2.56238C65.5797 0.920858 67.8171 -8.93909e-05 70.1488 6.50781e-09H369.172C370.333 6.50782e-09 371.483 0.228707 372.556 0.673067C373.628 1.11743 374.603 1.76874 375.424 2.58981C376.245 3.41088 376.897 4.38563 377.341 5.45841C377.785 6.5312 378.014 7.68099 378.014 8.84216V429.085C378.014 430.246 377.785 431.396 377.341 432.469C376.897 433.541 376.245 434.516 375.424 435.337C374.603 436.158 373.628 436.81 372.556 437.254C371.483 437.698 370.333 437.927 369.172 437.927ZM70.1488 0.309709C67.9077 0.313803 65.7595 1.20591 64.1747 2.79065C62.59 4.37539 61.6979 6.52358 61.6938 8.76473V429.085C61.6979 431.326 62.59 433.474 64.1747 435.059C65.7595 436.644 67.9077 437.536 70.1488 437.54H369.172C371.413 437.536 373.561 436.644 375.146 435.059C376.731 433.474 377.623 431.326 377.627 429.085V8.76473C377.623 6.52358 376.731 4.37539 375.146 2.79065C373.561 1.20591 371.413 0.313803 369.172 0.309709H70.1488Z" fill="#EBEBEB"/>
<path d="M704.121 437.927H405.098C402.753 437.927 400.504 436.995 398.846 435.337C397.187 433.679 396.256 431.43 396.256 429.085V8.76473C396.276 6.43309 397.217 4.20389 398.873 2.56238C400.529 0.920858 402.766 -8.93909e-05 405.098 6.50781e-09H704.121C706.466 6.50783e-09 708.715 0.931582 710.373 2.58981C712.031 4.24804 712.963 6.49707 712.963 8.84216V429.085C712.963 431.43 712.031 433.679 710.373 435.337C708.715 436.995 706.466 437.927 704.121 437.927ZM405.098 0.309709C402.857 0.313803 400.709 1.20591 399.124 2.79065C397.539 4.37539 396.647 6.52358 396.643 8.76473V429.085C396.647 431.326 397.539 433.474 399.124 435.059C400.709 436.644 402.857 437.536 405.098 437.54H704.121C706.362 437.536 708.51 436.644 710.095 435.059C711.68 433.474 712.572 431.326 712.576 429.085V8.76473C712.572 6.52358 711.68 4.37539 710.095 2.79065C708.51 1.20591 706.362 0.313803 704.121 0.309709H405.098Z" fill="#EBEBEB"/>
<path d="M774.27 506.992H0V507.379H774.27V506.992Z" fill="#EBEBEB"/>
<path d="M687.799 39.2556H420.645V333.354H687.799V39.2556Z" fill="#E9E9E9"/>
<path d="M683.154 44.0095H425.802V328.151H683.154V44.0095Z" fill="#F9F9F9"/>
<path d="M525.745 205.15H492.869V328.894H525.745V205.15Z" fill="#F0F0F0"/>
<path d="M495.238 195.642H465.63V328.894H495.238V195.642Z" fill="#F0F0F0"/>
<path d="M470.833 260.077H441.225V328.91H470.833V260.077Z" fill="#EBEBEB"/>
<path d="M553.665 242.826H520.789V328.894H553.665V242.826Z" fill="#F0F0F0"/>
<path d="M473.869 208.712H470.833V211.763H473.869V208.712Z" fill="white"/>
<path d="M490.035 208.712H487V211.763H490.035V208.712Z" fill="white"/>
<path d="M473.869 218.623H470.833V221.673H473.869V218.623Z" fill="white"/>
<path d="M481.952 218.623H478.917V221.673H481.952V218.623Z" fill="white"/>
<path d="M490.035 228.518H487V231.568H490.035V228.518Z" fill="white"/>
<path d="M473.869 238.413H470.833V241.463H473.869V238.413Z" fill="white"/>
<path d="M481.952 238.413H478.917V241.463H481.952V238.413Z" fill="white"/>
<path d="M481.952 248.324H478.917V251.374H481.952V248.324Z" fill="white"/>
<path d="M490.035 248.324H487V251.374H490.035V248.324Z" fill="white"/>
<path d="M481.952 258.219H478.917V261.269H481.952V258.219Z" fill="white"/>
<path d="M490.035 258.219H487V261.269H490.035V258.219Z" fill="white"/>
<path d="M490.035 268.114H487V271.165H490.035V268.114Z" fill="white"/>
<path d="M481.952 278.025H478.917V281.075H481.952V278.025Z" fill="white"/>
<path d="M543.785 251.375H546.82V248.324H543.785V251.375Z" fill="white"/>
<path d="M527.618 251.375H530.653V248.324H527.618V251.375Z" fill="white"/>
<path d="M543.785 261.27H546.82V258.219H543.785V261.27Z" fill="white"/>
<path d="M535.702 261.27H538.737V258.219H535.702V261.27Z" fill="white"/>
<path d="M527.618 271.18H530.653V268.129H527.618V271.18Z" fill="white"/>
<path d="M543.785 281.06H546.82V278.009H543.785V281.06Z" fill="white"/>
<path d="M535.702 281.06H538.737V278.009H535.702V281.06Z" fill="white"/>
<path d="M535.702 290.97H538.737V287.92H535.702V290.97Z" fill="white"/>
<path d="M527.618 290.97H530.653V287.92H527.618V290.97Z" fill="white"/>
<path d="M535.702 300.881H538.737V297.83H535.702V300.881Z" fill="white"/>
<path d="M527.618 300.881H530.653V297.83H527.618V300.881Z" fill="white"/>
<path d="M527.618 310.776H530.653V307.726H527.618V310.776Z" fill="white"/>
<path d="M535.702 320.671H538.737V317.621H535.702V320.671Z" fill="white"/>
<path d="M592.301 331.031H624.557V177.88H592.301V331.031Z" fill="#F0F0F0"/>
<path d="M622.219 331.031H651.269V166.112H622.219V331.031Z" fill="#F5F5F5"/>
<path d="M646.174 331.047H675.225V245.877H646.174V331.047Z" fill="#EBEBEB"/>
<path d="M564.907 331.031H597.163V224.522H564.907V331.031Z" fill="#F5F5F5"/>
<path d="M643.201 186.104H646.174V182.325H643.201V186.104Z" fill="white"/>
<path d="M627.344 186.104H630.317V182.325H627.344V186.104Z" fill="white"/>
<path d="M643.201 198.352H646.174V194.574H643.201V198.352Z" fill="white"/>
<path d="M635.257 198.352H638.231V194.574H635.257V198.352Z" fill="white"/>
<path d="M627.344 210.586H630.317V206.807H627.344V210.586Z" fill="white"/>
<path d="M643.201 222.85H646.174V219.072H643.201V222.85Z" fill="white"/>
<path d="M635.257 222.85H638.231V219.072H635.257V222.85Z" fill="white"/>
<path d="M635.257 235.099H638.231V231.321H635.257V235.099Z" fill="white"/>
<path d="M627.344 235.099H630.317V231.321H627.344V235.099Z" fill="white"/>
<path d="M635.257 247.364H638.231V243.585H635.257V247.364Z" fill="white"/>
<path d="M627.344 247.364H630.317V243.585H627.344V247.364Z" fill="white"/>
<path d="M627.344 259.613H630.317V255.834H627.344V259.613Z" fill="white"/>
<path d="M635.257 271.846H638.231V268.068H635.257V271.846Z" fill="white"/>
<path d="M574.586 231.321H571.612V235.099H574.586V231.321Z" fill="white"/>
<path d="M590.443 231.321H587.469V235.099H590.443V231.321Z" fill="white"/>
<path d="M574.586 243.57H571.612V247.348H574.586V243.57Z" fill="white"/>
<path d="M582.514 243.57H579.541V247.348H582.514V243.57Z" fill="white"/>
<path d="M590.443 255.819H587.469V259.597H590.443V255.819Z" fill="white"/>
<path d="M574.586 268.083H571.612V271.861H574.586V268.083Z" fill="white"/>
<path d="M582.514 268.083H579.541V271.861H582.514V268.083Z" fill="white"/>
<path d="M582.514 280.332H579.541V284.111H582.514V280.332Z" fill="white"/>
<path d="M590.443 280.332H587.469V284.111H590.443V280.332Z" fill="white"/>
<path d="M582.514 292.581H579.541V296.359H582.514V292.581Z" fill="white"/>
<path d="M590.443 292.581H587.469V296.359H590.443V292.581Z" fill="white"/>
<path d="M590.443 304.83H587.469V308.608H590.443V304.83Z" fill="white"/>
<path d="M582.514 317.079H579.541V320.857H582.514V317.079Z" fill="white"/>
<path d="M507.704 105.3C507.704 105.3 426.158 116.884 434.613 92.1069C443.068 67.3303 460.257 92.1069 460.257 92.1069C460.257 92.1069 469.099 76.6215 478.746 81.0968C481.583 82.4977 484.035 84.57 485.889 87.1337C487.743 89.6975 488.943 92.6751 489.385 95.8079C489.385 95.8079 492.25 87.4923 499.977 96.3964C507.704 105.3 506.961 94.4607 507.704 105.3Z" fill="#F0F0F0"/>
<path d="M576.289 133.546C576.289 133.546 510.491 142.837 517.305 122.892C524.119 102.947 537.994 122.892 537.994 122.892C537.994 122.892 545.132 110.334 552.921 114.004C555.211 115.136 557.191 116.809 558.688 118.879C560.186 120.948 561.156 123.352 561.516 125.881C561.516 125.881 563.823 119.176 570.064 126.361C576.304 133.546 575.7 124.766 576.289 133.546Z" fill="#F0F0F0"/>
<path d="M660.7 102.622C660.7 102.622 579.696 114.127 588.089 89.521C596.482 64.9147 613.562 89.521 613.562 89.521C613.562 89.521 622.342 74.0356 631.928 78.5728C634.746 79.965 637.181 82.0245 639.021 84.5722C640.862 87.1198 642.052 90.0786 642.489 93.1911C642.489 93.1911 645.338 84.9373 653.019 93.7795C660.7 102.622 659.957 91.8283 660.7 102.622Z" fill="#F0F0F0"/>
<path d="M512.226 39.9211H507.704V333.354H512.226V39.9211Z" fill="#E9E9E9"/>
<path d="M597.272 39.9211H592.75V333.354H597.272V39.9211Z" fill="#E9E9E9"/>
<path d="M167.444 214.829H101.29V507.332H167.444V214.829Z" fill="#E6E6E6"/>
<path d="M334.593 214.829H147.916V507.332H334.593V214.829Z" fill="#F5F5F5"/>
<path d="M325.72 223.965H246.775V498.18H325.72V223.965Z" fill="#EBEBEB"/>
<path d="M237.577 223.965H158.632V498.18H237.577V223.965Z" fill="#EBEBEB"/>
<path d="M246.775 326.633H316.181V312.34H246.775V326.633Z" fill="#F5F5F5"/>
<path d="M158.632 326.633H228.038V312.34H158.632V326.633Z" fill="#F5F5F5"/>
<path d="M246.775 411.942H316.181V397.649H246.775V411.942Z" fill="#F5F5F5"/>
<path d="M158.632 411.942H228.038V397.649H158.632V411.942Z" fill="#F5F5F5"/>
<path d="M291.389 498.181H298.93V419.933H291.389V498.181Z" fill="#FAFAFA"/>
<path d="M283.847 498.181H291.389V426.7H283.847V498.181Z" fill="#E0E0E0"/>
<path d="M298.93 498.181H306.471V426.7H298.93V498.181Z" fill="#E0E0E0"/>
<path d="M255.184 498.181H261.053V426.7H255.184V498.181Z" fill="#E0E0E0"/>
<path d="M246.76 498.18H255.184V421.172H246.76V498.18Z" fill="#F0F0F0"/>
<path d="M272.45 498.181H283.832V426.7H272.45V498.181Z" fill="#F5F5F5"/>
<path d="M261.068 498.18H272.45V422.209H261.068V498.18Z" fill="#E6E6E6"/>
<path d="M203.23 498.181H210.772V419.933H203.23V498.181Z" fill="#E0E0E0"/>
<path d="M195.704 498.181H203.246V426.7H195.704V498.181Z" fill="#E0E0E0"/>
<path d="M210.787 498.181H218.329V426.7H210.787V498.181Z" fill="#FAFAFA"/>
<path d="M167.041 498.181H172.91V426.7H167.041V498.181Z" fill="#E0E0E0"/>
<path d="M158.617 498.18H167.041V421.172H158.617V498.18Z" fill="#F0F0F0"/>
<path d="M184.307 498.181H195.689V426.7H184.307V498.181Z" fill="#F5F5F5"/>
<path d="M172.925 498.18H184.307V422.209H172.925V498.18Z" fill="#E6E6E6"/>
<path d="M254.317 332.843H246.775V398.114H254.317V332.843Z" fill="#FAFAFA"/>
<path d="M261.858 338.479H254.317V398.114H261.858V338.479Z" fill="#E0E0E0"/>
<path d="M290.506 338.479H284.637V398.114H290.506V338.479Z" fill="#E0E0E0"/>
<path d="M305.635 338.479H298.93V398.114H305.635V338.479Z" fill="#E0E0E0"/>
<path d="M298.93 333.881H290.506V398.114H298.93V333.881Z" fill="#F0F0F0"/>
<path d="M273.24 338.479H261.858V398.114H273.24V338.479Z" fill="#F5F5F5"/>
<path d="M284.637 334.748H273.255V398.114H284.637V334.748Z" fill="#E6E6E6"/>
<path d="M165.771 332.843H158.23V398.114H165.771V332.843Z" fill="#E0E0E0"/>
<path d="M173.313 338.479H165.771V398.114H173.313V338.479Z" fill="#E6E6E6"/>
<path d="M201.961 338.479H196.092V398.114H201.961V338.479Z" fill="#E0E0E0"/>
<path d="M210.385 333.881H201.961V398.114H210.385V333.881Z" fill="#F0F0F0"/>
<path d="M218.778 333.881H210.354V398.114H218.778V333.881Z" fill="#F5F5F5"/>
<path d="M184.694 338.479H173.313V398.114H184.694V338.479Z" fill="#F5F5F5"/>
<path d="M196.092 334.748H184.71V398.114H196.092V334.748Z" fill="#E6E6E6"/>
<path d="M254.317 258.467H246.775V312.325H254.317V258.467Z" fill="#FAFAFA"/>
<path d="M261.858 252.706H254.317V312.341H261.858V252.706Z" fill="#E0E0E0"/>
<path d="M306.471 252.706H298.93V312.341H306.471V252.706Z" fill="#E0E0E0"/>
<path d="M290.506 252.706H284.637V312.341H290.506V252.706Z" fill="#E0E0E0"/>
<path d="M298.93 248.091H290.506V312.325H298.93V248.091Z" fill="#F0F0F0"/>
<path d="M273.24 252.706H261.858V312.341H273.24V252.706Z" fill="#F5F5F5"/>
<path d="M284.637 248.958H273.255V312.324H284.637V248.958Z" fill="#E6E6E6"/>
<path d="M203.23 312.34H210.772V258.482H203.23V312.34Z" fill="#FAFAFA"/>
<path d="M195.704 312.325H203.246V252.69H195.704V312.325Z" fill="#E0E0E0"/>
<path d="M210.787 312.325H218.329V252.69H210.787V312.325Z" fill="#E0E0E0"/>
<path d="M167.041 312.325H172.91V252.69H167.041V312.325Z" fill="#E0E0E0"/>
<path d="M158.617 312.34H167.041V263.437H158.617V312.34Z" fill="#E0E0E0"/>
<path d="M184.307 312.325H195.689V252.69H184.307V312.325Z" fill="#F5F5F5"/>
<path d="M172.925 312.34H184.307V248.974H172.925V312.34Z" fill="#E6E6E6"/>
<path d="M248.556 187.776C248.556 187.776 257.011 191.787 259.148 184.973C261.285 178.159 270.22 185.236 272.001 177.23C273.782 169.224 281.091 174.52 283.599 168.946C286.108 163.371 294.548 163.231 294.021 157.517C293.495 151.803 283.708 157.905 279.248 156.263C274.788 154.622 271.939 164.145 266.055 164.161C260.17 164.176 258.219 175.403 254.363 174.071C250.507 172.74 247.472 182.325 248.556 187.776Z" fill="#EBEBEB"/>
<path d="M246.744 190.547C246.744 190.547 263.778 170.958 286.077 159.112C286.077 159.112 274.386 160.784 245.165 189.882L246.744 190.547Z" fill="#E0E0E0"/>
<path d="M217.787 184.989C217.787 184.989 204.036 181.086 208.495 171.052C212.955 161.017 195.519 160.212 201.558 149.202C207.597 138.192 193.815 136.937 196.572 128.018C199.328 119.098 189.758 110.426 196.107 104.387C202.456 98.3478 207.566 115.227 214.333 117.813C221.1 120.399 214.782 134.227 221.534 140.174C228.286 146.12 219.242 160.971 225.003 163.309C230.763 165.647 224.538 179.816 217.787 184.989Z" fill="#E0E0E0"/>
<path d="M217.074 189.99C217.074 189.99 217.074 150.286 203.509 114.313C203.509 114.313 215.262 127.987 219.552 190.827L217.074 189.99Z" fill="#FAFAFA"/>
<path d="M238.599 186.289C238.599 186.289 250.136 188.798 250.848 179.692C251.56 170.587 264.537 176.797 264.444 166.267C264.351 155.736 274.866 160.243 276.352 152.577C277.839 144.912 288.214 142.264 285.938 135.311C283.661 128.358 273.364 138.811 267.355 138.068C261.347 137.324 260.588 150.022 253.418 151.757C246.249 153.491 246.961 168.032 241.835 167.505C236.71 166.979 235.719 179.832 238.599 186.289Z" fill="#E0E0E0"/>
<path d="M237.143 190.269C237.143 190.269 252.629 160.847 276.616 139.663C276.616 139.663 262.679 145.145 235.022 189.897L237.143 190.269Z" fill="#F5F5F5"/>
<path d="M184.896 188.581C184.896 188.581 176.843 191.353 175.357 184.106C173.87 176.859 165.183 182.697 164.13 174.257C163.077 165.818 155.984 170.107 154.095 164.068C152.206 158.028 144.448 156.588 145.346 150.874C146.244 145.16 154.792 152.841 159.004 151.85C163.216 150.859 165.198 160.986 170.556 161.884C175.914 162.782 176.936 174.505 180.56 173.731C184.183 172.956 186.289 183.208 184.896 188.581Z" fill="#F0F0F0"/>
<path d="M186.351 191.663C186.351 191.663 172.074 169.162 152.531 153.739C152.531 153.739 163.139 157.208 187.853 191.229L186.351 191.663Z" fill="#E0E0E0"/>
<path d="M195.426 184.121C195.426 184.121 190.083 188.085 181.69 172.863C173.297 157.641 165.647 139.601 155.52 134.15C155.52 134.15 169.457 131.595 182.743 150.069C196.03 168.543 198.213 182.542 195.426 184.121Z" fill="#E0E0E0"/>
<path d="M199.034 190.098C194.837 180.497 190.997 172.708 187.559 166.406C186.869 164.076 186.826 161.603 187.435 159.251C186.468 160.796 186.124 162.651 186.475 164.439C183.626 159.344 181.086 155.287 178.856 152.051C177.865 148.598 179.011 147.405 179.011 147.405C177.726 147.916 177.679 149.403 177.896 150.626C171.826 142.125 168.419 140.189 168.419 140.189C169.859 141.877 171.238 143.596 172.585 145.346C170.908 144.341 168.979 143.836 167.025 143.89C169.477 144.268 171.786 145.288 173.715 146.848C176.394 150.44 178.841 154.11 181.071 157.687C178.967 155.688 176.387 154.26 173.576 153.537C174.164 153.692 177.834 154.885 182.542 160.103C185.081 164.331 187.28 168.419 189.17 172.151C186.821 170.366 183.906 169.492 180.962 169.689C184.265 170.074 187.377 171.438 189.897 173.606C192.573 178.956 194.971 184.44 197.083 190.036L199.034 190.098Z" fill="#F5F5F5"/>
<path d="M204.934 183.331C204.934 183.331 198.74 185.902 194.264 169.116C189.789 152.33 186.522 132.988 178.067 125.308C178.067 125.308 192.251 126.159 200.706 147.235C209.161 168.311 207.984 182.449 204.934 183.331Z" fill="#F5F5F5"/>
<path d="M207.009 189.99C205.212 179.662 203.339 171.191 201.496 164.238C201.372 161.818 201.907 159.41 203.044 157.27C201.743 158.546 200.969 160.265 200.877 162.086C199.328 156.464 197.779 151.912 196.417 148.257C196.277 144.68 197.671 143.859 197.671 143.859C196.293 144.045 195.89 145.408 195.813 146.709C191.941 136.999 189.108 134.32 189.108 134.32C190.099 136.302 191.028 138.3 191.91 140.313C190.523 138.938 188.772 137.987 186.862 137.572C189.155 138.525 191.153 140.07 192.654 142.048C194.404 146.182 195.906 150.317 197.299 154.343C195.73 151.896 193.56 149.892 190.997 148.52C191.523 148.815 194.806 150.843 198.151 157.037C199.591 161.683 200.768 166.329 201.713 170.324C199.858 168.028 197.234 166.482 194.326 165.972C197.441 167.133 200.137 169.198 202.069 171.903C203.403 177.736 204.437 183.633 205.166 189.572L207.009 189.99Z" fill="#E0E0E0"/>
<path d="M229.184 182.836C229.184 182.836 237.267 185.933 242.594 163.99C247.921 142.047 251.374 116.729 262.23 106.447C262.23 106.447 243.802 107.995 233.489 135.745C223.176 163.495 225.127 181.798 229.184 182.836Z" fill="#F5F5F5"/>
<path d="M226.629 191.57C228.626 178.082 230.779 166.994 232.947 157.889C233.01 154.726 232.213 151.606 230.639 148.861C232.381 150.475 233.449 152.687 233.628 155.055C235.455 147.684 237.283 141.722 238.971 136.922C238.971 132.276 237.205 131.239 237.205 131.239C239.002 131.424 239.559 133.267 239.698 134.893C244.437 122.118 248.03 118.541 248.03 118.541C246.806 121.142 245.66 123.79 244.576 126.438C246.339 124.609 248.583 123.315 251.049 122.706C248.102 124.025 245.554 126.097 243.663 128.714C241.541 134.15 239.714 139.554 238.134 144.866C240.093 141.64 242.851 138.973 246.14 137.123C245.459 137.526 241.247 140.22 237.112 148.427C235.378 154.622 234.015 160.506 232.916 165.833C235.254 162.789 238.615 160.693 242.377 159.933C236.539 162.643 233.798 165.786 232.498 167.908C230.992 175.531 229.886 183.227 229.184 190.966L226.629 191.57Z" fill="#E0E0E0"/>
<path d="M274.85 195.116L271.753 207.164C271.142 209.461 269.792 211.494 267.912 212.949C266.031 214.404 263.725 215.201 261.347 215.216H177.772C175.395 215.201 173.088 214.404 171.208 212.949C169.327 211.494 167.977 209.461 167.366 207.164L164.269 195.116C164.057 194.293 164.035 193.432 164.206 192.599C164.377 191.767 164.737 190.984 165.257 190.312C165.777 189.639 166.444 189.095 167.207 188.72C167.969 188.345 168.808 188.149 169.658 188.148H269.446C270.298 188.143 271.14 188.335 271.906 188.709C272.673 189.082 273.343 189.626 273.866 190.3C274.388 190.973 274.748 191.758 274.919 192.593C275.09 193.428 275.066 194.291 274.85 195.116Z" fill="#E6E6E6"/>
<path d="M387.135 576.072C552.956 576.072 687.381 568.224 687.381 558.542C687.381 548.861 552.956 541.013 387.135 541.013C221.313 541.013 86.8885 548.861 86.8885 558.542C86.8885 568.224 221.313 576.072 387.135 576.072Z" fill="#F5F5F5"/>
<path d="M548.353 539.201L513.48 461.883H431.95L444.431 534.246C444.578 535.09 444.557 535.955 444.369 536.791C444.182 537.626 443.831 538.417 443.338 539.118C442.845 539.818 442.218 540.414 441.494 540.872C440.77 541.33 439.963 541.641 439.119 541.787C438.772 541.85 438.419 541.881 438.066 541.88H402.311C401.391 541.88 400.508 542.246 399.858 542.896C399.207 543.547 398.842 544.429 398.842 545.349V549.189C398.842 550.109 399.207 550.992 399.858 551.642C400.508 552.293 401.391 552.658 402.311 552.658H545.829C546.827 552.658 547.784 552.262 548.49 551.556C549.196 550.85 549.592 549.893 549.592 548.895V544.9C549.582 542.935 549.16 540.994 548.353 539.201ZM510.6 529.6H471.453C470.219 529.597 469.026 529.159 468.083 528.363C467.14 527.567 466.507 526.465 466.296 525.249L460.396 491.181C460.278 490.504 460.295 489.81 460.445 489.139C460.595 488.469 460.876 487.834 461.271 487.272C461.667 486.71 462.169 486.231 462.75 485.863C463.33 485.494 463.978 485.244 464.655 485.126C464.959 485.103 465.264 485.103 465.568 485.126H495.161C496.172 485.127 497.162 485.42 498.01 485.969C498.859 486.518 499.531 487.301 499.946 488.223L515.431 522.291C515.786 523.09 515.936 523.964 515.869 524.835C515.802 525.706 515.519 526.546 515.045 527.28C514.572 528.015 513.924 528.62 513.159 529.041C512.393 529.462 511.535 529.686 510.662 529.693L510.6 529.6Z" fill="#263238"/>
<path opacity="0.5" d="M548.353 539.201L513.48 461.883H431.95L444.431 534.246C444.578 535.09 444.557 535.955 444.369 536.791C444.182 537.626 443.831 538.417 443.338 539.118C442.845 539.818 442.218 540.414 441.494 540.872C440.77 541.33 439.963 541.641 439.119 541.787C438.772 541.85 438.419 541.881 438.066 541.88H402.311C401.391 541.88 400.508 542.246 399.858 542.896C399.207 543.547 398.842 544.429 398.842 545.349V549.189C398.842 550.109 399.207 550.992 399.858 551.642C400.508 552.293 401.391 552.658 402.311 552.658H545.829C546.827 552.658 547.784 552.262 548.49 551.556C549.196 550.85 549.592 549.893 549.592 548.895V544.9C549.582 542.935 549.16 540.994 548.353 539.201ZM510.6 529.6H471.453C470.219 529.597 469.026 529.159 468.083 528.363C467.14 527.567 466.507 526.465 466.296 525.249L460.396 491.181C460.278 490.504 460.295 489.81 460.445 489.139C460.595 488.469 460.876 487.834 461.271 487.272C461.667 486.71 462.169 486.231 462.75 485.863C463.33 485.494 463.978 485.244 464.655 485.126C464.959 485.103 465.264 485.103 465.568 485.126H495.161C496.172 485.127 497.162 485.42 498.01 485.969C498.859 486.518 499.531 487.301 499.946 488.223L515.431 522.291C515.786 523.09 515.936 523.964 515.869 524.835C515.802 525.706 515.519 526.546 515.045 527.28C514.572 528.015 513.924 528.62 513.159 529.041C512.393 529.462 511.535 529.686 510.662 529.693L510.6 529.6Z" fill="white"/>
<path opacity="0.2" d="M510.6 529.6H471.453C470.219 529.597 469.026 529.159 468.083 528.363C467.14 527.567 466.507 526.465 466.296 525.249L460.396 491.181C460.278 490.504 460.295 489.81 460.445 489.139C460.595 488.469 460.876 487.834 461.271 487.272C461.667 486.71 462.169 486.231 462.75 485.863C463.33 485.495 463.978 485.244 464.655 485.126C464.959 485.103 465.264 485.103 465.568 485.126H495.161C496.172 485.127 497.162 485.42 498.01 485.969C498.859 486.518 499.531 487.301 499.946 488.224L515.431 522.291C515.786 523.09 515.936 523.964 515.869 524.835C515.802 525.706 515.519 526.546 515.045 527.28C514.572 528.015 513.924 528.62 513.159 529.041C512.393 529.462 511.535 529.686 510.662 529.693L510.6 529.6Z" fill="white"/>
<path d="M470.168 484.957H465.522C464.833 484.955 464.151 485.088 463.514 485.351C462.877 485.613 462.299 485.998 461.811 486.484C461.323 486.97 460.936 487.548 460.672 488.184C460.408 488.82 460.272 489.502 460.272 490.191C460.267 490.492 460.293 490.793 460.35 491.089L466.25 525.157C466.461 526.372 467.093 527.475 468.036 528.27C468.979 529.066 470.173 529.504 471.406 529.508H476.052C474.815 529.508 473.619 529.072 472.672 528.275C471.726 527.479 471.091 526.375 470.88 525.157L464.98 491.089C464.746 489.719 465.065 488.313 465.866 487.178C466.667 486.043 467.885 485.272 469.254 485.034C469.556 484.984 469.861 484.958 470.168 484.957Z" fill="#263238"/>
<path d="M552.968 539.201L518.064 461.96H513.418L548.291 539.201C549.111 541.005 549.533 542.965 549.53 544.946V548.941C549.53 549.939 549.134 550.897 548.428 551.602C547.722 552.308 546.765 552.704 545.767 552.704H550.413C550.906 552.704 551.395 552.607 551.851 552.418C552.306 552.228 552.72 551.951 553.068 551.601C553.416 551.252 553.692 550.837 553.88 550.38C554.067 549.924 554.162 549.435 554.16 548.941V544.946C554.178 542.968 553.771 541.009 552.968 539.201Z" fill="#263238"/>
<path opacity="0.2" d="M513.449 461.883H431.919L435.124 480.341H521.796L513.449 461.883Z" fill="black"/>
<path d="M630.395 469.997H282.593C281.09 470.026 279.596 469.759 278.197 469.21C276.797 468.661 275.52 467.842 274.437 466.8C273.354 465.757 272.487 464.511 271.886 463.134C271.285 461.756 270.961 460.273 270.932 458.771C270.9 458.255 270.9 457.738 270.932 457.222L292.968 205.956C293.32 202.507 294.922 199.306 297.473 196.958C300.023 194.61 303.346 193.277 306.812 193.212H654.63C657.666 193.158 660.6 194.311 662.787 196.419C664.973 198.528 666.233 201.417 666.29 204.454C666.323 204.97 666.323 205.487 666.29 206.002L644.192 457.268C643.848 460.711 642.254 463.908 639.711 466.253C637.168 468.599 633.854 469.931 630.395 469.997Z" fill="#263238"/>
<path opacity="0.3" d="M630.395 469.997H282.593C281.09 470.026 279.596 469.759 278.197 469.21C276.797 468.661 275.52 467.842 274.437 466.8C273.354 465.757 272.487 464.511 271.886 463.134C271.285 461.756 270.961 460.273 270.932 458.771C270.9 458.255 270.9 457.738 270.932 457.222L292.968 205.956C293.32 202.507 294.922 199.306 297.473 196.958C300.023 194.61 303.346 193.277 306.812 193.212H654.63C657.666 193.158 660.6 194.311 662.787 196.419C664.973 198.528 666.233 201.417 666.29 204.454C666.323 204.97 666.323 205.487 666.29 206.002L644.192 457.268C643.848 460.711 642.254 463.908 639.711 466.253C637.168 468.599 633.854 469.931 630.395 469.997Z" fill="white"/>
<path d="M273.364 430.107L270.994 457.268C270.655 460.287 271.528 463.316 273.421 465.692C275.314 468.067 278.073 469.593 281.091 469.935C281.606 469.969 282.124 469.969 282.639 469.935H630.395C633.862 469.876 637.186 468.545 639.735 466.196C642.285 463.846 643.882 460.641 644.223 457.191L646.608 430.03L273.364 430.107Z" fill="#046306"/>
<path opacity="0.7" d="M273.364 430.107L270.994 457.268C270.655 460.287 271.528 463.316 273.421 465.692C275.314 468.067 278.073 469.593 281.091 469.935C281.606 469.969 282.124 469.969 282.639 469.935H630.395C633.862 469.876 637.186 468.545 639.735 466.196C642.285 463.846 643.882 460.641 644.223 457.191L646.608 430.03L273.364 430.107Z" fill="white"/>
<path d="M634.328 422.411H286.975C286.159 422.429 285.348 422.286 284.587 421.99C283.826 421.694 283.132 421.25 282.543 420.685C281.955 420.119 281.484 419.443 281.157 418.695C280.831 417.946 280.656 417.141 280.642 416.325C280.626 416.057 280.626 415.788 280.642 415.52L298.868 207.799C299.073 205.938 299.946 204.215 301.324 202.948C302.702 201.681 304.492 200.956 306.363 200.908H653.716C654.532 200.891 655.343 201.036 656.103 201.334C656.863 201.633 657.556 202.078 658.143 202.645C658.73 203.212 659.2 203.889 659.524 204.638C659.849 205.387 660.022 206.193 660.034 207.009C660.057 207.272 660.057 207.536 660.034 207.799L641.839 415.52C641.633 417.383 640.758 419.108 639.377 420.375C637.996 421.643 636.202 422.366 634.328 422.411Z" fill="#046306"/>
<path opacity="0.8" d="M634.328 422.411H286.975C286.159 422.429 285.348 422.286 284.587 421.99C283.826 421.694 283.132 421.25 282.543 420.685C281.955 420.119 281.484 419.443 281.157 418.695C280.831 417.946 280.656 417.141 280.642 416.325C280.626 416.057 280.626 415.788 280.642 415.52L298.868 207.799C299.073 205.938 299.946 204.215 301.324 202.948C302.702 201.681 304.492 200.956 306.363 200.908H653.716C654.532 200.891 655.343 201.036 656.103 201.334C656.863 201.633 657.556 202.078 658.143 202.645C658.73 203.212 659.2 203.889 659.524 204.638C659.849 205.387 660.022 206.193 660.034 207.009C660.057 207.272 660.057 207.536 660.034 207.799L641.839 415.52C641.633 417.383 640.758 419.108 639.377 420.375C637.996 421.643 636.202 422.366 634.328 422.411Z" fill="#046306"/>
<path opacity="0.8" d="M634.328 422.411H286.975C286.159 422.429 285.348 422.286 284.587 421.99C283.826 421.694 283.132 421.25 282.543 420.685C281.955 420.119 281.484 419.443 281.157 418.695C280.831 417.946 280.656 417.141 280.642 416.325C280.626 416.057 280.626 415.788 280.642 415.52L298.868 207.799C299.073 205.938 299.946 204.215 301.324 202.948C302.702 201.681 304.492 200.956 306.363 200.908H653.716C654.532 200.891 655.343 201.036 656.103 201.334C656.863 201.633 657.556 202.078 658.143 202.645C658.73 203.212 659.2 203.889 659.524 204.638C659.849 205.387 660.022 206.193 660.034 207.009C660.057 207.272 660.057 207.536 660.034 207.799L641.839 415.52C641.633 417.383 640.758 419.108 639.377 420.375C637.996 421.643 636.202 422.366 634.328 422.411Z" fill="white"/>
<g opacity="0.5">
<path opacity="0.5" d="M384.316 422.426H352.587L399.678 200.907H431.392L384.316 422.426Z" fill="white"/>
<path opacity="0.5" d="M404.386 422.426H396.271L443.362 200.907H451.477L404.386 422.426Z" fill="white"/>
<path opacity="0.5" d="M522.539 422.426H517.212L564.303 200.907H569.615L522.539 422.426Z" fill="white"/>
<path opacity="0.5" d="M542.624 422.426H534.509L581.585 200.907H589.699L542.624 422.426Z" fill="white"/>
</g>
<path d="M662.31 193.243H654.568C656.071 193.214 657.564 193.481 658.964 194.03C660.363 194.579 661.641 195.398 662.724 196.44C663.806 197.483 664.673 198.729 665.275 200.106C665.876 201.484 666.2 202.967 666.228 204.469C666.261 204.985 666.261 205.502 666.228 206.018L644.192 457.269C643.851 460.719 642.254 463.924 639.704 466.273C637.155 468.623 633.831 469.954 630.364 470.013H638.107C641.572 469.951 644.895 468.618 647.443 466.269C649.992 463.92 651.591 460.718 651.935 457.269L673.909 205.956C674.075 204.461 673.944 202.948 673.524 201.504C673.105 200.06 672.405 198.712 671.464 197.539C670.524 196.365 669.361 195.389 668.043 194.665C666.725 193.941 665.276 193.484 663.781 193.32C663.294 193.255 662.802 193.229 662.31 193.243Z" fill="#263238"/>
<path opacity="0.6" d="M662.31 193.243H654.568C656.071 193.214 657.564 193.481 658.964 194.03C660.363 194.579 661.641 195.398 662.724 196.44C663.806 197.483 664.673 198.729 665.275 200.106C665.876 201.484 666.2 202.967 666.228 204.469C666.261 204.985 666.261 205.502 666.228 206.018L644.192 457.269C643.851 460.719 642.254 463.924 639.704 466.273C637.155 468.623 633.831 469.954 630.364 470.013H638.107C641.572 469.951 644.895 468.618 647.443 466.269C649.992 463.92 651.591 460.718 651.935 457.269L673.909 205.956C674.075 204.461 673.944 202.948 673.524 201.504C673.105 200.06 672.405 198.712 671.464 197.539C670.524 196.365 669.361 195.389 668.043 194.665C666.725 193.941 665.276 193.484 663.781 193.32C663.294 193.255 662.802 193.229 662.31 193.243Z" fill="white"/>
<path d="M477.941 344.86C477.219 351.917 473.938 358.465 468.716 363.267C463.495 368.069 456.696 370.792 449.603 370.922C446.268 370.977 442.959 370.321 439.897 368.999C436.835 367.677 434.089 365.718 431.842 363.253C429.596 360.788 427.899 357.873 426.866 354.702C425.832 351.53 425.485 348.175 425.848 344.86C426.57 337.803 429.852 331.255 435.073 326.453C440.295 321.651 447.094 318.928 454.187 318.798L455.364 305.48C433.607 305.48 414.436 323.103 412.531 344.86C410.626 366.617 426.716 384.239 448.472 384.239C470.229 384.239 489.338 366.601 491.259 344.86H477.941Z" fill="#046306"/>
<path d="M495.935 339.13C497.84 317.373 481.751 299.751 459.994 299.751L458.832 313.068C462.17 313.006 465.484 313.657 468.551 314.976C471.618 316.296 474.369 318.254 476.619 320.72C478.87 323.186 480.569 326.104 481.604 329.278C482.638 332.453 482.984 335.812 482.618 339.13H495.935Z" fill="#046306"/>
<path opacity="0.3" d="M495.935 339.13C497.84 317.373 481.751 299.751 459.994 299.751L458.832 313.068C462.17 313.006 465.484 313.657 468.551 314.976C471.618 316.296 474.369 318.254 476.619 320.72C478.87 323.186 480.569 326.104 481.604 329.278C482.638 332.453 482.984 335.812 482.618 339.13H495.935Z" fill="black"/>
<path d="M463.308 344.86C462.979 348.072 461.485 351.052 459.108 353.238C456.731 355.424 453.636 356.663 450.408 356.722C448.888 356.751 447.379 356.455 445.982 355.855C444.585 355.255 443.332 354.364 442.306 353.242C441.281 352.119 440.506 350.791 440.034 349.346C439.562 347.901 439.403 346.371 439.568 344.86C439.883 341.634 441.373 338.637 443.755 336.438C446.136 334.239 449.243 332.993 452.483 332.936L453.01 326.866C448.134 326.978 443.469 328.87 439.892 332.184C436.315 335.499 434.074 340.007 433.591 344.86C433.342 347.142 433.582 349.452 434.295 351.634C435.008 353.816 436.178 355.822 437.727 357.517C439.275 359.212 441.167 360.558 443.276 361.464C445.385 362.371 447.664 362.819 449.959 362.777C454.822 362.67 459.478 360.789 463.051 357.49C466.624 354.19 468.869 349.699 469.362 344.86H463.308Z" fill="#046306"/>
<path opacity="0.3" d="M463.308 344.86C462.979 348.072 461.485 351.052 459.108 353.238C456.731 355.424 453.636 356.663 450.408 356.722C448.888 356.751 447.379 356.455 445.982 355.855C444.585 355.255 443.332 354.364 442.306 353.242C441.281 352.119 440.506 350.791 440.034 349.346C439.562 347.901 439.403 346.371 439.568 344.86C439.883 341.634 441.373 338.637 443.755 336.438C446.136 334.239 449.243 332.993 452.483 332.936L453.01 326.866C448.134 326.978 443.469 328.87 439.892 332.184C436.315 335.499 434.074 340.007 433.591 344.86C433.342 347.142 433.582 349.452 434.295 351.634C435.008 353.816 436.178 355.822 437.727 357.517C439.275 359.212 441.167 360.558 443.276 361.464C445.385 362.371 447.664 362.819 449.959 362.777C454.822 362.67 459.478 360.789 463.051 357.49C466.624 354.19 468.869 349.699 469.362 344.86H463.308Z" fill="black"/>
<path d="M471.499 342.227C471.748 339.945 471.508 337.636 470.795 335.453C470.082 333.271 468.912 331.265 467.364 329.57C465.815 327.875 463.923 326.53 461.814 325.623C459.705 324.716 457.427 324.268 455.131 324.311L454.605 330.365C456.125 330.337 457.634 330.632 459.031 331.232C460.428 331.832 461.681 332.723 462.707 333.845C463.732 334.968 464.507 336.296 464.979 337.741C465.451 339.186 465.61 340.716 465.445 342.227H471.499Z" fill="#046306"/>
<path d="M548.183 365.362H516.902C516.629 365.366 516.358 365.312 516.107 365.203C515.856 365.094 515.631 364.934 515.447 364.732C515.263 364.53 515.123 364.291 515.038 364.032C514.952 363.772 514.923 363.497 514.951 363.225C515.012 362.647 515.281 362.111 515.709 361.718C516.136 361.324 516.693 361.1 517.274 361.088H548.617C548.889 361.084 549.16 361.139 549.41 361.247C549.66 361.356 549.884 361.517 550.067 361.719C550.251 361.921 550.389 362.16 550.472 362.42C550.556 362.68 550.583 362.954 550.552 363.225C550.494 363.813 550.219 364.357 549.781 364.752C549.343 365.148 548.773 365.365 548.183 365.362Z" fill="#263238"/>
<path d="M539.62 373.771H516.159C515.886 373.775 515.616 373.721 515.366 373.612C515.115 373.503 514.891 373.342 514.708 373.14C514.525 372.938 514.387 372.699 514.303 372.439C514.22 372.18 514.193 371.905 514.223 371.634C514.28 371.055 514.549 370.517 514.977 370.122C515.406 369.728 515.964 369.506 516.546 369.497H539.991C540.271 369.484 540.549 369.532 540.808 369.637C541.067 369.743 541.3 369.904 541.49 370.109C541.681 370.314 541.824 370.558 541.91 370.824C541.996 371.09 542.023 371.372 541.989 371.65C541.927 372.234 541.651 372.775 541.213 373.167C540.775 373.559 540.207 373.774 539.62 373.771Z" fill="#263238"/>
<path d="M357.264 368.893H388.591C389.17 368.885 389.727 368.665 390.155 368.274C390.583 367.883 390.853 367.348 390.913 366.772C390.947 366.5 390.921 366.225 390.839 365.964C390.756 365.703 390.618 365.463 390.435 365.26C390.251 365.057 390.026 364.897 389.774 364.789C389.523 364.681 389.251 364.628 388.978 364.635H357.713C357.131 364.643 356.572 364.866 356.144 365.26C355.715 365.654 355.447 366.192 355.39 366.772C355.359 367.037 355.385 367.305 355.465 367.56C355.545 367.815 355.678 368.05 355.855 368.25C356.031 368.45 356.248 368.61 356.491 368.721C356.733 368.832 356.997 368.891 357.264 368.893Z" fill="#263238"/>
<path d="M364.387 377.302H387.847C388.428 377.29 388.985 377.066 389.413 376.673C389.84 376.279 390.11 375.743 390.17 375.165C390.201 374.892 390.173 374.617 390.089 374.356C390.004 374.095 389.865 373.855 389.68 373.653C389.495 373.45 389.269 373.29 389.017 373.182C388.765 373.074 388.493 373.022 388.219 373.028H364.774C364.19 373.036 363.63 373.258 363.199 373.652C362.768 374.046 362.496 374.584 362.436 375.165C362.407 375.437 362.437 375.712 362.522 375.971C362.608 376.231 362.747 376.47 362.931 376.671C363.116 376.873 363.341 377.034 363.592 377.143C363.842 377.251 364.113 377.305 364.387 377.302Z" fill="#263238"/>
<path d="M509.082 364.449H498.413L474.209 337.938H466.42L466.621 335.693H475.34L499.528 362.219H509.284L509.082 364.449Z" fill="#263238"/>
<path d="M394.738 369.11H405.408L429.611 342.583H437.4L437.215 340.354H428.481L404.293 366.865H394.537L394.738 369.11Z" fill="#263238"/>
<path opacity="0.1" d="M381.761 233.102H325.1L326.045 222.293H382.706L381.761 233.102Z" fill="black"/>
<path opacity="0.1" d="M379.872 254.704H323.211L324.156 243.895H380.817L379.872 254.704Z" fill="black"/>
<path opacity="0.1" d="M377.983 276.306H321.322L322.267 265.497H378.928L377.983 276.306Z" fill="black"/>
<path opacity="0.2" d="M380.817 243.895H324.156L325.1 233.102H381.761L380.817 243.895Z" fill="white"/>
<path opacity="0.2" d="M378.928 265.497H322.267L323.211 254.704H379.872L378.928 265.497Z" fill="white"/>
<path d="M357.186 275.067C349.598 275.067 348.328 262.307 346.997 248.742C345.758 236.354 344.473 223.392 337.829 223.392C332.394 223.392 326.169 241.696 324.233 248.742L323.134 248.541C324.384 244.132 325.872 239.795 327.594 235.549C331.233 226.722 334.717 222.247 337.938 222.247C345.526 222.247 346.795 235.022 348.127 248.572C349.366 260.96 350.651 273.921 357.295 273.921C362.591 273.921 368.63 256.531 370.736 249.145C370.779 248.999 370.873 248.873 371.001 248.791C371.129 248.708 371.282 248.675 371.433 248.696C371.505 248.71 371.573 248.739 371.633 248.781C371.693 248.823 371.743 248.877 371.781 248.94C371.819 249.002 371.843 249.072 371.853 249.145C371.862 249.218 371.856 249.291 371.835 249.361C370.616 253.563 369.179 257.698 367.53 261.75C363.907 270.592 360.407 275.067 357.186 275.067Z" fill="#046306"/>
<path d="M331.047 269.183C325.286 269.183 323.304 251.003 323.103 248.928L324.249 248.727C324.775 254.1 327.067 268.037 331.14 268.037C335.212 268.037 337.582 259.721 339.78 251.685C342.227 242.796 344.535 234.403 349.629 234.403C353.919 234.403 354.616 241.356 355.343 248.727C355.994 255.308 356.675 262.106 359.989 262.106C363.303 262.106 365.192 255.308 367.004 248.727C369.017 241.356 370.922 234.403 375.211 234.403C377.1 234.403 378.587 236.803 379.748 241.727C380.23 243.849 380.602 245.994 380.863 248.154C380.877 248.309 380.832 248.463 380.738 248.587C380.643 248.71 380.505 248.793 380.352 248.82C380.282 248.835 380.209 248.836 380.138 248.821C380.067 248.807 380 248.777 379.941 248.735C379.883 248.692 379.834 248.638 379.798 248.575C379.762 248.512 379.74 248.443 379.733 248.371C379.144 243.199 377.456 235.549 375.087 235.549C371.742 235.549 369.884 242.347 368.072 248.928C366.059 256.299 364.139 263.252 359.85 263.252C355.56 263.252 354.879 256.299 354.151 248.928C353.485 242.347 352.819 235.549 349.505 235.549C345.34 235.549 343.063 243.864 340.864 251.901C338.449 260.79 336.141 269.183 331.047 269.183Z" fill="#046306"/>
<g opacity="0.5">
<path opacity="0.5" d="M331.047 269.183C325.286 269.183 323.304 251.003 323.103 248.928L324.249 248.727C324.775 254.1 327.067 268.037 331.14 268.037C335.212 268.037 337.582 259.721 339.78 251.684C342.227 242.796 344.534 234.403 349.629 234.403C353.919 234.403 354.615 241.356 355.343 248.727C355.994 255.308 356.675 262.106 359.989 262.106C363.303 262.106 365.192 255.308 367.004 248.727C369.017 241.356 370.922 234.403 375.211 234.403C377.1 234.403 378.587 236.803 379.748 241.727C380.23 243.849 380.602 245.994 380.863 248.154C380.877 248.308 380.832 248.463 380.738 248.586C380.643 248.71 380.505 248.793 380.352 248.819C380.282 248.835 380.208 248.836 380.138 248.821C380.067 248.806 380 248.777 379.941 248.734C379.883 248.692 379.834 248.638 379.798 248.575C379.762 248.512 379.74 248.442 379.733 248.37C379.144 243.198 377.456 235.549 375.087 235.549C371.742 235.549 369.884 242.347 368.072 248.928C366.059 256.299 364.139 263.252 359.85 263.252C355.56 263.252 354.879 256.299 354.151 248.928C353.485 242.347 352.819 235.549 349.505 235.549C345.34 235.549 343.063 243.864 340.864 251.901C338.449 260.79 336.141 269.183 331.047 269.183Z" fill="black"/>
</g>
<path d="M378.355 277.39H320.548L325.364 222.99C325.379 222.819 325.457 222.659 325.583 222.542C325.708 222.425 325.873 222.358 326.045 222.355C326.126 222.352 326.208 222.367 326.283 222.398C326.358 222.43 326.425 222.478 326.48 222.538C326.534 222.599 326.575 222.671 326.599 222.749C326.623 222.827 326.629 222.909 326.618 222.99L321.972 276.198H378.463C378.544 276.197 378.624 276.214 378.698 276.246C378.771 276.279 378.838 276.327 378.892 276.387C378.946 276.447 378.987 276.517 379.011 276.594C379.036 276.671 379.045 276.752 379.036 276.833C379.004 276.99 378.919 277.131 378.794 277.232C378.67 277.334 378.515 277.39 378.355 277.39Z" fill="#263238"/>
<path d="M508.463 224.647H417.099L415.551 242.625L415.411 244.174L413.971 260.666L413.847 262.215L412.299 280.193H521.641L523.19 262.215L523.313 260.666L524.769 244.174L524.893 242.625L526.441 224.647H508.463ZM490.345 226.196H506.837L505.397 242.687H488.905L490.345 226.196ZM503.817 260.666H487.341L488.781 244.174H505.273L503.817 260.666ZM434.845 244.174H451.337L449.897 260.666H433.405L434.845 244.174ZM452.824 244.174H469.316L467.876 260.666H451.384L452.824 244.174ZM470.802 244.174H487.294L485.854 260.666H469.362L470.802 244.174ZM472.351 226.196H488.827L487.387 242.687H470.942L472.351 226.196ZM454.372 226.196H470.864L469.409 242.687H452.963L454.372 226.196ZM436.394 226.196H452.886L451.446 242.687H434.985L436.394 226.196ZM418.415 226.196H434.907L433.467 242.687H417.006L418.415 226.196ZM416.867 244.174H433.343L431.903 260.666H415.427L416.867 244.174ZM430.339 278.645H413.863L415.303 262.153H431.795L430.339 278.645ZM448.302 278.645H431.841L433.281 262.153H449.773L448.302 278.645ZM466.281 278.645H449.82L451.26 262.153H467.736L466.281 278.645ZM484.259 278.645H467.783L469.238 262.153H485.715L484.259 278.645ZM502.238 278.645H485.761L487.201 262.153H503.693L502.238 278.645ZM520.216 278.645H503.74L505.18 262.153H521.672L520.216 278.645ZM521.765 260.666H505.319L506.76 244.174H523.236L521.765 260.666ZM506.852 242.687L508.293 226.196H524.785L523.406 242.625L506.852 242.687Z" fill="#046306"/>
<path d="M435 279.326H423.309L425.167 258.157H436.843L435 279.326Z" fill="#046306"/>
<path d="M452.979 279.326H441.287L443.641 252.366H455.333L452.979 279.326Z" fill="#263238"/>
<path d="M471.824 279.326H460.148L462.502 252.366H474.194L471.824 279.326Z" fill="#046306"/>
<path d="M488.92 279.326H477.229L480.899 237.515H492.59L488.92 279.326Z" fill="#263238"/>
<path d="M506.899 279.326H495.207L499.141 234.387H510.832L506.899 279.326Z" fill="#046306"/>
<path opacity="0.2" d="M435 279.326H423.309L425.167 258.157H436.843L435 279.326Z" fill="black"/>
<path opacity="0.2" d="M471.824 279.326H460.148L462.502 252.366H474.194L471.824 279.326Z" fill="black"/>
<path opacity="0.2" d="M506.899 279.326H495.207L499.141 234.387H510.832L506.899 279.326Z" fill="black"/>
<path d="M596.59 422.426C602.212 378.711 607.771 331.79 607.771 331.79L562.863 331.512C562.863 331.512 558.713 380.446 555.446 422.426H596.59Z" fill="#263238"/>
<path opacity="0.6" d="M598.17 422.426C600.152 406.166 602.119 389.458 603.822 374.87C604.225 368.785 604.596 362.869 604.968 357.263C601.546 349.35 594.84 344.984 590.148 363.256C585.478 382.681 585.282 402.914 589.575 422.426H598.17Z" fill="black"/>
<path d="M634.065 422.426C632.005 379.454 629.776 330.876 629.776 330.876H586.416C586.416 330.876 590.179 381.018 594.159 422.426H634.065Z" fill="#263238"/>
<path d="M558.62 228.626C555.523 235.719 552.07 243.121 548.4 249.965C546.572 253.434 544.606 256.763 542.562 259.876C540.768 262.697 538.648 265.296 536.244 267.619C535.832 268.002 535.392 268.354 534.927 268.672C534.72 268.784 534.524 268.913 534.339 269.059C534.339 269.059 534.556 269.152 534.339 269.183C534.025 269.185 533.714 269.122 533.425 268.997C532.172 268.471 531.007 267.756 529.972 266.875C528.611 265.773 527.323 264.583 526.116 263.314C520.87 257.505 516.091 251.292 511.823 244.731L503.864 248.432C506.561 256.81 510.446 264.757 515.4 272.032C516.77 273.997 518.287 275.856 519.938 277.591C521.847 279.619 524.044 281.357 526.457 282.748C527.991 283.616 529.646 284.252 531.366 284.637C533.403 285.085 535.51 285.117 537.56 284.73C540.834 284.001 543.897 282.528 546.51 280.425C550.313 277.308 553.677 273.694 556.514 269.678C559.148 266.122 561.588 262.426 563.823 258.606C565.976 254.828 568.004 251.034 569.831 247.147C571.659 243.26 573.424 239.404 575.05 235.285L558.62 228.626Z" fill="#CE7A63"/>
<path d="M537.823 258.761L557.691 273.581C557.691 273.581 558.45 272.744 559.704 271.289C560.633 270.22 561.81 268.811 563.188 267.139C570.931 257.739 582.189 240.581 582.282 232.173C582.421 219.645 569.398 217.802 554.811 230.624C548.508 236.152 545.225 245.32 542.02 251.018C540.951 252.892 540.069 254.534 539.372 255.803C538.381 257.662 537.823 258.761 537.823 258.761Z" fill="#046306"/>
<path opacity="0.3" d="M582.406 233.628C577.915 230.655 574.663 238.274 565.774 244.824C561.826 247.72 553.154 266.581 553.866 270.731L557.691 273.581C557.691 273.581 582.514 246.109 582.406 233.628Z" fill="black"/>
<path d="M506.078 251.452L494.712 242.455L506.419 234.929C506.419 234.929 515.71 245.056 513.186 248.54L506.078 251.452Z" fill="#CE7A63"/>
<path d="M537.823 256.825L559.534 273.069L556.824 275.888L536.166 260.635L537.823 256.825Z" fill="#046306"/>
<path opacity="0.2" d="M537.823 256.825L559.534 273.069L556.824 275.888L536.166 260.635L537.823 256.825Z" fill="black"/>
<path d="M562.631 331.511H629.853C630.318 325.519 628.939 305.976 629.961 281.106C630.6 262.675 632.839 244.333 636.651 226.288C636.945 224.925 637.255 223.594 637.58 222.231C637.58 222.231 634.173 221.534 629.296 220.822C625.238 220.233 620.144 219.629 615.173 219.382C605.657 218.847 596.118 218.847 586.602 219.382C582.204 219.8 577.915 220.528 574.493 221.178C570.126 222.061 567.54 222.819 567.54 222.819C567.54 222.819 550.986 260.836 562.631 331.511Z" fill="#046306"/>
<path d="M494.015 229.525L503.508 226.397L506.419 234.929L494.712 242.455L494.015 229.525Z" fill="#CE7A63"/>
<path d="M645.168 237.871C647.057 241.758 648.575 245.459 650.123 249.315C651.672 253.171 653.035 257.057 654.304 261.053C655.599 265.123 656.68 269.258 657.541 273.441C658.518 277.984 658.975 282.623 658.904 287.269C658.812 290.216 658.225 293.127 657.169 295.879C656.442 297.699 655.393 299.372 654.072 300.819C652.576 302.43 650.733 303.68 648.683 304.474C645.43 305.61 641.915 305.771 638.571 304.938C636.11 304.371 633.728 303.503 631.479 302.352C627.561 300.36 623.87 297.951 620.469 295.167C618.812 293.851 617.232 292.473 615.715 291.032C614.197 289.592 612.726 288.183 611.24 286.557L616.861 279.821C623.175 283.675 629.862 286.881 636.821 289.391C638.216 289.834 639.654 290.13 641.111 290.274C642.319 290.382 643.062 290.041 642.737 289.995C642.53 290.025 642.333 290.104 642.164 290.227C642.009 290.32 642.024 290.305 642.086 290.057C642.283 289.037 642.356 287.997 642.303 286.96C642.147 283.656 641.628 280.379 640.755 277.189C639.903 273.704 638.788 270.143 637.549 266.597C635.118 259.52 632.176 252.242 629.187 245.443L645.168 237.871Z" fill="#CE7A63"/>
<path d="M619.664 282.004L609.056 272.156L603.388 284.931C603.388 284.931 614.832 292.581 617.883 289.577L619.664 282.004Z" fill="#CE7A63"/>
<path d="M596.157 273.425L594.515 283.29L603.388 284.869L609.056 272.156L596.157 273.425Z" fill="#CE7A63"/>
<path opacity="0.3" d="M629.961 281.122C630.6 262.685 632.838 244.338 636.651 226.288C632.16 225.901 624.479 226.288 623.21 233.597C621.831 241.402 623.566 259.737 629.961 281.122Z" fill="black"/>
<path d="M621.537 243.818C624.278 252.371 627.525 260.753 631.262 268.92C632.067 270.762 632.811 272.388 633.43 273.72C634.499 276.043 635.18 277.452 635.18 277.452L660.328 264.63C660.328 264.63 660.049 263.577 659.554 261.812C659.182 260.48 658.671 258.715 658.005 256.733C654.304 244.871 646.624 223.671 638.432 222.185C626.229 219.97 617.062 228.874 621.537 243.818Z" fill="#046306"/>
<path d="M598.712 228.828C615.297 228.379 617.79 220.264 617.898 219.908L618.007 219.552L615.173 219.382C605.657 218.847 596.118 218.847 586.602 219.382L585.054 219.552C584.359 220.13 583.823 220.875 583.498 221.718C583.173 222.561 583.069 223.473 583.195 224.368C583.923 227.202 587.841 228.146 591.201 228.549L598.712 228.828Z" fill="white"/>
<path d="M659.74 260.109L632.253 274.169L635.366 277.979L660.917 264.708L659.74 260.109Z" fill="#046306"/>
<path opacity="0.2" d="M659.74 260.109L632.253 274.169L635.366 277.979L660.917 264.708L659.74 260.109Z" fill="black"/>
<path d="M602.815 237.407L594.639 230.02L584.713 236.927C584.713 236.927 574.369 227.124 582.049 219.893C583.598 219.691 585.054 219.506 586.602 219.351C596.118 218.816 605.657 218.816 615.173 219.351C617.124 219.444 619.075 219.614 620.995 219.8C620.422 222.603 617.495 231.724 602.815 237.407Z" fill="#046306"/>
<path opacity="0.2" d="M602.815 237.407L594.639 230.02L584.713 236.927C584.713 236.927 574.369 227.124 582.049 219.893C583.598 219.691 585.054 219.506 586.602 219.351C596.118 218.816 605.657 218.816 615.173 219.351C617.124 219.444 619.075 219.614 620.995 219.8C620.422 222.603 617.495 231.724 602.815 237.407Z" fill="black"/>
<path d="M598.17 227.156C614.151 226.861 616.272 219.413 616.272 219.413C610.078 213.219 612.432 196.51 614.553 187.296L606.904 193.645L596.497 202.286C596.807 203.675 597.03 205.081 597.163 206.498C597.721 212.135 596.265 217.338 587.965 219.243C587.965 219.243 578.101 225.762 592.734 226.985L598.17 227.156Z" fill="#CE7A63"/>
<path opacity="0.2" d="M596.497 202.332C596.807 203.721 597.03 205.128 597.163 206.544C601.05 205.755 606.238 201.62 606.78 197.656C606.969 196.343 607.011 195.013 606.904 193.691L596.497 202.332Z" fill="black"/>
<path d="M617.712 174.103C615.049 186.321 614.12 193.599 606.873 199.174C604.546 201.017 601.76 202.189 598.815 202.561C595.87 202.934 592.879 202.493 590.167 201.287C587.455 200.081 585.125 198.155 583.429 195.719C581.733 193.283 580.737 190.429 580.547 187.467C579.603 176.085 584.109 158.044 596.962 154.56C599.729 153.725 602.667 153.635 605.48 154.297C608.293 154.959 610.882 156.351 612.986 158.333C615.09 160.314 616.635 162.815 617.465 165.584C618.294 168.352 618.38 171.291 617.712 174.103Z" fill="#CE7A63"/>
<path d="M598.433 175.326C598.278 176.317 597.612 177.076 596.962 176.998C596.312 176.921 595.893 176.038 596.048 175.032C596.203 174.025 596.854 173.282 597.519 173.359C598.185 173.437 598.588 174.319 598.433 175.326Z" fill="#263238"/>
<path d="M587.051 173.963C586.897 174.97 586.231 175.713 585.503 175.636C584.775 175.558 584.434 174.691 584.589 173.685C584.744 172.678 585.394 171.935 586.06 172.012C586.726 172.09 587.206 172.957 587.051 173.963Z" fill="#263238"/>
<path d="M590.582 174.892C588.886 177.827 586.803 180.52 584.388 182.898C585.936 184.756 589.033 184.369 589.033 184.369L590.582 174.892Z" fill="#BA4D3C"/>
<path d="M602.506 172.074C602.609 172.079 602.712 172.052 602.8 171.996C602.935 171.918 603.035 171.791 603.079 171.641C603.122 171.49 603.105 171.329 603.032 171.191C602.602 170.347 601.969 169.623 601.191 169.082C600.413 168.542 599.514 168.202 598.572 168.094C598.415 168.09 598.262 168.147 598.146 168.254C598.03 168.361 597.961 168.509 597.953 168.667C597.949 168.745 597.96 168.824 597.987 168.898C598.014 168.972 598.055 169.04 598.109 169.098C598.162 169.155 598.227 169.202 598.298 169.234C598.37 169.267 598.447 169.284 598.526 169.286C599.253 169.384 599.946 169.653 600.548 170.07C601.151 170.487 601.647 171.041 601.995 171.687C602.033 171.794 602.102 171.887 602.193 171.956C602.284 172.025 602.392 172.065 602.506 172.074Z" fill="#263238"/>
<path d="M582.762 169.488C582.859 169.486 582.955 169.461 583.041 169.415C583.127 169.37 583.201 169.304 583.257 169.224C583.668 168.585 584.219 168.048 584.868 167.654C585.518 167.259 586.248 167.018 587.005 166.948C587.085 166.95 587.164 166.936 587.238 166.906C587.313 166.877 587.38 166.832 587.437 166.776C587.493 166.719 587.538 166.652 587.567 166.578C587.597 166.503 587.611 166.424 587.609 166.344C587.605 166.187 587.539 166.037 587.426 165.927C587.314 165.817 587.162 165.756 587.005 165.756C586.052 165.826 585.129 166.115 584.307 166.602C583.485 167.088 582.787 167.758 582.266 168.558C582.222 168.622 582.191 168.694 582.175 168.77C582.159 168.846 582.158 168.925 582.173 169.001C582.187 169.077 582.217 169.15 582.259 169.215C582.302 169.28 582.357 169.336 582.421 169.379C582.52 169.452 582.639 169.49 582.762 169.488Z" fill="#263238"/>
<path d="M585.72 187.683C585.72 187.683 589.452 186.723 599.966 186.444C598.82 189.634 596.59 192.282 591.201 192.375C590.528 192.455 589.846 192.394 589.197 192.197C588.549 192 587.948 191.67 587.433 191.229C586.918 190.789 586.5 190.246 586.205 189.636C585.91 189.025 585.745 188.36 585.72 187.683Z" fill="#263238"/>
<path d="M593.633 189.82C591.562 189.752 589.523 190.343 587.81 191.508C588.824 192.138 590.01 192.436 591.201 192.36C593.268 192.435 595.304 191.843 597.008 190.672C596 190.042 594.819 189.744 593.633 189.82Z" fill="#A02724"/>
<path d="M586.2 187.59C586.31 187.979 586.526 188.33 586.824 188.603C587.122 188.877 587.49 189.062 587.888 189.139C591.008 189.054 594.116 188.707 597.179 188.101C597.666 188.055 598.134 187.89 598.542 187.62C598.95 187.35 599.285 186.983 599.517 186.553C595.058 186.548 590.605 186.895 586.2 187.59Z" fill="white"/>
<path d="M610.729 164.966C608.468 162.643 607.817 159.825 598.464 160.661C589.111 161.497 579.247 168.698 579.433 160.661C579.433 158.803 581.074 160.971 584.156 156.945C584.156 156.945 575.701 160.77 578.349 155.396C580.47 151.06 582.87 157.719 593.695 149.357C604.519 140.995 618.765 148.536 622.869 159.778C624.998 160.466 626.808 161.898 627.966 163.813C629.124 165.727 629.552 167.995 629.172 170.2C628.212 177.385 618.131 182.681 617.093 191.431C616.938 192.669 618.487 194.682 617.248 195.395C616.536 195.797 614.786 193.196 614.786 193.196C614.541 193.686 614.364 194.207 614.259 194.744C614.011 195.906 616.551 198.91 614.368 200.226C613.129 200.97 612.587 198.755 611.843 194.992C611.529 193.324 611.44 191.621 611.58 189.928C612.107 182.372 608.483 185.84 608.623 181.04C608.715 177.711 611.379 172.136 613.005 169.039C613.273 168.553 613.338 167.982 613.188 167.449C613.037 166.915 612.682 166.463 612.2 166.189C611.644 165.868 611.146 165.454 610.729 164.966Z" fill="#263238"/>
<path d="M620.531 186.862C618.556 189.25 615.824 190.889 612.788 191.508C608.932 192.158 608.142 188.597 610.016 185.143C611.782 182.046 615.916 177.958 619.307 178.949C622.699 179.94 623.024 183.858 620.531 186.862Z" fill="#CE7A63"/>
<path d="M207.496 429.076L163.151 423.914C162.876 423.882 162.61 423.796 162.369 423.662C162.127 423.527 161.915 423.346 161.743 423.129C161.571 422.912 161.444 422.664 161.368 422.398C161.293 422.132 161.27 421.853 161.302 421.579L161.496 419.917L207.933 425.323L207.496 429.076Z" fill="#263238"/>
<path opacity="0.2" d="M207.496 429.076L163.151 423.914C162.876 423.882 162.61 423.796 162.369 423.662C162.127 423.527 161.915 423.346 161.743 423.129C161.571 422.912 161.444 422.664 161.368 422.398C161.293 422.132 161.27 421.853 161.302 421.579L161.496 419.917L207.933 425.323L207.496 429.076Z" fill="white"/>
<path d="M235.115 432.371L198.907 428.156C198.352 428.092 197.846 427.809 197.499 427.371C197.153 426.933 196.994 426.376 197.059 425.821L197.252 424.16L235.552 428.618L235.115 432.371Z" fill="#263238"/>
<path opacity="0.5" d="M235.115 432.371L198.907 428.156C198.352 428.092 197.846 427.809 197.499 427.371C197.153 426.933 196.994 426.376 197.059 425.821L197.252 424.16L235.552 428.618L235.115 432.371Z" fill="white"/>
<path d="M226.794 430.177L230.547 430.614L230.703 429.276L226.949 428.839L226.794 430.177Z" fill="#263238"/>
<path d="M220.931 429.501L224.684 429.938L224.839 428.599L221.086 428.162L220.931 429.501Z" fill="#263238"/>
<path d="M233.04 428.326L235.533 428.605L242.052 395.001L239.559 394.707L233.04 428.326Z" fill="#263238"/>
<path opacity="0.3" d="M233.04 428.326L235.533 428.605L242.052 395.001L239.559 394.707L233.04 428.326Z" fill="white"/>
<path d="M233.953 428.434L190.099 423.324L196.634 389.705L240.488 394.815L233.953 428.434Z" fill="#046306"/>
<path opacity="0.5" d="M233.953 428.434L190.099 423.324L196.634 389.705L240.488 394.815L233.953 428.434Z" fill="white"/>
<path d="M144.432 354.832C143.224 357.233 141.893 359.834 140.7 362.374C139.508 364.913 138.3 367.484 137.216 370.116C136.132 372.749 135.064 375.242 134.119 377.766C133.255 380.1 132.597 382.504 132.152 384.951C131.995 385.778 131.922 386.619 131.936 387.46V387.677V387.553C131.719 387.243 133.035 388.776 133.98 389.442C134.924 390.108 136.055 390.789 137.216 391.44C141.862 394.072 147.266 396.411 152.454 398.811L150.704 406.058C147.624 405.82 144.563 405.391 141.536 404.773C138.439 404.18 135.386 403.373 132.4 402.357C130.812 401.818 129.26 401.177 127.754 400.437C125.931 399.58 124.228 398.487 122.691 397.185C121.57 396.209 120.627 395.045 119.903 393.747C119.795 393.546 119.687 393.329 119.594 393.128L119.361 392.601C119.219 392.262 119.095 391.916 118.99 391.564C118.786 390.93 118.626 390.283 118.51 389.628C118.16 387.546 118.087 385.427 118.293 383.326C118.661 379.937 119.335 376.589 120.306 373.322C121.22 370.225 122.273 367.283 123.403 364.387C124.534 361.491 125.757 358.688 127.089 355.932C128.42 353.175 129.721 350.481 131.316 347.694L144.432 354.832Z" fill="#FFB573"/>
<path d="M149 399.043L160.15 396.178L161.079 406.213C161.079 406.213 153.553 409.31 148.923 404.463L149 399.043Z" fill="#FFB573"/>
<path d="M164.656 397.65L167.025 405.733L161.079 406.213L160.15 396.178L164.656 397.65Z" fill="#FFB573"/>
<path d="M120.786 366.648L136.705 374.53C136.705 374.53 140.793 375.83 148.319 363.798C157.037 349.861 152.268 341.933 141.753 341.561C131.239 341.19 127.12 354.461 120.786 366.648Z" fill="#046306"/>
<path opacity="0.5" d="M120.786 366.648L136.705 374.53C136.705 374.53 140.793 375.83 148.319 363.798C157.037 349.861 152.268 341.933 141.753 341.561C131.239 341.19 127.12 354.461 120.786 366.648Z" fill="white"/>
<path opacity="0.2" d="M126.64 369.59L135.745 374.096L140.375 368.63L135.234 354.925L133.809 353.346L130.232 352.835L126.64 369.59Z" fill="black"/>
<path d="M120.662 365.486L138.285 374.499L135.931 377.286L119.718 369.017L120.662 365.486Z" fill="#046306"/>
<path d="M168.326 305.93C168.853 305.806 169.488 306.27 169.766 307.06C170.045 307.85 169.844 308.609 169.317 308.779C168.791 308.949 168.156 308.423 167.877 307.648C167.598 306.874 167.815 306.053 168.326 305.93Z" fill="#2E353A"/>
<path d="M171.145 314.353C171.732 314.292 172.299 314.102 172.805 313.797C173.31 313.492 173.743 313.079 174.071 312.588C172.059 311.364 170.215 309.88 168.589 308.175L171.145 314.353Z" fill="#ED893E"/>
<path d="M164.842 304.722C164.938 304.126 165.173 303.562 165.528 303.075C165.883 302.588 166.349 302.192 166.886 301.919C166.989 301.869 167.07 301.783 167.116 301.678C167.161 301.573 167.168 301.455 167.134 301.346C167.095 301.224 167.01 301.123 166.897 301.062C166.785 301.001 166.653 300.987 166.53 301.021C165.833 301.345 165.228 301.838 164.769 302.454C164.309 303.07 164.01 303.791 163.897 304.551C163.886 304.612 163.888 304.675 163.901 304.736C163.915 304.796 163.94 304.854 163.977 304.904C164.013 304.955 164.058 304.997 164.111 305.03C164.164 305.062 164.223 305.084 164.285 305.093H164.532C164.611 305.063 164.681 305.013 164.736 304.948C164.79 304.883 164.826 304.805 164.842 304.722Z" fill="#2E353A"/>
<path d="M145.439 342.847C144.897 345.216 144.541 346.346 146.678 347.384C151.072 349.681 156.086 350.511 160.986 349.753C166.05 348.886 166.964 347.074 166.747 345.619C166.573 345.059 166.271 344.548 165.865 344.126C165.459 343.704 164.96 343.383 164.408 343.187C163.285 342.701 162.331 341.893 161.667 340.865C161.003 339.837 160.658 338.635 160.676 337.411C160.43 336.112 160.43 334.778 160.676 333.478L151.757 327.485L144.912 319.866C146.594 327.418 146.773 335.226 145.439 342.847Z" fill="#FFB573"/>
<path d="M173.947 348.143C173.947 348.143 170.587 338.852 165.167 336.777C159.747 334.702 143.488 335.832 143.488 335.832C142.698 339.166 141.663 342.437 140.391 345.619L173.947 348.143Z" fill="#046306"/>
<path d="M140.669 309.708C140.783 306.051 142.344 302.588 145.01 300.082C147.676 297.576 151.228 296.231 154.885 296.344C165.369 296.716 171.501 310.188 172.445 319.371C173.483 329.576 163.448 338.108 153.863 333.462C147.467 330.365 145.687 324.822 141.831 315.623C141.017 313.76 140.62 311.741 140.669 309.708Z" fill="#FFB573"/>
<path opacity="0.2" d="M142.357 339.858C141.769 341.809 141.118 343.729 140.375 345.618L171.346 347.957C170.587 346.116 169.626 344.366 168.481 342.738C161.048 339.718 147.932 339.703 142.357 339.858Z" fill="black"/>
<path d="M244.685 515.431L254.146 511.343L261.424 534.122L251.963 538.226L244.685 515.431Z" fill="#FFB573"/>
<path opacity="0.2" d="M244.685 515.431L254.146 511.343L257.785 522.725L248.215 526.488L244.685 515.431Z" fill="black"/>
<path d="M262.477 530.127C265.311 532.496 271.087 534.215 275.516 534.463C278.923 534.649 279.217 538.551 274.943 539.279C270.669 540.006 263.221 539.65 260.093 539.79C255.014 539.975 253.295 540.812 249.253 540.75C248.772 540.726 248.32 540.515 247.993 540.161C247.666 539.808 247.49 539.342 247.503 538.861L248.355 529.74C248.371 529.545 248.462 529.365 248.61 529.237C248.758 529.11 248.95 529.045 249.145 529.058L260.697 529.43C261.352 529.453 261.981 529.698 262.477 530.127Z" fill="#046306"/>
<path d="M158.261 421.404C158.261 421.404 150.317 430.819 156.712 445.732C163.944 462.626 202.317 455.209 223.299 460.598C226.288 490.438 243.709 520.991 243.709 520.991L258.265 515.292C258.265 515.292 251.963 491.522 247.224 449.417C244.901 428.698 192.329 426.437 192.329 426.437L158.261 421.404Z" fill="#046306"/>
<path d="M240.798 518.358L259.349 511.885L260.464 518.668L243.57 524.8L240.798 518.358Z" fill="#046306"/>
<path d="M199.885 525.202L210.106 524.722L208.433 548.818L198.228 549.313L199.885 525.202Z" fill="#FFB573"/>
<path d="M211.221 546.294C214.055 548.647 218.824 551.93 223.206 552.565C226.025 552.968 228.146 557.211 222.866 557.211C217.585 557.211 212.026 556.715 208.821 556.607C203.741 556.452 202.053 556.901 197.981 556.901C197.499 556.881 197.044 556.671 196.716 556.317C196.389 555.963 196.214 555.494 196.231 555.012L197.067 545.891C197.087 545.698 197.179 545.52 197.326 545.393C197.473 545.266 197.663 545.201 197.857 545.21L209.409 545.566C210.079 545.59 210.72 545.847 211.221 546.294Z" fill="#046306"/>
<path opacity="0.2" d="M198.972 538.504L209.13 538.52L210.106 524.722L199.885 525.218L198.972 538.504Z" fill="black"/>
<path d="M132.741 423.045C132.741 423.045 124.363 440.079 132.509 450.919C139.88 460.814 177.509 461.465 196.665 461.465C194.76 484.801 196.866 532.697 196.866 532.697L212.181 532.481C212.181 532.481 223.021 486.396 225.204 454.156C226.443 436.239 162.674 424.362 162.674 424.362L132.741 423.045Z" fill="#046306"/>
<path d="M194.744 529.57L215.789 528.95L214.875 535.237L195.55 535.516L194.744 529.57Z" fill="#046306"/>
<path d="M132.431 425.476L186.073 426.56L187.884 355.962C187.548 352.112 185.784 348.526 182.939 345.91C180.093 343.294 176.372 341.837 172.507 341.824H141.149C139.705 341.814 138.273 342.092 136.938 342.643C135.602 343.194 134.39 344.006 133.373 345.031C132.356 346.057 131.554 347.276 131.015 348.616C130.476 349.956 130.209 351.39 130.232 352.834L132.431 425.476Z" fill="#046306"/>
<path opacity="0.6" d="M132.431 425.476L186.073 426.56L187.884 355.962C187.548 352.112 185.784 348.526 182.939 345.91C180.093 343.294 176.372 341.837 172.507 341.824H141.149C139.705 341.814 138.273 342.092 136.938 342.643C135.602 343.194 134.39 344.006 133.373 345.031C132.356 346.057 131.554 347.276 131.015 348.616C130.476 349.956 130.209 351.39 130.232 352.834L132.431 425.476Z" fill="white"/>
<path d="M187.095 354.321L188.101 358.285C188.457 359.648 188.829 361.011 189.232 362.373C190.037 365.083 190.78 367.793 191.756 370.441C192.731 373.089 193.598 375.706 194.651 378.184C195.662 380.669 196.815 383.094 198.105 385.447C198.704 386.579 199.36 387.68 200.071 388.745C200.252 388.929 200.475 389.067 200.72 389.147C200.965 389.228 201.226 389.25 201.48 389.21C202.648 389.136 203.808 388.97 204.949 388.714C210.349 387.346 215.643 385.592 220.791 383.465L224.77 389.767C222.381 391.82 219.851 393.704 217.198 395.404C214.473 397.186 211.592 398.715 208.588 399.972C206.919 400.683 205.188 401.237 203.416 401.629C201.145 402.156 198.791 402.219 196.494 401.815C194.815 401.498 193.228 400.81 191.849 399.802C191.089 399.25 190.407 398.599 189.82 397.866L188.999 396.859C187.967 395.497 186.976 394.118 186.026 392.725C182.603 387.278 179.763 381.486 177.556 375.443C176.472 372.501 175.465 369.543 174.613 366.539C174.18 364.991 173.777 363.55 173.39 362.033C173.003 360.515 172.662 359.06 172.321 357.387L187.095 354.321Z" fill="#FFB573"/>
<path d="M222.99 390.433L233.365 385.431L227.635 377.178C227.635 377.178 219.893 379.64 219.474 386.345L222.99 390.433Z" fill="#FFB573"/>
<path d="M235.812 381.405L232.405 373.694L227.558 377.178L233.318 385.432L235.812 381.405Z" fill="#FFB573"/>
<path d="M177.323 378.277L193.32 372.594C193.32 372.594 195.596 370.411 191.461 356.876C186.645 341.097 177.525 339.533 170.386 347.198C163.247 354.863 172.321 365.455 177.323 378.277Z" fill="#046306"/>
<path opacity="0.5" d="M177.323 378.277L193.32 372.594C193.32 372.594 195.596 370.411 191.461 356.876C186.645 341.097 177.525 339.533 170.386 347.198C163.247 354.863 172.321 365.455 177.323 378.277Z" fill="white"/>
<path d="M175.62 376.883L194.295 370.318L194.698 373.941L177.525 379.996L175.62 376.883Z" fill="#046306"/>
<path d="M146.832 328.368C149.306 327.991 151.833 328.187 154.219 328.941C154.656 329.09 155.131 329.078 155.56 328.908C155.988 328.737 156.342 328.42 156.557 328.011C157.936 325.394 160.676 320.098 161.729 317.714C161.729 317.714 166.576 315.344 164.161 308.794C161.745 302.244 161.729 300.169 161.729 300.169C161.729 300.169 169.255 293.587 162.117 289.716C154.978 285.845 158.245 292.937 150.379 294.486C142.512 296.034 133.592 303.777 136.829 313.207C139.214 320.16 143.55 325.255 144.85 327.438C145.048 327.775 145.344 328.044 145.697 328.21C146.051 328.376 146.447 328.431 146.832 328.368Z" fill="#263238"/>
<path d="M158.385 310.699C161.017 310.296 163.851 312.96 164.78 315.345C165.818 318.039 164.47 321.105 161.683 320.362C159.542 319.75 157.698 318.38 156.495 316.506C155.04 314.121 155.752 311.086 158.385 310.699Z" fill="#FFB573"/>
<path d="M154.56 524.475V466.111H145.268V524.614L121.607 530.809C119.626 531.335 117.875 532.5 116.626 534.125C115.377 535.749 114.7 537.741 114.7 539.79V541.695C114.7 542.619 115.067 543.505 115.721 544.159C116.374 544.812 117.26 545.179 118.185 545.179C119.109 545.179 119.995 544.812 120.648 544.159C121.302 543.505 121.669 542.619 121.669 541.695C121.664 540.609 122.021 539.553 122.683 538.692C123.344 537.832 124.273 537.216 125.323 536.941L145.268 531.676V541.695C145.268 542.619 145.636 543.505 146.289 544.159C146.942 544.812 147.829 545.179 148.753 545.179H151.06C151.984 545.179 152.87 544.812 153.524 544.159C154.177 543.505 154.544 542.619 154.544 541.695V531.614L174.397 537.111C175.471 537.39 176.419 538.023 177.088 538.909C177.757 539.794 178.107 540.88 178.082 541.989C178.074 542.912 178.43 543.801 179.074 544.462C179.718 545.123 180.597 545.503 181.52 545.52C181.979 545.526 182.434 545.441 182.86 545.271C183.286 545.1 183.675 544.848 184.003 544.527C184.331 544.206 184.592 543.823 184.772 543.401C184.952 542.979 185.046 542.525 185.05 542.066V540.162C185.073 538.112 184.418 536.111 183.185 534.473C181.953 532.834 180.213 531.649 178.237 531.103L154.56 524.475Z" fill="#263238"/>
<path d="M112.439 551.667C112.436 550.548 112.765 549.454 113.384 548.523C114.004 547.591 114.885 546.864 115.918 546.434C116.95 546.004 118.087 545.89 119.185 546.106C120.282 546.322 121.291 546.859 122.083 547.649C122.875 548.439 123.415 549.446 123.634 550.543C123.853 551.64 123.742 552.777 123.315 553.811C122.888 554.845 122.163 555.728 121.233 556.35C120.304 556.972 119.21 557.304 118.092 557.304C116.595 557.304 115.16 556.71 114.1 555.654C113.041 554.597 112.444 553.163 112.439 551.667Z" fill="#046306"/>
<path d="M175.992 551.667C175.988 550.548 176.317 549.454 176.937 548.523C177.556 547.591 178.437 546.864 179.47 546.434C180.502 546.004 181.639 545.89 182.737 546.106C183.834 546.322 184.843 546.859 185.635 547.649C186.427 548.439 186.967 549.446 187.186 550.543C187.405 551.64 187.294 552.777 186.867 553.811C186.44 554.845 185.715 555.728 184.785 556.35C183.856 556.972 182.762 557.304 181.644 557.304C180.147 557.304 178.712 556.71 177.652 555.654C176.593 554.597 175.996 553.163 175.992 551.667Z" fill="#046306"/>
<path d="M144.215 551.667C144.212 550.548 144.541 549.454 145.161 548.523C145.78 547.591 146.661 546.864 147.694 546.434C148.726 546.004 149.863 545.89 150.961 546.106C152.058 546.322 153.067 546.859 153.859 547.649C154.651 548.439 155.191 549.446 155.41 550.543C155.629 551.64 155.518 552.777 155.091 553.811C154.664 554.845 153.939 555.728 153.009 556.35C152.08 556.972 150.986 557.304 149.868 557.304C148.371 557.304 146.936 556.71 145.876 555.654C144.817 554.597 144.22 553.163 144.215 551.667Z" fill="#046306"/>
<path opacity="0.6" d="M154.56 466.157H145.284V479.335H154.56V466.157Z" fill="black"/>
<path opacity="0.6" d="M138.362 533.596L144.215 532.047V524.939L138.362 526.488V533.596Z" fill="black"/>
<path opacity="0.6" d="M161.373 526.364L155.504 524.738V531.877L161.373 533.503V526.364Z" fill="black"/>
<path d="M157.486 462.239H213.838C215.555 462.239 217.201 462.921 218.415 464.135C219.629 465.349 220.311 466.995 220.311 468.712H157.486V462.239Z" fill="#046306"/>
<path opacity="0.5" d="M157.486 462.239H213.838C215.555 462.239 217.201 462.921 218.415 464.135C219.629 465.349 220.311 466.995 220.311 468.712H157.486V462.239Z" fill="black"/>
<path d="M117.488 379.392C97.6819 379.392 83.5747 394.165 84.6122 413.832L86.873 456.819C87.0435 460.014 88.4329 463.022 90.755 465.223C93.077 467.424 96.1548 468.65 99.3543 468.65H178.949L162.504 413.832C156.604 394.227 137.293 379.392 117.488 379.392Z" fill="#046306"/>
<path opacity="0.1" d="M117.488 379.392C97.6819 379.392 83.5747 394.165 84.6122 413.832L86.873 456.819C87.0435 460.014 88.4329 463.022 90.755 465.223C93.077 467.424 96.1548 468.65 99.3543 468.65H178.949L162.504 413.832C156.604 394.227 137.293 379.392 117.488 379.392Z" fill="black"/>
<path opacity="0.3" d="M113.477 379.671C95.8081 381.529 83.6521 395.574 84.6122 413.893L86.873 456.819C87.0435 460.014 88.4329 463.022 90.755 465.223C93.077 467.424 96.1548 468.65 99.3543 468.65H170.928L154.482 413.831C148.985 395.559 131.827 381.498 113.477 379.671Z" fill="black"/>
<path d="M187.9 466.854C187.323 466.273 186.999 465.488 186.999 464.67C186.999 463.852 187.323 463.067 187.9 462.487L204.763 445.623C205.009 445.378 205.176 445.066 205.244 444.727C205.311 444.387 205.277 444.034 205.144 443.714C205.011 443.394 204.787 443.121 204.498 442.928C204.21 442.736 203.871 442.634 203.524 442.635H167.382C166.56 442.635 165.772 442.308 165.192 441.727C164.611 441.147 164.285 440.359 164.285 439.537C164.285 438.716 164.611 437.928 165.192 437.348C165.772 436.767 166.56 436.44 167.382 436.44H203.199C204.682 436.413 206.144 436.785 207.433 437.518C208.722 438.251 209.79 439.318 210.524 440.606C211.34 442.111 211.647 443.841 211.399 445.535C211.15 447.229 210.36 448.798 209.146 450.006L192.282 466.854C191.994 467.142 191.653 467.37 191.277 467.526C190.901 467.682 190.498 467.762 190.091 467.762C189.684 467.762 189.281 467.682 188.905 467.526C188.529 467.37 188.187 467.142 187.9 466.854Z" fill="#263238"/>
<path opacity="0.2" d="M210.601 440.606C209.867 439.318 208.8 438.251 207.511 437.518C206.222 436.785 204.759 436.413 203.277 436.44H167.382C166.56 436.44 165.772 436.767 165.192 437.348C164.611 437.928 164.285 438.716 164.285 439.537C164.285 440.359 164.611 441.147 165.192 441.727C165.772 442.308 166.56 442.635 167.382 442.635H203.524C203.806 442.627 204.085 442.697 204.33 442.836H211.314C211.182 442.063 210.943 441.312 210.601 440.606Z" fill="white"/>
<path d="M329.049 422.07H284.405C284.128 422.07 283.854 422.016 283.599 421.91C283.343 421.804 283.111 421.649 282.916 421.453C282.72 421.258 282.565 421.025 282.459 420.77C282.353 420.514 282.299 420.241 282.299 419.964V418.292H329.049V422.07Z" fill="#263238"/>
<path opacity="0.2" d="M329.049 422.07H284.405C284.128 422.07 283.854 422.016 283.599 421.91C283.343 421.804 283.111 421.649 282.916 421.453C282.72 421.258 282.565 421.025 282.459 420.77C282.353 420.514 282.299 420.241 282.299 419.964V418.292H329.049V422.07Z" fill="white"/>
<path d="M356.907 422.07H320.455C319.896 422.07 319.361 421.848 318.966 421.453C318.571 421.058 318.349 420.523 318.349 419.964V418.292H356.907V422.07Z" fill="#263238"/>
<path opacity="0.5" d="M356.907 422.07H320.455C319.896 422.07 319.361 421.848 318.966 421.453C318.571 421.058 318.349 420.523 318.349 419.964V418.292H356.907V422.07Z" fill="white"/>
<path d="M348.375 420.847H352.153V419.499H348.375V420.847Z" fill="#263238"/>
<path d="M342.49 420.847H346.269V419.499H342.49V420.847Z" fill="#263238"/>
<path d="M354.352 418.292H356.861L359.462 384.146H356.938L354.352 418.292Z" fill="#263238"/>
<path opacity="0.3" d="M354.352 418.292H356.861L359.462 384.146H356.938L354.352 418.292Z" fill="white"/>
<path d="M355.266 418.292H311.117L313.719 384.146H357.867L355.266 418.292Z" fill="#046306"/>
<path opacity="0.4" d="M355.266 418.292H311.117L313.719 384.146H357.867L355.266 418.292Z" fill="white"/>
<path d="M280.502 347.539C279.14 352.386 278.799 357.589 285.767 359.478C285.767 359.478 292.271 368.646 284.467 374.793C279.523 368.285 273.286 362.87 266.147 358.89C270.685 354.833 269.802 343.265 268.749 336.931L280.502 347.539Z" fill="#CE7A63"/>
<path d="M289.159 322.36C289.685 322.22 290.336 322.716 290.599 323.521C290.862 324.326 290.599 325.178 290.103 325.302C289.608 325.426 288.927 324.961 288.663 324.14C288.4 323.32 288.617 322.483 289.159 322.36Z" fill="#2E353A"/>
<path d="M290.707 321.276L288.927 322.468C290.196 323.134 290.707 321.276 290.707 321.276Z" fill="#2E353A"/>
<path d="M291.125 331.124C291.669 331.086 292.196 330.927 292.67 330.659C293.144 330.391 293.553 330.021 293.866 329.576C292.126 328.38 290.563 326.947 289.221 325.317L291.125 331.124Z" fill="#BA4D3C"/>
<path d="M287.223 317.017C286.702 317.375 286.273 317.853 285.974 318.411C285.675 318.969 285.514 319.59 285.504 320.223C285.506 320.288 285.496 320.353 285.473 320.413C285.45 320.474 285.415 320.53 285.37 320.578C285.326 320.625 285.272 320.663 285.213 320.69C285.153 320.717 285.089 320.732 285.024 320.734C284.96 320.736 284.896 320.725 284.836 320.702C284.776 320.678 284.721 320.643 284.675 320.599C284.628 320.554 284.592 320.5 284.567 320.441C284.542 320.382 284.529 320.318 284.529 320.254C284.53 319.454 284.723 318.667 285.093 317.959C285.462 317.25 285.996 316.64 286.65 316.181C286.758 316.106 286.891 316.075 287.02 316.096C287.15 316.116 287.267 316.185 287.347 316.289C287.392 316.364 287.416 316.45 287.416 316.537C287.416 316.624 287.392 316.71 287.347 316.785C287.332 316.874 287.288 316.955 287.223 317.017Z" fill="#2E353A"/>
<path d="M258.807 322.87C259.134 319.09 260.949 315.594 263.853 313.152C266.757 310.71 270.512 309.521 274.293 309.847C285.38 310.668 291.528 325.085 292.271 334.763C293.108 345.526 281.912 352.386 271.815 347.152C265.048 343.652 263.747 339.409 259.845 329.607C258.97 327.475 258.614 325.166 258.807 322.87Z" fill="#CE7A63"/>
<path opacity="0.21" d="M253.403 335.6C238.878 317.249 256.717 311.969 256.717 311.969C262.307 304.226 271.521 302.678 279.945 305.883C288.369 309.089 285.891 314.787 282.81 315.345C288.57 322.964 285.272 326.757 283.367 327.299C286.387 346.47 267.897 353.95 253.403 335.6Z" fill="#263238"/>
<path d="M266.178 416.635C263.326 416.269 260.505 415.689 257.739 414.9C257.328 414.763 256.924 414.603 256.531 414.42L256.407 412.392C256.082 406.321 255.958 400.127 255.819 393.918L255.509 375.335H244.793C244.793 381.669 244.917 387.94 245.196 394.243C245.475 400.545 245.846 406.848 246.558 413.228L246.93 415.644L247.116 416.852C247.15 417.226 247.207 417.599 247.286 417.966C247.403 418.321 247.543 418.668 247.704 419.004C247.996 419.566 248.36 420.087 248.788 420.553C249.382 421.169 250.066 421.691 250.817 422.101C251.356 422.407 251.914 422.676 252.489 422.906C253.428 423.263 254.39 423.553 255.37 423.774C258.694 424.451 262.074 424.814 265.466 424.857C271.865 425.005 278.267 424.695 284.622 423.928L284.513 418.679C278.365 418.106 272.156 417.548 266.178 416.635Z" fill="#CE7A63"/>
<path d="M264.676 371.867C264.676 378.355 260.774 390.449 260.774 390.449L244.669 380.6C243.941 372.285 245.66 361.6 253.635 358.998C259.071 357.248 264.614 364.96 264.676 371.867Z" fill="#263238"/>
<path opacity="0.6" d="M253.109 367.205L249.408 370.86L248.695 383.078L260.774 390.495C260.774 390.495 264.676 378.355 264.676 371.913C264.639 370.228 264.33 368.56 263.763 366.973L258.203 365.301L253.109 367.205Z" fill="black"/>
<path d="M299.286 421.559C299.394 421.31 299.451 421.042 299.454 420.771C299.458 420.5 299.408 420.231 299.307 419.979C299.206 419.727 299.057 419.498 298.867 419.304C298.678 419.11 298.452 418.956 298.202 418.849L293.634 416.914C292.652 416.509 291.566 416.433 290.537 416.697L280.595 419.376L279.372 422.736C280.921 426.592 287.502 425.833 287.502 425.833L292.225 427.289C292.822 427.474 293.461 427.473 294.058 427.288C294.655 427.103 295.182 426.742 295.57 426.251L299.023 421.993C299.132 421.862 299.22 421.716 299.286 421.559Z" fill="#CE7A63"/>
<path d="M292.039 358.843C289.979 358.487 287.812 358.162 285.706 357.914C279.224 357.254 272.704 357.057 266.194 357.325C262.988 357.325 259.845 357.62 257.089 357.914H256.872C254.476 358.234 252.305 359.491 250.836 361.41C249.367 363.33 248.719 365.754 249.036 368.15C252.938 396.023 254.642 407.839 253.511 423.742L296.592 425.043C301.609 399.09 303.653 383.62 304.334 374.514C304.605 370.84 303.495 367.197 301.221 364.298C298.947 361.4 295.672 359.454 292.039 358.843Z" fill="#263238"/>
<path d="M342.041 518.575L352.215 517.615L359.075 542.671L348.901 543.631L342.041 518.575Z" fill="#CE7A63"/>
<path d="M268.114 423.727C251.746 445.407 253.047 463.881 269.957 463.881C285.024 463.881 303.808 464.779 324.156 463.478C328.631 496.292 345.727 534.525 345.727 534.525L357.016 533.472C357.016 533.472 346.718 485.467 345.928 451.941C345.433 431.671 288.199 433.359 288.199 433.359C288.199 433.359 278.164 423.789 268.114 423.727Z" fill="#263238"/>
<path opacity="0.3" d="M268.114 423.727C251.746 445.407 253.047 463.881 269.957 463.881C285.024 463.881 303.808 464.779 324.156 463.478C328.631 496.292 345.727 534.525 345.727 534.525L357.016 533.472C357.016 533.472 346.718 485.467 345.928 451.941C345.433 431.671 288.199 433.359 288.199 433.359C288.199 433.359 278.164 423.789 268.114 423.727Z" fill="white"/>
<path opacity="0.2" d="M347.275 471.561C346.61 464.794 346.13 458.12 345.99 451.941C345.495 431.671 288.261 433.359 288.261 433.359C286.996 432.211 285.667 431.136 284.281 430.138C282.066 430.417 280.797 430.603 280.797 430.603C280.797 430.603 272.156 430.463 263.546 430.401C252.195 448.984 254.828 463.85 269.957 463.85C278.907 463.85 289.205 464.159 300.355 464.144C315.499 460.009 331.171 454.853 338.278 452.592C340.632 459.201 343.646 465.557 347.275 471.561Z" fill="black"/>
<path d="M253.651 420.862L297.289 422.163C297.707 422.163 298.001 422.411 298.001 422.674L297.505 426.576C297.505 426.809 297.134 426.979 296.747 426.979L252.412 425.678C251.916 425.678 251.576 425.353 251.731 425.059L252.954 421.234C253.022 421.111 253.124 421.011 253.248 420.945C253.371 420.879 253.511 420.85 253.651 420.862Z" fill="#263238"/>
<path d="M325.658 407.824C321.012 408.428 316.181 409.016 311.551 409.372C309.328 409.586 307.094 409.669 304.861 409.62C304.253 409.604 303.648 409.542 303.049 409.434C302.651 407.706 302.377 405.952 302.228 404.185C302.058 402.001 302.012 399.802 302.058 397.603C302.105 395.404 302.306 393.082 302.538 390.852C302.647 389.721 302.786 388.544 302.956 387.476C303.127 386.407 303.297 385.184 303.467 384.27L293.015 382.041C292.705 383.465 292.488 384.658 292.302 385.943C292.116 387.228 291.977 388.451 291.838 389.783C291.579 392.356 291.46 394.94 291.482 397.526C291.439 402.944 292.308 408.331 294.052 413.46L294.222 413.956L294.362 414.297L294.548 414.73C294.688 414.997 294.843 415.255 295.012 415.504C295.583 416.324 296.329 417.006 297.196 417.502C298.216 418.073 299.335 418.446 300.494 418.602C302.033 418.819 303.592 418.856 305.14 418.71C307.747 418.486 310.335 418.072 312.882 417.471C317.729 416.335 322.485 414.844 327.113 413.011L325.658 407.824Z" fill="#CE7A63"/>
<path d="M286.356 370.534C282.949 375.304 289.763 388.312 289.763 388.312L303.235 387.46C303.235 387.46 306.75 370.736 300.556 363.488C297.211 359.617 289.949 365.563 286.356 370.534Z" fill="#263238"/>
<path d="M336.714 399.337C337.004 399.368 337.284 399.456 337.54 399.596C337.795 399.736 338.02 399.925 338.201 400.153C338.383 400.381 338.517 400.642 338.597 400.922C338.677 401.202 338.7 401.495 338.666 401.784L338.139 407.637C338.099 408.076 337.931 408.494 337.656 408.838C337.381 409.183 337.01 409.438 336.59 409.573L331.264 411.122C331.264 411.122 321.43 417.316 318.256 414.637L321.926 409.558L328.631 401.908C329.386 401.036 330.411 400.442 331.542 400.22L336.033 399.322C336.26 399.291 336.489 399.297 336.714 399.337Z" fill="#CE7A63"/>
<path d="M359.927 541.989C362.343 544.451 366.462 547.935 370.488 548.926C373.059 549.561 374.638 553.727 369.745 553.231C364.851 552.736 359.633 551.683 356.753 551.373C352.107 550.754 350.435 551.017 346.687 550.645C346.242 550.58 345.841 550.342 345.571 549.982C345.302 549.622 345.185 549.171 345.247 548.725L346.873 540.44C346.907 540.263 347.008 540.106 347.155 540.003C347.303 539.899 347.484 539.856 347.663 539.883L358.363 541.292C358.947 541.345 359.497 541.59 359.927 541.989Z" fill="#263238"/>
<path d="M282.732 315.36C282.732 315.36 288.028 321.368 284.513 327.857C284.513 327.857 281.277 331.914 282.732 340.431C284.188 348.948 290.707 355.808 276.058 355.73C262.276 355.653 244.979 358.44 246.915 344.984C246.915 344.984 240.628 339.084 247.704 332.781C247.704 332.781 242.362 325.379 248.959 319.526C248.959 319.526 245.552 307.432 257.352 308.035C257.352 308.035 259.984 296.003 272.558 302.755C272.558 302.755 277.885 294.269 285.953 302.755C285.953 302.755 299.085 303.823 289.825 311.458C289.825 311.489 290.274 317.683 282.732 315.36Z" fill="#263238"/>
<path d="M292.674 327.842C292.36 327.839 292.058 327.724 291.822 327.516C290.645 326.525 290.165 323.32 290.026 321.988L283.832 324.915L283.507 324.202L292.101 320.192C292.311 320.081 292.545 320.022 292.782 320.022C293.02 320.022 293.254 320.081 293.464 320.192C293.673 320.301 293.854 320.458 293.994 320.648C294.133 320.839 294.227 321.059 294.269 321.291C294.61 323.351 294.811 326.03 293.913 327.207C293.784 327.377 293.62 327.518 293.434 327.622C293.247 327.726 293.041 327.79 292.829 327.811L292.674 327.842ZM290.769 321.647C290.909 323.072 291.389 326.138 292.318 326.928C292.424 327.022 292.563 327.072 292.705 327.067C292.815 327.059 292.922 327.027 293.018 326.974C293.114 326.92 293.198 326.847 293.262 326.758C293.82 326.03 293.897 324.094 293.448 321.446C293.434 321.331 293.391 321.221 293.324 321.126C293.256 321.031 293.166 320.955 293.061 320.904C292.955 320.851 292.839 320.823 292.72 320.823C292.602 320.823 292.485 320.851 292.38 320.904L290.769 321.647Z" fill="#046306"/>
<path d="M278.737 327.872C278.679 327.39 278.716 326.901 278.848 326.434C278.979 325.966 279.201 325.529 279.502 325.148C279.803 324.766 280.176 324.448 280.6 324.211C281.024 323.975 281.491 323.824 281.974 323.769C284.792 323.474 286.96 326.866 287.579 329.204C288.261 331.868 286.774 334.314 284.018 333.447C281.936 332.761 280.211 331.281 279.217 329.328C278.952 328.884 278.788 328.387 278.737 327.872Z" fill="#CE7A63"/>
<path d="M373.492 496.059L382.118 487.883L393.654 505.412L386.748 511.39L373.492 496.059Z" fill="#CE7A63"/>
<path d="M257.584 424.083C256.563 424.073 255.568 424.406 254.759 425.03C253.95 425.653 253.374 426.531 253.124 427.521C247.302 450.223 253.868 463.943 269.957 463.943C285.024 463.943 326.138 450.486 339.053 446.305C349.893 477.554 381.096 505.536 381.096 505.536L389.287 498.026C389.287 498.026 371.108 463.014 358.533 431.872C351.317 413.987 281.571 424.316 281.571 424.316C281.571 424.316 267.696 424.083 257.584 424.083Z" fill="#263238"/>
<path opacity="0.3" d="M257.584 424.083C256.563 424.073 255.568 424.406 254.759 425.03C253.95 425.653 253.374 426.531 253.124 427.521C247.302 450.223 253.868 463.943 269.957 463.943C285.024 463.943 326.138 450.486 339.053 446.305C349.893 477.554 381.096 505.536 381.096 505.536L389.287 498.026C389.287 498.026 371.108 463.014 358.533 431.872C351.317 413.987 281.571 424.316 281.571 424.316C281.571 424.316 267.696 424.083 257.584 424.083Z" fill="white"/>
<path d="M393.778 501.526C397.216 501.262 402.187 498.645 405.315 495.92C407.7 493.814 410.456 496.23 408.071 499.497C405.686 502.764 400.499 507.41 398.501 509.532C395.234 512.985 394.63 514.657 391.92 517.274C391.583 517.571 391.143 517.725 390.695 517.701C390.246 517.678 389.824 517.48 389.52 517.15L384.131 510.507C384.07 510.439 384.024 510.359 383.996 510.272C383.967 510.185 383.956 510.094 383.963 510.003C383.97 509.912 383.996 509.823 384.038 509.742C384.08 509.661 384.138 509.59 384.208 509.532L392.168 502.238C392.61 501.827 393.177 501.576 393.778 501.526Z" fill="#263238"/>
<path d="M269.74 524.475V466.111H260.449V524.614L236.803 530.809C234.819 531.332 233.065 532.496 231.813 534.121C230.561 535.746 229.881 537.739 229.881 539.79V541.695C229.881 542.619 230.248 543.505 230.901 544.159C231.555 544.812 232.441 545.179 233.365 545.179C234.289 545.179 235.175 544.812 235.829 544.159C236.482 543.505 236.849 542.619 236.849 541.695C236.845 540.609 237.201 539.553 237.863 538.692C238.524 537.832 239.453 537.216 240.504 536.941L260.449 531.676V541.695C260.449 542.619 260.816 543.505 261.469 544.159C262.123 544.812 263.009 545.179 263.933 545.179H266.24C267.164 545.179 268.051 544.812 268.704 544.159C269.358 543.505 269.725 542.619 269.725 541.695V531.614L289.577 537.111C290.622 537.402 291.541 538.031 292.191 538.899C292.841 539.768 293.185 540.827 293.169 541.912C293.161 542.837 293.52 543.728 294.167 544.39C294.814 545.052 295.697 545.43 296.623 545.442C297.08 545.446 297.534 545.36 297.958 545.189C298.383 545.018 298.769 544.764 299.096 544.444C299.422 544.123 299.682 543.741 299.861 543.32C300.04 542.899 300.134 542.447 300.138 541.989V540.084C300.161 538.034 299.505 536.034 298.273 534.395C297.04 532.757 295.3 531.572 293.324 531.025L269.74 524.475Z" fill="#263238"/>
<path d="M227.635 551.667C227.632 550.548 227.962 549.453 228.581 548.521C229.201 547.59 230.084 546.863 231.117 546.433C232.151 546.003 233.289 545.89 234.386 546.108C235.484 546.325 236.493 546.864 237.284 547.655C238.076 548.447 238.614 549.455 238.832 550.553C239.049 551.651 238.936 552.789 238.506 553.822C238.077 554.855 237.35 555.738 236.418 556.358C235.486 556.978 234.391 557.307 233.272 557.304C231.778 557.3 230.347 556.705 229.291 555.649C228.235 554.592 227.639 553.161 227.635 551.667Z" fill="#046306"/>
<path d="M291.125 551.667C291.122 550.549 291.451 549.454 292.07 548.523C292.69 547.591 293.571 546.864 294.604 546.434C295.636 546.004 296.773 545.89 297.871 546.106C298.968 546.323 299.977 546.86 300.769 547.65C301.561 548.439 302.101 549.446 302.32 550.543C302.539 551.64 302.428 552.777 302.001 553.811C301.574 554.845 300.849 555.728 299.919 556.35C298.99 556.972 297.896 557.304 296.778 557.304C295.281 557.304 293.846 556.71 292.786 555.654C291.727 554.597 291.129 553.164 291.125 551.667Z" fill="#046306"/>
<path d="M259.396 551.667C259.393 550.549 259.722 549.454 260.341 548.523C260.96 547.591 261.842 546.864 262.874 546.434C263.907 546.004 265.044 545.89 266.141 546.106C267.239 546.323 268.247 546.86 269.039 547.65C269.831 548.439 270.371 549.446 270.59 550.543C270.81 551.64 270.699 552.777 270.271 553.811C269.844 554.845 269.12 555.728 268.19 556.35C267.26 556.972 266.167 557.304 265.048 557.304C263.553 557.3 262.12 556.705 261.061 555.649C260.003 554.594 259.404 553.162 259.396 551.667Z" fill="#046306"/>
<path opacity="0.6" d="M269.74 466.157H260.464V479.335H269.74V466.157Z" fill="black"/>
<path opacity="0.6" d="M253.542 533.596L259.396 532.047V524.939L253.542 526.488V533.596Z" fill="black"/>
<path opacity="0.6" d="M276.554 526.364L270.685 524.738V531.877L276.554 533.503V526.364Z" fill="black"/>
<path d="M272.667 462.239H329.034C330.748 462.243 332.39 462.927 333.601 464.141C334.811 465.354 335.491 466.998 335.491 468.712H272.667V462.239Z" fill="#046306"/>
<path opacity="0.5" d="M272.667 462.239H329.034C330.748 462.243 332.39 462.927 333.601 464.141C334.811 465.354 335.491 466.998 335.491 468.712H272.667V462.239Z" fill="black"/>
<path d="M232.668 379.392C212.862 379.392 198.755 394.165 199.793 413.832L202.069 456.819C202.235 460 203.61 462.996 205.913 465.195C208.216 467.395 211.273 468.631 214.457 468.65H294.052L277.607 413.832C271.784 394.227 252.489 379.392 232.668 379.392Z" fill="#046306"/>
<path opacity="0.1" d="M232.668 379.392C212.862 379.392 198.755 394.165 199.793 413.832L202.069 456.819C202.235 460 203.61 462.996 205.913 465.195C208.216 467.395 211.273 468.631 214.457 468.65H294.052L277.607 413.832C271.784 394.227 252.489 379.392 232.668 379.392Z" fill="black"/>
<path opacity="0.3" d="M228.673 379.671C210.988 381.529 198.832 395.574 199.793 413.894L202.069 456.819C202.235 459.999 203.61 462.996 205.913 465.195C208.216 467.395 211.273 468.631 214.457 468.65H286.031L269.585 413.832C264.165 395.559 247.023 381.498 228.673 379.671Z" fill="black"/>
<path d="M303.096 466.854C302.519 466.273 302.195 465.488 302.195 464.67C302.195 463.852 302.519 463.067 303.096 462.487L319.959 445.623C320.205 445.378 320.372 445.066 320.439 444.727C320.507 444.387 320.473 444.034 320.34 443.714C320.207 443.394 319.982 443.121 319.694 442.928C319.406 442.736 319.067 442.634 318.72 442.635H282.577C281.756 442.635 280.968 442.308 280.388 441.727C279.807 441.147 279.48 440.359 279.48 439.537C279.48 438.716 279.807 437.928 280.388 437.348C280.968 436.767 281.756 436.44 282.577 436.44H318.38C319.862 436.413 321.325 436.785 322.614 437.518C323.903 438.251 324.97 439.318 325.704 440.606C326.521 442.111 326.827 443.841 326.579 445.535C326.33 447.229 325.54 448.798 324.326 450.006L307.463 466.854C306.882 467.431 306.097 467.754 305.279 467.754C304.461 467.754 303.676 467.431 303.096 466.854Z" fill="#263238"/>
<path opacity="0.2" d="M325.704 440.606C324.97 439.318 323.903 438.251 322.614 437.518C321.325 436.785 319.862 436.413 318.38 436.44H282.577C281.756 436.44 280.968 436.767 280.388 437.348C279.807 437.928 279.48 438.716 279.48 439.537C279.48 440.359 279.807 441.147 280.388 441.727C280.968 442.308 281.756 442.635 282.577 442.635H318.72C318.997 442.63 319.27 442.699 319.51 442.836H326.494C326.345 442.057 326.079 441.305 325.704 440.606Z" fill="white"/>
</svg>
