<svg width="809" height="616" viewBox="0 0 809 616" fill="none" xmlns="http://www.w3.org/2000/svg">
<path d="M692.388 604.857C692.388 610.584 563.825 615.201 405.4 615.201C246.975 615.201 118.393 610.584 118.393 604.857C118.393 599.13 246.956 594.533 405.4 594.533C563.845 594.533 692.388 599.15 692.388 604.857Z" fill="#046306"/>
<path opacity="0.6" d="M692.388 604.857C692.388 610.584 563.825 615.201 405.4 615.201C246.975 615.201 118.393 610.584 118.393 604.857C118.393 599.13 246.956 594.533 405.4 594.533C563.845 594.533 692.388 599.15 692.388 604.857Z" fill="white"/>
<path d="M133.937 282.436C134.054 282.436 132.593 275.171 132.437 274.645C130.762 269.463 124.47 260.425 118.354 260.425C117.339 260.456 116.342 260.701 115.428 261.142C114.514 261.584 113.703 262.212 113.047 262.987C112.392 263.762 111.906 264.667 111.622 265.641C111.338 266.616 111.263 267.639 111.399 268.645C111.848 272.93 115.704 276.593 119.191 278.696C123.282 281.248 133.937 282.436 133.937 282.436Z" fill="#046306"/>
<path d="M145.761 233.504C140.015 235.569 137.171 246.205 137.346 251.659C137.346 252.127 138.437 259.451 138.554 259.451H138.671C138.203 261.126 137.716 262.918 137.229 264.905C136.372 268.567 135.437 272.697 134.716 277.294C133.881 282.218 133.334 287.188 133.08 292.176C132.779 297.766 132.968 303.371 133.645 308.928C133.652 308.993 133.652 309.058 133.645 309.123C132.905 307.506 130.645 303.045 130.431 302.714C127.431 298.156 118.977 291.027 113.075 292.721C112.108 293.02 111.214 293.518 110.451 294.183C109.689 294.849 109.074 295.668 108.648 296.586C108.222 297.504 107.994 298.501 107.978 299.514C107.962 300.526 108.159 301.53 108.556 302.461C110.114 306.493 114.789 308.987 118.704 310.116C123.126 311.363 132.983 309.883 133.762 309.766C134.606 315.397 135.817 320.966 137.385 326.44C138.301 329.635 139.333 332.829 140.346 336.004C139.664 334.621 139.021 333.394 138.924 333.238C135.924 328.68 127.47 321.551 121.568 323.245C120.601 323.544 119.707 324.042 118.944 324.707C118.182 325.373 117.567 326.192 117.141 327.11C116.715 328.028 116.487 329.025 116.471 330.038C116.455 331.05 116.652 332.054 117.049 332.985C118.607 336.998 123.282 339.511 127.197 340.621C131.113 341.731 139.606 340.621 141.826 340.348C142.235 341.556 142.644 342.783 143.073 343.991C145.021 349.835 147.125 355.678 148.917 361.405C149.56 363.353 150.105 365.457 150.67 367.483C150.066 366.256 149.521 365.223 149.423 365.087C146.443 360.509 137.969 353.399 132.087 355.094C131.118 355.39 130.222 355.887 129.457 356.551C128.692 357.216 128.076 358.034 127.648 358.953C127.22 359.871 126.99 360.869 126.973 361.883C126.955 362.896 127.151 363.901 127.548 364.834C129.106 368.846 133.801 371.359 137.716 372.469C141.632 373.58 149.287 372.606 151.936 372.236C152.462 374.32 152.988 376.424 153.397 378.469C153.631 379.872 153.962 381.196 154.137 382.638L154.722 386.806C154.994 389.475 155.306 392.221 155.501 394.832C155.657 396.663 155.774 398.396 155.89 400.13C155.287 398.182 153.942 394.15 153.942 393.838C151.786 389.552 148.567 385.89 144.592 383.203C144.371 382.715 144.111 382.246 143.813 381.8C143.258 380.951 142.53 380.228 141.678 379.678C140.825 379.128 139.866 378.763 138.864 378.607C137.861 378.45 136.837 378.507 135.857 378.772C134.878 379.037 133.965 379.504 133.178 380.144C128.561 384.138 129.71 395.085 131.833 400.111C131.95 400.403 133.781 403.48 134.794 405.389L132.32 402.312C130.606 400.227 128.853 398.202 126.983 396.02C126.022 395.007 125.068 393.975 124.12 392.923C123.185 391.871 122.074 390.877 121.042 389.826C118.588 387.469 115.997 385.189 113.25 382.969C115.081 381.469 121.451 376.093 123.282 372.431C125.113 368.768 126.418 363.645 124.509 359.769C124.09 358.847 123.481 358.023 122.722 357.352C121.964 356.68 121.073 356.175 120.106 355.87C119.14 355.565 118.121 355.467 117.114 355.582C116.107 355.696 115.136 356.021 114.263 356.535C109.082 359.769 108.556 370.775 109.9 376.015C109.9 376.346 111.38 380.047 112.179 382.053C110.562 380.709 108.965 379.385 107.29 378.157C102.459 374.437 97.55 370.814 92.4854 367.171L87.9467 363.801C88.5895 363.275 96.3033 357.042 98.3681 352.932C100.199 349.289 101.504 344.147 99.5953 340.29C99.1779 339.363 98.5697 338.535 97.8105 337.86C97.0513 337.184 96.1582 336.676 95.1895 336.369C94.2207 336.062 93.1981 335.963 92.1884 336.078C91.1787 336.193 90.2046 336.52 89.3297 337.037C84.1677 340.29 83.6418 351.276 84.9859 356.516C85.0832 356.906 87.0896 362.204 87.674 363.529C84.343 361.055 81.051 358.561 77.9344 355.971C73.6715 352.48 69.6375 348.719 65.8572 344.712C66.1494 344.478 74.2333 337.991 76.3371 333.803C78.1681 330.161 79.4732 325.018 77.5643 321.142C77.1425 320.224 76.5331 319.405 75.7752 318.737C75.0173 318.069 74.1279 317.568 73.1643 317.265C72.2007 316.962 71.1843 316.864 70.1807 316.979C69.1771 317.093 68.2086 317.416 67.3376 317.928C62.1562 321.181 61.6497 332.186 62.9743 337.407C63.0717 337.757 64.5911 341.809 65.3702 343.699L65.078 343.893C61.3776 339.756 58.053 335.297 55.1436 330.57C53.5268 327.998 52.1049 325.427 50.7803 322.914C52.4165 321.862 59.7992 317.07 62.1172 313.408C64.4352 309.746 66.2078 305.013 64.7274 300.961C64.4105 300.009 63.8989 299.134 63.2252 298.391C62.5516 297.647 61.7305 297.053 60.8143 296.644C59.8982 296.235 58.907 296.022 57.9039 296.017C56.9007 296.013 55.9076 296.217 54.9878 296.617C49.4946 299.266 47.761 310.253 48.5207 315.551C48.5207 315.843 49.2998 318.785 49.8842 320.908C49.2998 319.778 48.6765 318.59 48.1506 317.48C46.2026 313.33 44.5469 309.396 43.1833 305.909C42.4237 303.961 41.7614 302.013 41.2354 300.377C42.2873 298.526 46.4753 290.949 46.8649 286.741C47.2545 282.534 46.6312 277.411 43.4561 274.489C42.7314 273.777 41.8652 273.225 40.9136 272.87C39.9619 272.514 38.9462 272.363 37.9323 272.425C36.9184 272.488 35.9289 272.763 35.0281 273.232C34.1273 273.702 33.3353 274.356 32.7035 275.151C29.0609 280.04 32.5477 290.501 35.7033 294.942C35.976 295.332 40.9237 300.786 40.9822 300.786V300.669C41.5276 302.325 42.112 304.078 42.8132 306.006C44.1183 309.532 45.6183 313.506 47.5467 317.694C49.5702 322.265 51.8597 326.714 54.4034 331.018C57.2399 335.842 60.4993 340.405 64.143 344.653L64.2794 344.789C62.76 343.854 58.4356 341.381 58.0655 341.225C53.0593 339.063 42.0925 337.855 38.0798 342.452C37.4348 343.236 36.9622 344.146 36.6926 345.125C36.423 346.103 36.3625 347.127 36.515 348.131C36.6675 349.134 37.0297 350.094 37.5778 350.948C38.126 351.802 38.8479 352.531 39.6966 353.088C43.2028 355.581 48.5012 355.036 52.3776 353.867C56.7604 352.484 64.0651 345.802 64.7469 345.276C68.557 349.51 72.6437 353.486 76.9799 357.178C79.4927 359.34 82.0834 361.444 84.7716 363.529C83.4275 362.769 82.2198 362.087 82.0445 362.009C77.0383 359.847 66.091 358.639 62.0782 363.236C61.4294 364.017 60.953 364.927 60.6801 365.905C60.4073 366.883 60.3442 367.908 60.495 368.912C60.6459 369.916 61.0072 370.877 61.5553 371.732C62.1034 372.587 62.8259 373.316 63.6755 373.872C67.2013 376.365 72.4802 375.82 76.376 374.651C80.2719 373.482 86.7195 367.833 88.4142 366.334L91.453 368.71C96.3617 372.469 101.193 376.19 105.965 379.988C107.621 381.333 109.199 382.696 110.796 384.079C109.608 383.397 108.595 382.832 108.419 382.755C103.413 380.612 92.4659 379.385 88.4532 384.001C87.8043 384.782 87.3279 385.692 87.0551 386.67C86.7822 387.648 86.7192 388.673 86.87 389.677C87.0208 390.681 87.3821 391.642 87.9302 392.497C88.4783 393.351 89.2008 394.081 90.0505 394.637C93.5762 397.13 98.8551 396.585 102.751 395.397C106.647 394.208 112.491 389.124 114.439 387.371C116.016 388.813 117.614 390.274 119.094 391.754C120.068 392.786 121.042 393.702 122.016 394.812L124.801 397.987C126.516 400.052 128.269 402.175 129.886 404.24C131.015 405.682 132.067 407.065 133.139 408.448C131.502 407.104 128.249 404.552 127.938 404.338C123.321 401.435 112.685 398.591 108.01 402.526C107.256 403.204 106.652 404.033 106.239 404.959C105.826 405.885 105.613 406.888 105.613 407.902C105.613 408.916 105.826 409.919 106.239 410.846C106.652 411.772 107.256 412.601 108.01 413.279C111.108 416.278 116.406 416.59 120.438 415.967C124.86 415.285 132.885 410.123 133.879 409.402C135.632 411.701 137.307 413.96 138.865 416.103C144.261 423.564 148.469 429.992 151.352 434.511L151.644 434.978L155.384 433.167L154.8 432.271C151.78 427.771 147.397 421.382 141.768 413.96C140.015 411.603 138.067 409.149 136.06 406.617C138.144 404.341 140.096 401.948 141.904 399.448C146.19 401.123 155.131 401.182 156.28 401.182C156.475 404.084 156.631 406.889 156.728 409.539C157.118 418.752 157.079 426.427 157.001 431.784C157.001 431.998 157.001 432.193 157.001 432.407L161.111 430.459C161.111 425.122 160.897 417.915 160.371 409.383C160.176 406.461 159.923 403.325 159.65 400.111C160.78 399.838 170.071 397.442 173.578 394.637C176.772 392.105 180.123 387.975 180.006 383.67C180.014 382.656 179.808 381.651 179.401 380.721C178.995 379.792 178.398 378.958 177.648 378.274C176.899 377.591 176.013 377.073 175.05 376.754C174.087 376.435 173.068 376.323 172.058 376.424C165.981 377.203 160.916 386.962 159.923 392.338C159.923 392.65 159.591 396.234 159.475 398.357C159.358 397.052 159.241 395.786 159.104 394.462C158.832 391.793 158.481 389.144 158.13 386.28C157.897 384.917 157.663 383.514 157.449 382.112C157.234 380.709 156.864 379.268 156.572 377.846C155.832 374.515 154.936 371.184 153.942 367.853C156.28 367.619 164.578 366.645 168.123 364.6C171.669 362.555 175.584 359.009 176.129 354.724C176.289 353.723 176.237 352.7 175.975 351.72C175.714 350.741 175.249 349.827 174.612 349.039C173.974 348.251 173.178 347.606 172.275 347.146C171.372 346.685 170.382 346.42 169.37 346.367C163.254 346.211 156.747 355.094 154.955 360.256C154.838 360.568 153.962 364.405 153.533 366.528C152.91 364.58 152.326 362.535 151.585 360.529C149.638 354.685 147.436 348.977 145.294 343.192L143.346 337.874C144.183 337.874 154.059 336.861 158.033 334.563C161.559 332.615 165.494 328.972 166.039 324.687C166.202 323.685 166.152 322.661 165.892 321.68C165.631 320.7 165.167 319.785 164.529 318.996C163.891 318.207 163.094 317.562 162.189 317.103C161.284 316.643 160.293 316.38 159.28 316.33C153.163 316.174 146.657 325.076 144.865 330.219C144.729 330.609 143.482 336.063 143.229 337.563C141.826 333.667 140.463 329.771 139.333 325.875C137.706 320.61 136.405 315.249 135.437 309.824C135.827 309.824 146.151 308.85 150.222 306.513C153.748 304.467 157.682 300.903 158.228 296.617C158.388 295.615 158.335 294.59 158.072 293.609C157.81 292.629 157.343 291.714 156.704 290.926C156.064 290.137 155.266 289.493 154.36 289.033C153.455 288.574 152.463 288.311 151.449 288.261C145.352 288.105 138.846 297.007 137.054 302.149C136.937 302.48 135.983 306.707 135.574 308.714H135.223C134.418 303.227 134.105 297.679 134.288 292.137C134.288 289.098 134.58 286.176 134.872 283.352C136.82 283.352 145.683 283.352 149.579 281.677C153.475 280.001 157.605 276.924 158.617 272.736C158.888 271.755 158.948 270.728 158.793 269.722C158.639 268.716 158.274 267.754 157.723 266.899C157.171 266.044 156.445 265.315 155.592 264.76C154.739 264.205 153.779 263.836 152.774 263.678C146.716 262.86 139.275 270.983 136.937 275.891C136.801 276.164 135.807 279.027 135.106 281.131C135.242 279.846 135.379 278.54 135.554 277.235C136.177 272.658 137.015 268.509 137.794 264.827C138.262 262.743 138.71 260.931 139.158 259.12C141.106 258.146 148.741 254.152 151.371 250.899C154.001 247.646 156.299 242.991 155.267 238.803C155.052 237.795 154.625 236.844 154.012 236.015C153.4 235.186 152.617 234.497 151.717 233.995C150.817 233.493 149.82 233.19 148.792 233.105C147.765 233.021 146.731 233.157 145.761 233.504V233.504Z" fill="#046306"/>
<path d="M35.3523 327.667C40.1247 327.472 49.6696 322.564 49.6891 322.564C49.7085 322.564 44.5465 317.265 44.1764 316.954C39.9105 313.564 29.6644 309.493 24.5803 312.882C23.7517 313.467 23.0553 314.219 22.5364 315.089C22.0174 315.96 21.6875 316.931 21.5681 317.937C21.4487 318.944 21.5425 319.965 21.8433 320.933C22.1441 321.901 22.6452 322.795 23.3141 323.557C26.0607 326.888 31.3396 327.823 35.3523 327.667Z" fill="#046306"/>
<g opacity="0.5">
<path opacity="0.5" d="M133.937 282.436C134.054 282.436 132.593 275.171 132.437 274.645C130.762 269.463 124.47 260.425 118.353 260.425C117.339 260.456 116.342 260.701 115.428 261.142C114.514 261.584 113.703 262.212 113.047 262.987C112.391 263.762 111.906 264.667 111.622 265.641C111.338 266.616 111.262 267.639 111.399 268.645C111.847 272.93 115.704 276.593 119.191 278.696C123.282 281.248 133.937 282.436 133.937 282.436Z" fill="white"/>
<path opacity="0.5" d="M145.761 233.504C140.015 235.569 137.171 246.205 137.346 251.659C137.346 252.127 138.437 259.451 138.554 259.451H138.671C138.203 261.126 137.716 262.918 137.229 264.905C136.372 268.567 135.437 272.697 134.716 277.294C133.881 282.218 133.334 287.188 133.08 292.176C132.779 297.766 132.968 303.371 133.645 308.928C133.652 308.993 133.652 309.058 133.645 309.123C132.905 307.506 130.645 303.045 130.431 302.714C127.431 298.156 118.977 291.027 113.075 292.721C112.108 293.02 111.214 293.518 110.451 294.183C109.689 294.849 109.074 295.668 108.648 296.586C108.222 297.504 107.994 298.501 107.978 299.514C107.962 300.526 108.159 301.53 108.556 302.461C110.114 306.493 114.789 308.987 118.704 310.116C123.126 311.363 132.983 309.883 133.762 309.766C134.606 315.397 135.817 320.966 137.385 326.44C138.301 329.635 139.333 332.829 140.346 336.004C139.664 334.621 139.021 333.394 138.924 333.238C135.924 328.68 127.47 321.551 121.568 323.245C120.601 323.544 119.707 324.042 118.944 324.707C118.182 325.373 117.567 326.192 117.141 327.11C116.715 328.028 116.487 329.025 116.471 330.038C116.455 331.05 116.652 332.054 117.049 332.985C118.607 336.998 123.282 339.511 127.197 340.621C131.113 341.731 139.606 340.621 141.826 340.348C142.235 341.556 142.644 342.783 143.073 343.991C145.021 349.835 147.125 355.678 148.917 361.405C149.56 363.353 150.105 365.457 150.67 367.483C150.066 366.256 149.521 365.223 149.423 365.087C146.443 360.509 137.969 353.399 132.087 355.094C131.118 355.39 130.222 355.887 129.457 356.551C128.692 357.216 128.076 358.034 127.648 358.953C127.22 359.871 126.99 360.869 126.973 361.883C126.955 362.896 127.151 363.901 127.548 364.834C129.106 368.846 133.801 371.359 137.716 372.469C141.632 373.58 149.287 372.606 151.936 372.236C152.462 374.32 152.988 376.424 153.397 378.469C153.631 379.872 153.962 381.196 154.137 382.638L154.722 386.806C154.994 389.475 155.306 392.221 155.501 394.832C155.657 396.663 155.774 398.396 155.89 400.13C155.287 398.182 153.942 394.15 153.942 393.838C151.786 389.552 148.567 385.89 144.592 383.203C144.371 382.715 144.111 382.246 143.813 381.8C143.258 380.951 142.53 380.228 141.678 379.678C140.825 379.128 139.866 378.763 138.864 378.607C137.861 378.45 136.837 378.507 135.857 378.772C134.878 379.037 133.965 379.504 133.178 380.144C128.561 384.138 129.71 395.085 131.833 400.111C131.95 400.403 133.781 403.48 134.794 405.389L132.32 402.312C130.606 400.227 128.853 398.202 126.983 396.02C126.022 395.007 125.068 393.975 124.12 392.923C123.185 391.871 122.074 390.877 121.042 389.826C118.588 387.469 115.997 385.189 113.25 382.969C115.081 381.469 121.451 376.093 123.282 372.431C125.113 368.768 126.418 363.645 124.509 359.769C124.09 358.847 123.481 358.023 122.722 357.352C121.964 356.68 121.073 356.175 120.106 355.87C119.14 355.565 118.121 355.467 117.114 355.582C116.107 355.696 115.136 356.021 114.263 356.535C109.082 359.769 108.556 370.775 109.9 376.015C109.9 376.346 111.38 380.047 112.179 382.053C110.562 380.709 108.965 379.385 107.29 378.157C102.459 374.437 97.55 370.814 92.4854 367.171L87.9467 363.801C88.5895 363.275 96.3033 357.042 98.3681 352.932C100.199 349.289 101.504 344.147 99.5953 340.29C99.1779 339.363 98.5697 338.535 97.8105 337.86C97.0513 337.184 96.1582 336.676 95.1895 336.369C94.2207 336.062 93.1981 335.963 92.1884 336.078C91.1787 336.193 90.2046 336.52 89.3297 337.037C84.1677 340.29 83.6418 351.276 84.9859 356.516C85.0832 356.906 87.0896 362.204 87.674 363.529C84.343 361.055 81.051 358.561 77.9344 355.971C73.6715 352.48 69.6375 348.719 65.8572 344.712C66.1494 344.478 74.2333 337.991 76.3371 333.803C78.1681 330.161 79.4732 325.018 77.5643 321.142C77.1425 320.224 76.5331 319.405 75.7752 318.737C75.0173 318.069 74.1279 317.568 73.1643 317.265C72.2007 316.962 71.1843 316.864 70.1807 316.979C69.1771 317.093 68.2086 317.416 67.3376 317.928C62.1562 321.181 61.6497 332.186 62.9743 337.407C63.0717 337.757 64.5911 341.809 65.3702 343.699L65.078 343.893C61.3776 339.756 58.053 335.297 55.1436 330.57C53.5268 327.998 52.1049 325.427 50.7803 322.914C52.4165 321.862 59.7992 317.07 62.1172 313.408C64.4352 309.746 66.2078 305.013 64.7274 300.961C64.4105 300.009 63.8989 299.134 63.2252 298.391C62.5516 297.647 61.7305 297.053 60.8143 296.644C59.8982 296.235 58.907 296.022 57.9039 296.017C56.9007 296.013 55.9076 296.217 54.9878 296.617C49.4946 299.266 47.761 310.253 48.5207 315.551C48.5207 315.843 49.2998 318.785 49.8842 320.908C49.2998 319.778 48.6765 318.59 48.1506 317.48C46.2026 313.33 44.5469 309.396 43.1833 305.909C42.4237 303.961 41.7614 302.013 41.2354 300.377C42.2873 298.526 46.4753 290.949 46.8649 286.741C47.2545 282.534 46.6312 277.411 43.4561 274.489C42.7314 273.777 41.8652 273.225 40.9136 272.87C39.9619 272.514 38.9462 272.363 37.9323 272.425C36.9184 272.488 35.9289 272.763 35.0281 273.232C34.1273 273.702 33.3353 274.356 32.7035 275.151C29.0609 280.04 32.5477 290.501 35.7033 294.942C35.976 295.332 40.9237 300.786 40.9822 300.786V300.669C41.5276 302.325 42.112 304.078 42.8132 306.006C44.1183 309.532 45.6183 313.506 47.5467 317.694C49.5702 322.265 51.8597 326.714 54.4034 331.018C57.2399 335.842 60.4993 340.405 64.143 344.653L64.2794 344.789C62.76 343.854 58.4356 341.381 58.0655 341.225C53.0593 339.063 42.0925 337.855 38.0798 342.452C37.4348 343.236 36.9622 344.146 36.6926 345.125C36.423 346.103 36.3625 347.127 36.515 348.131C36.6675 349.134 37.0297 350.094 37.5778 350.948C38.126 351.802 38.8479 352.531 39.6966 353.088C43.2028 355.581 48.5012 355.036 52.3776 353.867C56.7604 352.484 64.0651 345.802 64.7469 345.276C68.557 349.51 72.6437 353.486 76.9799 357.178C79.4927 359.34 82.0834 361.444 84.7716 363.529C83.4275 362.769 82.2198 362.087 82.0445 362.009C77.0383 359.847 66.091 358.639 62.0782 363.236C61.4294 364.017 60.953 364.927 60.6801 365.905C60.4073 366.883 60.3442 367.908 60.495 368.912C60.6459 369.916 61.0072 370.877 61.5553 371.732C62.1034 372.587 62.8259 373.316 63.6755 373.872C67.2013 376.365 72.4802 375.82 76.376 374.651C80.2719 373.482 86.7195 367.833 88.4142 366.334L91.453 368.71C96.3617 372.469 101.193 376.19 105.965 379.988C107.621 381.333 109.199 382.696 110.796 384.079C109.608 383.397 108.595 382.832 108.419 382.755C103.413 380.612 92.4659 379.385 88.4532 384.001C87.8043 384.782 87.3279 385.692 87.0551 386.67C86.7822 387.648 86.7192 388.673 86.87 389.677C87.0208 390.681 87.3821 391.642 87.9302 392.497C88.4783 393.351 89.2008 394.081 90.0505 394.637C93.5762 397.13 98.8551 396.585 102.751 395.397C106.647 394.208 112.491 389.124 114.439 387.371C116.016 388.813 117.614 390.274 119.094 391.754C120.068 392.786 121.042 393.702 122.016 394.812L124.801 397.987C126.516 400.052 128.269 402.175 129.886 404.24C131.015 405.682 132.067 407.065 133.139 408.448C131.502 407.104 128.249 404.552 127.938 404.338C123.321 401.435 112.685 398.591 108.01 402.526C107.256 403.204 106.652 404.033 106.239 404.959C105.826 405.885 105.613 406.888 105.613 407.902C105.613 408.916 105.826 409.919 106.239 410.846C106.652 411.772 107.256 412.601 108.01 413.279C111.108 416.278 116.406 416.59 120.438 415.967C124.86 415.285 132.885 410.123 133.879 409.402C135.632 411.701 137.307 413.96 138.865 416.103C144.261 423.564 148.469 429.992 151.352 434.511L151.644 434.978L155.384 433.167L154.8 432.271C151.78 427.771 147.397 421.382 141.768 413.96C140.015 411.603 138.067 409.149 136.06 406.617C138.144 404.341 140.096 401.948 141.904 399.448C146.19 401.123 155.131 401.182 156.28 401.182C156.475 404.084 156.631 406.889 156.728 409.539C157.118 418.752 157.079 426.427 157.001 431.784C157.001 431.998 157.001 432.193 157.001 432.407L161.111 430.459C161.111 425.122 160.897 417.915 160.371 409.383C160.176 406.461 159.923 403.325 159.65 400.111C160.78 399.838 170.071 397.442 173.578 394.637C176.772 392.105 180.123 387.975 180.006 383.67C180.014 382.656 179.808 381.651 179.401 380.721C178.995 379.792 178.398 378.958 177.648 378.274C176.899 377.591 176.013 377.073 175.05 376.754C174.087 376.435 173.068 376.323 172.058 376.424C165.981 377.203 160.916 386.962 159.923 392.338C159.923 392.65 159.591 396.234 159.475 398.357C159.358 397.052 159.241 395.786 159.104 394.462C158.832 391.793 158.481 389.144 158.13 386.28C157.897 384.917 157.663 383.514 157.449 382.112C157.234 380.709 156.864 379.268 156.572 377.846C155.832 374.515 154.936 371.184 153.942 367.853C156.28 367.619 164.578 366.645 168.123 364.6C171.669 362.555 175.584 359.009 176.129 354.724C176.289 353.723 176.237 352.7 175.975 351.72C175.714 350.741 175.249 349.827 174.612 349.039C173.974 348.251 173.178 347.606 172.275 347.146C171.372 346.685 170.382 346.42 169.37 346.367C163.254 346.211 156.747 355.094 154.955 360.256C154.838 360.568 153.962 364.405 153.533 366.528C152.91 364.58 152.326 362.535 151.585 360.529C149.638 354.685 147.436 348.977 145.294 343.192L143.346 337.874C144.183 337.874 154.059 336.861 158.033 334.563C161.559 332.615 165.494 328.972 166.039 324.687C166.202 323.685 166.152 322.661 165.892 321.68C165.631 320.7 165.167 319.785 164.529 318.996C163.891 318.207 163.094 317.562 162.189 317.103C161.284 316.643 160.293 316.38 159.28 316.33C153.163 316.174 146.657 325.076 144.865 330.219C144.729 330.609 143.482 336.063 143.229 337.563C141.826 333.667 140.463 329.771 139.333 325.875C137.706 320.61 136.405 315.249 135.437 309.824C135.827 309.824 146.151 308.85 150.222 306.513C153.748 304.467 157.682 300.903 158.228 296.617C158.388 295.615 158.335 294.59 158.072 293.609C157.81 292.629 157.343 291.714 156.704 290.926C156.064 290.137 155.266 289.493 154.36 289.033C153.455 288.574 152.463 288.311 151.449 288.261C145.352 288.105 138.846 297.007 137.054 302.149C136.937 302.48 135.983 306.707 135.574 308.714H135.223C134.418 303.227 134.105 297.679 134.288 292.137C134.288 289.098 134.58 286.176 134.872 283.352C136.82 283.352 145.683 283.352 149.579 281.677C153.475 280.001 157.605 276.924 158.617 272.736C158.888 271.755 158.948 270.728 158.793 269.722C158.639 268.716 158.274 267.754 157.723 266.899C157.171 266.044 156.445 265.315 155.592 264.76C154.739 264.205 153.779 263.836 152.774 263.678C146.716 262.86 139.275 270.983 136.937 275.891C136.801 276.164 135.807 279.027 135.106 281.131C135.242 279.846 135.379 278.54 135.554 277.235C136.177 272.658 137.015 268.509 137.794 264.827C138.262 262.743 138.71 260.931 139.158 259.12C141.106 258.146 148.741 254.152 151.371 250.899C154.001 247.646 156.299 242.991 155.267 238.803C155.052 237.795 154.625 236.844 154.012 236.015C153.4 235.186 152.617 234.497 151.717 233.995C150.817 233.493 149.82 233.19 148.792 233.105C147.765 233.021 146.731 233.157 145.761 233.504V233.504Z" fill="white"/>
<path opacity="0.5" d="M35.3523 327.667C40.1247 327.472 49.6696 322.564 49.6891 322.564C49.7085 322.564 44.5465 317.265 44.1764 316.954C39.9105 313.564 29.6644 309.493 24.5803 312.882C23.7517 313.467 23.0553 314.219 22.5364 315.089C22.0174 315.96 21.6875 316.931 21.5681 317.937C21.4487 318.944 21.5425 319.965 21.8433 320.933C22.1441 321.901 22.6452 322.795 23.3141 323.557C26.0607 326.888 31.3396 327.823 35.3523 327.667Z" fill="white"/>
</g>
<path d="M91.0826 447.172C91.0826 447.172 120.048 377.359 136.255 380.397C152.462 383.436 108.458 491.702 108.458 491.702C108.458 491.702 159.416 395.572 194.167 395.572C228.918 395.572 181.427 501.812 137.424 537.225C137.424 537.225 206.906 462.347 247.462 478.553C288.018 494.76 166.37 570.632 166.37 570.632C166.37 570.632 237.021 548.367 228.918 565.567C220.815 582.767 198.861 585.806 198.861 585.806L278.726 589.858H0.737793L63.2857 583.78C63.2857 583.78 -1.58024 551.406 15.7563 538.238C33.0928 525.07 71.3501 553.412 71.3501 553.412C71.3501 553.412 5.33489 480.56 18.0743 453.25C30.8138 425.94 87.5764 502.825 87.5764 502.825C87.5764 502.825 41.2352 404.688 50.5658 387.468C59.8963 370.249 91.0826 447.172 91.0826 447.172Z" fill="#046306"/>
<path opacity="0.4" d="M91.0826 447.172C91.0826 447.172 120.048 377.359 136.255 380.397C152.462 383.436 108.458 491.702 108.458 491.702C108.458 491.702 159.416 395.572 194.167 395.572C228.918 395.572 181.427 501.812 137.424 537.225C137.424 537.225 206.906 462.347 247.462 478.553C288.018 494.76 166.37 570.632 166.37 570.632C166.37 570.632 237.021 548.367 228.918 565.567C220.815 582.767 198.861 585.806 198.861 585.806L278.726 589.858H0.737793L63.2857 583.78C63.2857 583.78 -1.58024 551.406 15.7563 538.238C33.0928 525.07 71.3501 553.412 71.3501 553.412C71.3501 553.412 5.33489 480.56 18.0743 453.25C30.8138 425.94 87.5764 502.825 87.5764 502.825C87.5764 502.825 41.2352 404.688 50.5658 387.468C59.8963 370.249 91.0826 447.172 91.0826 447.172Z" fill="white"/>
<path d="M81.8299 450.854C107.309 526.141 107.309 579.417 107.309 579.417C107.309 579.417 77.1939 580.586 45.9102 557.425" stroke="#263238" stroke-linecap="round" stroke-linejoin="round"/>
<path d="M94.5693 491.39C99.8134 468.883 106.782 446.813 115.412 425.375" stroke="#263238" stroke-linecap="round" stroke-linejoin="round"/>
<path d="M169.857 447.387L104.991 543.517C104.991 543.517 60.9676 506.506 45.9102 485.605" stroke="#263238" stroke-linecap="round" stroke-linejoin="round"/>
<path d="M106.14 566.678C106.14 566.678 174.473 534.245 202.29 515.72" stroke="#263238" stroke-linecap="round" stroke-linejoin="round"/>
<path d="M675.363 282.436C675.246 282.436 676.727 275.171 676.863 274.645C678.538 269.463 684.85 260.425 690.947 260.425C691.961 260.456 692.958 260.701 693.872 261.142C694.786 261.584 695.597 262.212 696.253 262.987C696.909 263.762 697.394 264.667 697.678 265.641C697.962 266.616 698.038 267.639 697.901 268.645C697.453 272.93 693.596 276.593 690.109 278.696C686.018 281.248 675.363 282.436 675.363 282.436Z" fill="#046306"/>
<path d="M663.539 233.504C669.286 235.569 672.149 246.205 671.954 251.659C671.954 252.126 670.863 259.451 670.766 259.451H670.649C671.097 261.126 671.584 262.918 672.071 264.905C672.928 268.567 673.863 272.696 674.584 277.294C675.42 282.218 675.966 287.187 676.22 292.176C676.531 297.765 676.342 303.372 675.655 308.928C675.648 308.993 675.648 309.058 675.655 309.123C676.415 307.506 678.675 303.045 678.869 302.714C681.869 298.156 690.323 291.026 696.225 292.721C697.195 293.017 698.09 293.513 698.855 294.178C699.619 294.844 700.234 295.662 700.661 296.581C701.087 297.501 701.315 298.499 701.33 299.512C701.344 300.525 701.145 301.53 700.745 302.461C699.186 306.493 694.511 308.986 690.596 310.116C686.174 311.363 676.318 309.882 675.538 309.766C674.703 315.398 673.493 320.969 671.915 326.44C671.006 329.634 670.019 332.822 668.954 336.004C669.636 334.621 670.279 333.394 670.376 333.238C673.376 328.68 681.85 321.55 687.733 323.245C688.702 323.541 689.598 324.037 690.362 324.702C691.126 325.368 691.741 326.186 692.168 327.105C692.594 328.024 692.822 329.023 692.837 330.036C692.851 331.049 692.652 332.054 692.252 332.985C690.693 336.998 686.018 339.51 682.103 340.621C678.188 341.731 669.695 340.621 667.474 340.348L666.247 343.991C664.299 349.834 662.176 355.678 660.403 361.405C659.76 363.353 659.195 365.457 658.63 367.483C659.254 366.255 659.78 365.223 659.877 365.087C662.877 360.509 671.331 353.399 677.214 355.094C678.183 355.39 679.079 355.886 679.843 356.551C680.608 357.216 681.224 358.034 681.652 358.953C682.08 359.871 682.311 360.869 682.328 361.882C682.345 362.896 682.149 363.901 681.752 364.833C680.194 368.846 675.5 371.359 671.584 372.469C667.669 373.58 660.014 372.606 657.364 372.236C656.838 374.32 656.332 376.424 655.923 378.469C655.67 379.871 655.338 381.196 655.163 382.637L654.579 386.806C654.306 389.475 653.994 392.221 653.8 394.832C653.644 396.663 653.527 398.396 653.41 400.13C654.033 398.182 655.358 394.15 655.455 393.838C657.618 389.556 660.836 385.896 664.805 383.202C665.026 382.71 665.293 382.241 665.604 381.8C666.156 380.949 666.88 380.224 667.731 379.672C668.582 379.12 669.54 378.754 670.542 378.598C671.544 378.442 672.568 378.499 673.546 378.765C674.525 379.031 675.436 379.501 676.22 380.144C680.856 384.137 679.688 395.085 677.564 400.11C677.447 400.403 675.714 403.48 674.604 405.389C675.441 404.357 676.22 403.441 677.097 402.312C678.792 400.227 680.545 398.201 682.415 396.02L685.278 392.923C686.213 391.871 687.343 390.877 688.375 389.825C690.81 387.468 693.401 385.189 696.07 382.969C694.258 381.469 687.869 376.092 686.038 372.43C684.207 368.768 682.902 363.645 684.811 359.769C685.23 358.844 685.839 358.018 686.599 357.344C687.359 356.671 688.253 356.165 689.221 355.86C690.19 355.555 691.212 355.457 692.221 355.574C693.23 355.69 694.203 356.018 695.076 356.535C700.238 359.769 700.764 370.775 699.42 376.015C699.42 376.346 697.94 380.047 697.141 382.053C698.758 380.709 700.355 379.384 702.03 378.157C706.861 374.437 711.867 370.814 716.835 367.171L721.373 363.801C720.73 363.275 713.017 357.042 710.952 352.932C709.14 349.289 707.816 344.146 709.725 340.29C710.142 339.363 710.75 338.535 711.509 337.859C712.269 337.184 713.162 336.676 714.13 336.369C715.099 336.062 716.122 335.963 717.131 336.078C718.141 336.193 719.115 336.519 719.99 337.036C725.172 340.29 725.678 351.276 724.334 356.516C724.237 356.905 722.23 362.204 721.665 363.528C724.977 361.054 728.269 358.561 731.405 355.97C735.668 352.48 739.702 348.719 743.482 344.711C743.19 344.478 735.106 337.991 733.002 333.803C731.171 330.16 729.866 325.018 731.775 321.141C732.193 320.218 732.8 319.392 733.558 318.718C734.316 318.045 735.207 317.538 736.173 317.231C737.139 316.924 738.16 316.824 739.167 316.938C740.175 317.051 741.147 317.375 742.021 317.888C747.203 321.141 747.729 332.147 746.385 337.368C746.287 337.718 744.768 341.77 744.008 343.659C744.098 343.735 744.196 343.801 744.3 343.854C747.995 339.717 751.313 335.258 754.215 330.53C755.852 327.959 757.254 325.388 758.579 322.875C756.942 321.823 749.56 317.031 747.242 313.369C744.924 309.707 743.17 304.974 744.631 300.922C744.947 299.958 745.461 299.071 746.142 298.319C746.822 297.567 747.653 296.966 748.581 296.556C749.509 296.147 750.513 295.937 751.527 295.941C752.541 295.944 753.544 296.161 754.468 296.578C759.981 299.227 761.695 310.214 760.936 315.512C760.936 315.804 760.156 318.745 759.591 320.869C760.156 319.739 760.78 318.551 761.306 317.44C763.254 313.291 764.909 309.356 766.273 305.87C767.052 303.922 767.695 301.974 768.221 300.338C767.149 298.487 762.981 290.91 762.572 286.702C762.163 282.495 762.825 277.371 766 274.45C766.723 273.738 767.588 273.187 768.538 272.832C769.488 272.476 770.502 272.325 771.514 272.387C772.527 272.45 773.515 272.725 774.414 273.194C775.313 273.664 776.103 274.317 776.733 275.112C780.395 280.001 776.909 290.462 773.753 294.903C773.48 295.292 768.513 300.747 768.455 300.747V300.63C767.909 302.285 767.325 304.039 766.624 305.967C765.338 309.493 763.838 313.467 761.91 317.655C759.871 322.222 757.575 326.671 755.033 330.978C752.197 335.803 748.937 340.366 745.294 344.614L745.157 344.75C746.677 343.815 751.001 341.341 751.371 341.186C756.397 339.023 767.344 337.816 771.357 342.413C772.003 343.195 772.477 344.105 772.748 345.082C773.019 346.06 773.081 347.084 772.931 348.087C772.78 349.09 772.42 350.05 771.873 350.905C771.327 351.76 770.607 352.49 769.76 353.048C766.234 355.542 760.955 354.996 757.059 353.828C752.676 352.445 745.372 345.763 744.709 345.237C740.899 349.471 736.813 353.447 732.476 357.139C729.964 359.301 727.353 361.405 724.685 363.489C726.029 362.73 727.236 362.048 727.412 361.97C732.418 359.808 743.365 358.6 747.378 363.197C748.027 363.978 748.503 364.888 748.776 365.866C749.049 366.844 749.112 367.869 748.961 368.873C748.81 369.877 748.449 370.838 747.901 371.693C747.353 372.547 746.63 373.277 745.781 373.833C742.274 376.326 736.976 375.781 733.1 374.612C729.223 373.443 722.737 367.794 721.062 366.294C720.029 367.093 719.114 367.892 718.003 368.671C713.114 372.43 708.264 376.151 703.491 379.949C701.835 381.293 700.258 382.657 698.66 384.04L701.037 382.715C706.043 380.573 716.99 379.345 721.003 383.962C721.652 384.743 722.128 385.653 722.401 386.631C722.674 387.609 722.737 388.633 722.586 389.638C722.435 390.642 722.074 391.603 721.526 392.458C720.978 393.312 720.255 394.042 719.406 394.598C715.88 397.091 710.601 396.546 706.725 395.357C702.848 394.169 696.985 389.085 695.037 387.332C693.459 388.773 691.862 390.234 690.401 391.715C689.408 392.747 688.453 393.663 687.479 394.773L684.674 397.948C682.98 400.013 681.207 402.136 679.59 404.201C678.46 405.642 677.409 407.026 676.357 408.409C677.973 407.064 681.246 404.513 681.538 404.298C686.155 401.396 696.81 398.552 701.465 402.487C702.22 403.165 702.823 403.994 703.236 404.92C703.649 405.846 703.863 406.849 703.863 407.863C703.863 408.877 703.649 409.88 703.236 410.806C702.823 411.733 702.22 412.562 701.465 413.239C698.349 416.239 693.05 416.551 689.038 415.928C684.596 415.246 676.571 410.084 675.577 409.363C673.824 411.662 672.149 413.921 670.591 416.064C665.195 423.524 660.987 429.953 658.105 434.472C658.105 434.647 657.91 434.783 657.812 434.939L654.072 433.128L654.657 432.232C657.676 427.732 662.078 421.343 667.688 413.921C669.461 411.564 671.389 409.11 673.396 406.578C671.308 404.306 669.356 401.912 667.552 399.409C663.247 401.084 654.326 401.143 653.157 401.143C652.981 404.045 652.826 406.85 652.709 409.499C652.319 418.713 652.358 426.388 652.456 431.745V432.368L648.345 430.42C648.345 425.083 648.56 417.875 649.105 409.344C649.28 406.422 649.534 403.286 649.826 400.071C648.677 399.799 639.385 397.403 635.879 394.598C632.704 392.065 629.353 387.936 629.47 383.631C629.459 382.616 629.663 381.609 630.068 380.678C630.473 379.747 631.071 378.912 631.821 378.228C632.571 377.544 633.458 377.026 634.422 376.708C635.387 376.391 636.408 376.28 637.418 376.385C643.476 377.164 648.56 386.923 649.553 392.299C649.553 392.611 649.865 396.195 649.982 398.318C650.118 397.013 650.215 395.747 650.371 394.422C650.625 391.754 650.975 389.105 651.345 386.241C651.56 384.878 651.793 383.475 652.008 382.073C652.222 380.67 652.592 379.229 652.884 377.807C653.624 374.476 654.52 371.145 655.514 367.814C653.176 367.58 644.898 366.606 641.333 364.561C637.768 362.515 633.872 358.97 633.346 354.685C633.183 353.683 633.234 352.659 633.494 351.678C633.754 350.698 634.218 349.783 634.856 348.994C635.494 348.205 636.292 347.56 637.196 347.101C638.101 346.641 639.092 346.378 640.106 346.328C646.203 346.172 652.709 355.055 654.501 360.217C654.618 360.528 655.494 364.366 655.923 366.489C656.546 364.541 657.131 362.496 657.871 360.49C659.819 354.646 662.02 348.938 664.163 343.153C664.825 341.38 665.448 339.608 666.111 337.835C665.273 337.835 655.397 336.822 651.423 334.524C647.897 332.576 643.963 328.933 643.417 324.648C643.257 323.647 643.31 322.623 643.571 321.644C643.833 320.665 644.297 319.751 644.935 318.963C645.572 318.175 646.368 317.53 647.271 317.07C648.174 316.609 649.164 316.344 650.176 316.291C656.293 316.135 662.799 325.037 664.591 330.18C664.727 330.569 665.974 336.024 666.227 337.523C667.63 333.628 669.013 329.732 670.123 325.836C671.768 320.576 673.07 315.214 674.019 309.785C673.63 309.785 663.325 308.811 659.254 306.474C655.709 304.428 651.774 300.863 651.248 296.578C651.085 295.577 651.135 294.552 651.395 293.572C651.656 292.591 652.12 291.676 652.758 290.887C653.396 290.099 654.193 289.453 655.098 288.994C656.002 288.535 656.994 288.271 658.007 288.221C664.104 288.066 670.61 296.968 672.402 302.11C672.519 302.441 673.493 306.668 673.902 308.675H674.233C675.038 303.188 675.351 297.64 675.168 292.098C675.168 289.059 674.876 286.137 674.584 283.313C672.636 283.313 663.792 283.313 659.897 281.637C656.001 279.962 651.852 276.885 650.839 272.696C650.569 271.715 650.509 270.688 650.663 269.683C650.817 268.677 651.182 267.715 651.733 266.86C652.285 266.005 653.011 265.276 653.864 264.721C654.717 264.166 655.677 263.797 656.683 263.639C662.741 262.821 670.182 270.943 672.539 275.852C672.656 276.125 673.668 278.988 674.35 281.092C674.214 279.806 674.078 278.501 673.902 277.196C673.298 272.619 672.441 268.469 671.662 264.788C671.195 262.704 670.747 260.892 670.299 259.08C668.351 258.106 660.715 254.113 658.105 250.86C655.494 247.607 653.157 242.952 654.209 238.764C654.432 237.78 654.858 236.853 655.461 236.044C656.064 235.235 656.829 234.561 657.708 234.066C658.587 233.57 659.56 233.264 660.564 233.168C661.569 233.071 662.582 233.186 663.539 233.504Z" fill="#046306"/>
<path d="M773.948 327.667C769.175 327.472 759.63 322.564 759.63 322.564C759.63 322.564 764.753 317.265 765.124 316.954C769.389 313.564 779.636 309.493 784.72 312.882C785.551 313.465 786.25 314.216 786.77 315.087C787.291 315.958 787.622 316.929 787.741 317.936C787.861 318.944 787.766 319.966 787.464 320.934C787.161 321.903 786.658 322.797 785.986 323.557C783.239 326.888 778.019 327.823 773.948 327.667Z" fill="#046306"/>
<g opacity="0.5">
<path opacity="0.5" d="M675.363 282.436C675.246 282.436 676.727 275.17 676.863 274.645C678.538 269.463 684.849 260.425 690.946 260.425C691.961 260.456 692.958 260.701 693.872 261.142C694.786 261.584 695.597 262.212 696.253 262.987C696.908 263.762 697.394 264.666 697.678 265.641C697.962 266.616 698.037 267.639 697.901 268.645C697.453 272.93 693.596 276.592 690.109 278.696C686.018 281.248 675.363 282.436 675.363 282.436Z" fill="white"/>
<path opacity="0.5" d="M663.539 233.504C669.286 235.569 672.149 246.205 671.954 251.659C671.954 252.126 670.863 259.451 670.766 259.451H670.649C671.097 261.126 671.584 262.918 672.071 264.905C672.928 268.567 673.863 272.696 674.584 277.294C675.42 282.218 675.966 287.187 676.22 292.176C676.531 297.765 676.342 303.372 675.655 308.928C675.648 308.993 675.648 309.058 675.655 309.123C676.415 307.506 678.675 303.045 678.869 302.714C681.869 298.156 690.323 291.026 696.225 292.721C697.195 293.017 698.09 293.513 698.855 294.178C699.619 294.844 700.234 295.662 700.661 296.581C701.087 297.501 701.315 298.499 701.33 299.512C701.344 300.525 701.145 301.53 700.745 302.461C699.186 306.493 694.511 308.986 690.596 310.116C686.174 311.363 676.318 309.882 675.538 309.766C674.703 315.398 673.493 320.969 671.915 326.44C671.006 329.634 670.019 332.822 668.954 336.004C669.636 334.621 670.279 333.394 670.376 333.238C673.376 328.68 681.85 321.55 687.733 323.245C688.702 323.541 689.598 324.037 690.362 324.702C691.126 325.368 691.741 326.186 692.168 327.105C692.594 328.024 692.822 329.023 692.837 330.036C692.851 331.049 692.652 332.054 692.252 332.985C690.693 336.998 686.018 339.51 682.103 340.621C678.188 341.731 669.695 340.621 667.474 340.348L666.247 343.991C664.299 349.834 662.176 355.678 660.403 361.405C659.76 363.353 659.195 365.457 658.63 367.483C659.254 366.255 659.78 365.223 659.877 365.087C662.877 360.509 671.331 353.399 677.214 355.094C678.183 355.39 679.079 355.886 679.843 356.551C680.608 357.216 681.224 358.034 681.652 358.953C682.08 359.871 682.311 360.869 682.328 361.882C682.345 362.896 682.149 363.901 681.752 364.833C680.194 368.846 675.5 371.359 671.584 372.469C667.669 373.58 660.014 372.606 657.364 372.236C656.838 374.32 656.332 376.424 655.923 378.469C655.67 379.871 655.338 381.196 655.163 382.637L654.579 386.806C654.306 389.475 653.994 392.221 653.8 394.832C653.644 396.663 653.527 398.396 653.41 400.13C654.033 398.182 655.358 394.15 655.455 393.838C657.618 389.556 660.836 385.896 664.805 383.202C665.026 382.71 665.293 382.241 665.604 381.8C666.156 380.949 666.88 380.224 667.731 379.672C668.582 379.12 669.54 378.754 670.542 378.598C671.544 378.442 672.568 378.499 673.546 378.765C674.525 379.031 675.436 379.501 676.22 380.144C680.856 384.137 679.688 395.085 677.564 400.11C677.447 400.403 675.714 403.48 674.604 405.389C675.441 404.357 676.22 403.441 677.097 402.312C678.792 400.227 680.545 398.201 682.415 396.02L685.278 392.923C686.213 391.871 687.343 390.877 688.375 389.825C690.81 387.468 693.401 385.189 696.07 382.969C694.258 381.469 687.869 376.092 686.038 372.43C684.207 368.768 682.902 363.645 684.811 359.769C685.23 358.844 685.839 358.018 686.599 357.344C687.359 356.671 688.253 356.165 689.221 355.86C690.19 355.555 691.212 355.457 692.221 355.574C693.23 355.69 694.203 356.018 695.076 356.535C700.238 359.769 700.764 370.775 699.42 376.015C699.42 376.346 697.94 380.047 697.141 382.053C698.758 380.709 700.355 379.384 702.03 378.157C706.861 374.437 711.867 370.814 716.835 367.171L721.373 363.801C720.73 363.275 713.017 357.042 710.952 352.932C709.14 349.289 707.816 344.146 709.725 340.29C710.142 339.363 710.75 338.535 711.509 337.859C712.269 337.184 713.162 336.676 714.13 336.369C715.099 336.062 716.122 335.963 717.131 336.078C718.141 336.193 719.115 336.519 719.99 337.036C725.172 340.29 725.678 351.276 724.334 356.516C724.237 356.905 722.23 362.204 721.665 363.528C724.977 361.054 728.269 358.561 731.405 355.97C735.668 352.48 739.702 348.719 743.482 344.711C743.19 344.478 735.106 337.991 733.002 333.803C731.171 330.16 729.866 325.018 731.775 321.141C732.193 320.218 732.8 319.392 733.558 318.718C734.316 318.045 735.207 317.538 736.173 317.231C737.139 316.924 738.16 316.824 739.167 316.938C740.175 317.051 741.147 317.375 742.021 317.888C747.203 321.141 747.729 332.147 746.385 337.368C746.287 337.718 744.768 341.77 744.008 343.659C744.098 343.735 744.196 343.801 744.3 343.854C747.995 339.717 751.313 335.258 754.215 330.53C755.852 327.959 757.254 325.388 758.579 322.875C756.942 321.823 749.56 317.031 747.242 313.369C744.924 309.707 743.17 304.974 744.631 300.922C744.947 299.958 745.461 299.071 746.142 298.319C746.822 297.567 747.653 296.966 748.581 296.556C749.509 296.147 750.513 295.937 751.527 295.941C752.541 295.944 753.544 296.161 754.468 296.578C759.981 299.227 761.695 310.214 760.936 315.512C760.936 315.804 760.156 318.745 759.591 320.869C760.156 319.739 760.78 318.551 761.306 317.44C763.254 313.291 764.909 309.356 766.273 305.87C767.052 303.922 767.695 301.974 768.221 300.338C767.149 298.487 762.981 290.91 762.572 286.702C762.163 282.495 762.825 277.371 766 274.45C766.723 273.738 767.588 273.187 768.538 272.832C769.488 272.476 770.502 272.325 771.514 272.387C772.527 272.45 773.515 272.725 774.414 273.194C775.313 273.664 776.103 274.317 776.733 275.112C780.395 280.001 776.909 290.462 773.753 294.903C773.48 295.292 768.513 300.747 768.455 300.747V300.63C767.909 302.285 767.325 304.039 766.624 305.967C765.338 309.493 763.838 313.467 761.91 317.655C759.871 322.222 757.575 326.671 755.033 330.978C752.197 335.803 748.937 340.366 745.294 344.614L745.157 344.75C746.677 343.815 751.001 341.341 751.371 341.186C756.397 339.023 767.344 337.816 771.357 342.413C772.003 343.195 772.477 344.105 772.748 345.082C773.019 346.06 773.081 347.084 772.931 348.087C772.78 349.09 772.42 350.05 771.873 350.905C771.327 351.76 770.607 352.49 769.76 353.048C766.234 355.542 760.955 354.996 757.059 353.828C752.676 352.445 745.372 345.763 744.709 345.237C740.899 349.471 736.813 353.447 732.476 357.139C729.964 359.301 727.353 361.405 724.685 363.489C726.029 362.73 727.236 362.048 727.412 361.97C732.418 359.808 743.365 358.6 747.378 363.197C748.027 363.978 748.503 364.888 748.776 365.866C749.049 366.844 749.112 367.869 748.961 368.873C748.81 369.877 748.449 370.838 747.901 371.693C747.353 372.547 746.63 373.277 745.781 373.833C742.274 376.326 736.976 375.781 733.1 374.612C729.223 373.443 722.737 367.794 721.062 366.294C720.029 367.093 719.114 367.892 718.003 368.671C713.114 372.43 708.264 376.151 703.491 379.949C701.835 381.293 700.258 382.657 698.66 384.04L701.037 382.715C706.043 380.573 716.99 379.345 721.003 383.962C721.652 384.743 722.128 385.653 722.401 386.631C722.674 387.609 722.737 388.633 722.586 389.638C722.435 390.642 722.074 391.603 721.526 392.458C720.978 393.312 720.255 394.042 719.406 394.598C715.88 397.091 710.601 396.546 706.725 395.357C702.848 394.169 696.985 389.085 695.037 387.332C693.459 388.773 691.862 390.234 690.401 391.715C689.408 392.747 688.453 393.663 687.479 394.773L684.674 397.948C682.98 400.013 681.207 402.136 679.59 404.201C678.46 405.642 677.409 407.026 676.357 408.409C677.973 407.064 681.246 404.513 681.538 404.298C686.155 401.396 696.81 398.552 701.465 402.487C702.22 403.165 702.823 403.994 703.236 404.92C703.649 405.846 703.863 406.849 703.863 407.863C703.863 408.877 703.649 409.88 703.236 410.806C702.823 411.733 702.22 412.562 701.465 413.239C698.349 416.239 693.05 416.551 689.038 415.928C684.596 415.246 676.571 410.084 675.577 409.363C673.824 411.662 672.149 413.921 670.591 416.064C665.195 423.524 660.987 429.953 658.105 434.472C658.105 434.647 657.91 434.783 657.812 434.939L654.072 433.128L654.657 432.232C657.676 427.732 662.078 421.343 667.688 413.921C669.461 411.564 671.389 409.11 673.396 406.578C671.308 404.306 669.356 401.912 667.552 399.409C663.247 401.084 654.326 401.143 653.157 401.143C652.981 404.045 652.826 406.85 652.709 409.499C652.319 418.713 652.358 426.388 652.456 431.745V432.368L648.345 430.42C648.345 425.083 648.56 417.875 649.105 409.344C649.28 406.422 649.534 403.286 649.826 400.071C648.677 399.799 639.385 397.403 635.879 394.598C632.704 392.065 629.353 387.936 629.47 383.631C629.459 382.616 629.663 381.609 630.068 380.678C630.473 379.747 631.071 378.912 631.821 378.228C632.571 377.544 633.458 377.026 634.422 376.708C635.387 376.391 636.408 376.28 637.418 376.385C643.476 377.164 648.56 386.923 649.553 392.299C649.553 392.611 649.865 396.195 649.982 398.318C650.118 397.013 650.215 395.747 650.371 394.422C650.625 391.754 650.975 389.105 651.345 386.241C651.56 384.878 651.793 383.475 652.008 382.073C652.222 380.67 652.592 379.229 652.884 377.807C653.624 374.476 654.52 371.145 655.514 367.814C653.176 367.58 644.898 366.606 641.333 364.561C637.768 362.515 633.872 358.97 633.346 354.685C633.183 353.683 633.234 352.659 633.494 351.678C633.754 350.698 634.218 349.783 634.856 348.994C635.494 348.205 636.292 347.56 637.196 347.101C638.101 346.641 639.092 346.378 640.106 346.328C646.203 346.172 652.709 355.055 654.501 360.217C654.618 360.528 655.494 364.366 655.923 366.489C656.546 364.541 657.131 362.496 657.871 360.49C659.819 354.646 662.02 348.938 664.163 343.153C664.825 341.38 665.448 339.608 666.111 337.835C665.273 337.835 655.397 336.822 651.423 334.524C647.897 332.576 643.963 328.933 643.417 324.648C643.257 323.647 643.31 322.623 643.571 321.644C643.833 320.665 644.297 319.751 644.935 318.963C645.572 318.175 646.368 317.53 647.271 317.07C648.174 316.609 649.164 316.344 650.176 316.291C656.293 316.135 662.799 325.037 664.591 330.18C664.727 330.569 665.974 336.024 666.227 337.523C667.63 333.628 669.013 329.732 670.123 325.836C671.768 320.576 673.07 315.214 674.019 309.785C673.63 309.785 663.325 308.811 659.254 306.474C655.709 304.428 651.774 300.863 651.248 296.578C651.085 295.577 651.135 294.552 651.395 293.572C651.656 292.591 652.12 291.676 652.758 290.887C653.396 290.099 654.193 289.453 655.098 288.994C656.002 288.535 656.994 288.271 658.007 288.221C664.104 288.066 670.61 296.968 672.402 302.11C672.519 302.441 673.493 306.668 673.902 308.675H674.233C675.038 303.188 675.351 297.64 675.168 292.098C675.168 289.059 674.876 286.137 674.584 283.313C672.636 283.313 663.792 283.313 659.897 281.637C656.001 279.962 651.852 276.885 650.839 272.696C650.569 271.715 650.509 270.688 650.663 269.683C650.817 268.677 651.182 267.715 651.733 266.86C652.285 266.005 653.011 265.276 653.864 264.721C654.717 264.166 655.677 263.797 656.683 263.639C662.741 262.821 670.182 270.943 672.539 275.852C672.656 276.125 673.668 278.988 674.35 281.092C674.214 279.806 674.078 278.501 673.902 277.196C673.298 272.619 672.441 268.469 671.662 264.788C671.195 262.704 670.747 260.892 670.299 259.08C668.351 258.106 660.715 254.113 658.105 250.86C655.494 247.607 653.157 242.952 654.209 238.764C654.432 237.78 654.858 236.853 655.461 236.044C656.064 235.235 656.829 234.561 657.708 234.066C658.587 233.57 659.56 233.264 660.564 233.168C661.569 233.071 662.582 233.186 663.539 233.504Z" fill="white"/>
<path opacity="0.5" d="M773.948 327.667C769.175 327.472 759.63 322.563 759.63 322.563C759.63 322.563 764.753 317.265 765.124 316.953C769.389 313.564 779.636 309.493 784.72 312.882C785.551 313.464 786.25 314.216 786.77 315.087C787.291 315.958 787.622 316.929 787.741 317.936C787.861 318.944 787.766 319.965 787.464 320.934C787.161 321.903 786.658 322.796 785.986 323.557C783.239 326.888 778.019 327.823 773.948 327.667Z" fill="white"/>
</g>
<path d="M718.218 447.172C718.218 447.172 689.252 377.359 673.045 380.397C656.838 383.436 700.842 491.702 700.842 491.702C700.842 491.702 649.884 395.572 615.133 395.572C580.382 395.572 627.873 501.812 671.896 537.225C671.896 537.225 602.394 462.347 561.858 478.553C521.321 494.76 642.989 570.632 642.989 570.632C642.989 570.632 572.337 548.367 580.441 565.567C588.544 582.767 610.556 585.806 610.556 585.806L530.691 589.858H808.562L746.015 583.78C746.015 583.78 810.88 551.406 793.505 538.238C776.129 525.07 737.911 553.412 737.911 553.412C737.911 553.412 803.926 480.56 791.187 453.25C778.447 425.94 721.685 502.825 721.685 502.825C721.685 502.825 768.026 404.688 758.695 387.468C749.365 370.249 718.218 447.172 718.218 447.172Z" fill="#046306"/>
<path opacity="0.4" d="M718.218 447.172C718.218 447.172 689.252 377.359 673.045 380.397C656.838 383.436 700.842 491.702 700.842 491.702C700.842 491.702 649.884 395.572 615.133 395.572C580.382 395.572 627.873 501.812 671.896 537.225C671.896 537.225 602.394 462.347 561.858 478.553C521.321 494.76 642.989 570.632 642.989 570.632C642.989 570.632 572.337 548.367 580.441 565.567C588.544 582.767 610.556 585.806 610.556 585.806L530.691 589.858H808.562L746.015 583.78C746.015 583.78 810.88 551.406 793.505 538.238C776.129 525.07 737.911 553.412 737.911 553.412C737.911 553.412 803.926 480.56 791.187 453.25C778.447 425.94 721.685 502.825 721.685 502.825C721.685 502.825 768.026 404.688 758.695 387.468C749.365 370.249 718.218 447.172 718.218 447.172Z" fill="white"/>
<path d="M727.49 450.854C702.011 526.141 702.011 579.417 702.011 579.417C702.011 579.417 732.126 580.586 763.39 557.425" stroke="#263238" stroke-linecap="round" stroke-linejoin="round"/>
<path d="M714.75 491.39C709.493 468.885 702.518 446.815 693.888 425.375" stroke="#263238" stroke-linecap="round" stroke-linejoin="round"/>
<path d="M639.463 447.387L704.309 543.517C704.309 543.517 748.332 506.506 763.39 485.605" stroke="#263238" stroke-linecap="round" stroke-linejoin="round"/>
<path d="M703.16 566.678C703.16 566.678 634.827 534.245 607.03 515.72" stroke="#263238" stroke-linecap="round" stroke-linejoin="round"/>
<path d="M270.35 97.8899L254.436 72.489H114.263V97.8899V107.026V529.609H691.239V97.8899H270.35Z" fill="#263238"/>
<path d="M687.441 109.539H118.549V520.395H687.441V109.539Z" fill="white"/>
<path opacity="0.17" d="M690.225 106.013H677.019V523.512H690.225V106.013Z" fill="black"/>
<path opacity="0.17" d="M690.225 358.444H677.019V520.122H690.225V358.444Z" fill="black"/>
<path d="M688.18 103.987H116.289V126.33H688.18V103.987Z" fill="#046306" stroke="#263238" stroke-miterlimit="10"/>
<path d="M687.441 109.539H118.549V520.395H687.441V109.539Z" stroke="#263238" stroke-linecap="round" stroke-linejoin="round"/>
<g opacity="0.17">
<path opacity="0.17" d="M414.945 147.874H375.149C374.688 147.874 374.233 147.783 373.807 147.607C373.382 147.431 372.995 147.173 372.67 146.847C372.344 146.521 372.086 146.135 371.91 145.709C371.733 145.284 371.643 144.828 371.643 144.368C371.64 143.906 371.729 143.447 371.904 143.02C372.079 142.592 372.337 142.203 372.663 141.876C372.989 141.548 373.376 141.288 373.803 141.111C374.229 140.933 374.687 140.842 375.149 140.842H414.945C415.407 140.842 415.865 140.933 416.291 141.111C416.718 141.288 417.105 141.548 417.431 141.876C417.757 142.203 418.015 142.592 418.19 143.02C418.365 143.447 418.454 143.906 418.451 144.368V144.368C418.451 144.828 418.361 145.284 418.184 145.709C418.008 146.135 417.75 146.521 417.424 146.847C417.099 147.173 416.712 147.431 416.287 147.607C415.861 147.783 415.405 147.874 414.945 147.874V147.874Z" fill="black"/>
<path opacity="0.17" d="M494.537 147.874H454.741C453.813 147.869 452.924 147.498 452.267 146.841C451.611 146.185 451.24 145.296 451.235 144.367C451.235 143.436 451.604 142.542 452.261 141.881C452.918 141.221 453.809 140.847 454.741 140.842H494.537C495.472 140.842 496.369 141.213 497.03 141.874C497.692 142.536 498.063 143.432 498.063 144.367V144.367C498.058 145.299 497.684 146.191 497.024 146.848C496.363 147.505 495.469 147.874 494.537 147.874V147.874Z" fill="black"/>
<path opacity="0.17" d="M574.149 147.874H534.353C533.421 147.874 532.527 147.505 531.867 146.848C531.206 146.191 530.832 145.299 530.827 144.367V144.367C530.827 143.432 531.199 142.536 531.86 141.874C532.521 141.213 533.418 140.842 534.353 140.842H574.149C575.081 140.847 575.973 141.221 576.63 141.881C577.287 142.542 577.655 143.436 577.655 144.367V144.367C577.65 145.296 577.279 146.185 576.623 146.841C575.966 147.498 575.077 147.869 574.149 147.874V147.874Z" fill="black"/>
<path opacity="0.17" d="M653.741 147.874H613.945C613.485 147.874 613.029 147.783 612.604 147.607C612.178 147.431 611.792 147.172 611.466 146.847C611.14 146.521 610.882 146.135 610.706 145.709C610.53 145.284 610.439 144.828 610.439 144.367V144.367C610.436 143.905 610.525 143.447 610.7 143.02C610.875 142.592 611.133 142.203 611.459 141.876C611.785 141.548 612.172 141.288 612.599 141.11C613.026 140.933 613.483 140.842 613.945 140.842H653.741C654.673 140.847 655.565 141.221 656.222 141.881C656.879 142.542 657.248 143.436 657.248 144.367V144.367C657.243 145.296 656.872 146.185 656.215 146.841C655.559 147.498 654.67 147.869 653.741 147.874V147.874Z" fill="black"/>
</g>
<path d="M172.312 315.571H232.444" stroke="#263238" stroke-width="3" stroke-linecap="round" stroke-linejoin="round"/>
<path d="M231.373 324.94H237.937" stroke="#263238" stroke-linecap="round" stroke-linejoin="round"/>
<path d="M193.719 324.94H227.399" stroke="#263238" stroke-linecap="round" stroke-linejoin="round"/>
<path d="M167.714 324.94H190.154" stroke="#263238" stroke-linecap="round" stroke-linejoin="round"/>
<path d="M210.354 334.31H237.937" stroke="#263238" stroke-linecap="round" stroke-linejoin="round"/>
<path d="M195.297 334.31H206.01" stroke="#263238" stroke-linecap="round" stroke-linejoin="round"/>
<path d="M167.714 334.31H190.544" stroke="#263238" stroke-linecap="round" stroke-linejoin="round"/>
<path d="M182.616 343.66H237.937" stroke="#263238" stroke-linecap="round" stroke-linejoin="round"/>
<path d="M167.714 343.66H177.473" stroke="#263238" stroke-linecap="round" stroke-linejoin="round"/>
<path d="M224.243 353.029H237.937" stroke="#263238" stroke-linecap="round" stroke-linejoin="round"/>
<path d="M198.083 353.029H219.471" stroke="#263238" stroke-linecap="round" stroke-linejoin="round"/>
<path d="M167.714 353.029H193.719" stroke="#263238" stroke-linecap="round" stroke-linejoin="round"/>
<path d="M190.544 362.399H237.937" stroke="#263238" stroke-linecap="round" stroke-linejoin="round"/>
<path d="M167.714 362.399H186.18" stroke="#263238" stroke-linecap="round" stroke-linejoin="round"/>
<path d="M309.445 315.571H369.578" stroke="#263238" stroke-width="3" stroke-linecap="round" stroke-linejoin="round"/>
<path d="M368.506 324.94H375.071" stroke="#263238" stroke-linecap="round" stroke-linejoin="round"/>
<path d="M330.853 324.94H364.532" stroke="#263238" stroke-linecap="round" stroke-linejoin="round"/>
<path d="M304.848 324.94H327.288" stroke="#263238" stroke-linecap="round" stroke-linejoin="round"/>
<path d="M347.488 334.31H375.071" stroke="#263238" stroke-linecap="round" stroke-linejoin="round"/>
<path d="M332.431 334.31H343.145" stroke="#263238" stroke-linecap="round" stroke-linejoin="round"/>
<path d="M304.848 334.31H327.678" stroke="#263238" stroke-linecap="round" stroke-linejoin="round"/>
<path d="M319.75 343.66H375.071" stroke="#263238" stroke-linecap="round" stroke-linejoin="round"/>
<path d="M304.848 343.66H314.607" stroke="#263238" stroke-linecap="round" stroke-linejoin="round"/>
<path d="M361.377 353.029H375.071" stroke="#263238" stroke-linecap="round" stroke-linejoin="round"/>
<path d="M335.216 353.029H356.605" stroke="#263238" stroke-linecap="round" stroke-linejoin="round"/>
<path d="M304.848 353.029H330.853" stroke="#263238" stroke-linecap="round" stroke-linejoin="round"/>
<path d="M327.678 362.399H375.071" stroke="#263238" stroke-linecap="round" stroke-linejoin="round"/>
<path d="M304.848 362.399H323.314" stroke="#263238" stroke-linecap="round" stroke-linejoin="round"/>
<path d="M446.579 315.571H506.712" stroke="#263238" stroke-width="3" stroke-linecap="round" stroke-linejoin="round"/>
<path d="M505.641 324.94H512.205" stroke="#263238" stroke-linecap="round" stroke-linejoin="round"/>
<path d="M467.987 324.94H501.667" stroke="#263238" stroke-linecap="round" stroke-linejoin="round"/>
<path d="M441.982 324.94H464.422" stroke="#263238" stroke-linecap="round" stroke-linejoin="round"/>
<path d="M484.622 334.31H512.205" stroke="#263238" stroke-linecap="round" stroke-linejoin="round"/>
<path d="M469.565 334.31H480.278" stroke="#263238" stroke-linecap="round" stroke-linejoin="round"/>
<path d="M441.982 334.31H464.812" stroke="#263238" stroke-linecap="round" stroke-linejoin="round"/>
<path d="M456.884 343.66H512.205" stroke="#263238" stroke-linecap="round" stroke-linejoin="round"/>
<path d="M441.982 343.66H451.741" stroke="#263238" stroke-linecap="round" stroke-linejoin="round"/>
<path d="M498.511 353.029H512.205" stroke="#263238" stroke-linecap="round" stroke-linejoin="round"/>
<path d="M472.35 353.029H493.738" stroke="#263238" stroke-linecap="round" stroke-linejoin="round"/>
<path d="M441.982 353.029H467.987" stroke="#263238" stroke-linecap="round" stroke-linejoin="round"/>
<path d="M464.812 362.399H512.205" stroke="#263238" stroke-linecap="round" stroke-linejoin="round"/>
<path d="M441.982 362.399H460.449" stroke="#263238" stroke-linecap="round" stroke-linejoin="round"/>
<path d="M583.713 315.571H643.846" stroke="#263238" stroke-width="3" stroke-linecap="round" stroke-linejoin="round"/>
<path d="M642.774 324.94H649.339" stroke="#263238" stroke-linecap="round" stroke-linejoin="round"/>
<path d="M605.121 324.94H638.801" stroke="#263238" stroke-linecap="round" stroke-linejoin="round"/>
<path d="M579.116 324.94H601.556" stroke="#263238" stroke-linecap="round" stroke-linejoin="round"/>
<path d="M621.756 334.31H649.339" stroke="#263238" stroke-linecap="round" stroke-linejoin="round"/>
<path d="M606.699 334.31H617.413" stroke="#263238" stroke-linecap="round" stroke-linejoin="round"/>
<path d="M579.116 334.31H601.946" stroke="#263238" stroke-linecap="round" stroke-linejoin="round"/>
<path d="M594.018 343.66H649.339" stroke="#263238" stroke-linecap="round" stroke-linejoin="round"/>
<path d="M579.116 343.66H588.875" stroke="#263238" stroke-linecap="round" stroke-linejoin="round"/>
<path d="M635.645 353.029H649.339" stroke="#263238" stroke-linecap="round" stroke-linejoin="round"/>
<path d="M609.484 353.029H630.873" stroke="#263238" stroke-linecap="round" stroke-linejoin="round"/>
<path d="M579.116 353.029H605.121" stroke="#263238" stroke-linecap="round" stroke-linejoin="round"/>
<path d="M601.946 362.399H649.339" stroke="#263238" stroke-linecap="round" stroke-linejoin="round"/>
<path d="M579.116 362.399H597.583" stroke="#263238" stroke-linecap="round" stroke-linejoin="round"/>
<path d="M667.864 285.397H138.028V176.099H667.864V285.397Z" fill="#046306"/>
<path opacity="0.7" d="M667.864 285.397H138.028V176.099H667.864V285.397Z" fill="white"/>
<path d="M533.788 285.397H272.201V176.099H533.788V285.397Z" fill="#046306"/>
<path opacity="0.92" d="M533.788 285.397H272.201V176.099H533.788V285.397Z" fill="white"/>
<path d="M480.337 207.772H498.16" stroke="#263238" stroke-linecap="round" stroke-linejoin="round"/>
<path d="M378.304 207.772H469.604" stroke="#263238" stroke-linecap="round" stroke-linejoin="round"/>
<path d="M307.829 207.772H368.623" stroke="#263238" stroke-linecap="round" stroke-linejoin="round"/>
<path d="M423.418 217.142H498.16" stroke="#263238" stroke-linecap="round" stroke-linejoin="round"/>
<path d="M382.59 217.142H411.595" stroke="#263238" stroke-linecap="round" stroke-linejoin="round"/>
<path d="M307.829 217.142H369.714" stroke="#263238" stroke-linecap="round" stroke-linejoin="round"/>
<path d="M348.228 226.511H498.16" stroke="#263238" stroke-linecap="round" stroke-linejoin="round"/>
<path d="M307.829 226.511H334.262" stroke="#263238" stroke-linecap="round" stroke-linejoin="round"/>
<path d="M461.013 235.881H498.16" stroke="#263238" stroke-linecap="round" stroke-linejoin="round"/>
<path d="M390.109 235.881H448.118" stroke="#263238" stroke-linecap="round" stroke-linejoin="round"/>
<path d="M307.829 235.881H378.305" stroke="#263238" stroke-linecap="round" stroke-linejoin="round"/>
<path d="M369.714 245.231H498.16" stroke="#263238" stroke-linecap="round" stroke-linejoin="round"/>
<path d="M307.829 245.231H357.89" stroke="#263238" stroke-linecap="round" stroke-linejoin="round"/>
<path d="M667.864 519.032H138.028V409.734H667.864V519.032Z" fill="#046306"/>
<path opacity="0.7" d="M667.864 519.032H138.028V409.734H667.864V519.032Z" fill="white"/>
<path d="M605.16 451.322C605.16 451.322 574.129 463.788 569.26 465.327C564.39 466.866 564.098 468.97 564.098 475.651C564.098 482.333 565.013 512.467 565.013 514.902C565.013 517.337 564.702 521.895 564.702 521.895H666.364C666.364 521.895 659.663 494.624 655.709 481.748C651.754 468.872 653.585 467.743 646.592 463.496C639.599 459.25 621.269 453.153 617.373 452.237C613.334 451.603 609.249 451.297 605.16 451.322V451.322Z" fill="#263238" stroke="#263238" stroke-linecap="round" stroke-linejoin="round"/>
<path d="M606.68 447.971C606.68 447.971 599.375 447.367 596.336 453.464C593.297 459.561 585.993 473.762 585.993 473.762L594.817 479.235L584.551 484.475C586.266 491.991 588.399 499.404 590.94 506.682C592.708 511.458 594.737 516.134 597.018 520.687C597.018 520.687 611.822 503.955 617.666 498.773C621.519 495.087 624.708 490.764 627.094 485.995L619.497 479.002L632.587 477.482C632.587 477.482 629.237 460.457 624.971 453.464C620.705 446.471 606.68 447.971 606.68 447.971Z" fill="#263238" stroke="#263238" stroke-linecap="round" stroke-linejoin="round"/>
<path d="M591.739 506.876C592.284 508.396 592.869 509.837 593.433 511.103" stroke="white" stroke-width="0.5" stroke-linecap="round" stroke-linejoin="round"/>
<path d="M592.849 461.042L585.993 473.762L594.817 479.235L585.369 484.592C585.369 484.592 587.571 494.195 590.337 502.805" stroke="white" stroke-width="0.5" stroke-linecap="round" stroke-linejoin="round"/>
<path d="M627.406 455.276L632.529 477.482L619.439 479.002L627.036 485.995C627.036 485.995 612.426 503.117 606.368 510.032" stroke="white" stroke-width="0.5" stroke-linecap="round" stroke-linejoin="round"/>
<path d="M646.534 489.345L641.06 523.122" stroke="white" stroke-width="0.5" stroke-linecap="round" stroke-linejoin="round"/>
<path d="M571.402 483.268C571.402 483.268 570.799 503.643 571.091 510.032C571.332 514.082 572.152 518.077 573.526 521.895" stroke="white" stroke-width="0.5" stroke-linecap="round" stroke-linejoin="round"/>
<path d="M627.678 497.565L632.84 490.572L637.106 497.565H627.678Z" fill="white" stroke="#263238" stroke-miterlimit="10"/>
<path d="M633.755 430.634C633.755 430.634 638.917 430.031 640.145 437.647C641.372 445.263 637.71 454.984 625.535 454.984C613.361 454.984 614.296 445.848 614.588 439.166C614.88 432.485 633.755 430.634 633.755 430.634Z" fill="#263238" stroke="#263238" stroke-miterlimit="10"/>
<path d="M603.64 443.121C603.64 443.121 603.329 451.926 602.725 461.977C602.121 472.028 597.251 485.703 597.251 497.254C597.21 503.655 597.516 510.053 598.167 516.421C598.167 516.421 608.199 496.942 612.757 485.703C617.315 474.463 622.496 441.894 622.496 441.894L603.64 443.121Z" fill="white" stroke="#263238" stroke-miterlimit="10"/>
<path d="M633.444 423.116C635.709 418.68 636.96 413.796 637.106 408.818C637.106 401.221 635.587 390.877 626.763 386.3C617.938 381.722 600.894 384.78 596.648 393.604C593.781 399.245 592.438 405.537 592.752 411.857C593.059 415.273 593.772 418.641 594.875 421.888C594.875 421.888 596.102 416.045 604.303 413.084C612.504 410.123 621.347 406.987 625.594 409.188C629.84 411.389 633.444 423.116 633.444 423.116Z" fill="#263238" stroke="#263238" stroke-linecap="round" stroke-linejoin="round"/>
<path d="M595.128 419.999C595.128 419.999 591.466 414.525 589.946 418.48C588.427 422.434 590.57 428.219 592.985 429.427C595.401 430.635 596.647 430.031 596.647 430.031L595.128 419.999Z" fill="white" stroke="#263238" stroke-linecap="round" stroke-linejoin="round"/>
<path d="M633.444 420.914C633.444 420.914 637.71 416.648 637.71 420.603C637.495 424.272 636.132 427.782 633.814 430.635C631.983 433.069 631.067 431.862 631.067 431.862L633.444 420.914Z" fill="white" stroke="#263238" stroke-linecap="round" stroke-linejoin="round"/>
<path d="M626.217 403.403L629.236 394.89C629.355 394.557 629.337 394.19 629.185 393.87C629.033 393.551 628.761 393.304 628.428 393.186C628.095 393.067 627.728 393.085 627.408 393.237C627.088 393.388 626.842 393.661 626.723 393.994L624.191 401.104C621.527 400.474 618.762 400.394 616.065 400.87C613.369 401.346 610.798 402.366 608.51 403.87C600.602 409.051 594.212 413.61 594.212 413.61C594.212 413.61 594.524 430.946 597.855 437.335C601.186 443.725 606.991 451.322 611.861 451.322C616.73 451.322 625.243 440.686 628.593 437.335C631.944 433.985 634.067 420.914 634.067 416.648C634.067 413.59 629.041 406.928 626.217 403.403Z" fill="white" stroke="#263238" stroke-miterlimit="10"/>
<path d="M614.237 481.554C609.296 482.001 604.317 481.335 599.667 479.606C598.273 485.439 597.464 491.397 597.251 497.39C597.21 503.791 597.516 510.19 598.167 516.558C598.167 516.558 608.199 497.079 612.757 485.839C613.244 484.514 613.77 483.053 614.237 481.554Z" fill="#046306" stroke="#263238" stroke-miterlimit="10"/>
<path d="M470.461 435.173C462.702 436.054 454.996 437.354 447.378 439.069C438.476 441.368 434.191 442.361 434.191 446.647C434.191 450.932 433.197 469.398 430.295 477.658C427.392 485.917 424.022 497.78 424.022 502.065C424.022 506.35 430.295 524.486 430.295 524.486H441.827C441.827 524.486 437.541 503.37 437.541 501.403C437.541 499.435 443.482 481.924 443.482 481.924L443.813 525.129H504.199L503.556 483.891C503.556 483.891 508.816 500.721 508.816 503.682C508.816 506.643 506.868 526.122 506.868 526.122H518.322C518.322 526.122 523.932 504.695 523.6 497.098C523.269 489.501 517.757 465.425 517.016 458.139C516.276 450.854 520.64 446.919 512.731 441.972C504.822 437.024 486.668 434.063 482.714 433.732C478.592 433.813 474.489 434.296 470.461 435.173V435.173Z" fill="#046306" stroke="#263238" stroke-miterlimit="10"/>
<path d="M443.424 482.021L444.417 465.522L440.774 452.997" stroke="#263238" stroke-linecap="round" stroke-linejoin="round"/>
<path d="M503.458 462.892V483.988" stroke="#263238" stroke-linecap="round" stroke-linejoin="round"/>
<path d="M503.771 468.834L509.049 460.906" stroke="#263238" stroke-linecap="round" stroke-linejoin="round"/>
<path d="M476.071 457.614L474.104 524.564" stroke="#263238" stroke-linecap="round" stroke-linejoin="round"/>
<path d="M475.077 427.265C472.142 427.426 469.351 428.588 467.169 430.557C463.546 433.868 462.221 446.725 462.221 446.725C462.221 446.725 473.772 443.433 475.74 442.829C477.707 442.225 495.219 446.121 495.219 446.121C495.219 446.121 493.583 434.589 488.966 429.641C484.35 424.694 475.077 427.265 475.077 427.265Z" fill="#263238" stroke="#263238" stroke-linecap="round" stroke-linejoin="round"/>
<path d="M470.461 416.707C470.461 416.707 473.11 420.603 473.11 432.291C473.11 443.978 474.415 456.036 476.071 457.614C477.727 459.191 484.642 442.03 484.642 434.239C484.774 429.086 486.016 424.023 488.284 419.395C488.284 419.395 480.025 413.785 475.74 413.123C474.57 412.941 473.374 413.209 472.394 413.875C471.414 414.54 470.723 415.552 470.461 416.707V416.707Z" fill="white" stroke="#263238" stroke-linecap="round" stroke-linejoin="round"/>
<path d="M473.636 445.147C474.162 451.555 475.058 456.601 476.071 457.613C477.084 458.626 480.259 452.198 482.44 445.303C479.516 445.716 476.544 445.664 473.636 445.147V445.147Z" fill="#263238" stroke="#263238" stroke-linecap="round" stroke-linejoin="round"/>
<path d="M490.583 385.053C490.583 385.053 492.531 385.716 496.193 382.404C499.855 379.093 498.141 372.84 496.524 374.164C495.492 375.007 494.598 376.006 493.875 377.125C493.235 375.195 492.058 373.487 490.481 372.204C488.904 370.92 486.993 370.113 484.973 369.879C478.058 369.217 469.798 378.781 469.798 378.781C469.798 378.781 454.644 390.001 456.28 398.903C457.916 407.805 466.506 415.714 470.461 416.707C474.415 417.701 481.681 410.454 480.356 404.182C479.032 397.91 478.058 388.598 480.356 387.683C483.713 386.615 487.127 385.737 490.583 385.053V385.053Z" fill="#263238" stroke="#263238" stroke-linecap="round" stroke-linejoin="round"/>
<path d="M469.799 411.428C469.799 411.428 464.208 407.532 462.884 410.454C461.559 413.376 464.539 418.694 468.162 420.33C471.786 421.966 475.077 416.707 475.077 416.707C475.077 416.707 486.629 425.94 494.557 426.271C502.485 426.603 502.816 420.33 501.491 408.467C500.167 396.604 496.213 387.352 493.252 384.06C490.291 380.768 478.74 383.729 475.097 386.689C471.454 389.65 469.253 392.3 472.798 392.962C476.344 393.624 479.714 394.91 476.422 398.572C473.13 402.234 471.474 400.87 472.526 403.52C473.578 406.169 477.805 408.798 473.85 410.123L469.799 411.428Z" fill="white" stroke="#263238" stroke-linecap="round" stroke-linejoin="round"/>
<path d="M324.853 428.959C324.853 428.959 283.284 433.907 281.999 437.53C280.713 441.153 265.519 476.489 267.818 479.742C270.116 482.995 274.753 483.638 278.376 483.638C280.942 483.408 283.37 482.372 285.31 480.677L274.753 525.479H351.267L353.585 494.137C353.585 494.137 362.487 498.033 368.428 497.448C374.369 496.864 373.045 492.17 371.72 483.268C370.396 474.366 369.772 451.594 367.435 447.309C365.097 443.023 337.086 431.141 337.086 431.141L324.853 428.959Z" fill="#263238" stroke="#263238" stroke-linecap="round" stroke-linejoin="round"/>
<path d="M354.208 482.683V462.23L355.845 458.276" stroke="white" stroke-linecap="round" stroke-linejoin="round"/>
<path d="M287.57 465.522L290.882 451.672L290.219 448.712" stroke="white" stroke-linecap="round" stroke-linejoin="round"/>
<path d="M296.258 526.882C296.258 526.882 302.511 499.825 305.491 483.014C308.471 466.204 320.88 428.959 320.88 428.959L340.028 434.238C340.028 434.238 327.152 471.833 323.86 488.001C320.568 504.169 317.802 527.076 317.802 527.076L296.258 526.882Z" fill="#046306" stroke="#263238" stroke-miterlimit="10"/>
<path d="M323.529 425.064C323.529 425.064 317.919 425.064 315.932 428.959C313.945 432.855 311.315 448.088 311.315 448.088C311.315 448.088 323.198 442.809 324.191 442.809C325.185 442.809 329.801 443.14 332.1 445.77C334.398 448.4 339.366 454.672 339.366 454.672C339.366 454.672 346.943 442.478 344.976 434.569C344.301 431.963 342.822 429.635 340.748 427.918C338.674 426.201 336.111 425.182 333.424 425.005L323.529 425.064Z" fill="#046306" stroke="#263238" stroke-miterlimit="10"/>
<path d="M321.58 416.376C321.58 416.376 320.918 439.478 321.58 446.062C322.243 452.646 323.236 454.302 323.236 454.302C323.236 454.302 328.846 445.069 330.483 441.777C332.119 438.485 337.086 434.842 339.404 431.881C341.722 428.92 343.3 417.7 343.3 417.7C343.3 417.7 334.729 424.304 330.112 422.648C326.846 421.203 323.934 419.063 321.58 416.376V416.376Z" fill="white" stroke="#263238" stroke-linecap="round" stroke-linejoin="round"/>
<path d="M335.216 374.632C329.606 375.45 324.132 378.255 322.555 383.729C321.23 388.345 320.607 403.519 320.256 411.097C319.905 418.674 323.879 428.258 327.171 429.252C329.919 430.227 332.877 430.455 335.742 429.914C337.398 429.252 344.995 419.025 346.962 417.038C348.93 415.051 354.871 396.585 354.871 390.001C355.016 386.753 354.098 383.547 352.256 380.868C350.414 378.189 347.748 376.184 344.664 375.158C341.586 374.322 338.367 374.142 335.216 374.632Z" fill="white" stroke="#263238" stroke-linecap="round" stroke-linejoin="round"/>
<path d="M351.559 405.584C351.559 405.584 356.838 400.948 355.455 406.889C355.03 408.665 354.22 410.325 353.083 411.752C351.945 413.179 350.507 414.339 348.871 415.149L351.559 405.584Z" fill="white" stroke="#263238" stroke-linecap="round" stroke-linejoin="round"/>
<path d="M320.879 399.234C320.879 399.234 316.983 395.611 316.983 400.559C317.134 403.798 318.292 406.91 320.295 409.461L320.879 399.234Z" fill="white" stroke="#263238" stroke-linecap="round" stroke-linejoin="round"/>
<path d="M351.559 405.584C353.271 400.539 354.376 395.307 354.851 390.001C354.997 386.753 354.079 383.547 352.236 380.868C350.394 378.189 347.729 376.184 344.644 375.158C341.567 374.322 338.348 374.142 335.197 374.632C329.587 375.45 324.113 378.255 322.535 383.729C321.52 389.187 320.928 394.716 320.763 400.266C322.438 398.961 325.925 395.767 325.184 391.968C324.191 387.021 322.204 384.722 325.827 382.404C329.45 380.086 333.755 383.397 339.697 385.384C345.638 387.371 351.559 384.722 353.215 386.358C354.871 387.995 347.936 394.949 348.93 397.578C349.923 400.208 352.222 403.188 351.559 405.506V405.584Z" fill="#263238" stroke="#263238" stroke-linecap="round" stroke-linejoin="round"/>
<path d="M304.05 468.833C304.05 468.833 299.102 461.899 295.81 461.568C292.518 461.237 284.59 468.833 284.59 468.833H304.05Z" fill="white" stroke="#263238" stroke-linecap="round" stroke-linejoin="round"/>
<path d="M335.392 469.476H340.028L341.002 478.729L336.054 477.404L335.392 469.476Z" fill="white" stroke="#263238" stroke-linecap="round" stroke-linejoin="round"/>
<path d="M340.027 469.476L348.267 473.119L350.234 483.346L341.001 478.729L340.027 469.476Z" fill="white" stroke="#263238" stroke-linecap="round" stroke-linejoin="round"/>
<path d="M366.383 487.397L319.224 468.931C316.505 470.267 313.955 471.922 311.627 473.859C310.251 475.242 309.235 476.941 308.666 478.807C308.666 478.807 331.087 494.975 341.976 499.923C352.864 504.87 368.701 506.526 371.331 503.818C373.961 501.111 373.279 490.962 371.662 489.306C370.788 488.405 369.791 487.631 368.701 487.008" fill="#263238"/>
<path d="M366.383 487.397L319.224 468.931C316.505 470.267 313.955 471.922 311.627 473.859C310.251 475.242 309.235 476.941 308.666 478.807C308.666 478.807 331.087 494.975 341.976 499.923C352.864 504.87 368.701 506.526 371.331 503.818C373.961 501.111 373.279 490.962 371.662 489.306C370.788 488.405 369.791 487.631 368.701 487.008" stroke="#263238" stroke-linecap="round" stroke-linejoin="round"/>
<path d="M335.392 467.918L336.054 477.482C336.054 477.482 301.42 485.391 288.563 487.709C275.707 490.027 268.772 488.352 266.805 482.43C264.838 476.508 271.422 469.223 274.383 467.587C277.343 465.951 335.392 467.918 335.392 467.918Z" fill="#263238" stroke="#263238" stroke-linecap="round" stroke-linejoin="round"/>
<path d="M207.997 445.303C207.997 445.303 221.204 448.595 226.483 450.25C231.762 451.906 233.398 453.874 233.398 457.828C233.398 461.782 230.437 479.255 230.437 481.904V499.728C230.437 504.675 235.385 522.811 235.385 522.811H171.104C171.104 522.811 163.857 495.111 158.91 479.956C153.962 464.801 153.3 459.503 158.247 457.185C170.009 452.875 182.008 449.246 194.187 446.316C198.761 445.656 203.376 445.317 207.997 445.303Z" fill="#046306" stroke="#263238" stroke-miterlimit="10"/>
<path d="M227.145 467.061C227.145 467.061 231.041 485.216 229.775 491.8C228.509 498.384 219.548 523.473 219.548 523.473" stroke="#263238" stroke-linecap="round" stroke-linejoin="round"/>
<path d="M158.208 457.165C158.208 457.165 152.365 458.159 153.923 465.756C155.481 473.353 147.982 522.46 147.982 522.46H162.494C162.494 522.46 172.389 496.397 174.025 490.144C175.662 483.891 177.006 478.924 174.025 473.645" fill="#046306"/>
<path d="M158.208 457.165C158.208 457.165 152.365 458.159 153.923 465.756C155.481 473.353 147.982 522.46 147.982 522.46H162.494C162.494 522.46 172.389 496.397 174.025 490.144C175.662 483.891 177.006 478.924 174.025 473.645" stroke="#263238" stroke-miterlimit="10"/>
<path d="M219.666 413.181L221.828 480.365H202.329V418.966L219.666 413.181Z" fill="#263238" stroke="#263238" stroke-linecap="round" stroke-linejoin="round"/>
<path d="M194.479 461.47C194.479 461.47 200.089 486.793 202.407 494.449C204.725 502.104 205.037 519.772 204.355 522.148C203.673 524.525 212.595 522.148 212.595 522.148C212.595 522.148 214.913 504.617 216.237 494.449C217.562 484.281 213.588 465.093 213.588 465.093L209.303 448.263L193.135 451.244L194.479 461.47Z" fill="white" stroke="#263238" stroke-linecap="round" stroke-linejoin="round"/>
<path d="M208.601 433.751C207.682 439.002 207.794 444.381 208.932 449.588C210.88 456.854 216.198 470.041 211.581 473.664C206.965 477.288 200.692 475.32 197.4 468.717C194.109 462.113 191.128 445.634 191.128 432.115C191.128 418.596 192.453 416.278 197.069 416.278C201.686 416.278 208.601 433.751 208.601 433.751Z" fill="white" stroke="#263238" stroke-linecap="round" stroke-linejoin="round"/>
<path d="M199.095 427.498C196.129 430.077 192.641 431.984 188.869 433.089C183.921 434.082 181.291 420.895 180.629 407.766C179.967 394.637 183.278 387.313 190.193 384.021C197.108 380.729 213.938 382.365 220.542 384.995C227.145 387.624 235.054 391.929 235.054 398.844C235.054 405.76 226.132 411.428 223.503 412.986C220.873 414.545 214.601 416.882 210.646 420.895C207.23 423.78 203.315 426.018 199.095 427.498V427.498Z" fill="#263238" stroke="#263238" stroke-linecap="round" stroke-linejoin="round"/>
<path d="M199.095 427.499C199.095 427.499 202.991 437.394 210.315 437.706C217.639 438.017 225.899 421.226 226.152 413.96C226.405 406.695 218.886 394.17 218.886 394.17C218.886 394.17 206.03 423.525 199.095 427.499Z" fill="white" stroke="#263238" stroke-linecap="round" stroke-linejoin="round"/>
<path d="M197.128 412.655L197.771 483.891H175.681L180.629 401.104" fill="#263238"/>
<path d="M197.128 412.655L197.771 483.891H175.681L180.629 401.104" stroke="#263238" stroke-linecap="round" stroke-linejoin="round"/>
</svg>
