<svg width="544" height="483" viewBox="0 0 544 483" fill="none" xmlns="http://www.w3.org/2000/svg">
<path d="M452.338 310.232H422.425V310.457H452.338V310.232Z" fill="#EBEBEB"/>
<path d="M345.15 312.688H337.301V312.914H345.15V312.688Z" fill="#EBEBEB"/>
<path d="M421.522 301.85H404.19V302.076H421.522V301.85Z" fill="#EBEBEB"/>
<path d="M132.389 303.367H93.3806V303.593H132.389V303.367Z" fill="#EBEBEB"/>
<path d="M146.153 303.367H140.436V303.593H146.153V303.367Z" fill="#EBEBEB"/>
<path d="M249.35 307.179H164.74V307.405H249.35V307.179Z" fill="#EBEBEB"/>
<path d="M261.317 255.418H86.914C85.5462 255.418 84.2345 254.875 83.2673 253.907C82.3002 252.94 81.7568 251.629 81.7568 250.261V5.11197C81.7687 3.75206 82.3173 2.45189 83.2832 1.49449C84.2491 0.537084 85.554 -5.21366e-05 86.914 3.79564e-09H261.317C261.994 3.79564e-09 262.665 0.133392 263.291 0.392562C263.916 0.651732 264.485 1.0316 264.964 1.51049C265.443 1.98937 265.822 2.55789 266.082 3.18358C266.341 3.80928 266.474 4.47989 266.474 5.15713V250.261C266.474 250.938 266.341 251.609 266.082 252.234C265.822 252.86 265.443 253.429 264.964 253.907C264.485 254.386 263.916 254.766 263.291 255.025C262.665 255.285 261.994 255.418 261.317 255.418V255.418ZM86.914 0.180636C85.6068 0.183023 84.3539 0.703339 83.4296 1.62763C82.5053 2.55191 81.985 3.80483 81.9826 5.11197V250.261C81.985 251.568 82.5053 252.821 83.4296 253.745C84.3539 254.669 85.6068 255.19 86.914 255.192H261.317C262.624 255.19 263.877 254.669 264.801 253.745C265.726 252.821 266.246 251.568 266.248 250.261V5.11197C266.246 3.80483 265.726 2.55191 264.801 1.62763C263.877 0.703339 262.624 0.183023 261.317 0.180636H86.914Z" fill="#EBEBEB"/>
<path d="M456.674 255.653H282.271C280.903 255.653 279.591 255.109 278.624 254.142C277.657 253.175 277.114 251.863 277.114 250.495V5.34658C277.114 3.97883 277.657 2.66709 278.624 1.69994C279.591 0.732792 280.903 0.189453 282.271 0.189453H456.674C458.042 0.189453 459.353 0.732792 460.32 1.69994C461.288 2.66709 461.831 3.97883 461.831 5.34658V250.495C461.831 251.863 461.288 253.175 460.32 254.142C459.353 255.109 458.042 255.653 456.674 255.653V255.653ZM282.271 0.415247C280.964 0.417634 279.711 0.937954 278.786 1.86224C277.862 2.78653 277.342 4.03944 277.339 5.34658V250.495C277.342 251.803 277.862 253.055 278.786 253.98C279.711 254.904 280.964 255.424 282.271 255.427H456.674C457.981 255.424 459.234 254.904 460.158 253.98C461.082 253.055 461.603 251.803 461.605 250.495V5.34658C461.603 4.03944 461.082 2.78653 460.158 1.86224C459.234 0.937954 457.981 0.417634 456.674 0.415247H282.271Z" fill="#EBEBEB"/>
<path d="M497.588 294.688H46V294.914H497.588V294.688Z" fill="#EBEBEB"/>
<path d="M284.041 63.7008H318.099C318.099 63.7008 326.092 60.6933 325.054 52.7273C324.015 44.7612 311.967 51.3996 311.967 51.3996C311.967 51.3996 315.579 40.2815 303.938 43.4336C300.644 44.275 297.671 46.069 295.392 48.5912C293.112 51.1133 291.627 54.2516 291.122 57.6134C291.122 57.6134 275.786 54.931 284.041 63.7008Z" fill="#F5F5F5"/>
<path d="M116.574 90.3986C120.991 91.5095 125.949 87.8245 126.157 83.2725C126.22 81.9358 125.931 80.563 126.103 79.2624C126.645 75.0175 132.75 72.7957 135.893 75.6949C136.201 72.2596 137.565 69.0041 139.799 66.376C142.032 63.7478 145.025 61.8761 148.366 61.0183C150.739 60.3442 153.277 60.5826 155.483 61.6867C157.605 62.8879 159.023 65.5071 158.319 67.8373C158.908 65.7382 160.086 63.8518 161.714 62.4016C163.342 60.9514 165.351 59.9981 167.504 59.6545C169.668 59.3845 171.862 59.7973 173.779 60.8354C175.696 61.8734 177.241 63.4846 178.198 65.4439C179.067 67.4421 179.24 69.6745 178.688 71.7826C178.136 73.8906 176.891 75.752 175.154 77.0677C177.611 74.3582 182.795 74.2498 184.023 76.3994C184.517 77.2168 184.776 78.1541 184.773 79.1089C184.665 84.3925 180.763 87.942 175.958 90.1096C171.153 92.2772 120.539 92.4849 116.574 90.3986Z" fill="#F5F5F5"/>
<path d="M383.309 87.3549V87.7885C382.767 87.8607 384.104 89.4051 384.402 88.9445C384.7 88.4839 384.284 87.8969 383.878 87.5266C382.144 85.9727 380.022 84.9166 377.736 84.47C375.451 84.0234 373.087 84.203 370.896 84.9896C368.704 85.7763 366.766 87.1409 365.286 88.9389C363.807 90.7369 362.841 92.9015 362.491 95.2035C359.384 91.4915 353.459 91.4192 349.124 93.4875C345.877 95.0825 343.165 97.5874 341.318 100.697C339.47 103.807 338.568 107.386 338.719 111C336.895 110.163 334.842 109.966 332.892 110.439C330.942 110.913 329.208 112.03 327.971 113.61C326.906 115.037 326.3 116.762 325.262 118.207C324.446 119.325 323.389 120.245 322.17 120.9C320.95 121.555 319.6 121.928 318.217 121.992C328.739 124.15 371.026 123.112 381.439 123.31C385.955 123.401 390.598 123.798 395.059 122.913C399.521 122.028 403.955 119.598 405.951 115.507C407.948 111.416 406.575 105.617 402.384 103.847C403.653 101.443 404.092 98.6866 403.631 96.0075C403.17 93.3283 401.836 90.8768 399.837 89.0349C395.737 85.4673 387.644 84.1035 383.309 87.3549Z" fill="#F5F5F5"/>
<path d="M323.979 295.727C323.979 295.727 267.747 149.268 199.124 149.268C122.183 149.268 93.4526 294.616 93.4526 294.616L323.979 295.727Z" fill="#EBEBEB"/>
<path d="M84.7009 295.275C84.7009 295.275 252.177 165.362 359.591 147.66C448.789 132.956 464.54 295.663 464.54 295.663L84.7009 295.275Z" fill="#F0F0F0"/>
<path d="M206.124 296.305C206.124 296.305 136.715 274.936 126.021 274.457C115.328 273.978 79.0562 294.887 79.0562 294.887L206.124 296.305Z" fill="#F5F5F5"/>
<path d="M301.68 195.248C299.738 194.896 296.017 198.491 294.183 197.741C292.784 197.172 292.522 193.379 291.42 192.322C289.902 190.904 284.42 190.994 283.797 189.017C282.505 184.934 288.584 175.469 292.738 174.403C295.719 173.663 300.452 179.569 303.333 180.644C306.042 181.629 312.662 180.536 314.55 182.667C316.736 185.133 316.356 193.072 314.55 195.854C313.412 197.66 308.941 199.882 306.864 199.466C305.211 199.141 303.324 195.555 301.68 195.248Z" fill="#EBEBEB"/>
<path d="M294.292 189.965C293.239 189.004 292.135 188.099 290.986 187.255L291.076 186.948L294.689 189.405L296.161 185.061L296.396 185.268C296.396 185.268 295.222 188.475 295.403 189.613C295.8 192.06 300.921 197.515 300.921 197.515C300.921 197.515 304.588 193.325 305.274 191.627C305.843 190.218 306.051 185.611 306.051 185.611L306.295 185.657L305.979 191.076L311.398 186.623L311.488 186.921C309.535 188.444 307.674 190.082 305.916 191.825C304.624 193.671 303.453 195.599 302.411 197.597C302.059 198.234 301.887 198.955 301.915 199.683L302.348 214.938H299.792L300.217 200.27C300.166 199.302 299.854 198.365 299.313 197.56C297.834 194.905 296.155 192.366 294.292 189.965V189.965Z" fill="#E0E0E0"/>
<path d="M228.125 257.676C225.804 257.251 221.36 261.541 219.184 260.647C217.504 259.97 217.197 255.445 215.878 254.208C214.072 252.51 207.533 252.618 206.783 250.252C205.248 245.384 212.5 234.058 217.459 232.82C221.008 231.917 226.653 238.98 230.103 240.263C233.291 241.446 241.239 240.136 243.488 242.674C246.098 245.628 245.602 255.102 243.488 258.416C242.134 260.557 236.805 263.221 234.321 262.716C232.352 262.327 230.085 258.037 228.125 257.676Z" fill="#EBEBEB"/>
<path d="M219.31 251.372C218.05 250.219 216.729 249.133 215.354 248.12L215.472 247.759L219.798 250.685L221.559 245.51L221.848 245.745C221.848 245.745 220.439 249.583 220.656 250.929C221.126 253.855 227.24 260.367 227.24 260.367C227.24 260.367 231.62 255.364 232.433 253.341C233.111 251.661 233.336 246.169 233.336 246.169L233.616 246.214L233.237 252.636L239.704 247.325L239.821 247.687C239.821 247.687 234.583 251.832 233.174 253.539C231.628 255.739 230.228 258.038 228.983 260.421C228.567 261.182 228.362 262.039 228.387 262.905L228.911 281.122H225.867L226.373 263.61C226.308 262.447 225.924 261.325 225.262 260.367C223.835 257.893 220.927 253.097 219.31 251.372Z" fill="#E0E0E0"/>
<path d="M139.208 200.803C141.15 200.451 144.871 204.045 146.704 203.296C148.104 202.727 148.366 198.933 149.477 197.877C150.985 196.459 156.467 196.549 157.091 194.571C158.382 190.489 152.304 181.023 148.149 179.958C145.169 179.217 140.445 185.124 137.564 186.199C134.854 187.183 128.234 186.09 126.338 188.222C124.152 190.687 124.531 198.626 126.338 201.408C127.476 203.214 131.946 205.436 134.033 205.021C135.667 204.696 137.564 201.11 139.208 200.803Z" fill="#F5F5F5"/>
<path d="M135.523 195.519C134.47 194.555 133.363 193.65 132.208 192.81L132.308 192.503L135.92 194.959L137.402 190.57L137.645 190.778C137.645 190.778 136.462 193.984 136.652 195.122C137.049 197.569 142.17 203.025 142.17 203.025C142.17 203.025 145.837 198.834 146.524 197.136C147.093 195.727 147.3 191.121 147.3 191.121L147.544 191.166L147.228 196.585L152.647 192.132L152.737 192.43C150.785 193.953 148.924 195.591 147.165 197.335C145.873 199.18 144.702 201.108 143.661 203.106C143.308 203.743 143.136 204.465 143.164 205.192L143.597 220.447H141.05L141.475 205.779C141.424 204.811 141.112 203.875 140.572 203.07C139.082 200.429 137.394 197.905 135.523 195.519V195.519Z" fill="#E0E0E0"/>
<path d="M334.89 160.043C334.89 160.043 325.903 159.004 324.955 156.538C324.205 154.542 328.613 151.173 329.127 149.105C329.516 147.507 328.45 144.093 328.947 142.512C329.38 141.121 332.063 139.224 332.388 137.797C332.541 137.129 331.738 135.747 331.909 135.088C332.279 133.562 334.221 129.886 335.775 130.129C338.222 130.527 339.27 136.903 339.387 139.378C339.387 140.281 338.195 142.015 338.286 142.946C338.457 144.607 341.555 147.145 341.492 148.807C341.492 149.512 340.002 150.469 339.984 151.164C339.984 152.438 342.783 154.362 342.458 155.581C341.88 157.694 334.89 160.043 334.89 160.043Z" fill="#E6E6E6"/>
<path d="M335.251 146.396L335.016 136.325H334.655L334.23 152.727C334.23 152.727 331.177 153.63 330.121 153.793C329.378 153.83 328.633 153.83 327.89 153.793V153.991C327.89 153.991 329.696 154.118 330.247 154.073C330.536 154.073 331.394 153.856 331.394 153.856L330.283 154.922L330.41 155.066L331.846 153.775L334.212 153.197L333.824 168.397H335.829L335.278 146.658L335.251 146.396Z" fill="#E0E0E0"/>
<path d="M412.49 205.274C412.49 205.274 403.504 204.226 402.555 201.769C401.806 199.773 406.213 196.395 406.728 194.327C407.125 192.729 406.06 189.315 406.547 187.743C406.981 186.343 409.663 184.446 409.988 183.028C410.151 182.351 409.338 180.978 409.51 180.319C409.889 178.802 411.822 175.117 413.375 175.37C415.823 175.758 416.871 182.134 416.988 184.618C416.988 185.521 415.787 187.255 415.886 188.186C416.049 189.847 419.147 192.376 419.083 194.047C419.083 194.743 417.593 195.7 417.575 196.405C417.575 197.669 420.384 199.593 420.05 200.821C419.472 202.916 412.49 205.274 412.49 205.274Z" fill="#E6E6E6"/>
<path d="M412.843 191.618L412.59 181.538H412.229L411.786 197.976C410.439 198.402 409.07 198.758 407.686 199.042C406.94 199.079 406.192 199.079 405.446 199.042V199.25C405.446 199.25 407.252 199.376 407.803 199.331C408.092 199.331 408.95 199.105 408.95 199.105L407.839 200.171L407.966 200.315L409.402 199.033L411.777 198.446L411.38 213.646H413.394L412.834 191.907L412.843 191.618Z" fill="#E0E0E0"/>
<path d="M195.557 207.026C195.557 207.026 188.151 206.231 187.383 204.37C186.769 202.853 190.4 200.297 190.824 198.726C191.149 197.515 190.273 194.923 190.671 193.731C191.068 192.539 193.245 191.238 193.516 190.118C193.642 189.613 192.974 188.565 193.118 188.059C193.425 186.903 195.024 184.112 196.297 184.302C198.32 184.6 199.178 189.432 199.251 191.311C199.251 192.024 198.266 193.316 198.348 194.02C198.483 195.276 201.057 197.199 200.985 198.464C200.985 198.997 199.757 199.719 199.738 200.27C199.738 201.227 202.051 202.691 201.78 203.612C201.346 205.238 195.557 207.026 195.557 207.026Z" fill="#F5F5F5"/>
<path d="M195.846 196.675L195.638 189.043H195.34L195.024 201.498C195.024 201.498 192.513 202.203 191.646 202.302C191.185 202.356 189.84 202.302 189.84 202.302V202.456C189.84 202.456 191.294 202.555 191.781 202.519C192.025 202.519 192.685 202.347 192.685 202.347L191.781 203.16L191.881 203.268L193.064 202.293L195.015 201.85L194.69 213.375H196.351L195.855 196.892L195.846 196.675Z" fill="#E0E0E0"/>
<path d="M189.054 150.623C189.054 150.623 181.648 149.828 180.925 147.913C180.311 146.405 183.942 143.849 184.358 142.277C184.683 141.067 183.807 138.475 184.213 137.283C184.619 136.091 186.778 134.781 187.049 133.67C187.175 133.164 186.516 132.117 186.652 131.611C186.968 130.455 188.566 127.664 189.84 127.845C191.854 128.143 192.721 132.984 192.793 134.862C192.793 135.567 191.809 136.858 191.89 137.572C192.026 138.836 194.6 140.76 194.527 142.024C194.527 142.548 193.299 143.28 193.29 143.831C193.29 144.788 195.602 146.251 195.331 147.172C194.816 148.834 189.054 150.623 189.054 150.623Z" fill="#EBEBEB"/>
<path d="M189.352 140.272L189.144 132.64H188.846L188.494 145.077C188.494 145.077 185.974 145.791 185.116 145.89C184.656 145.944 183.31 145.89 183.31 145.89V146.043C183.31 146.043 184.764 146.143 185.252 146.107C185.486 146.107 186.155 145.935 186.155 145.935L185.252 146.748L185.36 146.856L186.543 145.881L188.494 145.438L188.169 156.963H189.822L189.37 140.48L189.352 140.272Z" fill="#E0E0E0"/>
<path d="M227.737 181.457C227.737 181.457 218.751 180.409 217.802 177.944C217.053 175.957 221.415 172.579 221.975 170.51C222.372 168.912 221.306 165.498 221.794 163.926C222.228 162.526 224.91 160.63 225.235 159.203C225.398 158.534 224.585 157.162 224.757 156.493C225.136 154.967 227.069 151.291 228.622 151.535C231.07 151.932 232.117 158.309 232.235 160.792C232.235 161.695 231.034 163.43 231.133 164.351C231.296 166.013 234.393 168.551 234.33 170.221C234.33 170.917 232.84 171.874 232.822 172.579C232.822 173.843 235.631 175.767 235.297 176.986C234.764 179.1 227.737 181.457 227.737 181.457Z" fill="#F5F5F5"/>
<path d="M228.089 167.801L227.836 157.74H227.475L227.05 174.141C227.05 174.141 223.998 175.045 222.95 175.207C222.204 175.245 221.456 175.245 220.71 175.207V175.415C220.71 175.415 222.517 175.541 223.067 175.487C223.357 175.487 224.215 175.27 224.215 175.27L223.104 176.336L223.23 176.481L224.666 175.198L227.041 174.611L226.635 189.83H228.649L228.089 168.09V167.801Z" fill="#E0E0E0"/>
<path d="M271.794 335.99C368.508 335.99 446.91 331.413 446.91 325.766C446.91 320.12 368.508 315.542 271.794 315.542C175.079 315.542 96.677 320.12 96.677 325.766C96.677 331.413 175.079 335.99 271.794 335.99Z" fill="#F5F5F5"/>
<path d="M160.351 299.674L147.418 311.948C146.004 310.598 144.665 309.172 143.407 307.676L154.634 296.043L160.351 299.674Z" fill="#F7978D"/>
<path d="M148.33 313.104C148.312 313.074 148.303 313.039 148.303 313.005C148.303 312.97 148.312 312.935 148.33 312.905C148.35 312.878 148.378 312.857 148.41 312.846C148.442 312.835 148.477 312.833 148.51 312.842C148.619 312.842 151.22 313.628 151.861 314.648C151.984 314.841 152.029 315.074 151.987 315.299C151.975 315.423 151.924 315.541 151.842 315.635C151.759 315.729 151.649 315.795 151.527 315.822C151.075 315.913 150.38 315.389 149.72 314.739C149.208 314.237 148.743 313.69 148.33 313.104V313.104ZM151.4 314.594C150.657 314.009 149.808 313.573 148.899 313.312C149.693 314.359 150.949 315.606 151.473 315.524C151.545 315.524 151.635 315.461 151.689 315.235C151.703 315.167 151.703 315.097 151.689 315.028C151.675 314.96 151.647 314.895 151.608 314.838C151.55 314.748 151.483 314.663 151.409 314.585L151.4 314.594Z" fill="#E88817"/>
<path d="M148.321 312.987C148.316 312.958 148.32 312.928 148.333 312.902C148.346 312.876 148.367 312.855 148.393 312.842C148.456 312.797 149.802 311.596 150.913 311.713C151.074 311.735 151.23 311.789 151.37 311.873C151.51 311.957 151.631 312.068 151.726 312.201C151.831 312.296 151.9 312.423 151.923 312.563C151.946 312.702 151.921 312.845 151.852 312.969C151.437 313.628 149.269 313.501 148.429 313.176L148.366 313.131L148.321 312.987ZM150.886 312.083C150.118 312.149 149.394 312.466 148.826 312.987C149.775 313.23 151.391 313.221 151.608 312.815C151.608 312.815 151.69 312.68 151.509 312.454L151.419 312.4C151.288 312.225 151.099 312.103 150.886 312.056V312.083Z" fill="#E88817"/>
<path d="M148.411 311.415L144.347 306.899C144.259 306.795 144.136 306.727 144.001 306.707C143.867 306.687 143.729 306.717 143.615 306.791L138.873 309.554C138.422 309.862 138.702 311.108 138.738 311.153C141.24 314.513 146.614 320.727 148.628 322.894C150.642 325.062 152.855 323.337 152.24 322.28C149.341 317.52 149.043 314.919 148.908 312.598C148.888 312.157 148.712 311.738 148.411 311.415V311.415Z" fill="#263238"/>
<g opacity="0.2">
<path opacity="0.2" d="M150.037 300.685L154.634 296.043L160.351 299.674L154.625 305.002L150.037 300.685Z" fill="black"/>
</g>
<path d="M155.158 237.129C155.018 238.393 155.018 239.668 155.158 240.932C155.844 247.624 172.083 276.49 170.72 277.384C165.445 280.843 159.8 286.912 152.71 297.913C154.625 299.981 156.434 302.146 158.129 304.398C158.129 304.398 178.64 288.7 183.518 281.999C186.525 277.88 175.47 231.873 172.147 228.946C170.34 227.312 156.025 224.792 155.158 237.129Z" fill="#263238"/>
<g opacity="0.2">
<path opacity="0.2" d="M155.158 237.129C155.018 238.392 155.018 239.667 155.158 240.931C155.844 247.624 172.083 276.489 170.72 277.383C165.445 280.842 159.8 286.912 152.71 297.912C154.625 299.981 156.434 302.145 158.129 304.397C158.129 304.397 178.64 288.7 183.518 281.998C186.525 277.88 175.47 231.872 172.147 228.946C170.34 227.311 156.025 224.791 155.158 237.129Z" fill="black"/>
</g>
<path d="M161.064 302.817C161.064 302.862 157.605 305.571 157.605 305.571L150.669 297.632L153.478 294.706L161.064 302.817Z" fill="#263238"/>
<path opacity="0.6" d="M161.064 302.817C161.064 302.862 157.605 305.571 157.605 305.571L150.669 297.632L153.478 294.706L161.064 302.817Z" fill="white"/>
<path d="M175.913 225.126L177.99 226.029L162.997 250.966C162.997 250.966 154.914 254.181 151.085 245.818C144.202 230.762 155.284 216.762 155.284 216.762C155.284 216.762 168.371 221.667 175.913 225.126Z" fill="#263238"/>
<path d="M114.361 301.833L99.2331 311.289C98.1165 309.681 97.0884 308.014 96.1533 306.294L109.475 297.145L114.361 301.833Z" fill="#F7978D"/>
<path d="M99.8926 312.589C99.875 312.561 99.8657 312.528 99.8657 312.494C99.8657 312.461 99.875 312.428 99.8926 312.399C99.9197 312.383 99.951 312.374 99.9829 312.374C100.015 312.374 100.046 312.383 100.073 312.399C100.182 312.454 102.602 313.709 103 314.865C103.085 315.08 103.085 315.319 103 315.533C102.963 315.653 102.889 315.759 102.788 315.833C102.687 315.908 102.565 315.949 102.44 315.949C101.979 315.949 101.41 315.299 100.922 314.54C100.522 313.922 100.177 313.269 99.8926 312.589V312.589ZM102.602 314.675C101.992 313.936 101.243 313.323 100.398 312.869C100.967 314.052 101.952 315.524 102.485 315.579C102.557 315.579 102.656 315.579 102.756 315.335C102.805 315.207 102.805 315.065 102.756 314.937C102.717 314.837 102.668 314.74 102.611 314.648L102.602 314.675Z" fill="#E88817"/>
<path d="M99.9106 312.499C99.9128 312.47 99.9234 312.443 99.9411 312.421C99.9588 312.398 99.9828 312.381 100.01 312.372C100.082 312.372 101.645 311.469 102.72 311.767C102.873 311.822 103.013 311.907 103.132 312.017C103.252 312.127 103.348 312.261 103.415 312.409C103.5 312.52 103.546 312.657 103.546 312.797C103.546 312.937 103.5 313.074 103.415 313.185C102.873 313.745 100.778 313.185 100.019 312.698L99.9648 312.652L99.9106 312.499ZM102.62 312.102C101.863 312.002 101.093 312.157 100.434 312.544C101.338 312.969 102.9 313.276 103.198 312.923C103.198 312.923 103.298 312.806 103.198 312.544L103.117 312.481C103.065 312.381 102.992 312.294 102.903 312.226C102.814 312.157 102.712 312.109 102.602 312.083L102.62 312.102Z" fill="#E88817"/>
<path d="M100.308 310.964L97.2282 305.734C97.1602 305.617 97.0533 305.528 96.9263 305.482C96.7992 305.436 96.66 305.435 96.5328 305.481L91.3395 307.242C90.8247 307.459 90.8518 308.733 90.8879 308.787C92.6943 312.58 96.6863 319.733 98.2308 322.253C99.7752 324.773 102.295 323.527 101.843 322.362C99.9558 317.123 100.182 314.513 100.516 312.21C100.599 311.783 100.525 311.34 100.308 310.964Z" fill="#263238"/>
<g opacity="0.2">
<path opacity="0.2" d="M104.056 300.766L109.475 297.135L114.361 301.832L107.687 305.914L104.056 300.766Z" fill="black"/>
</g>
<path d="M151.283 232.432C150.672 233.545 150.19 234.724 149.847 235.946C147.887 242.376 131.034 276.462 129.58 277.212C121.451 281.366 106.567 298.057 106.567 298.057C107.47 300.875 111.083 305.237 111.083 305.237C111.083 305.237 131.711 291.608 138.512 286.885C150.253 278.756 173.411 236.849 171.469 232.857C170.385 230.626 156.865 221.396 151.283 232.432Z" fill="#263238"/>
<path d="M114.352 304.443C114.352 304.488 110.631 306.818 110.631 306.818L104.553 298.202L107.678 295.592L114.352 304.443Z" fill="#263238"/>
<path opacity="0.6" d="M114.352 304.443C114.352 304.488 110.631 306.818 110.631 306.818L104.553 298.202L107.678 295.592L114.352 304.443Z" fill="white"/>
<path d="M226.482 195.086C226.554 194.318 229.092 190.733 229.616 190.932C230.432 191.658 231.032 192.596 231.35 193.641C231.232 194.273 229.543 199.06 226.446 199.06C225.262 198.952 226.482 195.086 226.482 195.086Z" fill="#F7978D"/>
<path d="M229.615 190.886C229.615 190.886 231.539 189.73 232.253 189.983C232.909 190.347 233.496 190.824 233.987 191.392L231.35 193.587L229.615 190.886Z" fill="#F7978D"/>
<path d="M223.492 195.294L226.482 195.041L226.445 198.961L220.719 198.907L223.492 195.294Z" fill="#F7978D"/>
<path d="M225.587 194.797V199.963L206.621 200.866C205.907 200.758 189.993 198.943 188.657 198.753L187.799 188.123C188.53 188.366 197.652 191.275 206.558 193.659C208.635 193.704 224.63 194.978 225.587 194.797Z" fill="#E88817"/>
<g opacity="0.1">
<path opacity="0.1" d="M225.587 194.797V199.963L206.621 200.866C205.907 200.758 189.993 198.943 188.657 198.753L187.799 188.123C188.53 188.366 197.652 191.275 206.558 193.659C208.635 193.704 224.63 194.978 225.587 194.797Z" fill="black"/>
</g>
<path opacity="0.2" d="M200.822 200.333C197.454 199.864 190.806 199.051 188.639 198.744L188.268 194.138C190.508 196.396 191.61 197.796 200.822 200.333Z" fill="black"/>
<path d="M168.317 181.087C169.011 180.223 169.942 179.579 170.996 179.236C172.05 178.893 173.181 178.864 174.251 179.154H174.305C175.886 179.759 177.845 180.572 179.724 181.502C183.93 183.842 187.949 186.502 191.745 189.459C192.409 190.112 192.888 190.929 193.134 191.827C193.38 192.724 193.384 193.671 193.145 194.571C191.818 200.397 186.308 214.441 176.265 228.892L155.284 216.762C155.284 216.762 162.139 211.262 168.317 181.087Z" fill="#E88817"/>
<path d="M189.984 181.394C189.734 181.709 189.502 182.037 189.289 182.378C189.178 182.529 189.076 182.686 188.982 182.848C188.684 183.318 188.449 183.679 188.268 183.977C188.067 184.203 187.95 184.492 187.937 184.795C187.924 185.098 188.015 185.396 188.196 185.639C188.579 186.243 188.826 186.925 188.918 187.634C189.01 188.344 188.945 189.066 188.729 189.748C188.268 191.076 187.275 192.205 185.161 191.383C180.646 189.306 179.517 184.248 179.517 184.248C182.949 183.056 185.089 176.372 185.956 172.552L187.663 176.3L189.984 181.394Z" fill="#F7978D"/>
<path opacity="0.2" d="M189.289 182.378C189.178 182.529 189.076 182.686 188.982 182.848C188.684 183.318 188.449 183.679 188.268 183.977C187.004 182.929 185.902 180.563 186.399 179.028C186.558 178.504 186.78 178 187.058 177.528L189.289 182.378Z" fill="black"/>
<path d="M190.355 163.963C191.096 163.458 191.929 163.104 192.807 162.921C193.685 162.739 194.59 162.731 195.471 162.899C196.352 163.067 197.191 163.406 197.94 163.899C198.69 164.391 199.335 165.027 199.838 165.769C203.053 170.222 199.838 177.23 196.532 180.644C195.7 181.545 194.637 182.202 193.458 182.542C192.28 182.883 191.031 182.895 189.846 182.577C188.661 182.258 187.586 181.623 186.736 180.738C185.887 179.853 185.295 178.752 185.026 177.555C184.123 173.87 185.73 171.287 188.07 166.663C188.577 165.575 189.366 164.643 190.355 163.963Z" fill="#F7978D"/>
<path d="M195.024 180.78C193.149 180.212 191.346 179.43 189.65 178.45C190.734 177.303 191.881 177.285 193.832 178.332C195.783 179.38 195.024 180.78 195.024 180.78Z" fill="#263238"/>
<path d="M194.816 180.717C194.859 180.54 194.855 180.356 194.804 180.181C194.754 180.007 194.658 179.849 194.527 179.723C193.391 179.132 192.199 178.654 190.969 178.296C190.773 178.222 190.56 178.204 190.354 178.244C190.148 178.283 189.958 178.38 189.804 178.522C191.404 179.406 193.082 180.14 194.816 180.717V180.717Z" fill="#FAFAFA"/>
<path d="M194.383 179.777C193.242 179.526 192.145 179.102 191.131 178.522C190.883 178.306 190.696 178.029 190.589 177.718C191.411 177.348 192.396 177.565 193.823 178.305C194.366 178.557 194.804 178.992 195.06 179.534C194.845 179.641 194.617 179.723 194.383 179.777V179.777Z" fill="#FAFAFA"/>
<path d="M195.602 177.98C195.878 178.19 196.196 178.336 196.535 178.409C196.874 178.483 197.224 178.481 197.562 178.405C197.189 177.058 197.004 175.666 197.011 174.268L195.602 177.98Z" fill="#FF5652"/>
<path d="M188.422 161.009L184.448 161.912C183.683 162.054 182.944 162.307 182.253 162.662C181.904 162.844 181.598 163.1 181.358 163.412C181.118 163.724 180.949 164.084 180.862 164.468C180.808 165.023 180.927 165.581 181.202 166.066C181.476 166.551 181.894 166.939 182.397 167.178C182.084 167.462 181.836 167.809 181.669 168.197C181.503 168.585 181.421 169.005 181.431 169.427C181.457 169.875 181.573 170.314 181.773 170.716C181.974 171.118 182.254 171.475 182.596 171.766C182.472 172.068 182.416 172.395 182.433 172.721C182.45 173.048 182.54 173.366 182.695 173.654C182.975 174.295 184.746 174.9 184.664 177.023C185.192 175.543 185.864 174.118 186.669 172.769C187.518 171.477 189.469 168.253 192.161 168.939C192.757 169.093 195.701 164.225 194.039 163.592C193.028 163.204 188.864 160.91 188.422 161.009Z" fill="#263238"/>
<path d="M201.12 169.165C201.146 167.2 200.906 165.24 200.407 163.339C200.211 162.574 199.836 161.865 199.314 161.271C199.043 160.97 198.698 160.746 198.312 160.622C197.926 160.498 197.515 160.479 197.119 160.567C196.765 159.921 196.314 159.333 195.783 158.824C195.243 158.313 194.53 158.025 193.787 158.02C193.431 157.997 193.078 158.086 192.775 158.274C192.472 158.462 192.236 158.739 192.098 159.067C191.051 158.838 189.978 158.756 188.909 158.824C187.832 158.897 186.818 159.359 186.055 160.124C185.683 160.509 185.427 160.992 185.32 161.517C185.213 162.042 185.258 162.586 185.45 163.087C186.158 162.577 186.967 162.226 187.823 162.056C188.678 161.886 189.56 161.902 190.409 162.102C192.043 162.581 193.434 164.73 194.085 166.302C195.006 166.134 195.956 166.262 196.801 166.665C197.646 167.069 198.342 167.729 198.79 168.551C198.996 168.415 199.231 168.33 199.475 168.301C199.72 168.273 199.968 168.303 200.199 168.388C200.588 168.605 201.102 168.713 201.12 169.165Z" fill="#263238"/>
<path d="M187.284 168.325C188.458 168.623 188.72 169.824 188.548 171.333C188.286 173.22 187.013 174.539 185.839 173.771C184.935 173.293 184.692 171.712 184.809 170.601C184.926 169.192 185.992 167.991 187.284 168.325Z" fill="#F7978D"/>
<path d="M194.97 172.227C195.195 172.38 195.195 172.832 194.97 173.13C194.744 173.428 194.419 173.636 194.184 173.491C193.949 173.347 193.967 172.949 194.184 172.588C194.401 172.227 194.735 172.082 194.97 172.227Z" fill="#263238"/>
<path d="M199.287 174.024C199.522 174.169 199.549 174.575 199.35 174.927C199.151 175.279 198.79 175.487 198.555 175.343C198.32 175.198 198.293 174.783 198.501 174.44C198.709 174.096 199.052 173.889 199.287 174.024Z" fill="#263238"/>
<path d="M199.386 171.974C199.423 171.991 199.454 172.016 199.48 172.047C199.505 172.079 199.522 172.115 199.531 172.155C199.575 172.467 199.689 172.766 199.864 173.028C200.039 173.291 200.271 173.511 200.542 173.672C200.572 173.684 200.599 173.701 200.621 173.724C200.644 173.746 200.662 173.773 200.673 173.803C200.685 173.832 200.691 173.864 200.69 173.896C200.689 173.928 200.682 173.959 200.669 173.988V173.988C200.64 174.045 200.59 174.089 200.529 174.111C200.469 174.133 200.403 174.131 200.344 174.105V174.105C200.001 173.911 199.707 173.64 199.484 173.315C199.262 172.989 199.117 172.617 199.061 172.227C199.053 172.163 199.068 172.097 199.105 172.044C199.142 171.991 199.197 171.953 199.26 171.938L199.386 171.974Z" fill="#263238"/>
<path d="M194.283 170.637C194.319 170.617 194.36 170.607 194.401 170.607C194.442 170.607 194.482 170.617 194.518 170.637C194.801 170.77 195.109 170.84 195.421 170.84C195.734 170.84 196.042 170.77 196.325 170.637C196.351 170.62 196.38 170.609 196.41 170.603C196.441 170.598 196.472 170.599 196.502 170.605C196.532 170.612 196.561 170.625 196.586 170.643C196.612 170.66 196.633 170.683 196.65 170.709V170.709C196.666 170.737 196.676 170.768 196.681 170.8C196.685 170.832 196.683 170.864 196.674 170.895C196.666 170.926 196.651 170.955 196.632 170.981C196.612 171.006 196.587 171.027 196.559 171.043V171.043C196.206 171.221 195.817 171.314 195.421 171.314C195.026 171.314 194.636 171.221 194.283 171.043C194.226 171.014 194.182 170.964 194.161 170.904C194.139 170.844 194.141 170.777 194.166 170.718C194.201 170.685 194.24 170.658 194.283 170.637V170.637Z" fill="#263238"/>
<path d="M367.503 169.454H222.372V324.15H367.503V169.454Z" fill="#E88817"/>
<path opacity="0.6" d="M367.503 169.463H222.372V324.15H367.503V169.463Z" fill="white"/>
<path opacity="0.1" d="M367.503 169.463H329.715V324.15H367.503V169.463Z" fill="black"/>
<path d="M220.746 193.551C220.746 192.765 223.23 189.035 223.772 189.206C224.636 189.92 225.286 190.857 225.651 191.916C225.551 192.566 224.016 197.489 220.864 197.579C219.654 197.579 220.746 193.551 220.746 193.551Z" fill="#F7978D"/>
<path d="M223.772 189.206C223.772 189.206 225.687 187.951 226.427 188.186C227.103 188.53 227.714 188.989 228.234 189.541L225.633 191.88L223.772 189.206Z" fill="#F7978D"/>
<path d="M217.712 193.93L220.746 193.551L220.864 197.543L215.029 197.714L217.712 193.93Z" fill="#F7978D"/>
<path d="M175.714 179.732C168.714 176.282 165.409 184.248 169.166 188.619C170.629 190.308 181.729 195.989 192.296 197.651C201.129 199.006 216.131 199.06 218.931 198.952L218.75 192.891L193.046 190.128L175.714 179.732Z" fill="#E88817"/>
<g opacity="0.1">
<path opacity="0.1" d="M175.714 179.732C168.714 176.282 165.409 184.248 169.166 188.619C170.629 190.308 181.729 195.989 192.296 197.651C201.129 199.006 216.131 199.06 218.931 198.952L218.75 192.891L193.046 190.128L175.714 179.732Z" fill="white"/>
</g>
<path d="M157.669 323.337C156.16 323.463 204.02 323.337 204.02 323.337L203.812 316.066L197.734 319.968V316.762L187.88 320.627V317.195C187.88 317.195 179.67 321.476 157.669 323.337Z" fill="#E88817"/>
<path opacity="0.6" d="M157.669 323.337C156.16 323.463 204.02 323.337 204.02 323.337L203.812 316.066L197.734 319.968V316.762L187.88 320.627V317.195C187.88 317.195 179.67 321.476 157.669 323.337Z" fill="white"/>
<path d="M223.275 309.735L206.594 316.762C205.734 314.97 204.972 313.134 204.309 311.261L219.148 304.235L223.275 309.735Z" fill="#F7978D"/>
<path d="M207.045 318.18C207.039 318.145 207.041 318.11 207.052 318.077C207.063 318.044 207.083 318.014 207.108 317.99C207.136 317.97 207.169 317.959 207.203 317.959C207.237 317.959 207.27 317.97 207.298 317.99C207.397 318.062 209.619 319.706 209.827 320.934C209.876 321.16 209.838 321.396 209.719 321.594C209.662 321.709 209.57 321.802 209.456 321.861C209.342 321.919 209.213 321.94 209.086 321.919C208.626 321.856 208.183 321.097 207.795 320.266C207.483 319.595 207.232 318.896 207.045 318.18V318.18ZM209.429 320.7C208.931 319.877 208.278 319.159 207.506 318.586C207.894 319.86 208.635 321.503 209.168 321.612C209.24 321.612 209.339 321.612 209.475 321.413C209.512 321.353 209.537 321.286 209.548 321.216C209.559 321.146 209.555 321.075 209.538 321.007C209.517 320.898 209.484 320.792 209.439 320.69L209.429 320.7Z" fill="#E88817"/>
<path d="M207.081 318.071C207.086 318.042 207.1 318.015 207.121 317.994C207.142 317.973 207.169 317.959 207.199 317.954C207.271 317.954 209.005 317.276 209.999 317.782C210.144 317.862 210.272 317.97 210.374 318.101C210.477 318.231 210.552 318.381 210.595 318.541C210.66 318.669 210.68 318.815 210.652 318.956C210.624 319.097 210.55 319.224 210.441 319.318C209.809 319.787 207.795 318.902 207.117 318.288V318.225L207.081 318.071ZM209.845 318.071C209.103 317.848 208.308 317.88 207.587 318.162C208.4 318.731 209.935 319.291 210.297 318.983C210.297 318.983 210.423 318.893 210.297 318.604L210.233 318.523C210.159 318.342 210.021 318.194 209.845 318.107V318.071Z" fill="#E88817"/>
<path d="M207.722 316.608L205.474 310.873C205.425 310.746 205.333 310.64 205.214 310.574C205.095 310.508 204.957 310.486 204.823 310.512L199.332 311.415C198.79 311.55 198.609 312.833 198.627 312.887C199.802 316.97 202.683 324.8 203.821 327.564C204.959 330.328 207.686 329.497 207.433 328.259C206.386 322.705 207.036 320.131 207.731 317.882C207.883 317.47 207.88 317.018 207.722 316.608Z" fill="#263238"/>
<g opacity="0.2">
<path opacity="0.2" d="M213.123 306.998L219.147 304.235L223.275 309.735L215.932 312.743L213.123 306.998Z" fill="black"/>
</g>
<path d="M244.888 246.052C244.317 247.205 243.872 248.416 243.561 249.665C241.817 256.267 242.748 291.906 241.131 292.267C234.881 293.667 227.349 297.415 216.673 305.318C217.765 307.976 218.717 310.69 219.527 313.447C219.527 313.447 244.644 305.878 251.671 301.263C255.997 298.418 266.122 248.355 264.018 244.363C262.825 242.159 250.118 234.645 244.888 246.052Z" fill="#E88817"/>
<g opacity="0.2">
<path opacity="0.2" d="M244.888 246.052C244.317 247.205 243.872 248.416 243.561 249.665C241.817 256.267 242.748 291.906 241.131 292.267C234.881 293.667 227.349 297.415 216.673 305.318C217.765 307.976 218.717 310.69 219.527 313.447C219.527 313.447 244.644 305.878 251.671 301.263C255.997 298.418 266.122 248.355 264.018 244.363C262.825 242.159 250.118 234.645 244.888 246.052Z" fill="black"/>
</g>
<path d="M268.226 236.379L270.367 237.183C268.669 248.978 267.531 253.395 267.531 253.395L265.038 259.979C265.038 259.979 246.803 263.791 242.603 255.463C235.052 240.48 246.947 228.693 246.947 228.693C246.947 228.693 260.45 233.155 268.226 236.379Z" fill="#E88817"/>
<path d="M293.298 309.717L289.586 326.877C289.008 327.049 283.869 327.311 283.869 327.311L285.739 310.692L293.298 309.717Z" fill="#F7978D"/>
<path d="M291.203 326.525C291.174 326.507 291.151 326.482 291.137 326.451C291.122 326.421 291.117 326.387 291.122 326.353C291.128 326.319 291.142 326.287 291.165 326.26C291.187 326.233 291.216 326.212 291.248 326.2C291.375 326.2 294.166 325.36 295.204 325.956C295.305 326.007 295.394 326.08 295.464 326.169C295.534 326.258 295.584 326.361 295.611 326.471C295.654 326.598 295.657 326.735 295.62 326.865C295.583 326.994 295.507 327.108 295.403 327.193C295.033 327.536 294.148 327.455 293.271 327.193C292.562 327.038 291.869 326.814 291.203 326.525V326.525ZM294.744 326.137C293.766 326.03 292.778 326.119 291.835 326.398C293.037 326.886 294.771 327.302 295.222 326.931C295.286 326.868 295.349 326.787 295.295 326.552C295.279 326.485 295.249 326.422 295.207 326.367C295.165 326.313 295.112 326.268 295.051 326.236C294.952 326.191 294.849 326.154 294.744 326.128V326.137Z" fill="#E88817"/>
<path d="M291.149 326.435C291.131 326.408 291.121 326.376 291.121 326.344C291.121 326.312 291.131 326.281 291.149 326.254C291.149 326.182 291.907 324.339 293 323.815C293.155 323.751 293.321 323.718 293.488 323.718C293.655 323.718 293.821 323.751 293.976 323.815C294.114 323.847 294.237 323.928 294.321 324.042C294.406 324.156 294.446 324.297 294.436 324.439C294.337 325.26 292.26 326.38 291.329 326.552H291.248L291.149 326.435ZM293.136 324.15C292.444 324.631 291.91 325.307 291.6 326.091C292.594 325.766 294.093 324.845 294.12 324.366C294.12 324.321 294.12 324.204 293.867 324.095H293.759C293.551 324.039 293.33 324.058 293.136 324.15V324.15Z" fill="#E88817"/>
<path d="M290.535 324.971L284.05 322.993C283.91 322.956 283.762 322.967 283.629 323.024C283.496 323.081 283.387 323.182 283.318 323.31L280.112 328.467C279.823 329.009 280.636 329.966 280.69 329.984C284.52 331.583 292.991 334.355 295.836 335.15C298.681 335.945 299.982 333.163 298.907 332.576C294.093 329.939 292.657 327.771 291.51 325.766C291.409 325.575 291.27 325.407 291.103 325.27C290.935 325.133 290.742 325.032 290.535 324.971V324.971Z" fill="#263238"/>
<g opacity="0.2">
<path opacity="0.2" d="M285.125 316.13L285.739 310.674L293.298 309.717L291.718 317.177L285.125 316.13Z" fill="black"/>
</g>
<path d="M242.82 251.724C252.014 264.369 287.256 277.718 287.256 277.718C285.838 289.073 285.126 300.505 285.125 311.948C287.88 312.191 290.604 312.714 293.253 313.51C293.253 313.51 301.815 279.235 301.815 271.495C301.815 264.161 256.304 230.762 245.421 236.804C242.405 238.439 238.53 245.845 242.82 251.724Z" fill="#E88817"/>
<path d="M295.9 310.006C295.963 310.006 294.527 314.784 294.527 314.784L282.515 312.842L283.228 308.326L295.9 310.006Z" fill="#E88817"/>
<path d="M222.824 312.968C222.824 313.031 218.561 314.35 218.561 314.35L214.803 304.37L218.543 302.563L222.824 312.968Z" fill="#E88817"/>
<path opacity="0.2" d="M295.9 310.006C295.963 310.006 294.527 314.784 294.527 314.784L282.515 312.842L283.228 308.326L295.9 310.006Z" fill="black"/>
<path opacity="0.2" d="M222.824 312.968C222.824 313.031 218.561 314.35 218.561 314.35L214.803 304.37L218.543 302.563L222.824 312.968Z" fill="black"/>
<path d="M269.382 239.342L246.099 227.347C247.074 225.017 248.582 221.757 252.999 212.273C255.935 205.696 258.442 198.935 260.504 192.033V191.97C260.791 191.12 261.402 190.419 262.204 190.02C263.007 189.62 263.935 189.555 264.785 189.838H264.84C266.465 190.398 268.452 191.148 270.394 192.024C274.06 193.648 277.627 195.484 281.079 197.525C282.2 198.255 283.272 199.061 284.285 199.936C285 200.519 285.545 201.283 285.863 202.149C286.181 203.016 286.26 203.951 286.091 204.858C285.025 210.801 282.632 217.403 269.382 239.342Z" fill="#E88817"/>
<path opacity="0.8" d="M269.382 239.342L246.911 227.772C247.896 225.433 248.375 225.424 260.459 192.033V191.97C260.733 191.13 261.325 190.432 262.109 190.025C262.893 189.618 263.805 189.535 264.65 189.794H264.704C266.275 190.326 268.226 191.04 270.069 191.871C273.601 193.44 277.039 195.214 280.365 197.182C281.444 197.894 282.472 198.678 283.445 199.53C284.146 200.107 284.676 200.865 284.98 201.721C285.284 202.576 285.349 203.499 285.17 204.389C284.05 210.296 282.569 217.377 269.382 239.342Z" fill="white"/>
<path d="M269.401 243.532C269.482 243.008 244.112 233.453 244.112 233.453L245.403 230.391L270.43 241.148L269.401 243.532Z" fill="#263238"/>
<path opacity="0.7" d="M269.401 243.532C269.482 243.008 244.112 233.453 244.112 233.453L245.403 230.391L270.43 241.148L269.401 243.532Z" fill="white"/>
<path d="M270.259 191.473C268.254 190.57 266.113 189.766 264.397 189.179H264.343H264.243C263.797 189.041 263.329 188.992 262.864 189.036C262.399 189.079 261.947 189.213 261.534 189.432C261.122 189.65 260.756 189.947 260.458 190.307C260.161 190.666 259.937 191.081 259.8 191.528C257.634 198.771 255.004 205.866 251.924 212.77C245.159 218.966 235.504 216.383 229.905 221.883L224.793 226.101L226.446 226.526C234.564 228.576 242.046 232.611 248.221 238.267V238.267C270.006 230.418 272.778 196.983 271.388 191.943L270.259 191.473Z" fill="#263238"/>
<path opacity="0.2" d="M255.103 205.166C256.566 201.219 257.569 198.473 258.996 194.011C259.066 193.963 259.142 193.924 259.222 193.894C261.028 193.036 263.042 192.873 260.477 198.292C260.477 198.292 256.106 204.777 255.103 205.166Z" fill="black"/>
<path d="M275.714 198.437C270.295 195.998 269.979 191.844 269.979 191.844C273.501 190.715 275.84 183.986 276.816 180.103L278.45 183.941L280.681 189.179C280.3 189.639 279.947 190.122 279.624 190.625C278.324 192.621 277.881 194.833 280.609 197.164C280.609 197.2 280.365 200.505 275.714 198.437Z" fill="#F7978D"/>
<path d="M269.085 190.886L271.026 191.121C271.93 193.831 274.639 196.54 276.644 198.545C275.266 198.706 273.966 199.275 272.914 200.18C268.281 195.366 269.085 190.886 269.085 190.886Z" fill="#E88817"/>
<path opacity="0.7" d="M271.044 191.121C271.947 193.831 274.657 196.54 276.662 198.545C275.283 198.706 273.984 199.275 272.932 200.18C268.281 195.366 269.102 190.886 269.102 190.886" fill="white"/>
<path d="M280.744 196.892L279.38 195.79C279.38 195.79 277.141 198.635 275.352 198.283C277.538 200.74 277.294 202.32 277.294 202.32C281.873 203.079 280.744 196.892 280.744 196.892Z" fill="#E88817"/>
<path d="M319.897 202.953C319.897 202.23 322.065 198.708 322.607 198.852C323.419 199.479 324.043 200.316 324.413 201.273C324.341 201.878 323.067 206.457 320.159 206.638C319.003 206.701 319.897 202.953 319.897 202.953Z" fill="#F7978D"/>
<path d="M322.57 198.852C322.57 198.852 324.304 197.642 324.991 197.841C325.633 198.135 326.217 198.542 326.716 199.042L324.377 201.273L322.57 198.852Z" fill="#F7978D"/>
<path d="M317.106 203.386L319.933 203.413L320.123 206.638L314.74 206.954L317.106 203.386Z" fill="#F7978D"/>
<path d="M318.452 203.332L317.476 207.92L299.585 209.311L283.327 207.667L282.153 197.732C282.858 197.931 290.842 200.64 299.314 202.573C301.237 202.51 318.452 203.332 318.452 203.332Z" fill="#263238"/>
<g opacity="0.2">
<path opacity="0.2" d="M318.452 203.332L317.477 207.92L299.585 209.311L283.328 207.667L282.154 197.732C282.858 197.931 290.842 200.641 299.314 202.573C301.238 202.51 318.452 203.332 318.452 203.332Z" fill="black"/>
</g>
<path opacity="0.2" d="M293.371 208.679L283.31 207.667L282.876 203.937C284.366 204.75 289.785 206.827 293.371 208.679Z" fill="black"/>
<path d="M269.988 245.167L265.643 242.548C276.969 224.575 281.575 203.513 280.663 196.919C282.307 197.877 282.361 197.543 283.896 198.663C284.675 199.344 285.265 200.215 285.606 201.192C285.948 202.168 286.031 203.217 285.847 204.235C285.829 209.745 282.84 216.762 269.988 245.167Z" fill="#263238"/>
<path opacity="0.7" d="M280.744 196.892L279.38 195.79C279.38 195.79 277.141 198.635 275.352 198.283C277.538 200.74 277.294 202.32 277.294 202.32C281.873 203.079 280.744 196.892 280.744 196.892Z" fill="white"/>
<path opacity="0.2" d="M279.923 190.2L277.782 185.205C277.495 185.682 277.259 186.187 277.078 186.714C276.536 188.312 277.656 190.823 278.956 191.88L279.923 190.2Z" fill="black"/>
<path d="M281.503 171.531C282.265 171.036 283.117 170.695 284.011 170.529C284.904 170.363 285.822 170.375 286.711 170.564C287.6 170.752 288.443 171.114 289.192 171.629C289.941 172.144 290.582 172.801 291.077 173.563C294.229 178.17 290.752 185.196 287.347 188.583C286.478 189.476 285.382 190.115 284.176 190.43C282.971 190.745 281.702 190.725 280.507 190.372C279.313 190.019 278.237 189.345 277.397 188.425C276.557 187.505 275.984 186.373 275.741 185.151C274.946 181.394 276.644 178.829 279.11 174.177C279.661 173.1 280.487 172.188 281.503 171.531Z" fill="#F7978D"/>
<path d="M275.578 184.04C275.578 184.04 276.174 179.75 278.902 179.235C279.137 176.743 280.979 178.143 281.982 176.797C283.3 175.307 284.483 173.843 283.562 171.92L280.952 170.222C272.553 167.088 275.578 184.04 275.578 184.04Z" fill="#263238"/>
<path d="M286.877 185.774C287.17 185.969 287.502 186.098 287.85 186.151C288.198 186.204 288.553 186.18 288.891 186.081C288.422 184.741 288.14 183.344 288.051 181.927L286.877 185.774Z" fill="#FF5652"/>
<path d="M278.531 175.939C280.058 176.444 280.338 177.962 279.895 179.208C279.579 181.132 278.224 182.451 276.734 180.897C276.141 179.927 275.901 178.781 276.057 177.655C276.05 177.357 276.118 177.061 276.254 176.796C276.389 176.53 276.588 176.302 276.833 176.132C277.078 175.962 277.362 175.856 277.658 175.822C277.954 175.788 278.254 175.828 278.531 175.939Z" fill="#F7978D"/>
<path d="M285.965 180.039C286.199 180.202 286.181 180.653 285.965 180.942C285.748 181.231 285.396 181.439 285.161 181.286C284.926 181.132 284.953 180.735 285.161 180.382C285.368 180.03 285.739 179.886 285.965 180.039Z" fill="#263238"/>
<path d="M290.164 181.945C290.39 182.098 290.399 182.514 290.164 182.848C289.93 183.182 289.568 183.39 289.334 183.227C289.099 183.065 289.099 182.649 289.334 182.324C289.568 181.999 289.93 181.782 290.164 181.945Z" fill="#263238"/>
<path d="M287.003 178.757C286.965 178.774 286.924 178.784 286.882 178.784C286.839 178.784 286.798 178.774 286.76 178.757C286.48 178.617 286.174 178.54 285.861 178.532C285.549 178.524 285.239 178.586 284.953 178.711C284.897 178.745 284.829 178.756 284.765 178.74C284.701 178.725 284.645 178.686 284.61 178.63V178.63C284.579 178.572 284.571 178.504 284.588 178.441C284.605 178.377 284.645 178.322 284.7 178.287V178.287C285.06 178.109 285.455 178.016 285.856 178.016C286.258 178.016 286.653 178.109 287.012 178.287C287.072 178.316 287.118 178.367 287.139 178.43C287.161 178.492 287.158 178.561 287.13 178.621C287.097 178.674 287.054 178.72 287.003 178.757V178.757Z" fill="#263238"/>
<path d="M291.465 181.891C291.425 181.878 291.388 181.857 291.357 181.829C291.326 181.801 291.301 181.767 291.284 181.728C291.191 181.422 291.029 181.141 290.812 180.907C290.594 180.672 290.327 180.49 290.029 180.373C289.967 180.356 289.914 180.315 289.882 180.26C289.849 180.204 289.841 180.137 289.857 180.075C289.878 180.012 289.923 179.958 289.981 179.927C290.04 179.895 290.109 179.886 290.173 179.904V179.904C290.549 180.042 290.887 180.264 291.163 180.554C291.438 180.844 291.644 181.193 291.763 181.574C291.781 181.639 291.774 181.708 291.744 181.768C291.714 181.828 291.663 181.875 291.6 181.9L291.465 181.891Z" fill="#263238"/>
<path d="M294.608 173.039C294.324 173.629 293.853 174.108 293.268 174.4C292.682 174.693 292.017 174.783 291.375 174.656C289.568 174.295 285.287 172.091 284.836 171.883C284.62 171.77 284.38 171.711 284.136 171.711C283.892 171.711 283.652 171.77 283.436 171.883C283.222 172.032 283.064 172.248 282.987 172.497C282.91 172.745 282.918 173.013 283.011 173.256C281.316 172.364 279.722 171.289 278.261 170.05C278.166 169.145 278.397 168.236 278.911 167.485C279.347 167.015 279.95 166.736 280.591 166.708C281.208 166.696 281.821 166.804 282.397 167.024C284.222 167.679 285.979 168.507 287.645 169.499C288.882 170.276 290.237 171.125 291.619 170.809C291.834 170.717 292.016 170.561 292.139 170.362C292.262 170.163 292.32 169.931 292.305 169.698C292.655 170.095 292.958 170.531 293.208 170.998C293.449 170.567 293.535 170.067 293.452 169.58C294.166 170.231 295.06 172.082 294.608 173.039Z" fill="#263238"/>
<path d="M309.528 212.337C309.709 211.56 312.834 208.272 313.34 208.543C314.068 209.404 314.549 210.447 314.731 211.56C314.514 212.192 312.084 216.825 308.914 216.347C307.704 216.166 309.528 212.337 309.528 212.337Z" fill="#F7978D"/>
<path d="M313.34 208.543C313.34 208.543 315.48 207.64 316.176 208.01C316.795 208.476 317.327 209.048 317.747 209.699L314.731 211.56L313.34 208.543Z" fill="#F7978D"/>
<path d="M306.431 212.165L309.529 212.337L308.914 216.347L303.062 215.462L306.431 212.165Z" fill="#F7978D"/>
<path d="M267.07 190.317C260.703 185.603 255.952 192.981 258.941 198.003C260.098 199.963 270.15 207.658 280.41 211.199C288.981 214.17 303.956 216.952 306.774 217.349L307.677 211.262L282.496 203.829L267.07 190.317Z" fill="#263238"/>
<path d="M260.36 235.012L259.225 234.542L257.188 239.457L258.323 239.927L260.36 235.012Z" fill="#263238"/>
<path d="M286.768 187.093C285.18 185.899 283.466 184.881 281.657 184.058C281.437 184.86 281.52 185.714 281.89 186.459C282.26 187.203 282.89 187.786 283.662 188.095C284.17 188.375 284.768 188.446 285.328 188.293C285.887 188.139 286.365 187.774 286.66 187.273C286.705 187.219 286.741 187.158 286.768 187.093Z" fill="#263238"/>
<path d="M283.318 186.587C284.107 186.937 284.747 187.554 285.125 188.33C284.621 188.412 284.103 188.327 283.653 188.086C282.861 187.74 282.221 187.121 281.846 186.343C282.35 186.25 282.871 186.336 283.318 186.587Z" fill="#FF5652"/>
<path d="M286.615 186.957C286.496 187.094 286.343 187.197 286.172 187.258C286.001 187.318 285.818 187.333 285.639 187.301C284.484 186.708 283.387 186.01 282.361 185.214C282.186 185.096 282.045 184.933 281.953 184.743C281.861 184.552 281.821 184.341 281.837 184.13C283.508 184.933 285.107 185.879 286.615 186.957Z" fill="white"/>
<path d="M458.823 254.018C458.842 271.742 452.833 288.946 441.782 302.804C430.732 316.661 415.297 326.349 398.014 330.275C380.73 334.202 362.625 332.134 346.672 324.412C330.718 316.689 317.866 303.771 310.225 287.778C302.583 271.786 300.608 253.671 304.622 236.407C308.637 219.144 318.403 203.759 332.317 192.779C346.231 181.799 363.465 175.878 381.188 175.987C398.912 176.096 416.072 182.229 429.849 193.379C438.894 200.687 446.19 209.926 451.203 220.418C456.216 230.91 458.82 242.39 458.823 254.018V254.018Z" fill="#E88817"/>
<path opacity="0.1" d="M411.84 208.272C411.199 250.297 376.806 284.555 334.79 285.042C332.605 285.042 330.443 284.982 328.306 284.862C321.786 284.392 315.65 281.602 311.011 276.998C306.371 272.393 303.535 266.278 303.017 259.762C303.012 259.678 303.012 259.594 303.017 259.51C302.962 258.733 302.917 257.947 302.89 257.161C302.89 256.692 302.89 256.258 302.845 255.752C302.8 255.247 302.845 254.614 302.845 254.036C302.845 253.63 302.845 253.232 302.845 252.826C302.845 252.654 302.845 252.474 302.845 252.302C302.845 252.131 302.845 251.842 302.845 251.616C302.845 251.255 302.845 250.893 302.845 250.532C302.845 249.99 302.899 249.457 302.935 248.924C302.935 248.464 302.999 248.021 303.044 247.533C303.089 247.046 303.098 246.829 303.134 246.486C303.17 246.143 303.233 245.583 303.288 245.086C303.432 243.803 303.613 242.53 303.82 241.274C306.554 225.19 314.233 210.358 325.789 198.842C337.346 187.326 352.205 179.699 368.298 177.023C369.545 176.824 370.809 176.652 372.073 176.508H372.164L374.033 176.327C374.684 176.273 375.325 176.219 375.975 176.183L377.592 176.101C377.827 176.101 378.061 176.101 378.296 176.101C378.703 176.101 379.118 176.101 379.525 176.101H380.879H382.559L384.086 176.146H384.528C385.025 176.146 385.513 176.146 386 176.228H386.371L386.867 176.273C393.327 176.866 399.365 179.735 403.906 184.366C408.446 188.998 411.194 195.092 411.66 201.562C411.81 203.778 411.87 206.014 411.84 208.272Z" fill="white"/>
<path opacity="0.1" d="M447.236 242.43C447.234 257.159 443.063 271.586 435.205 284.043C427.347 296.499 416.123 306.477 402.831 312.822C389.54 319.166 374.723 321.618 360.096 319.894C345.469 318.17 331.629 312.34 320.177 303.079C310.147 290.729 304.156 275.595 303.017 259.726C303.535 266.242 306.371 272.357 311.011 276.961C315.65 281.566 321.786 284.356 328.306 284.825C330.449 284.97 332.611 285.03 334.79 285.006C376.806 284.518 411.199 250.261 411.84 208.236C411.876 205.978 411.816 203.741 411.66 201.525C411.194 195.056 408.446 188.962 403.906 184.33C399.365 179.698 393.326 176.83 386.867 176.237C402.617 177.441 417.623 183.428 429.877 193.397C441.126 207.261 447.257 224.577 447.236 242.43V242.43Z" fill="white"/>
<path d="M349.684 328.964C349.627 328.976 349.569 328.976 349.512 328.964C337.107 323.757 326.184 315.559 317.72 305.102C317.682 305.057 317.653 305.004 317.636 304.947C317.618 304.891 317.612 304.831 317.618 304.772C317.624 304.713 317.642 304.656 317.67 304.604C317.699 304.552 317.737 304.506 317.784 304.47C317.877 304.394 317.997 304.359 318.117 304.37C318.237 304.382 318.347 304.441 318.425 304.533C326.792 314.878 337.594 322.987 349.864 328.133C349.973 328.182 350.059 328.272 350.105 328.382C350.15 328.493 350.151 328.617 350.108 328.729C350.067 328.804 350.005 328.867 349.93 328.908C349.855 328.95 349.769 328.969 349.684 328.964Z" fill="#E88817"/>
<path opacity="0.1" d="M411.84 208.272C411.199 250.297 376.806 284.555 334.79 285.042C332.605 285.042 330.443 284.982 328.306 284.862C321.786 284.392 315.65 281.602 311.011 276.998C306.371 272.393 303.535 266.278 303.017 259.762C303.012 259.678 303.012 259.594 303.017 259.51C302.962 258.733 302.917 257.947 302.89 257.161C302.89 256.692 302.89 256.258 302.845 255.752C302.8 255.247 302.845 254.614 302.845 254.036C302.845 253.434 302.845 252.856 302.845 252.302C302.845 252.067 302.845 251.842 302.845 251.616C302.845 251.255 302.845 250.893 302.845 250.532C302.845 249.99 302.899 249.457 302.935 248.924C302.935 248.464 302.999 248.021 303.044 247.533C303.089 247.046 303.098 246.829 303.134 246.486C303.17 246.143 303.233 245.583 303.288 245.086C303.423 243.803 303.604 242.53 303.82 241.274C306.491 225.164 314.15 210.297 325.717 198.77C337.285 187.243 352.178 179.637 368.298 177.023C369.545 176.815 370.8 176.634 372.073 176.508H372.164L374.033 176.327C374.684 176.273 375.325 176.219 375.975 176.183L377.592 176.101C377.827 176.101 378.061 176.101 378.296 176.101C378.703 176.101 379.118 176.101 379.525 176.101H380.879H382.559L384.086 176.146H384.528C385.025 176.146 385.513 176.146 386 176.228L386.904 176.291C393.363 176.884 399.401 179.753 403.942 184.384C408.483 189.016 411.231 195.11 411.696 201.58C411.822 203.784 411.87 206.014 411.84 208.272Z" fill="white"/>
<path d="M431.584 191.726C431.479 191.725 431.378 191.69 431.295 191.627C428.616 189.455 425.798 187.461 422.859 185.657C422.756 185.595 422.682 185.494 422.653 185.377C422.624 185.26 422.643 185.137 422.705 185.034C422.768 184.931 422.868 184.857 422.985 184.828C423.102 184.799 423.226 184.818 423.329 184.88C426.302 186.706 429.154 188.724 431.864 190.922C431.957 190.997 432.016 191.105 432.03 191.224C432.044 191.342 432.01 191.461 431.936 191.555C431.893 191.607 431.839 191.649 431.778 191.679C431.718 191.709 431.651 191.725 431.584 191.726V191.726Z" fill="#E88817"/>
<path d="M415.615 181.656C415.547 181.655 415.479 181.64 415.417 181.611C404.61 176.463 392.795 173.782 380.825 173.762C380.705 173.762 380.59 173.714 380.506 173.63C380.421 173.545 380.374 173.43 380.374 173.31C380.374 173.191 380.421 173.076 380.506 172.991C380.59 172.906 380.705 172.859 380.825 172.859C392.928 172.884 404.875 175.592 415.805 180.789C415.859 180.814 415.908 180.85 415.948 180.894C415.989 180.938 416.02 180.99 416.04 181.046C416.06 181.102 416.069 181.162 416.066 181.222C416.063 181.281 416.048 181.34 416.022 181.394C415.985 181.471 415.928 181.536 415.856 181.582C415.784 181.629 415.701 181.654 415.615 181.656V181.656Z" fill="#E88817"/>
<path d="M0 383C0 327.772 44.7715 283 100 283H444C499.228 283 544 327.772 544 383V483H0V383Z" fill="#F9F9F9"/>
<path d="M105.809 376.376C109.489 376.376 112.497 374.92 114.833 372.008L119.633 376.952C115.825 381.24 111.329 383.384 106.145 383.384C100.993 383.384 96.7374 381.752 93.3774 378.488C90.0494 375.224 88.3854 371.112 88.3854 366.152C88.3854 361.16 90.0814 357 93.4734 353.672C96.8974 350.344 101.073 348.68 106.001 348.68C111.505 348.68 116.113 350.776 119.825 354.968L115.169 360.248C112.801 357.304 109.857 355.832 106.337 355.832C103.521 355.832 101.105 356.76 99.0894 358.616C97.1054 360.44 96.1134 362.92 96.1134 366.056C96.1134 369.16 97.0574 371.656 98.9454 373.544C100.833 375.432 103.121 376.376 105.809 376.376ZM138.422 363.512C136.278 363.512 134.678 364.28 133.622 365.816C132.566 367.32 132.038 369.32 132.038 371.816V383H124.838V357.176H132.038V360.584C132.966 359.528 134.118 358.632 135.494 357.896C136.902 357.16 138.326 356.776 139.766 356.744L139.814 363.512H138.422ZM166.94 379.256C164.028 382.008 160.604 383.384 156.668 383.384C152.764 383.384 149.532 382.184 146.972 379.784C144.412 377.352 143.132 374.104 143.132 370.04C143.132 365.976 144.428 362.744 147.02 360.344C149.644 357.944 152.732 356.744 156.284 356.744C159.836 356.744 162.844 357.816 165.308 359.96C167.804 362.104 169.052 365.048 169.052 368.792V372.632H150.236C150.46 374.04 151.196 375.192 152.444 376.088C153.692 376.984 155.1 377.432 156.668 377.432C159.196 377.432 161.276 376.584 162.908 374.888L166.94 379.256ZM161.756 367.496C161.596 365.96 161.02 364.776 160.028 363.944C159.036 363.112 157.82 362.696 156.38 362.696C154.972 362.696 153.676 363.128 152.492 363.992C151.308 364.856 150.62 366.024 150.428 367.496H161.756ZM184.564 383.384C181.524 383.384 178.804 382.088 176.404 379.496C174.004 376.904 172.804 373.688 172.804 369.848C172.804 366.008 173.972 362.872 176.308 360.44C178.644 357.976 181.38 356.744 184.516 356.744C187.652 356.744 190.212 357.848 192.196 360.056V347.384H199.396V383H192.196V379.592C190.18 382.12 187.636 383.384 184.564 383.384ZM180.052 370.136C180.052 372.216 180.676 373.928 181.924 375.272C183.172 376.584 184.628 377.24 186.292 377.24C187.956 377.24 189.364 376.584 190.516 375.272C191.7 373.928 192.292 372.216 192.292 370.136C192.292 368.024 191.7 366.28 190.516 364.904C189.364 363.496 187.94 362.792 186.244 362.792C184.548 362.792 183.092 363.496 181.876 364.904C180.66 366.312 180.052 368.056 180.052 370.136ZM213.413 383H206.213V357.176H213.413V383ZM206.789 353.912C205.989 353.08 205.589 352.072 205.589 350.888C205.589 349.704 205.989 348.712 206.789 347.912C207.621 347.08 208.629 346.664 209.813 346.664C210.997 346.664 211.989 347.08 212.789 347.912C213.621 348.712 214.037 349.704 214.037 350.888C214.037 352.072 213.621 353.08 212.789 353.912C211.989 354.712 210.997 355.112 209.813 355.112C208.629 355.112 207.621 354.712 206.789 353.912ZM235.108 356.744C238.244 356.744 240.98 357.976 243.316 360.44C245.652 362.872 246.82 366.008 246.82 369.848C246.82 373.688 245.62 376.904 243.22 379.496C240.82 382.088 238.084 383.384 235.012 383.384C231.972 383.384 229.444 382.12 227.428 379.592V383H220.228V347.384H227.428V360.056C229.412 357.848 231.972 356.744 235.108 356.744ZM227.332 370.136C227.332 372.216 227.908 373.928 229.06 375.272C230.244 376.584 231.668 377.24 233.332 377.24C234.996 377.24 236.452 376.584 237.7 375.272C238.948 373.928 239.572 372.216 239.572 370.136C239.572 368.056 238.964 366.312 237.748 364.904C236.532 363.496 235.076 362.792 233.38 362.792C231.684 362.792 230.244 363.496 229.06 364.904C227.908 366.28 227.332 368.024 227.332 370.136ZM259.397 383H252.197V357.176H259.397V383ZM252.773 353.912C251.973 353.08 251.573 352.072 251.573 350.888C251.573 349.704 251.973 348.712 252.773 347.912C253.605 347.08 254.613 346.664 255.797 346.664C256.981 346.664 257.973 347.08 258.773 347.912C259.605 348.712 260.021 349.704 260.021 350.888C260.021 352.072 259.605 353.08 258.773 353.912C257.973 354.712 256.981 355.112 255.797 355.112C254.613 355.112 253.605 354.712 252.773 353.912ZM273.413 383H266.213V347.384H273.413V383ZM287.428 383H280.228V357.176H287.428V383ZM280.804 353.912C280.004 353.08 279.604 352.072 279.604 350.888C279.604 349.704 280.004 348.712 280.804 347.912C281.636 347.08 282.644 346.664 283.828 346.664C285.012 346.664 286.004 347.08 286.804 347.912C287.636 348.712 288.052 349.704 288.052 350.888C288.052 352.072 287.636 353.08 286.804 353.912C286.004 354.712 285.012 355.112 283.828 355.112C282.644 355.112 281.636 354.712 280.804 353.912ZM302.836 362.36V373.928C302.836 374.92 303.092 375.704 303.604 376.28C304.116 376.824 304.724 377.096 305.428 377.096C306.772 377.096 307.908 376.488 308.836 375.272L311.524 380.312C309.284 382.36 306.916 383.384 304.42 383.384C301.956 383.384 299.86 382.568 298.132 380.936C296.436 379.304 295.588 377.08 295.588 374.264V362.36H292.564V357.176H295.588V349.448H302.836V357.176H309.076V362.36H302.836ZM319.849 393.176C317.321 393.176 314.937 392.152 312.697 390.104L315.961 384.776C317.177 385.96 318.425 386.552 319.705 386.552C320.377 386.552 320.953 386.216 321.433 385.544C321.913 384.904 322.153 384.216 322.153 383.48C322.153 382.744 318.825 373.976 312.169 357.176H319.849L326.137 373.256L332.425 357.176H340.105L328.105 387.608C327.401 389.368 326.297 390.728 324.793 391.688C323.321 392.68 321.673 393.176 319.849 393.176ZM378.289 383H371.521V379.88C369.665 382.216 367.361 383.384 364.609 383.384C361.889 383.384 359.601 382.6 357.745 381.032C355.889 379.432 354.961 377.32 354.961 374.696C354.961 372.04 355.921 370.056 357.841 368.744C359.761 367.432 362.385 366.776 365.713 366.776H371.089V366.632C371.089 363.88 369.633 362.504 366.721 362.504C365.473 362.504 364.145 362.76 362.737 363.272C361.361 363.752 360.193 364.36 359.233 365.096L356.017 360.44C359.409 357.976 363.281 356.744 367.633 356.744C370.769 356.744 373.329 357.528 375.313 359.096C377.297 360.664 378.289 363.144 378.289 366.536V383ZM371.041 373.16V371.912H366.529C363.649 371.912 362.209 372.808 362.209 374.6C362.209 375.528 362.545 376.248 363.217 376.76C363.921 377.24 364.913 377.48 366.193 377.48C367.473 377.48 368.593 377.096 369.553 376.328C370.545 375.528 371.041 374.472 371.041 373.16ZM392.053 368.6V383H384.853V357.176H392.053V360.056C394.229 357.848 396.677 356.744 399.397 356.744C402.117 356.744 404.389 357.704 406.213 359.624C408.069 361.544 408.997 364.104 408.997 367.304V383H401.797V368.408C401.797 364.44 400.341 362.456 397.429 362.456C395.989 362.456 394.725 362.984 393.637 364.04C392.581 365.064 392.053 366.584 392.053 368.6ZM425.83 383.384C422.79 383.384 420.07 382.088 417.67 379.496C415.27 376.904 414.07 373.688 414.07 369.848C414.07 366.008 415.238 362.872 417.574 360.44C419.91 357.976 422.646 356.744 425.782 356.744C428.918 356.744 431.478 357.848 433.462 360.056V347.384H440.662V383H433.462V379.592C431.446 382.12 428.902 383.384 425.83 383.384ZM421.318 370.136C421.318 372.216 421.942 373.928 423.19 375.272C424.438 376.584 425.894 377.24 427.558 377.24C429.222 377.24 430.63 376.584 431.782 375.272C432.966 373.928 433.558 372.216 433.558 370.136C433.558 368.024 432.966 366.28 431.782 364.904C430.63 363.496 429.206 362.792 427.51 362.792C425.814 362.792 424.358 363.496 423.142 364.904C421.926 366.312 421.318 368.056 421.318 370.136ZM178.672 408.448V415.12H161.968V422.032H176.992V428.416H161.968V435.376H179.2V442H154.48V408.448H178.672ZM193.477 414.688V416.416H199.717V421.6H193.477V442H186.229V421.6H183.205V416.416H186.229V414.832C186.229 412.016 187.077 409.792 188.773 408.16C190.501 406.496 192.629 405.664 195.157 405.664C197.717 405.664 200.037 406.624 202.117 408.544L199.525 413.392C198.469 412.176 197.301 411.568 196.021 411.568C195.285 411.568 194.677 411.84 194.197 412.384C193.717 412.896 193.477 413.664 193.477 414.688ZM212.789 414.688V416.416H219.029V421.6H212.789V442H205.541V421.6H202.517V416.416H205.541V414.832C205.541 412.016 206.389 409.792 208.085 408.16C209.813 406.496 211.941 405.664 214.469 405.664C217.029 405.664 219.349 406.624 221.429 408.544L218.837 413.392C217.781 412.176 216.613 411.568 215.333 411.568C214.597 411.568 213.989 411.84 213.509 412.384C213.029 412.896 212.789 413.664 212.789 414.688ZM230.71 442H223.51V416.176H230.71V442ZM224.086 412.912C223.286 412.08 222.886 411.072 222.886 409.888C222.886 408.704 223.286 407.712 224.086 406.912C224.918 406.08 225.926 405.664 227.11 405.664C228.294 405.664 229.286 406.08 230.086 406.912C230.918 407.712 231.334 408.704 231.334 409.888C231.334 411.072 230.918 412.08 230.086 412.912C229.286 413.712 228.294 414.112 227.11 414.112C225.926 414.112 224.918 413.712 224.086 412.912ZM249.909 436C252.309 436 254.469 434.8 256.389 432.4L260.661 437.2C257.333 440.656 253.733 442.384 249.861 442.384C245.989 442.384 242.709 441.168 240.021 438.736C237.365 436.272 236.037 433.072 236.037 429.136C236.037 425.168 237.381 421.952 240.069 419.488C242.789 416.992 246.005 415.744 249.717 415.744C251.573 415.744 253.445 416.128 255.333 416.896C257.253 417.664 258.933 418.8 260.373 420.304L256.629 425.2C255.797 424.208 254.773 423.44 253.557 422.896C252.373 422.352 251.189 422.08 250.005 422.08C248.117 422.08 246.485 422.704 245.109 423.952C243.765 425.168 243.093 426.88 243.093 429.088C243.093 431.264 243.765 432.96 245.109 434.176C246.485 435.392 248.085 436 249.909 436ZM272.663 442H265.463V416.176H272.663V442ZM266.039 412.912C265.239 412.08 264.839 411.072 264.839 409.888C264.839 408.704 265.239 407.712 266.039 406.912C266.871 406.08 267.879 405.664 269.063 405.664C270.247 405.664 271.239 406.08 272.039 406.912C272.871 407.712 273.287 408.704 273.287 409.888C273.287 411.072 272.871 412.08 272.039 412.912C271.239 413.712 270.247 414.112 269.063 414.112C267.879 414.112 266.871 413.712 266.039 412.912ZM301.846 438.256C298.934 441.008 295.51 442.384 291.574 442.384C287.67 442.384 284.438 441.184 281.878 438.784C279.318 436.352 278.038 433.104 278.038 429.04C278.038 424.976 279.334 421.744 281.926 419.344C284.55 416.944 287.638 415.744 291.19 415.744C294.742 415.744 297.75 416.816 300.214 418.96C302.71 421.104 303.958 424.048 303.958 427.792V431.632H285.142C285.366 433.04 286.102 434.192 287.35 435.088C288.598 435.984 290.006 436.432 291.574 436.432C294.102 436.432 296.182 435.584 297.814 433.888L301.846 438.256ZM296.662 426.496C296.502 424.96 295.926 423.776 294.934 422.944C293.942 422.112 292.726 421.696 291.286 421.696C289.878 421.696 288.582 422.128 287.398 422.992C286.214 423.856 285.526 425.024 285.334 426.496H296.662ZM316.35 427.6V442H309.15V416.176H316.35V419.056C318.526 416.848 320.974 415.744 323.694 415.744C326.414 415.744 328.686 416.704 330.51 418.624C332.366 420.544 333.294 423.104 333.294 426.304V442H326.094V427.408C326.094 423.44 324.638 421.456 321.726 421.456C320.286 421.456 319.022 421.984 317.934 423.04C316.878 424.064 316.35 425.584 316.35 427.6ZM352.19 436C354.59 436 356.75 434.8 358.67 432.4L362.942 437.2C359.614 440.656 356.014 442.384 352.142 442.384C348.27 442.384 344.99 441.168 342.302 438.736C339.646 436.272 338.318 433.072 338.318 429.136C338.318 425.168 339.662 421.952 342.35 419.488C345.07 416.992 348.286 415.744 351.998 415.744C353.854 415.744 355.726 416.128 357.614 416.896C359.534 417.664 361.214 418.8 362.654 420.304L358.91 425.2C358.078 424.208 357.054 423.44 355.838 422.896C354.654 422.352 353.47 422.08 352.286 422.08C350.398 422.08 348.766 422.704 347.39 423.952C346.046 425.168 345.374 426.88 345.374 429.088C345.374 431.264 346.046 432.96 347.39 434.176C348.766 435.392 350.366 436 352.19 436ZM372.208 452.176C369.68 452.176 367.296 451.152 365.056 449.104L368.32 443.776C369.536 444.96 370.784 445.552 372.064 445.552C372.736 445.552 373.312 445.216 373.792 444.544C374.272 443.904 374.512 443.216 374.512 442.48C374.512 441.744 371.184 432.976 364.528 416.176H372.208L378.496 432.256L384.784 416.176H392.464L380.464 446.608C379.76 448.368 378.656 449.728 377.152 450.688C375.68 451.68 374.032 452.176 372.208 452.176Z" fill="#046306"/>
</svg>
