<svg width="544" height="442" viewBox="0 0 544 442" fill="none" xmlns="http://www.w3.org/2000/svg">
<path d="M427.663 171.919H424.151H265.152H261.639V178.96H265.152V250.53H424.151V178.96H427.663V171.919Z" fill="#E88817"/>
<path opacity="0.5" d="M427.663 171.919H424.151H265.152H261.639V178.96H265.152V250.53H424.151V178.96H427.663V171.919Z" fill="white"/>
<path d="M269.411 209.294H312.773V186.143H269.411V209.294ZM270.292 186.999H311.893V208.464H270.292V186.999Z" fill="white"/>
<path d="M323.261 209.294H366.631V186.143H323.261V209.294ZM324.158 187.023H365.768V208.464H324.158V187.023Z" fill="white"/>
<path d="M377.119 186.144V209.294H420.481V186.144H377.119ZM419.6 208.464H377.999V187.024H419.6V208.464Z" fill="white"/>
<path d="M269.411 240.416H312.773V217.24H269.411V240.416ZM270.292 218.121H311.893V239.536H270.292V218.121Z" fill="white"/>
<path d="M323.261 240.416H366.631V217.24H323.261V240.416ZM324.158 218.121H365.768V239.536H324.158V218.121Z" fill="white"/>
<path d="M377.119 240.416H420.481V217.241H377.119V240.416ZM377.999 218.121H419.6V239.536H377.999V218.121Z" fill="white"/>
<path d="M291.557 200.666C295.446 200.666 298.599 199.484 298.599 198.026C298.599 196.567 295.446 195.385 291.557 195.385C287.668 195.385 284.516 196.567 284.516 198.026C284.516 199.484 287.668 200.666 291.557 200.666Z" fill="white"/>
<path d="M345.15 200.666C349.039 200.666 352.191 199.484 352.191 198.026C352.191 196.567 349.039 195.385 345.15 195.385C341.261 195.385 338.108 196.567 338.108 198.026C338.108 199.484 341.261 200.666 345.15 200.666Z" fill="white"/>
<path d="M400.294 200.666C404.183 200.666 407.336 199.484 407.336 198.026C407.336 196.567 404.183 195.385 400.294 195.385C396.405 195.385 393.253 196.567 393.253 198.026C393.253 199.484 396.405 200.666 400.294 200.666Z" fill="white"/>
<path d="M291.557 226.483C287.671 226.483 284.516 227.662 284.516 229.123C284.516 230.585 287.671 231.755 291.557 231.755C295.444 231.755 298.599 230.576 298.599 229.123C298.599 227.67 295.444 226.483 291.557 226.483Z" fill="white"/>
<path d="M345.15 226.483C341.264 226.483 338.108 227.662 338.108 229.123C338.108 230.585 341.264 231.755 345.15 231.755C349.036 231.755 352.191 230.576 352.191 229.123C352.191 227.67 349.069 226.483 345.15 226.483Z" fill="white"/>
<path d="M400.294 226.483C396.408 226.483 393.261 227.662 393.261 229.123C393.261 230.585 396.408 231.755 400.294 231.755C404.18 231.755 407.336 230.576 407.336 229.123C407.336 227.67 404.189 226.483 400.294 226.483Z" fill="white"/>
<path d="M242.1 165.766C238.895 170.524 234.428 176.71 232.045 181.676C232.95 178.404 233.838 175.307 234.644 172.542C235.864 170.142 239.136 164.089 242.947 160.086C247.739 154.955 249.79 151.658 247.207 151.376C245.422 151.176 240.191 158.143 236.911 165.06C237.625 162.694 238.189 160.908 238.571 159.837C238.729 159.356 238.879 158.832 239.028 158.276C242.421 153.53 245.51 148.573 248.278 143.437C253.119 134.395 254.681 125.858 251.45 129.529C248.478 132.908 243.304 149.715 239.194 157.62C239.543 156.258 239.875 154.755 240.166 153.269C240.747 151.832 241.511 150.371 241.943 149.042C242.615 147 243.205 144.94 243.678 142.84C244.459 139.575 244.855 136.231 244.857 132.875C244.941 128.933 243.867 125.053 241.768 121.715C241.212 120.885 237.807 115.794 236.786 118.393C236.653 118.826 236.627 119.285 236.711 119.73C237.21 124.057 238.779 128.034 239.75 132.244C241.204 138.547 240.24 149.125 239.75 153.626C239.568 154.34 239.335 155.22 239.061 156.242C239.734 148.403 236.338 139.111 233.191 137.484C229.296 135.474 233.116 143.363 236.122 150.255C237.546 153.271 238.215 156.588 238.073 159.92C237.459 162.179 236.753 164.728 236.022 167.302C235.873 167.651 235.74 168.008 235.607 168.357C235.945 166.677 236.081 164.962 236.014 163.25C235.731 158.749 230.633 149.74 227.245 151.01C223.857 152.281 229.595 157.031 232.659 162.561C234.267 165.619 234.885 169.101 234.428 172.525C234.428 172.733 234.361 172.932 234.336 173.123C233.979 174.302 233.631 175.432 233.299 176.511C232.468 179.002 231.762 181.394 231.057 183.702C231.924 180.353 232.304 176.896 232.186 173.439C231.762 166.846 227.901 160.618 224.713 159.762C221.524 158.907 227.61 169.669 229.653 175.714C230.764 179.245 230.953 183.001 230.201 186.625C229.213 189.897 228.283 193.127 227.328 196.54C227.595 192.069 227.498 187.584 227.038 183.129C226.415 175.789 222.055 171.105 219.049 171.296C216.043 171.487 219.182 175.656 223.517 184.582C225.805 189.269 226.825 194.474 226.473 199.678C226.083 201.115 225.643 202.593 225.277 204.137C224.812 205.898 224.447 207.816 224.115 209.776C223.683 208.024 223.035 205.466 222.28 202.643C221.4 199.522 220.761 196.337 220.37 193.118C219.963 189.373 218.975 184.698 215.304 182.755C215.055 182.582 214.771 182.465 214.471 182.412C214.172 182.36 213.864 182.374 213.571 182.453C213.277 182.532 213.005 182.675 212.772 182.87C212.539 183.066 212.352 183.31 212.224 183.586C211.887 184.389 211.811 185.278 212.008 186.127C212.495 188.674 213.333 191.142 214.499 193.459C213.778 194.841 213.45 196.395 213.552 197.951C213.552 198.532 213.602 199.114 213.644 199.695C213.32 199.097 213.013 198.549 212.722 198.034C212.194 197.154 211.546 196.352 210.796 195.651C210.984 194.275 211.078 192.888 211.078 191.499C211.078 189.681 208.944 185.039 207.017 188.477C206.245 189.855 206.395 192.554 206.32 194.347C205.797 194.846 205.639 195.859 206.079 197.453C205.78 201.605 205.722 205.856 206.727 209.908L206.062 208.754C205.126 203.951 204.571 199.081 204.402 194.19C204.161 186.11 205.448 179.484 203.247 176.993C201.047 174.502 199.818 183.262 200.756 192.811C201.198 197.168 202.36 201.422 204.194 205.4C202.035 201.522 199.901 197.569 197.883 193.774C197.053 191.74 194.994 186.235 195.5 180.655C196.139 173.621 196.604 167.859 193.931 163.898C191.257 159.937 190.701 162.511 192.013 170.765C192.909 176.428 193.864 184.001 195.508 189.257C193.947 186.243 192.478 183.378 191.166 180.787C190.418 178.197 188.674 171.545 188.674 166.023C188.674 158.999 187.927 155.229 185.851 156.748C184.406 157.819 185.336 166.488 187.661 173.779C186.574 171.562 185.752 169.86 185.278 168.855C185.062 168.398 184.822 167.908 184.548 167.402C183.788 161.618 182.665 155.889 181.185 150.246C178.552 140.332 173.861 133.025 174.01 137.915C174.143 142.416 181.832 158.226 184.232 166.812C183.551 165.575 182.762 164.255 181.965 162.968C181.409 161.515 180.969 159.929 180.379 158.666C179.474 156.715 178.502 154.805 177.415 152.945C175.753 150.02 173.755 147.3 171.461 144.841C168.803 141.814 165.301 139.651 161.405 138.63C160.425 138.397 154.48 136.969 155.493 139.626C155.682 140.031 155.967 140.385 156.323 140.656C159.645 143.479 163.498 145.314 167.118 147.73C172.482 151.351 179.001 159.738 181.691 163.383L182.97 165.766C178.112 159.571 169.285 155.104 165.881 156.067C161.663 157.255 169.833 160.41 176.734 163.391C179.834 164.623 182.588 166.593 184.755 169.129C185.851 171.205 187.072 173.538 188.292 175.921C188.434 176.278 188.567 176.627 188.708 176.976C187.81 175.518 186.743 174.171 185.527 172.965C182.247 169.876 172.366 166.762 170.763 170.001C169.161 173.239 176.576 172.808 182.604 174.751C185.851 175.89 188.667 178.004 190.667 180.804C190.784 180.97 190.892 181.144 191.008 181.302C191.556 182.398 192.071 183.469 192.561 184.483C193.69 186.866 194.769 189.099 195.824 191.267C194.178 188.216 192.1 185.419 189.654 182.963C184.838 178.429 177.763 176.519 174.832 178.097C171.901 179.675 183.709 183.353 189.33 186.401C192.553 188.224 195.254 190.843 197.177 194.007C198.689 197.071 200.208 200.069 201.844 203.216C198.988 199.767 195.858 196.554 192.486 193.608C187.014 188.668 180.628 188.219 178.561 190.411C176.493 192.604 181.633 193.509 190.883 197.054C195.751 198.917 200.046 202.024 203.339 206.064C204.036 207.384 204.75 208.738 205.514 210.149C206.345 211.744 207.399 213.404 208.512 215.057C207.001 214.077 204.775 212.649 202.301 211.104C199.524 209.424 196.884 207.527 194.404 205.433C191.548 202.983 187.637 200.235 183.609 201.322C183.309 201.366 183.023 201.475 182.77 201.642C182.517 201.809 182.304 202.029 182.145 202.287C181.987 202.545 181.887 202.835 181.853 203.136C181.819 203.438 181.852 203.742 181.948 204.029C182.242 204.851 182.792 205.555 183.518 206.039C187.304 208.97 192.395 210.382 196.804 212.117C200.844 213.707 204.986 215.028 209.201 216.07C210.247 217.573 211.335 219.059 212.431 220.471L210.455 220.529C208.113 220.604 197.551 215.812 192.187 214.276C186.823 212.74 181.807 215.646 187.429 218.669C193.051 221.691 208.338 221.019 208.338 221.019L212.747 220.886C213.785 222.215 214.798 223.477 215.761 224.631H194.811V230.443H198.963L202.284 251.111H230.126L233.489 230.443H237.641V224.631H223.766C223.654 222.119 223.72 219.602 223.965 217.099C224.891 216.158 225.919 215.323 227.029 214.608C233.124 210.398 243.454 210.05 246.202 201.937C246.867 199.986 246.111 197.478 243.778 197.586C242.117 197.66 240.315 199.139 239.269 200.343C235.781 204.37 233.157 208.547 228.624 211.602C227.066 212.8 225.569 214.075 224.14 215.422C224.297 214.102 224.497 212.69 224.754 211.179C225.85 209.236 227.099 207.384 228.491 205.64C232.202 201.032 237.849 198.333 241.86 193.94C243.089 192.595 244.708 187.763 240.955 188.958C239.294 189.49 237.318 192.022 235.972 193.177C232.277 196.498 228.499 200.035 226.091 204.403C226.191 203.971 226.299 203.573 226.398 203.108C228.989 198.954 231.907 195.014 235.125 191.325C240.456 185.263 245.92 181.294 246.011 177.972C246.103 174.651 239.227 180.214 233.39 187.821C230.742 191.31 228.688 195.213 227.312 199.371C228.383 195.07 229.52 190.719 230.633 186.55C231.397 184.474 233.664 179.077 237.841 175.332C243.113 170.624 247.382 166.738 248.137 162.046C248.893 157.354 246.775 158.841 242.1 165.766ZM212.614 219.175C211.825 218.104 211.003 216.942 210.123 215.655C209.599 213.472 209.249 211.25 209.077 209.012C208.97 207.106 209.059 205.195 209.342 203.307C210.76 205.062 212.264 206.744 213.851 208.347C213.813 210.008 213.61 211.66 213.245 213.28C212.934 215.233 212.723 217.201 212.614 219.175ZM217.131 224.648C216.06 223.51 214.889 222.156 213.619 220.496C213.651 219.179 213.832 217.869 214.159 216.593C214.666 214.581 215.395 212.631 216.334 210.78C218.302 212.649 219.747 213.886 219.747 213.886L223.068 216.801C222.811 219.699 222.661 222.422 222.57 224.631L217.131 224.648ZM223.11 216.294L221.624 214.99C220.793 214.243 219.298 211.353 217.671 208.024C218.365 206.622 218.981 205.184 219.514 203.714C221.275 206.977 222.836 209.526 223.758 210.88C223.492 212.682 223.284 214.517 223.11 216.294Z" fill="#E88817"/>
<path opacity="0.5" d="M242.1 165.766C238.895 170.524 234.428 176.71 232.045 181.676C232.95 178.404 233.838 175.307 234.644 172.542C235.864 170.142 239.136 164.089 242.947 160.086C247.739 154.955 249.79 151.658 247.207 151.376C245.422 151.176 240.191 158.143 236.911 165.06C237.625 162.694 238.189 160.908 238.571 159.837C238.729 159.356 238.879 158.832 239.028 158.276C242.421 153.53 245.51 148.573 248.278 143.437C253.119 134.395 254.681 125.858 251.45 129.529C248.478 132.908 243.304 149.715 239.194 157.62C239.543 156.258 239.875 154.755 240.166 153.269C240.747 151.832 241.511 150.371 241.943 149.042C242.615 147 243.205 144.94 243.678 142.84C244.459 139.575 244.855 136.231 244.857 132.875C244.941 128.933 243.867 125.053 241.768 121.715C241.212 120.885 237.807 115.794 236.786 118.393C236.653 118.826 236.627 119.285 236.711 119.73C237.21 124.057 238.779 128.034 239.75 132.244C241.204 138.547 240.24 149.125 239.75 153.626C239.568 154.34 239.335 155.22 239.061 156.242C239.734 148.403 236.338 139.111 233.191 137.484C229.296 135.474 233.116 143.363 236.122 150.255C237.546 153.271 238.215 156.588 238.073 159.92C237.459 162.179 236.753 164.728 236.022 167.302C235.873 167.651 235.74 168.008 235.607 168.357C235.945 166.677 236.081 164.962 236.014 163.25C235.731 158.749 230.633 149.74 227.245 151.01C223.857 152.281 229.595 157.031 232.659 162.561C234.267 165.619 234.885 169.101 234.428 172.525C234.428 172.733 234.361 172.932 234.336 173.123C233.979 174.302 233.631 175.432 233.299 176.511C232.468 179.002 231.762 181.394 231.057 183.702C231.924 180.353 232.304 176.896 232.186 173.439C231.762 166.846 227.901 160.618 224.713 159.762C221.524 158.907 227.61 169.669 229.653 175.714C230.764 179.245 230.953 183.001 230.201 186.625C229.213 189.897 228.283 193.127 227.328 196.54C227.595 192.069 227.498 187.584 227.038 183.129C226.415 175.789 222.055 171.105 219.049 171.296C216.043 171.487 219.182 175.656 223.517 184.582C225.805 189.269 226.825 194.474 226.473 199.678C226.083 201.115 225.643 202.593 225.277 204.137C224.812 205.898 224.447 207.816 224.115 209.776C223.683 208.024 223.035 205.466 222.28 202.643C221.4 199.522 220.761 196.337 220.37 193.118C219.963 189.373 218.975 184.698 215.304 182.755C215.055 182.582 214.771 182.465 214.471 182.412C214.172 182.36 213.864 182.374 213.571 182.453C213.277 182.532 213.005 182.675 212.772 182.87C212.539 183.066 212.352 183.31 212.224 183.586C211.887 184.389 211.811 185.278 212.008 186.127C212.495 188.674 213.333 191.142 214.499 193.459C213.778 194.841 213.45 196.395 213.552 197.951C213.552 198.532 213.602 199.114 213.644 199.695C213.32 199.097 213.013 198.549 212.722 198.034C212.194 197.154 211.546 196.352 210.796 195.651C210.984 194.275 211.078 192.888 211.078 191.499C211.078 189.681 208.944 185.039 207.017 188.477C206.245 189.855 206.395 192.554 206.32 194.347C205.797 194.846 205.639 195.859 206.079 197.453C205.78 201.605 205.722 205.856 206.727 209.908L206.062 208.754C205.126 203.951 204.571 199.081 204.402 194.19C204.161 186.11 205.448 179.484 203.247 176.993C201.047 174.502 199.818 183.262 200.756 192.811C201.198 197.168 202.36 201.422 204.194 205.4C202.035 201.522 199.901 197.569 197.883 193.774C197.053 191.74 194.994 186.235 195.5 180.655C196.139 173.621 196.604 167.859 193.931 163.898C191.257 159.937 190.701 162.511 192.013 170.765C192.909 176.428 193.864 184.001 195.508 189.257C193.947 186.243 192.478 183.378 191.166 180.787C190.418 178.197 188.674 171.545 188.674 166.023C188.674 158.999 187.927 155.229 185.851 156.748C184.406 157.819 185.336 166.488 187.661 173.779C186.574 171.562 185.752 169.86 185.278 168.855C185.062 168.398 184.822 167.908 184.548 167.402C183.788 161.618 182.665 155.889 181.185 150.246C178.552 140.332 173.861 133.025 174.01 137.915C174.143 142.416 181.832 158.226 184.232 166.812C183.551 165.575 182.762 164.255 181.965 162.968C181.409 161.515 180.969 159.929 180.379 158.666C179.474 156.715 178.502 154.805 177.415 152.945C175.753 150.02 173.755 147.3 171.461 144.841C168.803 141.814 165.301 139.651 161.405 138.63C160.425 138.397 154.48 136.969 155.493 139.626C155.682 140.031 155.967 140.385 156.323 140.656C159.645 143.479 163.498 145.314 167.118 147.73C172.482 151.351 179.001 159.738 181.691 163.383L182.97 165.766C178.112 159.571 169.285 155.104 165.881 156.067C161.663 157.255 169.833 160.41 176.734 163.391C179.834 164.623 182.588 166.593 184.755 169.129C185.851 171.205 187.072 173.538 188.292 175.921C188.434 176.278 188.567 176.627 188.708 176.976C187.81 175.518 186.743 174.171 185.527 172.965C182.247 169.876 172.366 166.762 170.763 170.001C169.161 173.239 176.576 172.808 182.604 174.751C185.851 175.89 188.667 178.004 190.667 180.804C190.784 180.97 190.892 181.144 191.008 181.302C191.556 182.398 192.071 183.469 192.561 184.483C193.69 186.866 194.769 189.099 195.824 191.267C194.178 188.216 192.1 185.419 189.654 182.963C184.838 178.429 177.763 176.519 174.832 178.097C171.901 179.675 183.709 183.353 189.33 186.401C192.553 188.224 195.254 190.843 197.177 194.007C198.689 197.071 200.208 200.069 201.844 203.216C198.988 199.767 195.858 196.554 192.486 193.608C187.014 188.668 180.628 188.219 178.561 190.411C176.493 192.604 181.633 193.509 190.883 197.054C195.751 198.917 200.046 202.024 203.339 206.064C204.036 207.384 204.75 208.738 205.514 210.149C206.345 211.744 207.399 213.404 208.512 215.057C207.001 214.077 204.775 212.649 202.301 211.104C199.524 209.424 196.884 207.527 194.404 205.433C191.548 202.983 187.637 200.235 183.609 201.322C183.309 201.366 183.023 201.475 182.77 201.642C182.517 201.809 182.304 202.029 182.145 202.287C181.987 202.545 181.887 202.835 181.853 203.136C181.819 203.438 181.852 203.742 181.948 204.029C182.242 204.851 182.792 205.555 183.518 206.039C187.304 208.97 192.395 210.382 196.804 212.117C200.844 213.707 204.986 215.028 209.201 216.07C210.247 217.573 211.335 219.059 212.431 220.471L210.455 220.529C208.113 220.604 197.551 215.812 192.187 214.276C186.823 212.74 181.807 215.646 187.429 218.669C193.051 221.691 208.338 221.019 208.338 221.019L212.747 220.886C213.785 222.215 214.798 223.477 215.761 224.631H194.811V230.443H198.963L202.284 251.111H230.126L233.489 230.443H237.641V224.631H223.766C223.654 222.119 223.72 219.602 223.965 217.099C224.891 216.158 225.919 215.323 227.029 214.608C233.124 210.398 243.454 210.05 246.202 201.937C246.867 199.986 246.111 197.478 243.778 197.586C242.117 197.66 240.315 199.139 239.269 200.343C235.781 204.37 233.157 208.547 228.624 211.602C227.066 212.8 225.569 214.075 224.14 215.422C224.297 214.102 224.497 212.69 224.754 211.179C225.85 209.236 227.099 207.384 228.491 205.64C232.202 201.032 237.849 198.333 241.86 193.94C243.089 192.595 244.708 187.763 240.955 188.958C239.294 189.49 237.318 192.022 235.972 193.177C232.277 196.498 228.499 200.035 226.091 204.403C226.191 203.971 226.299 203.573 226.398 203.108C228.989 198.954 231.907 195.014 235.125 191.325C240.456 185.263 245.92 181.294 246.011 177.972C246.103 174.651 239.227 180.214 233.39 187.821C230.742 191.31 228.688 195.213 227.312 199.371C228.383 195.07 229.52 190.719 230.633 186.55C231.397 184.474 233.664 179.077 237.841 175.332C243.113 170.624 247.382 166.738 248.137 162.046C248.893 157.354 246.775 158.841 242.1 165.766ZM212.614 219.175C211.825 218.104 211.003 216.942 210.123 215.655C209.599 213.472 209.249 211.25 209.077 209.012C208.97 207.106 209.059 205.195 209.342 203.307C210.76 205.062 212.264 206.744 213.851 208.347C213.813 210.008 213.61 211.66 213.245 213.28C212.934 215.233 212.723 217.201 212.614 219.175ZM217.131 224.648C216.06 223.51 214.889 222.156 213.619 220.496C213.651 219.179 213.832 217.869 214.159 216.593C214.666 214.581 215.395 212.631 216.334 210.78C218.302 212.649 219.747 213.886 219.747 213.886L223.068 216.801C222.811 219.699 222.661 222.422 222.57 224.631L217.131 224.648ZM223.11 216.294L221.624 214.99C220.793 214.243 219.298 211.353 217.671 208.024C218.365 206.622 218.981 205.184 219.514 203.714C221.275 206.977 222.836 209.526 223.758 210.88C223.492 212.682 223.284 214.517 223.11 216.294Z" fill="white"/>
<path d="M160.201 9.39062V93.5901H224.14V9.39062H160.201ZM219.705 87.7194H164.669V15.2696H219.705V87.7194Z" fill="#E88817"/>
<path opacity="0.5" d="M160.201 9.39062V93.5901H224.14V9.39062H160.201ZM219.705 87.7194H164.669V15.2696H219.705V87.7194Z" fill="white"/>
<path d="M383.944 50.4688V112.647H431.175V50.4688H383.944ZM427.879 108.304H387.266V54.8448H427.904L427.879 108.304Z" fill="#E88817"/>
<path opacity="0.5" d="M383.944 50.4688V112.647H431.175V50.4688H383.944ZM427.879 108.304H387.266V54.8448H427.904L427.879 108.304Z" fill="white"/>
<path d="M113.891 259.797C116.275 251.726 140.961 167.825 140.878 167.194C140.795 166.563 142.896 155.295 147.812 145.903C152.728 136.512 159.553 126.049 160.409 124.771C161.71 122.687 162.58 120.363 162.966 117.937C163.606 114.524 170.44 105.124 172.574 102.566C174.708 100.009 181.11 86.557 181.542 84.4229C181.973 82.2889 184.523 80.5783 187.944 79.9389C191.365 79.2995 196.056 78.6602 196.056 78.6602C196.925 79.6819 197.448 80.952 197.551 82.2889C197.551 84.207 189.862 130.102 189.438 137.791C189.015 145.48 190.078 149.74 186.665 157.645C183.252 165.55 173.213 170.449 168.305 173.654C163.398 176.86 163.772 177.524 163.772 177.524C163.772 177.524 166.545 254.358 166.479 260.395" fill="white"/>
<g style="mix-blend-mode:multiply" opacity="0.7">
<path d="M200.673 129.006C199.785 125.028 194.03 127.237 194.03 127.237C190.112 131.489 185.287 134.807 179.914 136.944C170.92 140.345 162.229 144.498 153.932 149.358C154.879 147.456 155.908 145.538 157.021 143.545C162.759 133.398 172.906 119.722 178.61 117.953C182.131 116.874 185.644 119.108 187.836 121.001L188.085 79.8975H187.944C184.523 80.5368 181.965 82.2474 181.542 84.3815C181.118 86.5155 174.708 99.9592 172.574 102.525C170.44 105.091 163.606 114.482 162.966 117.895C162.58 120.321 161.71 122.645 160.409 124.729C159.578 126.008 152.72 136.462 147.812 145.862C142.905 155.262 140.795 166.513 140.878 167.153C140.937 167.618 131.437 202.028 125.4 223.684C130.383 213.886 138.13 198.034 142.838 186.318C144.69 186.135 148.277 181.119 151.25 177.034C154.779 172.185 160.068 170.856 170.664 162.918C181.259 154.979 193.159 143.944 194.927 139.535C196.696 135.125 201.554 132.975 200.673 129.006Z" fill="#E88817"/>
</g>
<path d="M113.891 259.797C116.275 251.726 140.961 167.825 140.878 167.194C140.795 166.563 142.896 155.295 147.812 145.903C152.728 136.512 159.553 126.049 160.409 124.771C161.71 122.687 162.58 120.363 162.966 117.937C163.606 114.524 170.44 105.124 172.574 102.566C174.708 100.009 181.11 86.557 181.542 84.4229C181.973 82.2889 184.523 80.5783 187.944 79.9389C191.365 79.2995 196.056 78.6602 196.056 78.6602C196.925 79.6819 197.448 80.952 197.551 82.2889C197.551 84.207 189.862 130.102 189.438 137.791C189.015 145.48 190.078 149.74 186.665 157.645C183.252 165.55 173.213 170.449 168.305 173.654C163.398 176.86 163.772 177.524 163.772 177.524C163.772 177.524 166.545 254.358 166.479 260.395" stroke="#2E353A" stroke-linecap="round" stroke-linejoin="round"/>
<path d="M187.512 130.957C187.512 130.957 185.17 130.741 182.82 126.473" stroke="#2E353A" stroke-linecap="round" stroke-linejoin="round"/>
<path d="M184.954 103.422C184.954 103.422 191.597 104.701 192.428 110.248" stroke="#2E353A" stroke-linecap="round" stroke-linejoin="round"/>
<path d="M187.088 86.1252C188.558 87.2433 189.774 88.6596 190.657 90.281C191.54 91.9025 192.07 93.6925 192.212 95.5333" stroke="#2E353A" stroke-linecap="round" stroke-linejoin="round"/>
<path d="M402.337 130.973L401.814 42.3149C401.811 39.7309 400.783 37.2535 398.955 35.4271C397.127 33.6007 394.649 32.5747 392.065 32.5747H198.049C195.466 32.5747 192.989 33.6009 191.162 35.4276C189.335 37.2542 188.309 39.7317 188.309 42.3149L187.778 130.973C187.776 132.266 188.03 133.546 188.524 134.74C189.018 135.935 189.743 137.02 190.657 137.934C191.571 138.848 192.656 139.572 193.851 140.067C195.045 140.561 196.325 140.814 197.617 140.813H392.497C393.789 140.814 395.069 140.561 396.264 140.067C397.458 139.572 398.543 138.848 399.457 137.934C400.371 137.02 401.096 135.935 401.59 134.74C402.084 133.546 402.338 132.266 402.337 130.973Z" fill="#2E353A" stroke="#363636" stroke-width="0.868674" stroke-linecap="round" stroke-linejoin="round"/>
<path d="M391.434 135.997L391.011 37.3411H199.104L198.689 135.997H391.434Z" fill="white" stroke="#363636" stroke-width="0.651505" stroke-linecap="round" stroke-linejoin="round"/>
<path d="M391.01 37.3411H199.104L199.087 42.2652H217.521L222.238 49.0078H391.06L391.01 37.3411Z" fill="#E88817" stroke="#2E353A" stroke-linecap="round" stroke-linejoin="round"/>
<g style="mix-blend-mode:multiply" opacity="0.5">
<path d="M391.01 56.9709L256.117 135.997H391.434L391.01 56.9709Z" fill="#E88817"/>
</g>
<path d="M397.864 86.6425C397.874 85.8217 397.218 85.1477 396.397 85.1371C395.576 85.1265 394.902 85.7833 394.891 86.6041C394.881 87.4249 395.537 88.0989 396.358 88.1095C397.179 88.1201 397.853 87.4633 397.864 86.6425Z" fill="white"/>
<path d="M213.884 73.3874C218.273 73.3874 221.831 69.8296 221.831 65.4408C221.831 61.052 218.273 57.4941 213.884 57.4941C209.496 57.4941 205.938 61.052 205.938 65.4408C205.938 69.8296 209.496 73.3874 213.884 73.3874Z" fill="#E88817" stroke="#2E353A" stroke-linecap="round" stroke-linejoin="round"/>
<path d="M213.884 106.062C218.273 106.062 221.831 102.505 221.831 98.1158C221.831 93.727 218.273 90.1692 213.884 90.1692C209.496 90.1692 205.938 93.727 205.938 98.1158C205.938 102.505 209.496 106.062 213.884 106.062Z" fill="white" stroke="#2E353A" stroke-linecap="round" stroke-linejoin="round"/>
<path d="M268.191 73.3874C272.58 73.3874 276.137 69.8296 276.137 65.4408C276.137 61.052 272.58 57.4941 268.191 57.4941C263.802 57.4941 260.244 61.052 260.244 65.4408C260.244 69.8296 263.802 73.3874 268.191 73.3874Z" fill="white" stroke="#2E353A" stroke-linecap="round" stroke-linejoin="round"/>
<path d="M268.191 106.062C272.58 106.062 276.137 102.505 276.137 98.1158C276.137 93.727 272.58 90.1692 268.191 90.1692C263.802 90.1692 260.244 93.727 260.244 98.1158C260.244 102.505 263.802 106.062 268.191 106.062Z" fill="#E88817" stroke="#2E353A" stroke-linecap="round" stroke-linejoin="round"/>
<path d="M322.505 73.3874C326.894 73.3874 330.452 69.8296 330.452 65.4408C330.452 61.052 326.894 57.4941 322.505 57.4941C318.116 57.4941 314.559 61.052 314.559 65.4408C314.559 69.8296 318.116 73.3874 322.505 73.3874Z" fill="#E88817" stroke="#2E353A" stroke-linecap="round" stroke-linejoin="round"/>
<path d="M322.505 106.062C326.894 106.062 330.452 102.505 330.452 98.1158C330.452 93.727 326.894 90.1692 322.505 90.1692C318.116 90.1692 314.559 93.727 314.559 98.1158C314.559 102.505 318.116 106.062 322.505 106.062Z" fill="#E88817" stroke="#2E353A" stroke-width="2" stroke-linecap="round" stroke-linejoin="round"/>
<path d="M376.811 73.3874C381.2 73.3874 384.758 69.8296 384.758 65.4408C384.758 61.052 381.2 57.4941 376.811 57.4941C372.423 57.4941 368.865 61.052 368.865 65.4408C368.865 69.8296 372.423 73.3874 376.811 73.3874Z" fill="#E88817" stroke="#2E353A" stroke-linecap="round" stroke-linejoin="round"/>
<path d="M376.811 106.062C381.2 106.062 384.758 102.505 384.758 98.1158C384.758 93.727 381.2 90.1692 376.811 90.1692C372.423 90.1692 368.865 93.727 368.865 98.1158C368.865 102.505 372.423 106.062 376.811 106.062Z" fill="white" stroke="#2E353A" stroke-linecap="round" stroke-linejoin="round"/>
<path d="M227.694 76.2024H253.726" stroke="#2E353A" stroke-linecap="round" stroke-linejoin="round"/>
<path d="M227.694 82.2058H253.726" stroke="#2E353A" stroke-linecap="round" stroke-linejoin="round"/>
<path d="M227.694 88.2178H253.726" stroke="#2E353A" stroke-linecap="round" stroke-linejoin="round"/>
<path d="M281.26 76.2024H307.292" stroke="#2E353A" stroke-linecap="round" stroke-linejoin="round"/>
<path d="M281.26 82.2058H307.292" stroke="#2E353A" stroke-linecap="round" stroke-linejoin="round"/>
<path d="M281.26 88.2178H307.292" stroke="#2E353A" stroke-linecap="round" stroke-linejoin="round"/>
<path d="M338.332 76.2024H364.364" stroke="#2E353A" stroke-linecap="round" stroke-linejoin="round"/>
<path d="M338.332 82.2058H364.364" stroke="#2E353A" stroke-linecap="round" stroke-linejoin="round"/>
<path d="M338.332 88.2178H364.364" stroke="#2E353A" stroke-linecap="round" stroke-linejoin="round"/>
<path d="M227.694 110.198H253.726" stroke="#2E353A" stroke-linecap="round" stroke-linejoin="round"/>
<path d="M227.694 116.209H253.726" stroke="#2E353A" stroke-linecap="round" stroke-linejoin="round"/>
<path d="M227.694 122.213H253.726" stroke="#2E353A" stroke-linecap="round" stroke-linejoin="round"/>
<path d="M281.26 110.198H307.292" stroke="#2E353A" stroke-linecap="round" stroke-linejoin="round"/>
<path d="M281.26 116.209H307.292" stroke="#2E353A" stroke-linecap="round" stroke-linejoin="round"/>
<path d="M281.26 122.213H307.292" stroke="#2E353A" stroke-linecap="round" stroke-linejoin="round"/>
<path d="M338.332 110.198H364.364" stroke="#2E353A" stroke-linecap="round" stroke-linejoin="round"/>
<path d="M338.332 116.209H364.364" stroke="#2E353A" stroke-linecap="round" stroke-linejoin="round"/>
<path d="M338.332 122.213H364.364" stroke="#2E353A" stroke-linecap="round" stroke-linejoin="round"/>
<path d="M306.828 98.5227H311.76" stroke="#2E353A" stroke-linecap="round" stroke-linejoin="round"/>
<path d="M323.028 88.6662V82.5049" stroke="#2E353A" stroke-linecap="round" stroke-linejoin="round"/>
<path d="M312.109 89.3721L315.281 91.8383" stroke="#2E353A" stroke-linecap="round" stroke-linejoin="round"/>
<path d="M315.987 104.858L312.109 106.976" stroke="#2E353A" stroke-linecap="round" stroke-linejoin="round"/>
<path d="M339.577 98.5227H334.645" stroke="#2E353A" stroke-linecap="round" stroke-linejoin="round"/>
<path d="M334.288 89.3721L331.125 91.8383" stroke="#2E353A" stroke-linecap="round" stroke-linejoin="round"/>
<path d="M319.192 114.848L323.344 129.678" stroke="#2E353A" stroke-linecap="round" stroke-linejoin="round"/>
<path d="M315.032 113.062L317.407 120.776" stroke="#2E353A" stroke-linecap="round" stroke-linejoin="round"/>
<path d="M417.358 254.3C417.358 254.3 397.637 217.93 394.83 211.553C392.024 205.175 389.906 195.128 389.217 192.371C388.22 189.136 388.128 185.69 388.951 182.407C389.989 177.757 389.375 164.487 389.84 161.44C390.305 158.392 388.42 148.86 387.349 143.52C386.277 138.181 383.853 134.386 380.581 133.971C379.63 133.857 378.665 133.98 377.772 134.33C376.88 134.679 376.088 135.243 375.466 135.972C375.466 135.972 374.104 124.605 372.784 122.246C371.464 119.888 367.162 120.229 364.862 120.793C362.562 121.358 361.458 128.715 361.458 128.715C361.458 128.715 359.465 121.649 359.407 118.493C359.349 115.338 355.512 112.622 352.523 113.37C349.534 114.117 347.923 115.487 347.109 122.03C346.295 128.574 347.831 138.696 347.831 138.696L346.279 139.327C346.279 139.327 340.682 119.73 338.905 114.557C337.128 109.384 335.417 103.463 334.222 99.6105C333.026 95.7576 331.249 89.6461 326.358 90.5844C321.467 91.5227 322.671 102.21 322.671 102.21C322.671 102.21 330.319 134.959 330.717 137.542C331.116 140.124 332.378 149.092 332.129 152.082C331.88 155.071 331.888 162.876 331.888 162.876L324.606 154.191C323.709 151.841 322.576 149.587 321.226 147.465C318.735 143.446 313.197 139.701 309.601 140.822C306.006 141.943 308.845 145.646 310.332 147.714C311.818 149.781 313.022 155.586 313.022 158.509C313.022 161.432 315.513 163.491 318.519 168.855C321.525 174.219 336.613 192.753 338.897 196.091C340.587 198.334 342.714 200.212 345.149 201.613C345.149 201.613 353.868 209.211 357.937 218.694C362.006 228.177 374.486 255.404 374.486 255.404" fill="white"/>
<g style="mix-blend-mode:multiply" opacity="0.7">
<path d="M387.498 245.647C391.575 241.911 392.588 211.727 392.073 200.492C392.073 200.4 392.073 200.293 392.073 200.193C390.62 196.44 389.491 193.392 389.234 192.371C388.237 189.136 388.145 185.69 388.968 182.406C390.006 177.756 389.391 164.487 389.856 161.44C390.13 159.638 389.574 155.536 388.86 151.384C385.904 151.126 380.49 153.792 380.49 153.792C380.49 153.792 376.222 147.581 373.44 147.365C370.658 147.149 365.834 151.517 365.834 151.517C365.834 151.517 363.069 142.2 357.389 143.155C351.709 144.11 350.115 143.155 347.873 143.254C345.631 143.354 343.812 137.899 341.57 132.543C339.328 127.187 336.115 107.158 334.213 103.006C334.213 103.006 331.232 94.6529 327.371 97.4347C323.51 100.216 327.138 109.309 328.949 114.764C330.759 120.22 331.73 130.583 333.2 135.524C334.861 141.029 334.031 149.208 335.55 155.203C337.07 161.199 340.972 163.142 338.822 170.98C336.671 178.819 331.971 176.32 326.732 171.711C321.492 167.103 318.901 156.549 315.937 157.595C314.91 157.855 313.917 158.237 312.981 158.733C313.047 161.606 315.472 163.715 318.478 168.963C321.484 174.211 336.613 192.753 338.897 196.091C340.588 198.334 342.714 200.212 345.149 201.613C345.149 201.613 353.868 209.211 357.937 218.694C358.668 220.396 359.83 222.912 361.258 225.901C362.919 227.23 359.398 220.919 360.262 221.965C366.016 228.716 383.429 249.392 387.498 245.647Z" fill="#E88817"/>
</g>
<path d="M417.358 254.3C417.358 254.3 397.637 217.93 394.83 211.553C392.024 205.175 389.906 195.128 389.217 192.371C388.22 189.136 388.128 185.69 388.951 182.407C389.989 177.757 389.375 164.487 389.84 161.44C390.305 158.392 388.42 148.86 387.349 143.52C386.277 138.181 383.853 134.386 380.581 133.971C379.63 133.857 378.665 133.98 377.772 134.33C376.88 134.679 376.088 135.243 375.466 135.972C375.466 135.972 374.104 124.605 372.784 122.246C371.464 119.888 367.162 120.229 364.862 120.793C362.562 121.358 361.458 128.715 361.458 128.715C361.458 128.715 359.465 121.649 359.407 118.493C359.349 115.338 355.512 112.622 352.523 113.37C349.534 114.117 347.923 115.487 347.109 122.03C346.295 128.574 347.831 138.696 347.831 138.696L346.279 139.327C346.279 139.327 340.682 119.73 338.905 114.557C337.128 109.384 335.417 103.463 334.222 99.6105C333.026 95.7576 331.249 89.6461 326.358 90.5844C321.467 91.5227 322.671 102.21 322.671 102.21C322.671 102.21 330.319 134.959 330.717 137.542C331.116 140.124 332.378 149.092 332.129 152.082C331.88 155.071 331.888 162.876 331.888 162.876L324.606 154.191C323.709 151.841 322.576 149.587 321.226 147.465C318.735 143.446 313.197 139.701 309.601 140.822C306.006 141.943 308.845 145.646 310.332 147.714C311.818 149.781 313.022 155.586 313.022 158.509C313.022 161.432 315.513 163.491 318.519 168.855C321.525 174.219 336.613 192.753 338.897 196.091C340.587 198.334 342.714 200.212 345.149 201.613C345.149 201.613 353.868 209.211 357.937 218.694C362.006 228.177 374.486 255.404 374.486 255.404" stroke="#2E353A" stroke-linecap="round" stroke-linejoin="round"/>
<path d="M323.767 92.9592C323.767 92.9592 324.672 98.5725 324.847 99.2783C325.237 100.864 331.797 100.109 332.32 98.8881C332.785 97.8003 332.445 95.442 332.445 95.442" stroke="#2E353A" stroke-linecap="round" stroke-linejoin="round"/>
<path d="M312.532 147.971C313.078 147.417 313.416 146.692 313.49 145.918C313.564 145.144 313.37 144.367 312.939 143.72C311.395 141.42 310.531 140.905 310.531 140.905" stroke="#2E353A" stroke-linecap="round" stroke-linejoin="round"/>
<path d="M331.357 125.485C331.357 125.485 334.288 126.465 337.045 122.853" stroke="#2E353A" stroke-width="0.75" stroke-linecap="round" stroke-linejoin="round"/>
<path d="M331.706 122.936C331.706 122.936 335.617 120.004 338.606 120.245" stroke="#2E353A" stroke-width="0.75" stroke-linecap="round" stroke-linejoin="round"/>
<path d="M327.653 107.615C327.653 107.615 330.585 104.692 332.934 105.323" stroke="#2E353A" stroke-width="0.75" stroke-linecap="round" stroke-linejoin="round"/>
<path d="M330.41 106.926C331.615 107.129 332.849 107.072 334.031 106.76" stroke="#2E353A" stroke-width="0.75" stroke-linecap="round" stroke-linejoin="round"/>
<path d="M361.449 128.74L362.994 137.882" stroke="#2E353A" stroke-linecap="round" stroke-linejoin="round"/>
<path d="M375.458 135.997L377.11 145.596" stroke="#2E353A" stroke-linecap="round" stroke-linejoin="round"/>
<path d="M331.88 162.934C331.88 162.934 331.465 170.117 332.154 172.899" stroke="#2E353A" stroke-linecap="round" stroke-linejoin="round"/>
<path d="M363.002 142.748C363.002 142.748 364.704 147.257 364.289 150.221" stroke="#2E353A" stroke-width="0.75" stroke-linecap="round" stroke-linejoin="round"/>
<path d="M376.927 147.406C376.927 147.406 378.082 149.732 377.392 153.966" stroke="#2E353A" stroke-width="0.75" stroke-linecap="round" stroke-linejoin="round"/>
<path d="M179.615 134.37C179.615 134.37 186.665 133.091 190.501 128.399C194.338 123.708 203.521 117.721 206.511 116.658C209.5 115.595 214.2 115.371 215.911 116.865C217.621 118.36 218.468 121.989 215.911 126.265C213.353 130.542 202.924 134.561 200.748 136.504C198.572 138.447 196.696 139.709 194.105 145.472C191.583 151.054 187.953 156.066 183.435 160.202C179.374 163.831 171.909 170.026 168.065 172.367" fill="white"/>
<g style="mix-blend-mode:multiply" opacity="0.7">
<path d="M200.673 129.006C199.785 125.028 194.03 127.237 194.03 127.237C190.112 131.489 185.287 134.807 179.914 136.944C170.92 140.345 162.229 144.498 153.932 149.358C154.879 147.456 155.908 145.538 157.021 143.545C162.759 133.398 172.906 119.722 178.61 117.953C182.131 116.874 185.644 119.108 187.836 121.001L188.085 79.8975H187.944C184.523 80.5368 181.965 82.2474 181.542 84.3815C181.118 86.5155 174.708 99.9592 172.574 102.525C170.44 105.091 163.606 114.482 162.966 117.895C162.58 120.321 161.71 122.645 160.409 124.729C159.578 126.008 152.72 136.462 147.812 145.862C142.905 155.262 140.795 166.513 140.878 167.153C140.937 167.618 131.437 202.028 125.4 223.684C130.383 213.886 138.13 198.034 142.838 186.318C144.69 186.135 148.277 181.119 151.25 177.034C154.779 172.185 160.068 170.856 170.664 162.918C181.259 154.979 193.159 143.944 194.927 139.535C196.696 135.125 201.554 132.975 200.673 129.006Z" fill="#E88817"/>
</g>
<path d="M179.615 134.37C179.615 134.37 186.665 133.091 190.501 128.399C194.338 123.708 203.521 117.721 206.511 116.658C209.5 115.595 214.2 115.371 215.911 116.865C217.621 118.36 218.468 121.989 215.911 126.265C213.353 130.542 202.924 134.561 200.748 136.504C198.572 138.447 196.696 139.709 194.105 145.472C191.583 151.054 187.953 156.066 183.435 160.202C179.374 163.831 171.909 170.026 168.065 172.367" stroke="#2E353A" stroke-linecap="round" stroke-linejoin="round"/>
<path d="M216.118 124.596C214.839 126.514 211.634 126.73 211.634 126.73C211.634 126.73 210.355 123.957 209.5 122.246C208.834 121.095 207.878 120.139 206.727 119.473C206.727 119.473 207.798 116.699 209.932 116.699" stroke="#2E353A" stroke-linecap="round" stroke-linejoin="round"/>
<path d="M132.55 177.673C140.428 175.967 148.497 175.311 156.548 175.722C170.174 176.378 173.412 184.159 173.412 184.159L172.765 201.671C172.765 201.671 165.632 196.481 150.71 194.538C135.788 192.595 128.008 193.89 128.008 193.89L132.55 177.673Z" fill="white" stroke="#2E353A" stroke-linecap="round" stroke-linejoin="round"/>
<path d="M173.545 259.39L177.058 203.183C154.355 189.556 128.008 193.891 128.008 193.891L105.588 259.39H173.545Z" fill="#2E353A" stroke="#2E353A" stroke-linecap="round" stroke-linejoin="round"/>
<path d="M350.729 216.211C350.729 216.211 352.946 207.359 365.12 200.16C377.293 192.961 395.569 195.734 395.569 195.734L398.334 202.925C398.334 202.925 383.388 202.377 372.319 208.464C361.25 214.55 355.711 221.749 355.711 221.749L350.729 216.211Z" fill="white" stroke="#2E353A" stroke-linecap="round" stroke-linejoin="round"/>
<path d="M433.143 259.39L400.294 200.666C400.294 200.666 387.839 197.395 372.892 203.481C357.945 209.568 351.85 221.193 351.85 221.193L358.136 259.39H433.143Z" fill="#2E353A" stroke="#2E353A" stroke-linecap="round" stroke-linejoin="round"/>
<path d="M358.983 222.97C359.398 224.756 358.9 226.4 357.854 226.64C356.808 226.881 355.629 225.636 355.213 223.85C354.798 222.065 355.296 220.421 356.334 220.18C357.372 219.939 358.56 221.185 358.983 222.97Z" fill="white"/>
<path d="M0 342C0 286.772 44.7715 242 100 242H444C499.228 242 544 286.772 544 342V442H0V342Z" fill="#F9F9F9"/>
<path d="M128.68 319.584C128.68 324.96 126.552 328.432 122.296 330L130.792 342H121.576L114.136 331.296H108.952V342H101.464V308.448H114.184C119.4 308.448 123.112 309.328 125.32 311.088C127.56 312.848 128.68 315.68 128.68 319.584ZM114.424 324.816C116.984 324.816 118.728 324.4 119.656 323.568C120.584 322.736 121.048 321.424 121.048 319.632C121.048 317.808 120.568 316.56 119.608 315.888C118.648 315.216 116.968 314.88 114.568 314.88H108.952V324.816H114.424ZM157.987 338.256C155.075 341.008 151.651 342.384 147.715 342.384C143.811 342.384 140.579 341.184 138.019 338.784C135.459 336.352 134.179 333.104 134.179 329.04C134.179 324.976 135.475 321.744 138.067 319.344C140.691 316.944 143.779 315.744 147.331 315.744C150.883 315.744 153.891 316.816 156.355 318.96C158.851 321.104 160.099 324.048 160.099 327.792V331.632H141.283C141.507 333.04 142.243 334.192 143.491 335.088C144.739 335.984 146.147 336.432 147.715 336.432C150.243 336.432 152.323 335.584 153.955 333.888L157.987 338.256ZM152.803 326.496C152.643 324.96 152.067 323.776 151.075 322.944C150.083 322.112 148.867 321.696 147.427 321.696C146.019 321.696 144.723 322.128 143.539 322.992C142.355 323.856 141.667 325.024 141.475 326.496H152.803ZM172.491 342H165.291V306.384H172.491V342ZM186.506 342H179.306V316.176H186.506V342ZM179.882 312.912C179.082 312.08 178.682 311.072 178.682 309.888C178.682 308.704 179.082 307.712 179.882 306.912C180.714 306.08 181.722 305.664 182.906 305.664C184.09 305.664 185.082 306.08 185.882 306.912C186.714 307.712 187.13 308.704 187.13 309.888C187.13 311.072 186.714 312.08 185.882 312.912C185.082 313.712 184.09 314.112 182.906 314.112C181.722 314.112 180.714 313.712 179.882 312.912ZM215.258 342H208.49V338.88C206.634 341.216 204.33 342.384 201.578 342.384C198.858 342.384 196.57 341.6 194.714 340.032C192.858 338.432 191.93 336.32 191.93 333.696C191.93 331.04 192.89 329.056 194.81 327.744C196.73 326.432 199.354 325.776 202.682 325.776H208.058V325.632C208.058 322.88 206.602 321.504 203.69 321.504C202.442 321.504 201.114 321.76 199.706 322.272C198.33 322.752 197.162 323.36 196.202 324.096L192.986 319.44C196.378 316.976 200.25 315.744 204.602 315.744C207.738 315.744 210.298 316.528 212.282 318.096C214.266 319.664 215.258 322.144 215.258 325.536V342ZM208.01 332.16V330.912H203.498C200.618 330.912 199.178 331.808 199.178 333.6C199.178 334.528 199.514 335.248 200.186 335.76C200.89 336.24 201.882 336.48 203.162 336.48C204.442 336.48 205.562 336.096 206.522 335.328C207.514 334.528 208.01 333.472 208.01 332.16ZM236.702 315.744C239.838 315.744 242.574 316.976 244.91 319.44C247.246 321.872 248.414 325.008 248.414 328.848C248.414 332.688 247.214 335.904 244.814 338.496C242.414 341.088 239.678 342.384 236.606 342.384C233.566 342.384 231.038 341.12 229.022 338.592V342H221.822V306.384H229.022V319.056C231.006 316.848 233.566 315.744 236.702 315.744ZM228.926 329.136C228.926 331.216 229.502 332.928 230.654 334.272C231.838 335.584 233.262 336.24 234.926 336.24C236.59 336.24 238.046 335.584 239.294 334.272C240.542 332.928 241.166 331.216 241.166 329.136C241.166 327.056 240.558 325.312 239.342 323.904C238.126 322.496 236.67 321.792 234.974 321.792C233.278 321.792 231.838 322.496 230.654 323.904C229.502 325.28 228.926 327.024 228.926 329.136ZM260.991 342H253.791V316.176H260.991V342ZM254.367 312.912C253.567 312.08 253.167 311.072 253.167 309.888C253.167 308.704 253.567 307.712 254.367 306.912C255.199 306.08 256.207 305.664 257.391 305.664C258.575 305.664 259.567 306.08 260.367 306.912C261.199 307.712 261.615 308.704 261.615 309.888C261.615 311.072 261.199 312.08 260.367 312.912C259.567 313.712 258.575 314.112 257.391 314.112C256.207 314.112 255.199 313.712 254.367 312.912ZM275.006 342H267.806V306.384H275.006V342ZM289.022 342H281.822V316.176H289.022V342ZM282.398 312.912C281.598 312.08 281.198 311.072 281.198 309.888C281.198 308.704 281.598 307.712 282.398 306.912C283.23 306.08 284.238 305.664 285.422 305.664C286.606 305.664 287.598 306.08 288.398 306.912C289.23 307.712 289.646 308.704 289.646 309.888C289.646 311.072 289.23 312.08 288.398 312.912C287.598 313.712 286.606 314.112 285.422 314.112C284.238 314.112 283.23 313.712 282.398 312.912ZM304.43 321.36V332.928C304.43 333.92 304.686 334.704 305.198 335.28C305.71 335.824 306.318 336.096 307.022 336.096C308.366 336.096 309.502 335.488 310.43 334.272L313.118 339.312C310.878 341.36 308.51 342.384 306.014 342.384C303.55 342.384 301.454 341.568 299.726 339.936C298.03 338.304 297.182 336.08 297.182 333.264V321.36H294.158V316.176H297.182V308.448H304.43V316.176H310.67V321.36H304.43ZM321.442 352.176C318.914 352.176 316.53 351.152 314.29 349.104L317.554 343.776C318.77 344.96 320.018 345.552 321.298 345.552C321.97 345.552 322.546 345.216 323.026 344.544C323.506 343.904 323.746 343.216 323.746 342.48C323.746 341.744 320.418 332.976 313.762 316.176H321.442L327.73 332.256L334.018 316.176H341.698L329.698 346.608C328.994 348.368 327.89 349.728 326.386 350.688C324.914 351.68 323.266 352.176 321.442 352.176ZM379.883 342H373.115V338.88C371.259 341.216 368.955 342.384 366.203 342.384C363.483 342.384 361.195 341.6 359.339 340.032C357.483 338.432 356.555 336.32 356.555 333.696C356.555 331.04 357.515 329.056 359.435 327.744C361.355 326.432 363.979 325.776 367.307 325.776H372.683V325.632C372.683 322.88 371.227 321.504 368.315 321.504C367.067 321.504 365.739 321.76 364.331 322.272C362.955 322.752 361.787 323.36 360.827 324.096L357.611 319.44C361.003 316.976 364.875 315.744 369.227 315.744C372.363 315.744 374.923 316.528 376.907 318.096C378.891 319.664 379.883 322.144 379.883 325.536V342ZM372.635 332.16V330.912H368.123C365.243 330.912 363.803 331.808 363.803 333.6C363.803 334.528 364.139 335.248 364.811 335.76C365.515 336.24 366.507 336.48 367.787 336.48C369.067 336.48 370.187 336.096 371.147 335.328C372.139 334.528 372.635 333.472 372.635 332.16ZM393.647 327.6V342H386.447V316.176H393.647V319.056C395.823 316.848 398.271 315.744 400.991 315.744C403.711 315.744 405.983 316.704 407.807 318.624C409.663 320.544 410.591 323.104 410.591 326.304V342H403.391V327.408C403.391 323.44 401.935 321.456 399.023 321.456C397.583 321.456 396.319 321.984 395.231 323.04C394.175 324.064 393.647 325.584 393.647 327.6ZM427.423 342.384C424.383 342.384 421.663 341.088 419.263 338.496C416.863 335.904 415.663 332.688 415.663 328.848C415.663 325.008 416.831 321.872 419.167 319.44C421.503 316.976 424.239 315.744 427.375 315.744C430.511 315.744 433.071 316.848 435.055 319.056V306.384H442.255V342H435.055V338.592C433.039 341.12 430.495 342.384 427.423 342.384ZM422.911 329.136C422.911 331.216 423.535 332.928 424.783 334.272C426.031 335.584 427.487 336.24 429.151 336.24C430.815 336.24 432.223 335.584 433.375 334.272C434.559 332.928 435.151 331.216 435.151 329.136C435.151 327.024 434.559 325.28 433.375 323.904C432.223 322.496 430.799 321.792 429.103 321.792C427.407 321.792 425.951 322.496 424.735 323.904C423.519 325.312 422.911 327.056 422.911 329.136ZM116.086 367.448C122.07 367.448 126.662 368.92 129.862 371.864C133.062 374.776 134.662 378.84 134.662 384.056C134.662 389.272 133.094 393.4 129.958 396.44C126.854 399.48 122.102 401 115.702 401H104.23V367.448H116.086ZM116.47 394.376C119.894 394.376 122.518 393.512 124.342 391.784C126.198 390.056 127.126 387.544 127.126 384.248C127.126 380.952 126.198 378.424 124.342 376.664C122.518 374.872 119.702 373.976 115.894 373.976H111.718V394.376H116.47ZM162.768 397.256C159.856 400.008 156.432 401.384 152.496 401.384C148.592 401.384 145.36 400.184 142.8 397.784C140.24 395.352 138.96 392.104 138.96 388.04C138.96 383.976 140.256 380.744 142.848 378.344C145.472 375.944 148.56 374.744 152.112 374.744C155.664 374.744 158.672 375.816 161.136 377.96C163.632 380.104 164.88 383.048 164.88 386.792V390.632H146.064C146.288 392.04 147.024 393.192 148.272 394.088C149.52 394.984 150.928 395.432 152.496 395.432C155.024 395.432 157.104 394.584 158.736 392.888L162.768 397.256ZM157.584 385.496C157.424 383.96 156.848 382.776 155.856 381.944C154.864 381.112 153.648 380.696 152.208 380.696C150.8 380.696 149.504 381.128 148.32 381.992C147.136 382.856 146.448 384.024 146.256 385.496H157.584ZM185.096 374.744C188.104 374.744 190.776 376.008 193.112 378.536C195.48 381.032 196.664 384.184 196.664 387.992C196.664 391.8 195.48 394.984 193.112 397.544C190.776 400.104 188.024 401.384 184.856 401.384C181.72 401.384 179.192 400.12 177.272 397.592V410.312H170.072V375.176H177.272V378.056C179.48 375.848 182.088 374.744 185.096 374.744ZM177.176 388.136C177.176 390.216 177.752 391.928 178.904 393.272C180.088 394.584 181.512 395.24 183.176 395.24C184.84 395.24 186.296 394.584 187.544 393.272C188.792 391.928 189.416 390.216 189.416 388.136C189.416 386.056 188.808 384.312 187.592 382.904C186.376 381.496 184.92 380.792 183.224 380.792C181.528 380.792 180.088 381.496 178.904 382.904C177.752 384.28 177.176 386.024 177.176 388.136ZM224.409 397.256C221.497 400.008 218.073 401.384 214.137 401.384C210.233 401.384 207.001 400.184 204.441 397.784C201.881 395.352 200.601 392.104 200.601 388.04C200.601 383.976 201.897 380.744 204.489 378.344C207.113 375.944 210.201 374.744 213.753 374.744C217.305 374.744 220.313 375.816 222.777 377.96C225.273 380.104 226.521 383.048 226.521 386.792V390.632H207.705C207.929 392.04 208.665 393.192 209.913 394.088C211.161 394.984 212.569 395.432 214.137 395.432C216.665 395.432 218.745 394.584 220.377 392.888L224.409 397.256ZM219.225 385.496C219.065 383.96 218.489 382.776 217.497 381.944C216.505 381.112 215.289 380.696 213.849 380.696C212.441 380.696 211.145 381.128 209.961 381.992C208.777 382.856 208.089 384.024 207.897 385.496H219.225ZM238.913 386.6V401H231.713V375.176H238.913V378.056C241.089 375.848 243.537 374.744 246.257 374.744C248.977 374.744 251.249 375.704 253.073 377.624C254.929 379.544 255.857 382.104 255.857 385.304V401H248.657V386.408C248.657 382.44 247.201 380.456 244.289 380.456C242.849 380.456 241.585 380.984 240.497 382.04C239.441 383.064 238.913 384.584 238.913 386.6ZM272.689 401.384C269.649 401.384 266.929 400.088 264.529 397.496C262.129 394.904 260.929 391.688 260.929 387.848C260.929 384.008 262.097 380.872 264.433 378.44C266.769 375.976 269.505 374.744 272.641 374.744C275.777 374.744 278.337 375.848 280.321 378.056V365.384H287.521V401H280.321V397.592C278.305 400.12 275.761 401.384 272.689 401.384ZM268.177 388.136C268.177 390.216 268.801 391.928 270.049 393.272C271.297 394.584 272.753 395.24 274.417 395.24C276.081 395.24 277.489 394.584 278.641 393.272C279.825 391.928 280.417 390.216 280.417 388.136C280.417 386.024 279.825 384.28 278.641 382.904C277.489 381.496 276.065 380.792 274.369 380.792C272.673 380.792 271.217 381.496 270.001 382.904C268.785 384.312 268.177 386.056 268.177 388.136ZM316.274 401H309.506V397.88C307.65 400.216 305.346 401.384 302.594 401.384C299.874 401.384 297.586 400.6 295.73 399.032C293.874 397.432 292.946 395.32 292.946 392.696C292.946 390.04 293.906 388.056 295.826 386.744C297.746 385.432 300.37 384.776 303.698 384.776H309.074V384.632C309.074 381.88 307.618 380.504 304.706 380.504C303.458 380.504 302.13 380.76 300.722 381.272C299.346 381.752 298.178 382.36 297.218 383.096L294.002 378.44C297.394 375.976 301.266 374.744 305.618 374.744C308.754 374.744 311.314 375.528 313.298 377.096C315.282 378.664 316.274 381.144 316.274 384.536V401ZM309.026 391.16V389.912H304.514C301.634 389.912 300.194 390.808 300.194 392.6C300.194 393.528 300.53 394.248 301.202 394.76C301.906 395.24 302.898 395.48 304.178 395.48C305.458 395.48 306.578 395.096 307.538 394.328C308.53 393.528 309.026 392.472 309.026 391.16ZM337.718 374.744C340.854 374.744 343.59 375.976 345.926 378.44C348.262 380.872 349.43 384.008 349.43 387.848C349.43 391.688 348.23 394.904 345.83 397.496C343.43 400.088 340.694 401.384 337.622 401.384C334.582 401.384 332.054 400.12 330.038 397.592V401H322.838V365.384H330.038V378.056C332.022 375.848 334.582 374.744 337.718 374.744ZM329.942 388.136C329.942 390.216 330.518 391.928 331.67 393.272C332.854 394.584 334.278 395.24 335.942 395.24C337.606 395.24 339.062 394.584 340.31 393.272C341.558 391.928 342.182 390.216 342.182 388.136C342.182 386.056 341.574 384.312 340.358 382.904C339.142 381.496 337.686 380.792 335.99 380.792C334.294 380.792 332.854 381.496 331.67 382.904C330.518 384.28 329.942 386.024 329.942 388.136ZM362.006 401H354.806V375.176H362.006V401ZM355.382 371.912C354.582 371.08 354.182 370.072 354.182 368.888C354.182 367.704 354.582 366.712 355.382 365.912C356.214 365.08 357.222 364.664 358.406 364.664C359.59 364.664 360.582 365.08 361.382 365.912C362.214 366.712 362.63 367.704 362.63 368.888C362.63 370.072 362.214 371.08 361.382 371.912C360.582 372.712 359.59 373.112 358.406 373.112C357.222 373.112 356.214 372.712 355.382 371.912ZM376.022 401H368.822V365.384H376.022V401ZM390.038 401H382.838V375.176H390.038V401ZM383.414 371.912C382.614 371.08 382.214 370.072 382.214 368.888C382.214 367.704 382.614 366.712 383.414 365.912C384.246 365.08 385.254 364.664 386.438 364.664C387.622 364.664 388.614 365.08 389.414 365.912C390.246 366.712 390.662 367.704 390.662 368.888C390.662 370.072 390.246 371.08 389.414 371.912C388.614 372.712 387.622 373.112 386.438 373.112C385.254 373.112 384.246 372.712 383.414 371.912ZM405.445 380.36V391.928C405.445 392.92 405.701 393.704 406.213 394.28C406.725 394.824 407.333 395.096 408.037 395.096C409.381 395.096 410.517 394.488 411.445 393.272L414.133 398.312C411.893 400.36 409.525 401.384 407.029 401.384C404.565 401.384 402.469 400.568 400.741 398.936C399.045 397.304 398.197 395.08 398.197 392.264V380.36H395.173V375.176H398.197V367.448H405.445V375.176H411.685V380.36H405.445ZM422.458 411.176C419.93 411.176 417.546 410.152 415.306 408.104L418.57 402.776C419.786 403.96 421.034 404.552 422.314 404.552C422.986 404.552 423.562 404.216 424.042 403.544C424.522 402.904 424.762 402.216 424.762 401.48C424.762 400.744 421.434 391.976 414.778 375.176H422.458L428.746 391.256L435.034 375.176H442.714L430.714 405.608C430.01 407.368 428.906 408.728 427.402 409.688C425.93 410.68 424.282 411.176 422.458 411.176Z" fill="#046306"/>
</svg>
