<svg width="280" height="247" viewBox="0 0 280 247" fill="none" xmlns="http://www.w3.org/2000/svg">
<g opacity="0.3">
<path opacity="0.3" d="M38.6823 62.404H10.832V27.6643H34.5264L38.6823 31.1295V62.404Z" fill="white" stroke="black" stroke-linejoin="round"/>
<path opacity="0.3" d="M34.5264 27.6643V31.188H38.6822L34.5264 27.6643Z" fill="white" stroke="black" stroke-linejoin="round"/>
<path opacity="0.3" d="M26.2086 30.5852H5.41748V38.177H26.2086V30.5852Z" fill="black"/>
<path opacity="0.3" d="M13.9106 40.3484H36.3348" stroke="black" stroke-miterlimit="10"/>
<path opacity="0.3" d="M13.9106 44.5103H36.3348" stroke="black" stroke-miterlimit="10"/>
<path opacity="0.3" d="M13.9106 48.666H36.3348" stroke="black" stroke-miterlimit="10"/>
<path opacity="0.3" d="M13.9106 52.8279H36.3348" stroke="black" stroke-miterlimit="10"/>
<path opacity="0.3" d="M13.9106 56.9836H36.3348" stroke="black" stroke-miterlimit="10"/>
<path opacity="0.3" d="M11.7626 37.0941V32.1714H10.7559V31.5861H13.3723V32.1714H12.3655V37.0941H11.7626Z" fill="white"/>
<path opacity="0.3" d="M15.1518 34.7352L14.2328 37.0765H13.6475L14.7537 34.2552L13.7411 31.6154H14.3791L15.222 33.8104L16.0825 31.6154H16.6678L15.6435 34.2728L16.738 37.0941H16.0825L15.1518 34.7352Z" fill="white"/>
<path opacity="0.3" d="M17.9848 37.0941V32.1714H16.9722V31.5861H19.5945V32.1714H18.5818V37.0941H17.9848Z" fill="white"/>
</g>
<g opacity="0.3">
<path opacity="0.3" d="M265.348 138.825H237.498V104.08H261.186L265.348 107.545V138.825Z" fill="white" stroke="black" stroke-linejoin="round"/>
<path opacity="0.3" d="M261.186 104.08V107.604H265.348L261.186 104.08Z" fill="white" stroke="black" stroke-linejoin="round"/>
<path opacity="0.3" d="M252.868 107.006H232.077V114.598H252.868V107.006Z" fill="black"/>
<path opacity="0.3" d="M240.576 116.77H262.995" stroke="black" stroke-miterlimit="10"/>
<path opacity="0.3" d="M240.576 120.926H262.995" stroke="black" stroke-miterlimit="10"/>
<path opacity="0.3" d="M240.576 125.082H262.995" stroke="black" stroke-miterlimit="10"/>
<path opacity="0.3" d="M240.576 129.243H262.995" stroke="black" stroke-miterlimit="10"/>
<path opacity="0.3" d="M240.576 133.399H262.995" stroke="black" stroke-miterlimit="10"/>
<path opacity="0.3" d="M238.428 113.515V108.593H237.416V108.037H240.038V108.593H239.031V113.515H238.428Z" fill="white"/>
<path opacity="0.3" d="M241.817 111.151L240.898 113.492H240.313L241.419 110.665L240.383 108.013H241.015L241.864 110.202L242.719 108.013H243.304L242.28 110.665L243.374 113.492H242.725L241.817 111.151Z" fill="white"/>
<path opacity="0.3" d="M244.644 113.515V108.593H243.638V108.037H246.26V108.593H245.247V113.515H244.644Z" fill="white"/>
</g>
<g opacity="0.3">
<path opacity="0.3" d="M174.304 198.173H146.454V163.427H170.148L174.304 166.892V198.173Z" fill="white" stroke="black" stroke-linejoin="round"/>
<path opacity="0.3" d="M170.148 163.427V166.957H174.304L170.148 163.427Z" fill="white" stroke="black" stroke-linejoin="round"/>
<path opacity="0.3" d="M161.831 166.354H141.04V173.946H161.831V166.354Z" fill="black"/>
<path opacity="0.3" d="M149.539 176.117H171.957" stroke="black" stroke-miterlimit="10"/>
<path opacity="0.3" d="M149.539 180.273H171.957" stroke="black" stroke-miterlimit="10"/>
<path opacity="0.3" d="M149.539 184.429H171.957" stroke="black" stroke-miterlimit="10"/>
<path opacity="0.3" d="M149.539 188.591H171.957" stroke="black" stroke-miterlimit="10"/>
<path opacity="0.3" d="M149.539 192.746H171.957" stroke="black" stroke-miterlimit="10"/>
<path opacity="0.3" d="M147.385 172.863V167.94H146.378V167.384H149V167.94H147.988V172.863H147.385Z" fill="white"/>
<path opacity="0.3" d="M150.774 170.498L149.855 172.839H149.27L150.37 170.012L149.34 167.361H149.972L150.815 169.55L151.669 167.361H152.255L151.225 170.012L152.325 172.839H151.681L150.774 170.498Z" fill="white"/>
<path opacity="0.3" d="M153.636 172.863V167.94H152.624V167.384H155.246V167.94H154.222V172.863H153.636Z" fill="white"/>
</g>
<g opacity="0.3">
<path opacity="0.3" d="M50.2192 146.698H12.7109V99.9065H44.6234L50.2192 104.572V146.698Z" fill="white" stroke="black" stroke-linejoin="round"/>
<path opacity="0.3" d="M44.623 99.9065V104.654H50.2189L44.623 99.9065Z" fill="white" stroke="black" stroke-linejoin="round"/>
<path opacity="0.3" d="M33.4199 103.846H5.41748V114.072H33.4199V103.846Z" fill="black"/>
<path opacity="0.3" d="M16.8608 116.992H47.0583" stroke="black" stroke-miterlimit="10"/>
<path opacity="0.3" d="M16.8608 122.594H47.0583" stroke="black" stroke-miterlimit="10"/>
<path opacity="0.3" d="M16.8608 128.19H47.0583" stroke="black" stroke-miterlimit="10"/>
<path opacity="0.3" d="M16.8608 133.792H47.0583" stroke="black" stroke-miterlimit="10"/>
<path opacity="0.3" d="M16.8608 139.393H47.0583" stroke="black" stroke-miterlimit="10"/>
<path opacity="0.3" d="M14.5135 105.233C15.6842 105.233 16.17 105.918 16.17 107.036V107.92C16.17 109.09 15.6198 109.676 14.4491 109.676H13.7409V112.602H12.9214V105.227L14.5135 105.233ZM14.4491 108.973C15.0344 108.973 15.3564 108.686 15.3564 107.984V107.001C15.3564 106.327 15.1164 105.988 14.5135 105.988H13.7409V108.973H14.4491Z" fill="white"/>
<path opacity="0.3" d="M18.57 105.233C19.7406 105.233 20.244 105.924 20.244 107.065V110.782C20.244 111.912 19.7172 112.608 18.57 112.608H16.814V105.233H18.57ZM18.57 111.859C19.1553 111.859 19.448 111.49 19.448 110.817V107.024C19.448 106.345 19.1612 105.976 18.5641 105.976H17.6627V111.859H18.57Z" fill="white"/>
<path opacity="0.3" d="M23.5335 108.669V109.412H21.8361V112.608H21.0166V105.233H23.9433V105.976H21.8361V108.669H23.5335Z" fill="white"/>
</g>
<g opacity="0.3">
<path opacity="0.3" d="M34.8125 210.705H16.3276V187.648H32.0497L34.8125 189.949V210.705Z" fill="white" stroke="black" stroke-linejoin="round"/>
<path opacity="0.3" d="M32.0498 187.648V189.99H34.8126L32.0498 187.648Z" fill="white" stroke="black" stroke-linejoin="round"/>
<path opacity="0.3" d="M26.5302 189.586H12.7339V194.625H26.5302V189.586Z" fill="black"/>
<path opacity="0.3" d="M18.3765 196.065H33.2557" stroke="black" stroke-miterlimit="10"/>
<path opacity="0.3" d="M18.3765 198.828H33.2557" stroke="black" stroke-miterlimit="10"/>
<path opacity="0.3" d="M18.3765 201.585H33.2557" stroke="black" stroke-miterlimit="10"/>
<path opacity="0.3" d="M18.3765 204.348H33.2557" stroke="black" stroke-miterlimit="10"/>
<path opacity="0.3" d="M18.3765 207.105H33.2557" stroke="black" stroke-miterlimit="10"/>
<path opacity="0.3" d="M17.2174 190.271C17.8028 190.271 18.0311 190.61 18.0311 191.16V191.593C18.0311 192.179 17.7618 192.471 17.1823 192.471H16.8253V193.905H16.4214V190.271H17.2174ZM17.1823 192.091C17.4867 192.091 17.633 191.95 17.633 191.605V191.119C17.633 190.791 17.5101 190.622 17.2174 190.622H16.8253V192.091H17.1823Z" fill="white"/>
<path opacity="0.3" d="M19.2135 190.271C19.7988 190.271 20.0388 190.616 20.0388 191.178V193.01C20.0388 193.566 19.7813 193.905 19.2135 193.905H18.3647V190.271H19.2135ZM19.2135 193.537C19.5061 193.537 19.6466 193.355 19.6466 193.022V191.154C19.6466 190.821 19.5061 190.639 19.2076 190.639H18.7745V193.566L19.2135 193.537Z" fill="white"/>
<path opacity="0.3" d="M21.6603 191.962V192.331H20.8233V193.905H20.4194V190.271H21.8652V190.639H20.8233V191.962H21.6603Z" fill="white"/>
</g>
<g opacity="0.3">
<path opacity="0.3" d="M269.807 39.5466H251.322V16.4844H267.044L269.807 18.7847V39.5466Z" fill="white" stroke="black" stroke-linejoin="round"/>
<path opacity="0.3" d="M267.044 16.4844V18.8257H269.807L267.044 16.4844Z" fill="white" stroke="black" stroke-linejoin="round"/>
<path opacity="0.3" d="M261.525 18.4276H247.729V23.4674H261.525V18.4276Z" fill="black"/>
<path opacity="0.3" d="M253.365 24.9073H268.244" stroke="black" stroke-miterlimit="10"/>
<path opacity="0.3" d="M253.365 27.6643H268.244" stroke="black" stroke-miterlimit="10"/>
<path opacity="0.3" d="M253.365 30.4271H268.244" stroke="black" stroke-miterlimit="10"/>
<path opacity="0.3" d="M253.365 33.184H268.244" stroke="black" stroke-miterlimit="10"/>
<path opacity="0.3" d="M253.365 35.9468H268.244" stroke="black" stroke-miterlimit="10"/>
<path opacity="0.3" d="M252.212 19.1125C252.797 19.1125 253.026 19.4462 253.026 20.0023V20.4354C253.026 21.0207 252.756 21.3134 252.177 21.3134H251.82V22.7475H251.416V19.1125H252.212ZM252.177 20.9505C252.481 20.9505 252.628 20.81 252.628 20.4588V20.0023C252.628 19.6686 252.505 19.5047 252.212 19.5047H251.82V20.9739L252.177 20.9505Z" fill="white"/>
<path opacity="0.3" d="M254.208 19.1125C254.793 19.1125 255.033 19.452 255.033 20.014V21.8461C255.033 22.4021 254.776 22.7475 254.208 22.7475H253.359V19.1125H254.208ZM254.208 22.3787C254.501 22.3787 254.641 22.1973 254.641 21.8636V20.0023C254.641 19.6686 254.501 19.4872 254.202 19.4872H253.769V22.4138L254.208 22.3787Z" fill="white"/>
<path opacity="0.3" d="M256.655 20.8042V21.1729H255.818V22.7475H255.414V19.1125H256.86V19.4813H255.818V20.8042H256.655Z" fill="white"/>
</g>
<path d="M237.035 7.47009H41.2637V160.483H237.035V7.47009Z" fill="#263238" stroke="#263238" stroke-miterlimit="10"/>
<path d="M243.977 1.48218H47.6147V154.858H243.977V1.48218Z" fill="#E88817"/>
<path d="M243.977 1.48218H47.6147V154.858H243.977V1.48218Z" fill="white" stroke="#263238" stroke-linecap="round" stroke-linejoin="round"/>
<path d="M94.5173 23.2157H52.9585V49.5558H94.5173V23.2157Z" fill="white" stroke="#263238" stroke-linecap="round" stroke-linejoin="round"/>
<path d="M64.3726 34.6356H81.9326" stroke="#263238" stroke-miterlimit="10"/>
<path d="M59.9829 39.0256H88.957" stroke="#263238" stroke-miterlimit="10"/>
<path d="M94.5173 54.531H52.9585V80.8711H94.5173V54.531Z" fill="white" stroke="#263238" stroke-linecap="round" stroke-linejoin="round"/>
<path d="M57.2842 60.7825H71.859" stroke="#263238" stroke-miterlimit="10"/>
<path d="M57.2842 64.2712H71.859" stroke="#263238" stroke-miterlimit="10"/>
<path d="M57.2842 67.7598H71.859" stroke="#263238" stroke-miterlimit="10"/>
<path d="M57.2842 71.2483H71.859" stroke="#263238" stroke-miterlimit="10"/>
<path d="M57.2842 74.7368H71.859" stroke="#263238" stroke-miterlimit="10"/>
<path d="M75.3301 60.7825H89.9049" stroke="#263238" stroke-miterlimit="10"/>
<path d="M75.3301 64.2712H89.9049" stroke="#263238" stroke-miterlimit="10"/>
<path d="M75.3301 67.7598H89.9049" stroke="#263238" stroke-miterlimit="10"/>
<path d="M75.3301 71.2483H89.9049" stroke="#263238" stroke-miterlimit="10"/>
<path d="M75.3301 74.7368H89.9049" stroke="#263238" stroke-miterlimit="10"/>
<path d="M94.5173 85.8467H52.9585V112.187H94.5173V85.8467Z" fill="white" stroke="#263238" stroke-linecap="round" stroke-linejoin="round"/>
<path d="M57.2842 92.0979H71.859" stroke="#263238" stroke-miterlimit="10"/>
<path d="M57.2842 95.5864H71.859" stroke="#263238" stroke-miterlimit="10"/>
<path d="M57.2842 99.0752H71.859" stroke="#263238" stroke-miterlimit="10"/>
<path d="M57.2842 102.564H71.859" stroke="#263238" stroke-miterlimit="10"/>
<path d="M57.2842 106.052H71.859" stroke="#263238" stroke-miterlimit="10"/>
<path d="M75.3301 92.0979H89.9049" stroke="#263238" stroke-miterlimit="10"/>
<path d="M75.3301 95.5864H89.9049" stroke="#263238" stroke-miterlimit="10"/>
<path d="M75.3301 99.0752H89.9049" stroke="#263238" stroke-miterlimit="10"/>
<path d="M75.3301 102.564H89.9049" stroke="#263238" stroke-miterlimit="10"/>
<path d="M75.3301 106.052H89.9049" stroke="#263238" stroke-miterlimit="10"/>
<path d="M94.5173 117.162H52.9585V143.502H94.5173V117.162Z" fill="white" stroke="#263238" stroke-linecap="round" stroke-linejoin="round"/>
<path d="M57.2842 123.413H71.859" stroke="#263238" stroke-miterlimit="10"/>
<path d="M57.2842 126.902H71.859" stroke="#263238" stroke-miterlimit="10"/>
<path d="M57.2842 130.391H71.859" stroke="#263238" stroke-miterlimit="10"/>
<path d="M57.2842 133.879H71.859" stroke="#263238" stroke-miterlimit="10"/>
<path d="M57.2842 137.368H71.859" stroke="#263238" stroke-miterlimit="10"/>
<path d="M75.3301 123.413H89.9049" stroke="#263238" stroke-miterlimit="10"/>
<path d="M75.3301 126.902H89.9049" stroke="#263238" stroke-miterlimit="10"/>
<path d="M75.3301 130.391H89.9049" stroke="#263238" stroke-miterlimit="10"/>
<path d="M75.3301 133.879H89.9049" stroke="#263238" stroke-miterlimit="10"/>
<path d="M75.3301 137.368H89.9049" stroke="#263238" stroke-miterlimit="10"/>
<path d="M243.971 1.48218H100.371V154.858H243.971V1.48218Z" fill="#B8B8B8" stroke="#263238" stroke-linecap="round" stroke-linejoin="round"/>
<path d="M234.413 30.5382H104.468V118.924H234.413V30.5382Z" fill="white" stroke="#263238" stroke-linecap="round" stroke-linejoin="round"/>
<path d="M134.66 65.6233H205.977" stroke="#263238" stroke-miterlimit="10"/>
<path d="M124.967 73.373H215.67" stroke="#263238" stroke-miterlimit="10"/>
<path d="M243.971 1.48218H238.896V154.858H243.971V1.48218Z" fill="#DBDBDB" stroke="#263238" stroke-miterlimit="10"/>
<path d="M243.971 48.9998H238.896V90.4415H243.971V48.9998Z" fill="#878787"/>
<path d="M243.977 1.48218H47.6147V11.4446H243.977V1.48218Z" fill="#E88817" stroke="#263238" stroke-linecap="round" stroke-linejoin="round"/>
<path d="M186.772 3.17969H60.5269V8.79891H186.772V3.17969Z" fill="white"/>
<path d="M234.407 14.9684H224.661" stroke="#263238" stroke-miterlimit="10"/>
<path d="M234.407 17.9711H224.661" stroke="#263238" stroke-miterlimit="10"/>
<path d="M234.407 20.968H224.661" stroke="#263238" stroke-miterlimit="10"/>
<path d="M246.12 217.518L248.49 210.74" stroke="#263238" stroke-linecap="round" stroke-linejoin="round"/>
<path d="M246.289 199.214V224.466" stroke="#263238" stroke-linecap="round" stroke-linejoin="round"/>
<path d="M242.403 212.314C242.403 212.314 238.891 208.48 235.379 209.118C231.867 209.756 230.263 213.918 230.263 216.476C230.263 219.034 233.775 227.346 233.775 227.346C233.775 227.346 236.333 224.472 242.092 220.322C247.852 216.172 248.162 211.992 242.403 212.314Z" fill="#E88817" stroke="#263238" stroke-linecap="round" stroke-linejoin="round"/>
<path d="M242.402 212.314C239.388 214.022 236.944 216.581 235.378 219.672" stroke="#263238" stroke-linecap="round" stroke-linejoin="round"/>
<path d="M248.139 207.813C248.139 207.813 251.065 204.658 253.939 205.191C256.813 205.723 258.148 209.153 258.142 211.261C258.136 213.368 255.215 220.216 255.215 220.216C253.134 218.059 250.846 216.11 248.384 214.398C243.649 210.962 243.392 207.538 248.139 207.813Z" fill="#E88817" stroke="#263238" stroke-linecap="round" stroke-linejoin="round"/>
<path d="M248.139 207.813C250.623 209.222 252.633 211.337 253.916 213.889" stroke="#263238" stroke-linecap="round" stroke-linejoin="round"/>
<path d="M245.78 203.622L250.187 197.177" stroke="#263238" stroke-linecap="round" stroke-linejoin="round"/>
<path d="M245.043 201.755C245.043 201.755 244.972 197.47 242.45 195.942C239.927 194.415 236.678 196.1 235.279 197.698C233.88 199.296 231.486 206.309 231.486 206.309C231.486 206.309 234.635 205.928 240.46 206.513C246.284 207.099 248.765 204.705 245.043 201.755Z" fill="#E88817" stroke="#263238" stroke-linecap="round" stroke-linejoin="round"/>
<path d="M245.043 201.755C242.249 201.156 239.341 201.396 236.684 202.445" stroke="#263238" stroke-linecap="round" stroke-linejoin="round"/>
<path d="M248.83 196.007C248.83 196.007 248.882 192.852 250.738 191.728C252.593 190.604 254.993 191.845 256.006 193.004C257.019 194.163 258.786 199.355 258.786 199.355C256.586 199.19 254.374 199.241 252.184 199.507C247.911 199.934 246.12 198.178 248.83 196.007Z" fill="#E88817" stroke="#263238" stroke-linecap="round" stroke-linejoin="round"/>
<path d="M248.83 196.007C250.886 195.566 253.026 195.743 254.981 196.516" stroke="#263238" stroke-linecap="round" stroke-linejoin="round"/>
<path d="M257.059 222.3H234.342L236.643 245.948H254.759L257.059 222.3Z" fill="white" stroke="#263238" stroke-linecap="round" stroke-linejoin="round"/>
<path d="M251.036 232.602C251.036 232.803 251.096 233 251.208 233.168C251.32 233.335 251.479 233.466 251.665 233.543C251.851 233.62 252.056 233.64 252.253 233.601C252.451 233.561 252.632 233.464 252.775 233.322C252.917 233.179 253.014 232.998 253.054 232.8C253.093 232.603 253.073 232.398 252.996 232.212C252.919 232.026 252.788 231.867 252.62 231.755C252.453 231.643 252.256 231.583 252.055 231.583C251.921 231.582 251.788 231.608 251.664 231.659C251.54 231.71 251.427 231.785 251.333 231.88C251.238 231.975 251.163 232.087 251.112 232.211C251.061 232.335 251.035 232.468 251.036 232.602Z" fill="#263238" stroke="#263238" stroke-linecap="round" stroke-linejoin="round"/>
<path d="M247.29 232.602C247.29 232.803 247.35 233 247.462 233.168C247.574 233.335 247.733 233.466 247.919 233.543C248.105 233.62 248.31 233.64 248.507 233.601C248.705 233.561 248.886 233.464 249.029 233.322C249.171 233.179 249.268 232.998 249.307 232.8C249.347 232.603 249.327 232.398 249.25 232.212C249.172 232.026 249.042 231.867 248.874 231.755C248.707 231.643 248.51 231.583 248.309 231.583C248.175 231.582 248.042 231.608 247.918 231.659C247.794 231.71 247.681 231.785 247.587 231.88C247.492 231.975 247.417 232.087 247.366 232.211C247.315 232.335 247.289 232.468 247.29 232.602Z" fill="#263238" stroke="#263238" stroke-linecap="round" stroke-linejoin="round"/>
<path d="M235.098 230.056H256.304L256.404 229.043H234.998L235.098 230.056Z" fill="#263238" stroke="#263238" stroke-linecap="round" stroke-linejoin="round"/>
<path d="M255.397 239.38L255.824 234.972H235.578L236.005 239.38H255.397Z" fill="#263238" stroke="#263238" stroke-linecap="round" stroke-linejoin="round"/>
<path d="M254.765 232.602C254.765 232.735 254.792 232.867 254.843 232.991C254.894 233.114 254.969 233.226 255.064 233.32C255.158 233.414 255.271 233.488 255.394 233.539C255.518 233.59 255.65 233.615 255.784 233.614H255.959L256.147 231.671C256.031 231.626 255.908 231.603 255.784 231.601C255.517 231.601 255.26 231.706 255.07 231.893C254.879 232.08 254.77 232.335 254.765 232.602Z" fill="#263238" stroke="#263238" stroke-linecap="round" stroke-linejoin="round"/>
<path d="M243.579 232.602C243.579 232.803 243.639 233 243.751 233.168C243.863 233.335 244.022 233.466 244.208 233.543C244.394 233.62 244.599 233.64 244.796 233.601C244.994 233.561 245.175 233.464 245.318 233.322C245.46 233.179 245.557 232.998 245.597 232.8C245.636 232.603 245.616 232.398 245.539 232.212C245.461 232.026 245.331 231.867 245.163 231.755C244.996 231.643 244.799 231.583 244.598 231.583C244.464 231.582 244.331 231.608 244.207 231.659C244.083 231.71 243.97 231.785 243.876 231.88C243.781 231.975 243.706 232.087 243.655 232.211C243.604 232.335 243.578 232.468 243.579 232.602Z" fill="#263238" stroke="#263238" stroke-linecap="round" stroke-linejoin="round"/>
<path d="M236.122 232.602C236.122 232.803 236.182 233 236.294 233.168C236.406 233.335 236.565 233.466 236.751 233.543C236.937 233.62 237.142 233.64 237.339 233.601C237.537 233.561 237.718 233.464 237.861 233.322C238.003 233.179 238.1 232.998 238.139 232.8C238.179 232.603 238.159 232.398 238.082 232.212C238.004 232.026 237.874 231.867 237.706 231.755C237.539 231.643 237.342 231.583 237.141 231.583C237.007 231.582 236.874 231.608 236.75 231.659C236.626 231.71 236.513 231.785 236.419 231.88C236.324 231.975 236.249 232.087 236.198 232.211C236.147 232.335 236.121 232.468 236.122 232.602Z" fill="#263238" stroke="#263238" stroke-linecap="round" stroke-linejoin="round"/>
<path d="M239.851 232.602C239.851 232.803 239.91 233 240.022 233.168C240.134 233.335 240.293 233.466 240.479 233.543C240.665 233.62 240.87 233.64 241.068 233.601C241.265 233.561 241.447 233.464 241.589 233.322C241.732 233.179 241.829 232.998 241.868 232.8C241.907 232.603 241.887 232.398 241.81 232.212C241.733 232.026 241.602 231.867 241.435 231.755C241.267 231.643 241.071 231.583 240.869 231.583C240.735 231.582 240.602 231.608 240.478 231.659C240.354 231.71 240.242 231.785 240.147 231.88C240.052 231.975 239.977 232.087 239.927 232.211C239.876 232.335 239.85 232.468 239.851 232.602Z" fill="#263238" stroke="#263238" stroke-linecap="round" stroke-linejoin="round"/>
<path d="M91.1634 246.006C93.973 242.541 98.9893 236.43 100.716 234.826C102.377 233.236 103.941 231.547 105.399 229.769C105.399 229.769 102.431 235.523 107.488 240.059C112.546 244.595 127.554 241.107 130.867 238.666C134.18 236.225 134.531 229.944 131.569 220.696C128.607 211.448 124.41 194.356 124.586 188.421C124.762 182.485 120.922 165.739 119.178 161.203C117.433 156.666 110.28 153.353 102.952 151.785C95.6236 150.216 75.9095 158.411 75.9095 158.411L71.9 159.979C71.9 159.979 55.5106 169.052 51.1381 172.716C46.7657 176.38 48.867 186.501 47.8251 196.27C46.7833 206.039 46.7774 217.383 46.7774 217.383C46.7774 217.383 36.6569 226.28 29.3285 236.395C25.8165 241.265 23.7737 244.232 22.6147 246.006H91.1634Z" fill="#E88817" stroke="#263238" stroke-miterlimit="10"/>
<path d="M127.144 227.106C127.144 227.106 121.291 225.73 115.156 229.845C109.022 233.96 110.696 240.123 116.181 241.493C121.665 242.863 128.859 242.863 132.629 237.039C136.398 231.215 129.889 226.76 127.144 227.106Z" fill="white" stroke="#263238" stroke-miterlimit="10"/>
<path d="M128.601 227.053C125.32 226.532 121.965 227.3 119.236 229.195C114.425 232.403 115.759 237.22 120.038 238.291C124.317 239.363 129.936 239.363 132.88 234.815C135.824 230.266 130.738 226.79 128.601 227.053Z" fill="white" stroke="#263238" stroke-miterlimit="10"/>
<path d="M115.057 188.034C115.25 184.85 115.373 182.679 115.373 182.485" stroke="#263238" stroke-miterlimit="10"/>
<path d="M105.428 229.769C105.428 229.769 111.709 223.664 112.751 216.681C113.4 212.379 114.243 200.654 114.794 192.126" stroke="#263238" stroke-miterlimit="10"/>
<path d="M122.479 199.858C120.899 204.939 117.972 212.566 113.453 217.728" stroke="#263238" stroke-miterlimit="10"/>
<path d="M123.919 194.526C123.919 194.526 123.673 195.697 123.152 197.57" stroke="#263238" stroke-miterlimit="10"/>
<path d="M123.368 214.421C120.283 217.956 116.639 220.959 112.581 223.313" stroke="#263238" stroke-miterlimit="10"/>
<path d="M126.36 210.576C125.72 211.539 125.027 212.466 124.282 213.35" stroke="#263238" stroke-miterlimit="10"/>
<path d="M132.471 225.408C126.649 223.644 120.419 223.765 114.671 225.753C104.901 229.072 105.949 236.57 106.821 237.794" stroke="#263238" stroke-miterlimit="10"/>
<path d="M105.99 103.828C105.99 103.828 105.99 101.774 103.163 97.3894C100.336 93.0053 85.9422 94.8198 81.0605 99.7015C76.1788 104.583 83.115 110.753 80.0303 114.335C76.9456 117.917 66.6671 116.132 63.3248 122.559C59.9826 128.986 68.4641 132.065 70.2669 134.377C72.0697 136.689 67.1822 137.462 67.6973 139.774C68.2124 142.086 76.1729 142.343 76.1729 142.343C76.1729 142.343 71.0337 143.889 73.6033 145.943C77.1444 148.621 81.5064 149.985 85.9422 149.8C91.0814 149.543 89.7937 139.516 89.2845 132.065C88.7752 124.613 95.448 116.389 103.163 117.156C110.877 117.923 119.096 126.668 117.796 130.525C116.497 134.383 119.851 129.753 126.793 125.38C133.735 121.008 130.65 112.017 129.134 110.22C127.618 108.423 122.455 107.908 121.425 104.566C120.395 101.223 118.083 97.887 113.716 97.887C109.35 97.887 110.357 103.571 105.99 103.828Z" fill="#263238" stroke="#263238" stroke-miterlimit="10"/>
<path d="M83.9813 150.034C83.9813 150.034 80.6683 150.907 79.2986 152.657C77.929 154.407 72.2746 157.556 71.9293 159.979C71.5839 162.403 73.6853 174.987 77.8587 180.045C82.0322 185.102 84.1394 185.453 84.1394 185.453C84.1394 185.453 85.3627 180.571 86.2349 180.22C87.107 179.869 95.132 184.903 95.132 184.903C95.132 184.903 96.5251 176.708 97.4031 176.708C98.2811 176.708 101.061 179.5 101.061 179.5C101.061 179.5 102.109 172.517 101.413 167.109C100.716 161.7 96.1797 155.074 92.8667 152.803C89.5537 150.532 86.908 148.466 83.9813 150.034Z" fill="white" stroke="#263238" stroke-miterlimit="10"/>
<path d="M85.6848 143.408L79.2461 158.826C79.2461 158.826 80.9026 166.008 83.08 170.627C86.0477 176.907 93.3819 179.898 93.3819 179.898C93.3349 176.255 94.1259 172.651 95.694 169.362C97.1589 166.392 98.8784 163.554 100.833 160.881C100.833 160.881 89.2846 149.578 85.6848 143.408Z" fill="white" stroke="#263238" stroke-miterlimit="10"/>
<path d="M87.3472 149.256C87.3472 149.256 90.3031 166.154 94.5292 171.434L98.5388 163.825L88.0027 147.348L87.3472 149.256Z" fill="#263238" stroke="#263238" stroke-miterlimit="10"/>
<path d="M84.8359 199.413C84.8359 199.413 95.132 172.541 96.5426 170.972C97.9533 169.403 101.079 166.611 102.478 164.691C103.877 162.771 107.711 157.89 109.11 157.89C110.509 157.89 113.792 159.107 115.39 159.458C116.988 159.81 118.007 160.33 118.177 162.97C118.346 165.61 116.087 165.762 116.087 165.762L115.215 164.715C115.215 164.715 108.934 174.139 107.02 175.356C105.877 176.092 104.646 176.682 103.356 177.112L94.9798 208.346L84.8359 199.413Z" fill="white" stroke="#263238" stroke-miterlimit="10"/>
<path d="M121.15 121.494C121.15 121.494 123.591 123.531 121.964 130.437C120.337 137.344 119.933 140.804 119.933 144.872C119.933 148.94 118.715 154.629 115.25 158.288C111.785 161.946 107.53 167.232 102.449 167.027C94.4005 166.705 90.4554 155.642 87.8155 150.561C85.1756 145.481 84.5669 138.568 84.5669 135.723C84.5669 132.878 84.9708 126.17 88.6291 121.09C92.2875 116.009 102.25 113.978 106.517 114.587C110.784 115.195 116.07 115.804 121.15 121.494Z" fill="white" stroke="#263238" stroke-miterlimit="10"/>
<path d="M86.393 139.791C86.393 139.791 87.2066 136.946 90.8649 135.319C94.5233 133.692 96.7593 130.847 95.5476 128.202C94.336 125.556 94.9623 122.934 100.23 121.494C105.498 120.054 106.938 125.357 112.019 124.543C117.1 123.73 118.522 121.699 121.162 122.916C123.802 124.133 122.584 127.599 122.584 127.599C122.584 127.599 125.839 121.704 119.541 114.996C113.242 108.288 97.9943 105.848 87.4232 113.574C76.852 121.3 82.9512 139.387 82.9512 139.387C82.9512 139.387 83.5482 140.195 86.393 139.791Z" fill="#263238" stroke="#263238" stroke-miterlimit="10"/>
<path d="M111.802 143.245L111.193 155.033L106.92 153.406" stroke="#263238" stroke-miterlimit="10"/>
<path d="M108.565 159.312C108.565 159.312 104.503 159.897 102.671 157.076" stroke="#263238" stroke-miterlimit="10"/>
<path d="M104.064 143.122C103.877 144.292 103.227 145.147 102.619 145.047C102.01 144.948 101.67 143.924 101.858 142.759C102.045 141.594 102.695 140.734 103.303 140.833C103.912 140.933 104.252 141.957 104.064 143.122Z" fill="#263238"/>
<path d="M117.088 143.449C116.901 144.62 116.251 145.475 115.642 145.375C115.033 145.276 114.688 144.251 114.881 143.092C115.074 141.933 115.718 141.061 116.327 141.161C116.936 141.26 117.275 142.285 117.088 143.449Z" fill="#263238"/>
<path d="M98.8721 137.813C98.8721 137.813 103.245 134.002 106.768 136.964" stroke="#263238" stroke-width="2" stroke-miterlimit="10" stroke-linecap="round"/>
<path d="M114.243 136.964C114.243 136.964 117.205 134.429 119.745 136.823" stroke="#263238" stroke-width="2" stroke-miterlimit="10" stroke-linecap="round"/>
<path d="M109.59 140.353C109.59 140.353 103.385 139.364 93.7855 140.938C93.7855 140.938 92.9426 147.424 97.4555 150.245C101.968 153.067 106.341 150.386 107.465 148.835C109.736 145.744 109.59 140.353 109.59 140.353Z" stroke="#263238" stroke-width="2" stroke-miterlimit="10"/>
<path d="M123.831 139.463C123.831 139.463 119.394 138.521 112.534 140.002C112.534 140.002 111.949 146.206 115.156 148.899C118.364 151.591 121.513 149.033 122.321 147.553C123.913 144.62 123.831 139.463 123.831 139.463Z" stroke="#263238" stroke-width="2" stroke-miterlimit="10"/>
<path d="M109.59 140.353C109.59 140.353 110.257 138.527 112.517 140.002" stroke="#263238" stroke-width="2" stroke-miterlimit="10"/>
<path d="M84.3442 137.104L93.7916 140.915" stroke="#263238" stroke-width="2" stroke-miterlimit="10"/>
<path d="M87.2067 140.804C87.2067 140.804 85.7844 132.474 81.9387 136.537C78.0931 140.599 81.5349 144.667 83.3611 146.487C85.1873 148.308 87.4584 146.487 87.4584 146.487" fill="white"/>
<path d="M87.2067 140.804C87.2067 140.804 85.7844 132.474 81.9387 136.537C78.0931 140.599 81.5349 144.667 83.3611 146.487C85.1873 148.308 87.4584 146.487 87.4584 146.487" stroke="#263238" stroke-miterlimit="10"/>
<path d="M71.9762 181.871C74.4809 186.518 76.1754 191.557 76.9867 196.773C78.2101 205.15 78.0345 206.724 78.0345 206.724L84.1395 199.402C84.1395 199.402 94.0902 206.379 95.6531 208.644C97.2159 210.909 97.4091 211.612 97.4091 211.612C97.4091 211.612 97.4091 225.221 91.6494 233.421C85.8897 241.622 83.0976 241.616 77.5194 241.616C71.9411 241.616 64.7825 236.377 60.9427 227.656C57.1029 218.934 53.9596 206.215 53.2631 204.968C52.5665 203.721 50.2954 196.773 50.2954 196.773" fill="#E88817"/>
<path d="M71.9762 181.871C74.4809 186.518 76.1753 191.557 76.9867 196.773C78.2101 205.15 78.0345 206.724 78.0345 206.724L84.1395 199.402C84.1395 199.402 94.0902 206.379 95.6531 208.644C97.2159 210.909 97.4091 211.612 97.4091 211.612C97.4091 211.612 97.4091 225.221 91.6494 233.421C85.8897 241.622 83.0976 241.616 77.5194 241.616C71.9411 241.616 64.7825 236.377 60.9427 227.656C57.1029 218.934 53.9596 206.215 53.2631 204.968C52.5665 203.721 50.2954 196.773 50.2954 196.773" stroke="#263238" stroke-miterlimit="10"/>
<path d="M69.6873 216.962C69.0493 217.711 68.5167 218.337 68.0894 218.776" stroke="#263238" stroke-miterlimit="10"/>
<path d="M78.0342 206.724C78.0342 206.724 74.7738 210.821 71.8472 214.363" stroke="#263238" stroke-miterlimit="10"/>
<path d="M78.9063 205.864C82.7009 206.959 86.337 208.543 89.7233 210.576C95.6528 214.088 96.162 217.904 97.918 216.511C99.674 215.118 101.055 210.751 99.3111 208.316C97.5668 205.881 92.1583 200.122 88.3244 198.366C84.4904 196.61 82.9159 197.663 81.6925 200.285C80.4692 202.908 77.683 204.295 78.9063 205.864Z" fill="white" stroke="#263238" stroke-miterlimit="10"/>
<path d="M78.7134 220.146C78.7592 221.808 79.0108 223.457 79.4626 225.057" stroke="#263238" stroke-miterlimit="10"/>
<path d="M78.9064 205.864C78.9064 205.864 78.4908 211.717 78.5786 217.167" stroke="#263238" stroke-miterlimit="10"/>
<path d="M84.8359 208.831C84.8359 208.831 86.0593 215.639 87.4582 218.601" stroke="#263238" stroke-miterlimit="10"/>
<path d="M126.19 225.754C126.19 225.754 120.254 236.225 121.127 237.46C121.999 238.695 141.367 237.46 141.367 237.46L142.409 233.275C142.409 233.275 146.425 234.844 149.568 234.844C152.711 234.844 150.265 233.972 149.217 232.924C148.169 231.876 142.064 228.042 141.537 227.691C141.01 227.34 130.896 224.706 126.19 225.754Z" fill="white" stroke="#263238" stroke-miterlimit="10"/>
<path d="M138.827 224.548C138.827 224.548 141.631 223.705 142.38 225.484C143.129 227.264 142.755 234.85 142.474 236.793C142.193 238.736 140.888 238.66 140.326 236.793C139.764 234.926 138.453 224.829 138.453 224.829L138.827 224.548Z" fill="white" stroke="#263238" stroke-miterlimit="10"/>
<path d="M132.939 225.39C132.939 225.39 137.148 222.493 138.365 223.986C139.583 225.478 140.706 237.261 141.075 238.104C141.444 238.947 139.483 239.597 138.734 238.754C137.985 237.911 135.836 233.614 135.187 232.028C134.537 230.442 132.939 225.39 132.939 225.39Z" fill="white" stroke="#263238" stroke-miterlimit="10"/>
<path d="M124.621 228.569C124.621 228.569 126.962 224.267 128.923 223.055C130.884 221.843 133.021 224.079 134.063 225.765C135.104 227.451 135.93 231.841 136.404 233.989C136.878 236.137 138.16 238.566 137.434 238.847C136.708 239.128 133.787 236.699 132.945 235.394C132.102 234.089 130.047 229.037 130.047 229.037" fill="white"/>
<path d="M124.621 228.569C124.621 228.569 126.962 224.267 128.923 223.055C130.884 221.843 133.021 224.079 134.063 225.765C135.104 227.451 135.93 231.841 136.404 233.989C136.878 236.137 138.16 238.566 137.434 238.847C136.708 239.128 133.787 236.699 132.945 235.394C132.102 234.089 130.047 229.037 130.047 229.037" stroke="#263238" stroke-miterlimit="10"/>
<path d="M128.467 236.699C128.467 236.699 125.101 233.427 123.977 232.397C122.854 231.367 121.267 230.904 120.149 232.122C119.031 233.339 118.464 234.832 120.149 236.418C121.835 238.005 125.839 240.088 128.467 240.088C131.095 240.088 130.615 238.777 129.96 238.034C129.516 237.532 129.015 237.084 128.467 236.699Z" fill="white" stroke="#263238" stroke-miterlimit="10"/>
<path d="M95.1554 245.948L217.812 245.948V242.441L95.1554 242.441V245.948Z" fill="#B8B8B8" stroke="#263238" stroke-linecap="round" stroke-linejoin="round"/>
<path d="M95.1551 245.948H138.212V242.441H95.1551V245.948Z" fill="#263238" stroke="#263238" stroke-linecap="round" stroke-linejoin="round"/>
<path d="M134.742 242.43H214.382L218.983 189.463C219.046 188.881 218.985 188.292 218.803 187.735C218.621 187.179 218.323 186.667 217.928 186.235C217.534 185.803 217.051 185.459 216.514 185.227C215.976 184.996 215.395 184.881 214.81 184.891H144.306C143.063 184.915 141.872 185.393 140.957 186.235C140.042 187.078 139.468 188.226 139.342 189.463L134.742 242.43Z" fill="#263238" stroke="#263238" stroke-linecap="round" stroke-linejoin="round"/>
<path d="M136.269 242.43H215.91L220.511 189.463C220.574 188.881 220.512 188.292 220.33 187.735C220.149 187.179 219.85 186.667 219.456 186.235C219.061 185.803 218.579 185.459 218.041 185.227C217.503 184.996 216.922 184.881 216.337 184.891H145.833C144.59 184.915 143.399 185.393 142.484 186.235C141.57 187.078 140.995 188.226 140.87 189.463L136.269 242.43Z" fill="#B8B8B8" stroke="#263238" stroke-linecap="round" stroke-linejoin="round"/>
<path d="M176.622 211.992C176.759 210.64 177.387 209.386 178.387 208.466C179.387 207.545 180.69 207.024 182.048 206.999C182.688 206.988 183.322 207.113 183.91 207.366C184.497 207.619 185.024 207.994 185.455 208.466C185.887 208.939 186.212 209.497 186.411 210.105C186.61 210.713 186.677 211.356 186.608 211.992C186.471 213.344 185.843 214.599 184.843 215.519C183.843 216.439 182.54 216.96 181.182 216.985C180.542 216.996 179.908 216.871 179.32 216.618C178.733 216.365 178.206 215.99 177.775 215.518C177.343 215.046 177.018 214.487 176.819 213.879C176.62 213.271 176.553 212.628 176.622 211.992Z" fill="#263238" stroke="#263238" stroke-linecap="round" stroke-linejoin="round"/>
<path d="M278.33 245.948H4.03613" stroke="#263238" stroke-miterlimit="10"/>
</svg>
